<?xml version="1.0" encoding="UTF-8" standalone="no"?>
<svg
   xmlns:dc="http://purl.org/dc/elements/1.1/"
   xmlns:cc="http://creativecommons.org/ns#"
   xmlns:rdf="http://www.w3.org/1999/02/22-rdf-syntax-ns#"
   xmlns:svg="http://www.w3.org/2000/svg"
   xmlns="http://www.w3.org/2000/svg"
   xmlns:sodipodi="http://sodipodi.sourceforge.net/DTD/sodipodi-0.dtd"
   xmlns:inkscape="http://www.inkscape.org/namespaces/inkscape"
   width="210mm"
   height="297mm"
   viewBox="0 0 210 297"
   version="1.1"
   id="svg8"
   inkscape:version="1.0.1 (c497b03c, 2020-09-10)"
   sodipodi:docname="Спирали.svg">
  <defs
     id="defs2" />
  <sodipodi:namedview
     id="base"
     pagecolor="#ffffff"
     bordercolor="#666666"
     borderopacity="1.0"
     inkscape:pageopacity="0.0"
     inkscape:pageshadow="2"
     inkscape:zoom="0.58"
     inkscape:cx="400"
     inkscape:cy="560"
     inkscape:document-units="mm"
     inkscape:current-layer="layer1"
     inkscape:document-rotation="0"
     showgrid="false"
     inkscape:window-width="1130"
     inkscape:window-height="817"
     inkscape:window-x="995"
     inkscape:window-y="395"
     inkscape:window-maximized="0" />
  <metadata
     id="metadata5">
    <rdf:RDF>
      <cc:Work
         rdf:about="">
        <dc:format>image/svg+xml</dc:format>
        <dc:type
           rdf:resource="http://purl.org/dc/dcmitype/StillImage" />
        <dc:title></dc:title>
      </cc:Work>
    </rdf:RDF>
  </metadata>
  <g
     inkscape:label="Слой 1"
     inkscape:groupmode="layer"
     id="layer1">
    <path
       sodipodi:type="spiral"
       style="fill:none;fill-rule:evenodd;stroke:#000000;stroke-width:0.264583"
       id="path833"
       sodipodi:cx="43.793102"
       sodipodi:cy="39.6875"
       sodipodi:expansion="1.22"
       sodipodi:revolution="5"
       sodipodi:radius="35.128681"
       sodipodi:argument="-10.040111"
       sodipodi:t0="0.079999998"
       d="m 44.311183,38.160761 c 1.365222,-0.171232 2.287705,1.238679 2.242535,2.463521 -0.07723,2.094207 -2.209814,3.393195 -4.153966,3.169299 -2.865148,-0.32996 -4.581294,-3.273414 -4.144014,-5.98512 0.592584,-3.674793 4.406879,-5.834606 7.926059,-5.160236 4.518242,0.865819 7.142449,5.597393 6.212962,9.958145 -1.149182,5.391469 -6.836546,8.497507 -12.068736,7.298311 C 34.034711,48.462739 30.431611,41.78635 31.912823,35.656068 33.65619,28.440812 41.351039,24.327034 48.403539,26.100943 56.5648,28.153736 61.201623,36.893577 59.125557,44.890387 56.755913,54.018025 46.946847,59.189256 37.985325,56.802515 27.872357,54.109106 22.156185,43.208458 24.86136,33.263238 27.885005,22.147204 39.898027,15.876253 50.844719,18.907 62.980506,22.266965 69.815473,35.411823 66.452534,47.376709 62.750508,60.54802 48.455499,67.955721 35.456613,64.25441 21.23482,60.204888 13.246121,44.742414 17.291606,30.694531 21.693789,15.408019 38.340161,6.8304645 53.451313,11.225594 69.816137,15.985358 78.990045,33.831278 74.240089,50.019324 69.118044,67.475468 50.05763,77.252904 32.779646,72.143197 25.782343,70.073848 19.545343,65.752333 15.107671,59.964835" />
    <path
       sodipodi:type="spiral"
       style="fill:none;fill-rule:evenodd;stroke:#000000;stroke-width:0.264583"
       id="path835"
       sodipodi:cx="124.08046"
       sodipodi:cy="38.318966"
       sodipodi:expansion="4.7800002"
       sodipodi:revolution="3"
       sodipodi:radius="30.290367"
       sodipodi:argument="-30.769413"
       sodipodi:t0="0.33899999"
       d="m 124.20596,38.436661 c -0.0236,0.211909 -0.28745,0.278839 -0.46204,0.241155 -0.50124,-0.10819 -0.63882,-0.727959 -0.51216,-1.154783 0.30735,-1.035631 1.59552,-1.290224 2.49897,-0.963737 1.94054,0.701269 2.37618,3.14184 1.66207,4.866084 -1.39836,3.376394 -5.6992,4.078006 -8.74264,2.683856 -5.54232,-2.538847 -6.61912,-9.690211 -4.1166,-14.743649 4.29831,-8.679774 15.63736,-10.268762 23.62581,-6.058823 11.86997,6.255519 15.0432,21.50388 10.09852,33.259338"
       transform="matrix(1.2918775,0,0,1.2940912,-31.193593,-10.720241)" />
    <path
       sodipodi:type="spiral"
       style="fill:none;fill-rule:evenodd;stroke:#000000;stroke-width:0.264583"
       id="path837"
       sodipodi:cx="151.90733"
       sodipodi:cy="120.43104"
       sodipodi:expansion="0.17"
       sodipodi:revolution="10"
       sodipodi:radius="45.274387"
       sodipodi:argument="-17.992849"
       sodipodi:t0="0"
       d="m 151.90733,120.43104 c 18.90639,21.81511 -5.85698,27.38054 -18.27451,15.83788 -10.47877,-9.74048 -9.56821,-26.71358 0.45597,-36.397781 11.14201,-10.764129 29.40942,-9.7293 39.8456,1.469821 11.15897,11.97474 9.99945,31.25766 -1.98015,42.22117 -12.58844,11.5207 -32.68793,10.26625 -44.07232,-2.30911 -11.84242,-13.08133 -10.51317,-33.865 2.54796,-45.603711 13.49637,-12.129896 34.87065,-10.739273 46.91719,2.734002 12.38925,13.856589 10.94669,35.751859 -2.8858,48.071559 -14.17585,12.62551 -36.53822,11.13791 -49.10409,-3.01374 -12.84258,-14.46327 -11.31521,-37.24971 3.12421,-50.040082 14.72511,-13.043446 37.90043,-11.480438 50.89746,3.221387 13.23052,14.965945 11.6352,38.500785 -3.30812,51.689495 -15.18916,13.40568 -39.05863,11.78079 -52.42627,-3.38645 -13.57046,-15.39737 -11.91829,-39.58009 3.45789,-53.11563 15.59266,-13.726108 40.07001,-12.048599 53.76384,3.523561 13.87366,15.776659 12.17248,40.532329 -3.58435,54.375959 -15.95073,14.01398 -40.97024,12.29058 -54.95614,-3.64096 -14.14781,-16.11597 -12.40346,-41.38643 3.69393,-55.507853 16.27332,-14.275749 41.78314,-12.511588 56.034,3.743738 14.39836,16.423565 12.61538,42.162265 -3.79074,56.537065 -16.56738,14.51609 -42.52543,12.7152 -57.01916,-3.83525 -14.62936,-16.70534 -12.81136,-42.87408 3.87753,-57.482135 16.83795,-14.738524 43.2094,-12.904153 57.92758,3.917809 14.84388,16.965636 12.99381,43.532476 -3.95627,58.356886 -17.08879,14.94573 -43.84426,13.08057 -58.77131,-3.99308 -15.0443,-17.20776 -13.16462,-44.14557 4.0284,-59.171933 17.32284,-15.139824 44.43716,-13.246142 59.55972,4.062328 15.2325,17.434305 13.32529,44.719705 -4.09499,59.935565 -17.54239,15.32251 -44.9938,13.40223 -60.30023,-4.12648 -15.41001,-17.64732 -13.47708,-45.25996 4.15687,-60.654439 17.74929,-15.495158 45.51871,-13.549947 60.99883,4.186272 15.57808,17.848467 13.62096,45.770457 -4.21473,61.333967 -17.94502,15.65891 -46.01562,13.69022 -61.66039,-4.2423 -15.73776,-18.03911 -13.75782,-46.25458 4.26905,-61.978604 18.13086,-15.814723 46.48766,-13.823835 62.28903,4.295043 15.8899,18.220401 13.88835,46.715161 -4.32031,62.592071 -18.30784,15.96339 -46.93737,13.95144 -62.88811,-4.34489 -16.03526,-18.39328 -14.01317,-47.15457 4.36882,-63.177501 18.47683,-16.105597 47.367,-14.073601 63.46056,4.392149 16.17447,18.558572 14.1328,47.574862 -4.4149,63.737592" />
    <path
       sodipodi:type="spiral"
       style="fill:none;fill-rule:evenodd;stroke:#000000;stroke-width:0.264583"
       id="path839"
       sodipodi:cx="110.8513"
       sodipodi:cy="246.79237"
       sodipodi:expansion="0.75"
       sodipodi:revolution="3"
       sodipodi:radius="33.037502"
       sodipodi:argument="-62.213207"
       sodipodi:t0="0"
       d="m 110.8513,246.79237 c 2.78996,1.98608 -0.7305,4.56653 -2.97165,4.17446 -4.12822,-0.72219 -5.44136,-5.72902 -4.04892,-9.17217 2.17276,-5.37271 8.88025,-6.95773 13.79449,-4.51799 6.56705,3.2603 8.42409,11.71156 5.03323,17.92082 -4.21019,7.70961 -14.33559,9.82842 -21.74348,5.55302 -8.805793,-5.08218 -11.177336,-16.81052 -6.067113,-25.35046 5.901413,-9.86214 19.170703,-12.47859 28.792023,-6.57253 10.88428,6.68133 13.73881,21.43848 7.0686,32.10052 -7.43016,11.87678 -23.62945,14.96334 -35.298361,7.55545 -12.843287,-8.15343 -16.156507,-25.75504 -8.033518,-38.40197 8.855098,-13.78678 27.823949,-17.32181 41.423829,-8.50331 14.70967,9.53812 18.46213,29.84297 8.96535,44.37368" />
    <path
       sodipodi:type="spiral"
       style="fill:#459c91;fill-opacity:1;fill-rule:evenodd;stroke:none;stroke-width:0.264583"
       id="path841"
       sodipodi:cx="48.811062"
       sodipodi:cy="156.46912"
       sodipodi:expansion="0.75"
       sodipodi:revolution="5"
       sodipodi:radius="43.228748"
       sodipodi:argument="-18.049234"
       sodipodi:t0="0"
       d="m 48.811062,156.46912 c 2.127671,2.19214 -1.376897,3.88869 -3.279975,3.18351 -3.50549,-1.29896 -3.850614,-5.90333 -2.074031,-8.69975 2.772191,-4.36356 8.912446,-4.67313 12.830732,-1.7406 5.23613,3.91884 5.503312,11.63283 1.527602,16.53401 -4.936364,6.08545 -14.161352,6.31248 -19.971585,1.36754 -6.90665,-5.87807 -7.097062,-16.55013 -1.237237,-23.21902 6.767078,-7.7014 18.83055,-7.85833 26.319922,-1.12599 8.472476,7.61608 8.598483,21.0233 1.027987,29.30257 -8.433016,9.22256 -23.142897,9.31971 -32.186665,0.93973 -9.953946,-9.22334 -10.023942,-25.20008 -0.858947,-34.98666 9.991016,-10.66862 27.203041,-10.71287 37.713591,-0.78408 11.368244,10.739 11.387932,29.15822 0.714036,40.37611 -11.46965,12.05421 -31.070808,12.05035 -42.981205,0.64798 -12.727707,-12.18483 -12.701183,-32.94506 -0.58528,-45.53458 12.886055,-13.38977 34.784529,-13.34135 48.040995,-0.52547 14.041292,13.57463 13.971646,36.59222 0.468147,50.5045 -14.251611,14.68303 -38.370671,14.59277 -52.92851,0.41301 C 6.0349469,168.20399 6.1452892,142.9998 20.990832,127.8059 c 15.574391,-15.93985 41.8485,-15.80992 57.669638,-0.30832 16.556059,16.22168 16.406982,43.5515 0.258378,59.99162" />
  </g>
</svg>
