<?xml version="1.0" encoding="UTF-8" standalone="no"?>
<svg
   xmlns:dc="http://purl.org/dc/elements/1.1/"
   xmlns:cc="http://creativecommons.org/ns#"
   xmlns:rdf="http://www.w3.org/1999/02/22-rdf-syntax-ns#"
   xmlns:svg="http://www.w3.org/2000/svg"
   xmlns="http://www.w3.org/2000/svg"
   xmlns:sodipodi="http://sodipodi.sourceforge.net/DTD/sodipodi-0.dtd"
   xmlns:inkscape="http://www.inkscape.org/namespaces/inkscape"
   width="210mm"
   height="297mm"
   viewBox="0 0 210 297"
   version="1.1"
   id="svg893"
   inkscape:version="1.0.1 (c497b03c, 2020-09-10)"
   sodipodi:docname="Звезды и многоугольники.svg">
  <defs
     id="defs887" />
  <sodipodi:namedview
     id="base"
     pagecolor="#ffffff"
     bordercolor="#666666"
     borderopacity="1.0"
     inkscape:pageopacity="0.0"
     inkscape:pageshadow="2"
     inkscape:zoom="0.54"
     inkscape:cx="411.11111"
     inkscape:cy="608.14815"
     inkscape:document-units="mm"
     inkscape:current-layer="layer1"
     inkscape:document-rotation="0"
     showgrid="false"
     inkscape:window-width="1039"
     inkscape:window-height="894"
     inkscape:window-x="807"
     inkscape:window-y="445"
     inkscape:window-maximized="0" />
  <metadata
     id="metadata890">
    <rdf:RDF>
      <cc:Work
         rdf:about="">
        <dc:format>image/svg+xml</dc:format>
        <dc:type
           rdf:resource="http://purl.org/dc/dcmitype/StillImage" />
        <dc:title></dc:title>
      </cc:Work>
    </rdf:RDF>
  </metadata>
  <g
     inkscape:label="Слой 1"
     inkscape:groupmode="layer"
     id="layer1">
    <path
       sodipodi:type="star"
       style="fill:#459c91;stroke-width:1;paint-order:stroke fill markers"
       id="path1456"
       sodipodi:sides="25"
       sodipodi:cx="39.197533"
       sodipodi:cy="38.21759"
       sodipodi:r1="29.803659"
       sodipodi:r2="15.497903"
       sodipodi:arg1="0.80864979"
       sodipodi:arg2="0.9343135"
       inkscape:flatsided="false"
       inkscape:rounded="0"
       inkscape:randomized="0"
       d="M 59.776237,59.776233 48.409031,50.680868 53.768302,64.216644 45.020144,52.580118 46.844833,67.023439 41.265401,53.576917 39.440856,68.020256 37.380725,53.608633 32.02159,67.144463 33.610207,52.673274 25.053215,64.451088 30.190761,50.829611 18.973579,60.109365 27.337243,48.193488 14.164689,54.392102 25.228951,44.930543 10.928704,47.658535 23.998357,41.245798 9.4689537,40.331758 23.722782,37.37078 9.8771594,32.872141 24.419543,33.54897 12.127672,25.748398 26.044859,30.020507 16.079084,19.40814 28.496607,27.007096 21.483112,14.249749 31.620732,24.698082 28.000203,10.597345 35.220936,23.238549 35.220864,8.6804236 39.071005,22.720204 42.691393,8.6194306 42.929023,23.175617 49.94239,10.418199 46.552578,24.576172 56.518248,13.963705 49.713989,26.833867 62.005781,19.033172 52.214612,29.806844 66.060189,25.308067 53.897324,33.308299 68.426717,32.394114 54.656394,37.118223 68.956668,39.846072 54.444127,40.997224 67.616744,47.195706 53.27386,44.701571 64.491135,53.981213 51.219126,47.998505 Z" />
    <path
       sodipodi:type="star"
       style="fill:#459c91;stroke-width:1;paint-order:stroke fill markers"
       id="path1460"
       sodipodi:sides="5"
       sodipodi:cx="147.97068"
       sodipodi:cy="37.727624"
       sodipodi:r1="26.412926"
       sodipodi:r2="11.885817"
       sodipodi:arg1="0.7066142"
       sodipodi:arg2="1.3349327"
       inkscape:flatsided="false"
       inkscape:rounded="0.8"
       inkscape:randomized="0"
       d="m 168.05941,54.876542 c -9.44914,11.068987 -3.16053,-8.993123 -17.31123,-5.592186 -14.1507,3.400936 0.56784,18.414252 -12.87934,12.848096 -13.44717,-5.566157 7.57631,-5.784866 -0.031,-18.192033 -7.60728,-12.407167 -17.33752,6.23036 -16.1992,-8.278701 1.13833,-14.509062 7.84295,5.417879 17.29208,-5.651108 9.44914,-11.068988 -11.28301,-14.563678 2.86769,-17.964615 14.1507,-3.4009371 -2.72911,9.133298 10.71807,14.699455 13.44717,5.566157 10.36423,-15.231208 17.97152,-2.824041 7.60729,12.407167 -9.52962,0.22681 -10.66794,14.735871 -1.13833,14.509062 17.68846,5.150274 8.23933,16.219262 z"
       inkscape:transform-center-x="-0.025644007"
       inkscape:transform-center-y="-0.078529981" />
    <path
       sodipodi:type="star"
       style="fill:#459c91;stroke-width:1;paint-order:stroke fill markers"
       id="path1456-7"
       sodipodi:sides="25"
       sodipodi:cx="50.941513"
       sodipodi:cy="107.69096"
       sodipodi:r1="24.737038"
       sodipodi:r2="29.803659"
       sodipodi:arg1="0.80864979"
       sodipodi:arg2="0.9343135"
       inkscape:flatsided="false"
       inkscape:rounded="0"
       inkscape:randomized="0"
       d="m 68.021838,125.58464 0.634095,6.07417 -5.620681,-2.38863 -0.89641,6.04103 -4.850069,-3.71139 -2.370591,5.62831 -3.774711,-4.80095 -3.695818,4.86194 -2.462173,-5.58885 -4.788824,3.79009 -0.994927,-6.02559 -5.580931,2.48008 0.534833,-6.08371 -6.022367,1.01424 2.030988,-5.75957 -6.085396,-0.51532 3.399529,-5.07354 -5.766057,-2.01251 4.554464,-4.06872 -5.084415,-3.38324 5.423226,-2.80824 -4.083301,-4.541392 5.951226,-1.371314 -2.825617,-5.414193 6.105289,0.151779 -1.390391,-5.946799 5.875735,1.665334 0.132199,-6.105745 5.276987,3.07425 1.646483,-5.881045 4.346665,4.29 3.057312,-5.286817 3.143227,5.236193 4.276039,-4.3604 1.742288,5.853378 5.226087,-3.160003 0.231876,6.102773 5.84776,-1.76105 -1.293107,5.968707 6.101997,-0.251444 -2.736839,5.459607 5.972824,1.27396 -4.008605,4.607461 5.468355,2.71932 -5.028496,3.4658 4.62029,3.99381 -5.732428,2.10639 3.481916,5.01736 -6.076171,0.61461 2.124759,5.72564 z" />
    <path
       sodipodi:type="star"
       style="fill:#459c91;stroke-width:1;paint-order:stroke fill markers"
       id="path1456-7-6"
       sodipodi:sides="25"
       sodipodi:cx="143.57623"
       sodipodi:cy="201.96954"
       sodipodi:r1="27.419367"
       sodipodi:r2="29.803659"
       sodipodi:arg1="0.80864979"
       sodipodi:arg2="0.9343135"
       inkscape:flatsided="false"
       inkscape:rounded="0.62"
       inkscape:randomized="0"
       d="m 162.50864,221.80349 c -1.93277,1.84492 0.93077,2.54577 -1.21799,4.1339 -2.14875,1.58812 -1.97845,-1.35501 -4.30931,-0.0487 -2.33085,1.30629 0.26842,2.69726 -2.20778,3.70112 -2.4762,1.00386 -1.57932,-1.80446 -4.16181,-1.11887 -2.58249,0.6856 -0.4108,2.67928 -3.05885,3.03579 -2.64805,0.35651 -1.08095,-2.14053 -3.75281,-2.11871 -2.67185,0.0218 -1.0642,2.49293 -3.71772,2.1797 -2.65352,-0.31323 -0.51467,-2.3421 -3.108,-2.98543 -2.59334,-0.64334 -1.65074,2.14996 -4.14299,1.18666 -2.49226,-0.96329 0.084,-2.39651 -2.26792,-3.66457 -2.35187,-1.26806 -2.13354,1.6719 -4.30794,0.11907 -2.1744,-1.55283 0.67731,-2.30034 -1.28532,-4.11345 -1.96264,-1.81311 -2.4823,1.08878 -4.20222,-0.95602 -1.71991,-2.04479 1.22811,-2.05963 -0.22196,-4.30387 -1.45007,-2.24423 -2.67508,0.43726 -3.83244,-1.97102 -1.15736,-2.40828 1.70173,-1.68951 0.85533,-4.22386 -0.8464,-2.53434 -2.69978,-0.24175 -3.22186,-2.86219 -0.52209,-2.62044 2.06843,-1.21323 1.87889,-3.87844 -0.18954,-2.66522 -2.55484,-0.90557 -2.40884,-3.57352 0.14599,-2.66795 2.30516,-0.66071 2.78439,-3.28933 0.47923,-2.62862 -2.24937,-1.51248 -1.44447,-4.0603 0.8049,-2.54783 2.39706,-0.0667 3.51494,-2.49354 1.11788,-2.42686 -1.80256,-2.02436 -0.38933,-4.29197 1.41323,-2.26761 2.33833,0.53153 4.02463,-1.54107 1.6863,-2.07261 -1.2425,-2.40904 0.69027,-4.25395 1.93276,-1.84491 2.13268,1.09635 4.28144,-0.49177 2.14875,-1.58813 -0.60436,-2.64235 1.72649,-3.94864 2.33086,-1.30629 1.79303,1.59229 4.26923,0.58843 2.4762,-1.00386 0.0718,-2.70963 2.65424,-3.39523 2.58249,-0.68559 1.34071,1.98817 3.98877,1.63166 2.64805,-0.35651 0.74335,-2.60666 3.41521,-2.62847 2.67185,-0.0218 0.80415,2.25913 3.45767,2.57236 2.65352,0.31323 1.36826,-2.3399 3.9616,-1.69657 2.59333,0.64334 0.21706,2.38814 2.70932,3.35143 2.49226,0.9633 1.90718,-1.92611 4.25905,-0.65805 2.35187,1.26806 -0.38366,2.36709 1.79074,3.91992 2.1744,1.55283 2.32627,-1.39131 4.2889,0.4218 1.96263,1.81311 -0.96028,2.19731 0.75963,4.24211 1.71991,2.04479 2.59919,-0.76908 4.04926,1.47515 1.45007,2.24423 -1.47656,1.88947 -0.3192,4.29775 1.15736,2.40828 2.70879,-0.0985 3.55518,2.43582 0.8464,2.53434 -1.90006,1.4629 -1.37798,4.08335 0.52209,2.62044 2.64819,0.57821 2.83773,3.24343 0.18954,2.66521 -2.20418,0.94441 -2.35017,3.61237 -0.146,2.66795 2.42119,1.21863 1.94197,3.84724 -0.47923,2.62862 -2.3698,0.36659 -3.1747,2.91442 -0.8049,2.54783 2.04207,1.78247 0.92418,4.20933 -1.11788,2.42685 -2.38651,-0.23427 -3.79974,2.03334 -1.41324,2.26761 1.53463,2.23431 -0.15167,4.30691 -1.68629,2.07261 -2.25327,-0.82041 -4.18604,1.0245 z"
       transform="matrix(1.4034709,0,0,1,-45.919268,0)" />
    <path
       sodipodi:type="star"
       style="fill:none;stroke:#459c91;stroke-width:1;stroke-opacity:1;paint-order:stroke fill markers"
       id="path1456-7-2"
       sodipodi:sides="27"
       sodipodi:cx="53.911884"
       sodipodi:cy="202.4595"
       sodipodi:r1="0.29803658"
       sodipodi:r2="29.803659"
       sodipodi:arg1="0.80864979"
       sodipodi:arg2="0.92500507"
       inkscape:flatsided="false"
       inkscape:rounded="-4.91"
       inkscape:randomized="0"
       d="M 54.117671,202.67509 C 158.91931,102.63717 -43.85806,313.45619 71.848637,226.26142 187.55533,139.06664 -70.984618,275.8892 54.062407,202.71674 179.10943,129.54427 -66.820256,287.91696 65.876051,229.75633 198.57236,171.5957 -84.552071,245.10678 53.999027,202.74452 192.55013,160.38225 -83.273752,257.77069 59.258473,231.77967 201.7907,205.78864 -90.654897,212.02523 53.93095,202.75693 198.5168,193.48863 -92.331534,224.64259 52.35266,232.22235 197.03685,239.80211 -88.964089,178.42799 53.861845,202.75331 196.68778,227.07862 -93.505295,190.31859 45.530904,231.0605 184.5671,271.80242 -79.570801,146.1263 53.795437,202.73385 187.16168,259.3414 -86.731758,156.64911 39.16097,228.35677 165.0537,300.06444 -62.981427,116.86154 53.735308,202.6996 170.45204,288.53766 -72.376087,125.44928 33.586261,224.25691 139.54861,323.06455 -40.090305,92.211393 53.684697,202.65241 147.4597,313.09342 -51.212197,98.401087 29.107312,218.98195 109.42682,339.56282 -12.131499,73.504748 53.646334,202.59481 119.42417,331.68488 -24.381042,76.962713 25.965583,212.81626 76.312209,348.6698 19.387722,61.750088 53.622287,202.52993 87.856853,343.30977 6.6709057,62.289904 24.330447,206.09223 41.989989,349.89456 52.768149,57.581109 53.613853,202.46124 54.459556,347.34138 40.269627,55.173674 24.290054,199.17236 8.3104821,343.17105 86.210236,61.222561 53.621485,202.39247 21.032734,343.56237 74.603805,55.997662 25.846582,192.4297 -22.910642,328.86174 117.91111,72.478133 53.644773,202.3273 -10.621564,332.17647 107.82248,64.717445 28.916117,186.22775 -49.990243,307.73806 146.16177,90.741035 53.682461,202.26926 -38.796848,313.79749 138.13481,80.862938 33.33318,180.90086 -71.468454,280.93878 169.43921,115.02671 53.732517,202.22148 -61.97418,289.41626 163.90667,103.56373 38.859647,176.7362 c -125.047025,73.17247 147.628903,-32.71029 14.932596,25.45033 -132.696307,58.16063 129.956437,-70.5905 -8.594659,-28.22824 -138.551099,42.36227 151.193056,2.21698 8.660834,28.20801 -142.532224,25.99103 142.732742,-38.71771 -1.853107,-29.44941 -144.585847,9.2683 146.606359,37.02474 1.922166,29.44498 -144.684194,-7.57975 147.814283,-4.75763 4.988344,-29.08295 C -83.910113,148.7536 193.03189,242.91541 53.995694,202.17349 -85.040506,161.43158 198.92281,231.63242 65.556569,175.02486 -67.80967,118.41731 179.95212,273.9082 54.059393,202.20053 -71.833335,130.49286 188.28628,264.28788 71.569548,178.44982 -45.147187,92.611758 160.07749,301.04917 54.115141,202.24153 -51.847207,103.43389 170.4056,293.61015 76.630598,183.16914 -17.144403,72.728124 134.47944,322.87514 54.15993,202.29428 -26.15958,81.713414 146.24471,318.01847 80.466876,188.92841 14.689043,59.838343 104.53797,338.20948 54.191347,202.35594 3.8447216,66.50239 117.10613,336.19698 82.871568,195.41714 48.637003,54.637305 71.867241,346.2255 54.207699,202.42318 36.548156,58.620849 84.560739,347.16567 83.715036,202.28553 82.869333,57.4054 38.228531,346.49106 54.208103,202.49237 70.187674,58.493688 50.363057,350.33321 82.951808,209.1633 115.54056,67.993399 5.4353144,338.99184 54.192537,202.5598 102.94976,66.12776 16.356693,345.52884 80.623031,215.67967 144.88937,85.830501 -24.744518,324.13213 54.161842,202.62182 133.0682,81.111513 -15.625061,333.01156 76.854248,221.48333 169.33356,109.9551 -50.683963,302.71301 54.117671,202.67509 Z" />
    <path
       sodipodi:type="star"
       style="fill:#459c91;fill-opacity:1;stroke:none;stroke-width:1;stroke-opacity:1;paint-order:stroke fill markers"
       id="path1524"
       sodipodi:sides="8"
       sodipodi:cx="150.42053"
       sodipodi:cy="114.65278"
       sodipodi:r1="30.614248"
       sodipodi:r2="28.283878"
       sodipodi:arg1="0.69473828"
       sodipodi:arg2="1.0874374"
       inkscape:flatsided="true"
       inkscape:rounded="-0.12"
       inkscape:randomized="0"
       d="m 173.93905,134.25154 c 1.80003,-2.16003 -23.54702,11.14432 -20.74683,10.88976 2.80018,-0.25456 -24.53049,-8.77003 -22.37045,-6.97 2.16003,1.80002 -11.14432,-23.54703 -10.88976,-20.74684 0.25456,2.80019 8.77003,-24.530481 6.97001,-22.370446 -1.80003,2.160036 23.54702,-11.14432 20.74683,-10.889757 -2.80019,0.254562 24.53048,8.770034 22.37045,6.970005 -2.16004,-1.80003 11.14432,23.547018 10.88975,20.746828 -0.25456,-2.80018 -8.77003,24.53049 -6.97,22.37045 z"
       inkscape:transform-center-x="1.4629629e-06"
       inkscape:transform-center-y="-1.2407407e-06" />
  </g>
</svg>
