<?xml version="1.0" encoding="utf-8"?>
<!-- Generator: Adobe Illustrator 24.0.0, SVG Export Plug-In . SVG Version: 6.00 Build 0)  -->
<svg version="1.1"
	 id="svg8" xmlns:cc="http://creativecommons.org/ns#" xmlns:dc="http://purl.org/dc/elements/1.1/" xmlns:inkscape="http://www.inkscape.org/namespaces/inkscape" xmlns:rdf="http://www.w3.org/1999/02/22-rdf-syntax-ns#" xmlns:sodipodi="http://sodipodi.sourceforge.net/DTD/sodipodi-0.dtd" xmlns:svg="http://www.w3.org/2000/svg"
	 xmlns="http://www.w3.org/2000/svg" xmlns:xlink="http://www.w3.org/1999/xlink" x="0px" y="0px" viewBox="0 0 595.3 841.9"
	 style="enable-background:new 0 0 595.3 841.9;" xml:space="preserve">
<style type="text/css">
	.st0{fill:none;stroke:#000000;stroke-width:2.8346;stroke-miterlimit:11.3386;}
</style>
<sodipodi:namedview  bordercolor="#666666" borderopacity="1.0" id="base" inkscape:current-layer="layer1" inkscape:cx="400" inkscape:cy="560" inkscape:document-rotation="0" inkscape:document-units="mm" inkscape:pageopacity="0.0" inkscape:pageshadow="2" inkscape:window-height="925" inkscape:window-maximized="0" inkscape:window-width="1185" inkscape:window-x="719" inkscape:window-y="332" inkscape:zoom="0.35" pagecolor="#ffffff" showgrid="false">
	</sodipodi:namedview>
<g id="layer1" inkscape:groupmode="layer" inkscape:label="Слой 1">
	
		<path id="path837" sodipodi:arc-type="slice" sodipodi:cx="55.940475" sodipodi:cy="56.69643" sodipodi:end="4.1887902" sodipodi:rx="36.285713" sodipodi:ry="26.458332" sodipodi:start="0" sodipodi:type="arc" class="st0" d="
		M550.5,500.5c0,36.4-35.8,67.5-85,73.9c-49.2,6.3-97.4-14-114.5-48.2c-17.1-34.2,2-72.4,45.2-90.6l51.4,65H550.5z"/>
	
		<path id="path839" sodipodi:arc-type="arc" sodipodi:cx="76.351196" sodipodi:cy="139.85118" sodipodi:end="4.1887902" sodipodi:open="true" sodipodi:rx="45.357143" sodipodi:ry="34.773811" sodipodi:start="0" sodipodi:type="arc" class="st0" d="
		M557.2,698c0,30.7-38.2,56.9-90.5,62.3c-52.4,5.3-103.8-11.8-122-40.6c-18.2-28.8,2.1-61,48.2-76.4"/>
	<circle class="st0" cx="427.7" cy="281.7" r="83"/>
	<ellipse class="st0" cx="417.1" cy="103.3" rx="113.5" ry="55"/>
	<rect x="69.6" y="120.4" class="st0" width="195" height="103"/>
	<path class="st0" d="M258.5,390.9H86.8c-15.5,0-28.2-12.6-28.2-28.2v-60.7c0-15.5,12.6-28.2,28.2-28.2h171.7
		c15.5,0,28.2,12.6,28.2,28.2v60.7C286.7,378.3,274.1,390.9,258.5,390.9z"/>
	<path class="st0" d="M292.6,531.4H58.7v-111h194.4c21.8,0,39.5,17.7,39.5,39.5V531.4z"/>
	<path class="st0" d="M297.6,721.4H114c-30.5,0-55.3-24.8-55.3-55.3v-13.8c0-34.2,27.7-61.9,61.9-61.9h177V721.4z"/>
</g>
</svg>
