<?xml version="1.0" encoding="utf-8"?>
<!-- Generator: Adobe Adobe Illustrator 24.2.0, SVG Export Plug-In . SVG Version: 6.00 Build 0)  -->
<svg version="1.1" id="Layer_1" xmlns="http://www.w3.org/2000/svg" xmlns:xlink="http://www.w3.org/1999/xlink" x="0px" y="0px"
	 viewBox="0 0 1000 1000" style="enable-background:new 0 0 1000 1000;" xml:space="preserve">
<style type="text/css">
	.st0{fill:#A0C9DE;stroke:#000000;stroke-width:2;stroke-miterlimit:10;}
	.st1{fill:none;stroke:#000000;stroke-width:2;stroke-miterlimit:10;}
	.st2{fill:#FAE79B;stroke:#000000;stroke-width:2;stroke-miterlimit:10;}
	.st3{fill:#FC2808;stroke:#000000;stroke-width:0.3542;stroke-miterlimit:10;}
	.st4{fill:#4908FC;stroke:#000000;stroke-width:0.3542;stroke-miterlimit:10;}
	.st5{fill:#08FC1C;stroke:#000000;stroke-width:0.3542;stroke-miterlimit:10;}
	.st6{fill:#08E8FC;stroke:#000000;stroke-width:0.3542;stroke-miterlimit:10;}
	.st7{fill:#FC08CB;stroke:#000000;stroke-width:0.3542;stroke-miterlimit:10;}
	.st8{fill:#C76B98;stroke:#000000;stroke-width:2;stroke-miterlimit:10;}
	.st9{fill:#FAD59B;stroke:#000000;stroke-width:2;stroke-miterlimit:10;}
	.st10{fill:#919190;stroke:#000000;stroke-width:2;stroke-miterlimit:10;}
	.st11{fill:#73C76B;stroke:#000000;stroke-width:2;stroke-miterlimit:10;}
	.st12{fill:#BDBDBD;stroke:#000000;stroke-width:2;stroke-miterlimit:10;}
	.st13{fill:#8ED4F5;stroke:#000000;stroke-width:2;stroke-miterlimit:10;}
	.st14{fill:#F5A18E;stroke:#000000;stroke-width:2;stroke-miterlimit:10;}
	.st15{fill:#C76B6B;stroke:#000000;stroke-width:2;stroke-miterlimit:10;}
	.st16{fill:#3180C4;stroke:#000000;stroke-width:2;stroke-miterlimit:10;}
	.st17{fill:#FAFF61;stroke:#000000;stroke-width:2.9038;stroke-miterlimit:10;}
	.st18{fill:#BD614A;stroke:#000000;stroke-width:1.9157;stroke-miterlimit:10;}
	.st19{fill:#FAFF61;stroke:#000000;stroke-width:1.9586;stroke-miterlimit:10;}
	.st20{fill:#3180C4;stroke:#000000;stroke-width:1.6162;stroke-miterlimit:10;}
	.st21{fill:#9DABAB;stroke:#000000;stroke-width:2;stroke-miterlimit:10;}
	.st22{fill:#C2FFFF;stroke:#000000;stroke-width:2;stroke-miterlimit:10;}
	.st23{fill:#FFFFFF;}
	.st24{fill:#A5D6D6;stroke:#000000;stroke-width:2;stroke-miterlimit:10;}
	.st25{fill:#FFCE6B;stroke:#000000;stroke-width:2;stroke-miterlimit:10;}
	.st26{fill:#5983BA;stroke:#000000;stroke-width:2;stroke-miterlimit:10;}
	.st27{fill:#AD2843;stroke:#000000;stroke-width:2;stroke-miterlimit:10;}
</style>
<g>
	<path class="st0" d="M65.92,103.55l22.46-52.22c2.94-6.84,10.86-9.99,17.7-7.05l258.76,111.27c6.84,2.94,9.99,10.86,7.05,17.7
		l-22.46,52.22c-2.94,6.84-10.86,9.99-17.7,7.05L72.97,121.25C66.13,118.31,62.98,110.39,65.92,103.55z"/>
	<polyline class="st1" points="125.75,52.74 110.01,89.77 109.94,89.93 	"/>
	<polyline class="st1" points="181.5,76.71 165.76,113.74 165.69,113.9 	"/>
	<polyline class="st1" points="237.02,100.59 221.28,137.62 221.21,137.78 	"/>
	<polyline class="st1" points="181.5,76.71 165.52,113.64 165.46,113.8 	"/>
	<polyline class="st1" points="154.9,65.27 145.03,88.01 144.99,88.1 	"/>
	<polyline class="st1" points="209.37,88.7 199.51,111.43 199.47,111.53 	"/>
	<polyline class="st1" points="265.32,112.76 255.46,135.49 255.41,135.59 	"/>
	<polyline class="st1" points="320.1,136.31 310.23,159.04 310.19,159.14 	"/>
	<polyline class="st1" points="292.59,124.48 276.85,161.52 276.79,161.68 	"/>
	<polyline class="st1" points="348.29,148.43 332.55,185.47 332.49,185.63 	"/>
</g>
<g>
	<path class="st2" d="M734.83,857.03c-9.55-22.56-16.12-46.19-28.48-67.68c-12.35-21.48-31.83-41.27-58-48.31
		c-26.17-7.04-61.05,0.05-73.86,32.53c-2.09,5.31-5.38,10.08-5.1,15.69c0.28,5.61,1.25,11.44-1.02,16.69
		c-2.27,5.25-9.36,9.43-15.05,6.89c-19.64-8.75-45.44-1.59-58.85,13.77c-13.41,15.36-15.42,36.88-8.82,55.36
		c6.6,18.48,20.86,34.21,37.24,47.15c16.38,12.95,34.99,23.47,52.88,34.77c36.12,22.81,89.18,22.12,124.52-1.62
		C735.62,938.55,750.34,893.69,734.83,857.03z M601.47,859.12c-0.65,2.29-1.82,4.53-3,6.61c-1.18,2.09-2.82,3.96-4.71,5.63
		c-0.17,0.17-0.33,0.34-0.5,0.51c-1.7,1.65-2.38,2.44-5.6,3.98c-0.67,0.32-1.58,0.71-2.53,1.09c-4.05,1.75-8.6,2.49-13.07,2.58
		c-9.78,0.21-17.79-4.42-22.88-11.42c-3-4.12-4.64-9.07-4.26-13.99c0.03-0.34,0.06-0.69,0.09-1.04c0.11-1.86,0.46-4.57,1.04-6.31
		c1.38-4.14,3.96-7.59,7.23-10.77c3.6-3.51,8.63-5.87,13.75-7.12c14.54-3.55,30.87,4.27,34.3,17.4
		C602.5,850.79,602.73,854.65,601.47,859.12z"/>
	<ellipse class="st3" cx="632.01" cy="793.78" rx="32.4" ry="28.5"/>
	<ellipse class="st4" cx="683.32" cy="863.57" rx="27.94" ry="27.13"/>
	<ellipse class="st5" cx="666.23" cy="930.24" rx="31.8" ry="27.97"/>
	<ellipse class="st6" cx="584.59" cy="916.66" rx="29.51" ry="25.96"/>
	<ellipse class="st7" cx="517.27" cy="867.55" rx="17.95" ry="15.79"/>
</g>
<g>
	<g>
		<path class="st8" d="M351.47,608.22c-11.2,3.14-23.03-5.01-28.08-15.11s-5.24-21.69-6.38-32.84
			c-1.14-11.14-3.74-22.98-12.16-30.75c9.26,9.37,23.13,12.71,36.08,16.25c12.94,3.54,26.72,8.41,33.91,19.33
			c5.16,7.83,5.96,18.14,2.07,26.59C373,600.16,364.12,604.67,351.47,608.22z"/>
		<path class="st9" d="M357.47,621.21c34.27,44.34,70.89,87.02,109.66,127.81c12.63,13.29,26.71,27.06,45.06,30.71
			c4.18,0.83,9.97,0.07,10.6-3.98c0.2-1.28-0.24-2.58-0.68-3.8c-8.09-22.29-21.32-42.86-38.91-62.1
			c-15.51-16.58-31.03-33.17-45.51-50.59c-16.71-20.11-33.53-39.45-47.26-61.53"/>
		<path class="st10" d="M345.93,608.92c4.48,5.45,8.97,10.9,13.45,16.35c0.31-1.35,1.62-2.22,2.83-2.97
			c11.16-6.9,21.78-14.61,31.74-23.04c-4.26-6.31-9.09-12.27-14.42-17.78C368.86,591.28,358.18,601.11,345.93,608.92z"/>
	</g>
	<g>
		<path class="st11" d="M467.65,594.45c8.23-4.27,12.01-15.43,10.78-24.04c-1.23-8.61-6.08-15.42-10.17-22.5
			c-4.08-7.08-7.56-15.35-5.71-24.44c-1.67,10.47-8.77,19.96-15.21,29.05c-6.44,9.09-12.82,19.42-12.56,29.66
			c0.19,7.34,4.12,13.75,10.14,16.54C450.95,601.5,458.35,599.28,467.65,594.45z"/>
		<path class="st9" d="M469.54,605.25c-2.05,44.35-6.26,89.01-12.6,133.75c-2.07,14.58-4.81,30.22-14.53,42.32
			c-2.22,2.76-6.1,5.47-8.23,3.46c-0.67-0.64-0.96-1.62-1.21-2.58c-4.59-17.32-5.28-36.44-2.71-57.17
			c2.43-18.05,4.85-36.11,6.28-54.08c1.65-20.75,3.69-41.11,2.66-61.38"/>
		<path class="st10" d="M471.36,591.84c-0.42,5.6-0.84,11.19-1.26,16.79c-0.77-0.61-1.95-0.4-3.02-0.18
			c-9.82,2.07-19.66,3.38-29.4,3.92c-0.09-5.98,0.32-12.06,1.24-18.16C449.69,594.1,460.48,593.98,471.36,591.84z"/>
	</g>
</g>
<g>
	<g>
		<polygon class="st12" points="799.87,266.52 689.04,245.28 692.15,232.89 		"/>
		<g>
			<polygon class="st13" points="678.62,289.02 614.5,254.66 628.94,197.13 702.86,194.03 			"/>
			<polygon class="st13" points="617.05,255.4 576.04,260.58 598.64,170.55 630.93,197.73 			"/>
			<polygon class="st13" points="674.28,287.6 702.56,319.83 739.27,173.63 698.25,194.3 			"/>
		</g>
	</g>
	<g>
		<polygon class="st12" points="841.57,254.24 769.71,162.98 779.23,155.05 		"/>
		<g>
			<polygon class="st14" points="736.5,191.34 707.68,120.71 751.92,83.9 809.84,130.82 			"/>
			<polygon class="st14" points="709.19,123.01 675.06,99.77 744.29,42.18 753.09,85.72 			"/>
			<polygon class="st14" points="734.02,187.29 736.86,232.24 849.29,138.69 806.19,127.96 			"/>
		</g>
	</g>
</g>
<g>
	<polygon class="st15" points="596.41,535.42 349.63,358.01 417.59,263.49 640.4,412.97 650.37,460.37 	"/>
	<polygon class="st16" points="460.32,437.58 349.63,358.01 417.59,263.49 510.29,326.56 510.36,365.43 	"/>
	<path class="st16" d="M583.23,553.76c0,0-154.54-101.87-201.29-140.42c-18.49-15.25-31.63-56.26-31.63-56.26l66.26-92.17
		c0,0,22.16,41.74,34,52.97c43.94,41.7,198.92,143.72,198.92,143.72L583.23,553.76z"/>
	<polygon class="st15" points="583.24,553.74 440.79,457.1 511.11,365.65 649.84,461.1 	"/>
</g>
<g>
	
		<rect x="817.43" y="360.76" transform="matrix(0.9329 0.3602 -0.3602 0.9329 225.0032 -282.7697)" class="st17" width="107.55" height="203.13"/>
	
		<rect x="821.03" y="408.79" transform="matrix(0.9329 0.3602 -0.3602 0.9329 221.8852 -284.6931)" class="st18" width="107.55" height="88.41"/>
	<polygon class="st19" points="858.46,347.68 907.55,309.66 951.31,327.12 957.67,387.68 	"/>
	<polygon class="st20" points="907.55,309.66 957.11,240.79 964.59,244.25 951.5,326.63 	"/>
</g>
<g>
	<ellipse class="st21" cx="848.52" cy="830.83" rx="32.69" ry="107.87"/>
	<ellipse class="st21" cx="851.45" cy="703.01" rx="67" ry="68.76"/>
	<ellipse class="st22" cx="851.45" cy="703.01" rx="49.54" ry="50.84"/>
	<ellipse class="st23" cx="840.41" cy="688.22" rx="17.63" ry="18.09"/>
</g>
<g>
	<path class="st24" d="M71,577.12L19.59,462.17c-5.42-12.12,0.01-26.34,12.13-31.76l204.41-91.42c12.12-5.42,26.34,0.01,31.76,12.13
		l51.41,114.95c5.42,12.12-0.01,26.34-12.13,31.76l-204.41,91.42C90.64,594.67,76.42,589.24,71,577.12z"/>
	<path class="st1" d="M63.23,500.39c67.48-29.29,134.96-58.57,202.43-87.86"/>
	<path class="st1" d="M72.1,515.27c67.52-30.36,135.04-60.73,202.56-91.09"/>
	<path class="st1" d="M80.44,536.43c67.36-29.87,134.73-59.74,202.09-89.61"/>
	<path class="st1" d="M93.68,552.58c63.57-28.25,127.14-56.5,190.7-84.74"/>
	<path class="st1" d="M24.51,466.14c34.27-6.49,68.53-12.99,102.8-19.48c9.78-1.85,19.68-3.74,28.85-7.77
		c9.56-4.19,17.95-10.53,26.21-16.8c29.19-22.13,58.38-44.25,87.56-66.38"/>
</g>
<g>
	<polygon class="st12" points="123.79,789.7 36.51,717.65 107.16,680.43 172.24,731.01 	"/>
	<polygon class="st25" points="313.39,959.67 102.53,785.59 99.33,722.27 163.9,711.25 374.76,885.33 	"/>
	<polygon class="st26" points="327.66,942.38 158,802.32 146.53,762.16 189.03,764.73 358.69,904.8 	"/>
	
		<rect x="215.39" y="814.21" transform="matrix(0.6366 -0.7712 0.7712 0.6366 -559.2714 489.451)" class="st27" width="48.74" height="47.99"/>
	
		<rect x="309.14" y="916.25" transform="matrix(0.6366 -0.7712 0.7712 0.6366 -589.9968 614.7339)" class="st27" width="96.39" height="34.41"/>
</g>
</svg>
