<?xml version="1.0" encoding="UTF-8" standalone="no"?>
<svg
   xmlns:dc="http://purl.org/dc/elements/1.1/"
   xmlns:cc="http://creativecommons.org/ns#"
   xmlns:rdf="http://www.w3.org/1999/02/22-rdf-syntax-ns#"
   xmlns:svg="http://www.w3.org/2000/svg"
   xmlns="http://www.w3.org/2000/svg"
   xmlns:xlink="http://www.w3.org/1999/xlink"
   xmlns:sodipodi="http://sodipodi.sourceforge.net/DTD/sodipodi-0.dtd"
   xmlns:inkscape="http://www.inkscape.org/namespaces/inkscape"
   version="1.1"
   id="Layer_1"
   x="0px"
   y="0px"
   viewBox="0 0 1000 1320"
   style="enable-background:new 0 0 1000 1320;"
   xml:space="preserve"
   sodipodi:docname="2222.svg"
   inkscape:version="1.0.1 (3bc2e813f5, 2020-09-07)"><metadata
   id="metadata85"><rdf:RDF><cc:Work
       rdf:about=""><dc:format>image/svg+xml</dc:format><dc:type
         rdf:resource="http://purl.org/dc/dcmitype/StillImage" /><dc:title></dc:title></cc:Work></rdf:RDF></metadata><defs
   id="defs83"><pattern
     inkscape:collect="always"
     xlink:href="#pattern1893"
     id="pattern1904"
     patternTransform="translate(-238.73228,125.67072)" /><pattern
     inkscape:collect="always"
     xlink:href="#pattern1893"
     id="pattern1902"
     patternTransform="translate(-313.75642,311.44479)" /><pattern
     inkscape:collect="always"
     xlink:href="#pattern1831"
     id="pattern1836"
     patternTransform="matrix(0.36708879,0,0,0.36708879,-2.0947266e-5,-2.0837402e-7)" /><pattern
     inkscape:collect="always"
     xlink:href="#pattern916"
     id="pattern1829"
     patternTransform="matrix(0.1876485,0,0,0.1876485,1.5351563e-5,-1.2324219e-5)" /><pattern
     patternUnits="userSpaceOnUse"
     width="1327.1078"
     height="1327.1078"
     patternTransform="translate(-154.46147,12.609126)"
     id="pattern916"><rect
       style="opacity:0.999;fill:#fbe4e4;fill-opacity:1;stroke:none;stroke-width:7.80472"
       id="rect914"
       width="1327.1078"
       height="1327.1078"
       x="0"
       y="0" /><path
       class="st0"
       d="m 685.40147,154.20087 c -0.38,0.74 -0.72,1.49 -1.05,2.24 -32.09,67.96 -54.06,141.18 -69.32,214.88 -15.46,74.66 -23.16,151.02 -23.16,227.33 0,22.48 0.89,44.94 1.11,67.41 0.22,22.88 -0.79,45.73 -2.8,68.51 -0.06,-0.38 -0.12,-0.77 -0.18,-1.15 -1.94,-12.37 -3.92,-24.74 -5.94,-37.1 -4.07,-24.95 -8.07,-49.92 -12.36,-74.84 -8.48,-49.34 -18.11,-98.49 -28.53,-147.45 -5.92,-27.8 -12.33,-55.5 -18.7,-83.2 -1.66,-7.2 -12.29,-4.14 -10.81,3.05 10.11,49.06 19.46,98.32 28.63,147.58 9.16,49.21 18.55,98.42 26.79,147.8 2.29,13.7 4.53,27.4 6.72,41.11 1.11,6.97 2.21,13.94 3.3,20.91 1.11,7.13 1.8,14.55 4.06,21.4 2.13,6.47 11.71,5.52 11.84,-1.64 0.11,-6.49 -1.18,-12.99 -2.17,-19.4 -0.72,-4.69 -1.45,-9.37 -2.18,-14.05 2.24,4.89 11.34,5.25 12.46,-1.13 7.03,-39.97 3.56,-81.21 2.86,-121.57 -0.66,-38.04 0.68,-76.09 3.98,-113.98 6.57,-75.38 20.94,-150.11 42.58,-222.48 10.64,-35.59 23.08,-70.53 36.32,-105.17 0.48,-0.52 0.83,-1.19 0.97,-2.03 0.06,-0.35 0.13,-0.68 0.2,-1.03 1.54,-4.01 3.08,-8.01 4.64,-12.01 2.13,-5.45 -6.64,-9.16 -9.26,-3.99 z"
       id="path4" /><g
       id="g12"
       transform="translate(154.46147,-12.609126)">
	
		<ellipse
   transform="matrix(0.8896,-0.4568,0.4568,0.8896,-119.3921,214.1096)"
   class="st1"
   cx="383.19"
   cy="354.01999"
   rx="40.459999"
   ry="99.120003"
   id="ellipse6" />
	
		<ellipse
   transform="matrix(0.8896,-0.4568,0.4568,0.8896,-139.2671,192.049)"
   class="st1"
   cx="327.62"
   cy="384.10001"
   rx="40.459999"
   ry="99.120003"
   id="ellipse8" />
	
		<ellipse
   transform="matrix(0.8896,-0.4568,0.4568,0.8896,-129.0832,203.3528)"
   class="st1"
   cx="356.10001"
   cy="368.69"
   rx="40.459999"
   ry="99.120003"
   id="ellipse10" />
</g><path
       class="st0"
       d="m 802.00147,413.21087 c -3.05,-1.82 -7.93,-0.93 -9.56,2.56 -20.41,43.65 -41.92,86.8 -63.49,129.87 -18.22,36.38 -36.79,72.59 -55.78,108.56 -0.31,-4.26 -0.62,-8.52 -0.97,-12.78 4,-20.43 7.72,-40.9 11.07,-61.45 7.31,-44.8 13.24,-89.85 17.96,-135.02 2.66,-25.45 4.76,-50.95 6.47,-76.48 0.26,-3.9 -3.44,-7.23 -7.07,-7.23 -4.09,0 -6.75,3.32 -7.07,7.23 -3.61,44.52 -8.38,88.97 -14.69,133.18 -3.78,26.51 -8.07,52.95 -12.79,79.31 -3.69,-29.89 -8.38,-59.65 -14.24,-89.17 -5.17,-26.03 -11.07,-51.91 -17.45,-77.66 -1.99,-8.06 -14,-4.65 -12.16,3.43 10.3,45.2 18.11,91.08 24.13,137.08 3.6,27.46 6.65,54.98 8.98,82.56 -2.35,11.55 -4.78,23.09 -7.31,34.6 -2.81,12.79 -6.07,25.5 -7.6,38.51 -0.15,1.27 0.15,2.51 0.74,3.62 -5.81,10.72 -11.73,21.64 -15.8,33.12 -2.34,6.58 7.38,12.57 11.78,7.01 7.5,-9.47 13.47,-20.3 19.33,-30.89 1.14,-2.07 2.28,-4.14 3.41,-6.21 0.16,5.3 0.3,10.61 0.43,15.92 0.33,13.41 0.12,26.86 1.5,40.21 0.95,9.13 12.74,9.02 13.82,0 1.41,-11.8 1.25,-23.65 1.13,-35.52 -0.12,-11.61 -0.45,-23.23 -0.9,-34.83 -0.19,-4.79 -0.4,-9.58 -0.63,-14.37 10.79,-20.33 21.45,-40.74 31.96,-61.23 22.01,-42.91 43.27,-86.21 63.74,-129.91 11.52,-24.59 22.46,-49.45 33.59,-74.22 1.55,-3.53 0.95,-7.72 -2.53,-9.8 z"
       id="path14" /><g
       id="g22"
       transform="translate(154.46147,-12.609126)">
	
		<ellipse
   transform="matrix(0.5029,-0.8644,0.8644,0.5029,-38.6544,805.3287)"
   class="st1"
   cx="680.79999"
   cy="436.26999"
   rx="73.580002"
   ry="35.540001"
   id="ellipse16" />
	
		<ellipse
   transform="matrix(0.5029,-0.8644,0.8644,0.5029,-36.9753,750.0157)"
   class="st1"
   cx="633.54999"
   cy="407.14999"
   rx="73.580002"
   ry="35.540001"
   id="ellipse18" />
	
		<ellipse
   transform="matrix(0.5029,-0.8644,0.8644,0.5029,-37.8357,778.3579)"
   class="st1"
   cx="657.76001"
   cy="422.07001"
   rx="73.580002"
   ry="35.540001"
   id="ellipse20" />
</g><g
       id="g30"
       transform="translate(154.46147,-12.609126)">
	<ellipse
   class="st2"
   cx="574.45001"
   cy="361.64001"
   rx="31.540001"
   ry="69.160004"
   id="ellipse24" />
	<ellipse
   class="st2"
   cx="525.21997"
   cy="361.64001"
   rx="31.540001"
   ry="69.160004"
   id="ellipse26" />
	<ellipse
   class="st2"
   cx="550.44"
   cy="361.64001"
   rx="31.540001"
   ry="69.160004"
   id="ellipse28" />
</g><g
       id="g38"
       transform="translate(154.46147,-12.609126)">
	
		<ellipse
   transform="matrix(0.8788,-0.4772,0.4772,0.8788,-127.5919,270.7555)"
   class="st2"
   cx="469.25"
   cy="386.57001"
   rx="32.84"
   ry="84.629997"
   id="ellipse32" />
	
		<ellipse
   transform="matrix(0.8788,-0.4772,0.4772,0.8788,-145.1365,252.5962)"
   class="st2"
   cx="424.73001"
   cy="412.03"
   rx="32.84"
   ry="84.629997"
   id="ellipse34" />
	
		<ellipse
   transform="matrix(0.8788,-0.4772,0.4772,0.8788,-136.1467,261.9009)"
   class="st2"
   cx="447.54001"
   cy="398.98999"
   rx="32.84"
   ry="84.629997"
   id="ellipse36" />
</g><g
       id="g46"
       transform="translate(154.46147,-12.609126)">
	
		<ellipse
   transform="matrix(0.2473,-0.9689,0.9689,0.2473,291.5363,661.3217)"
   class="st1"
   cx="571.42999"
   cy="143.00999"
   rx="84.260002"
   ry="40.330002"
   id="ellipse40" />
	
		<ellipse
   transform="matrix(0.2473,-0.9689,0.9689,0.2473,261.7032,590.0499)"
   class="st1"
   cx="510.64001"
   cy="126.58"
   rx="84.260002"
   ry="40.330002"
   id="ellipse42" />
	
		<ellipse
   transform="matrix(0.2473,-0.9689,0.9689,0.2473,276.9896,626.5693)"
   class="st1"
   cx="541.78998"
   cy="135"
   rx="84.260002"
   ry="40.330002"
   id="ellipse44" />
</g><path
       class="st3"
       d="m 572.83147,798.76087 c -8.7,-23.26 -7.41,-49.3 -1,-73.29 6.41,-23.99 17.68,-46.35 28.87,-68.51 32.91,-65.18 65.82,-130.36 98.73,-195.53 26.17,80.81 52.61,166.48 33.69,249.28 -7.58,33.18 -23.36,65.85 -50.59,86.27 -27.22,20.43 -67.35,25.7 -109.7,1.78 z"
       id="path48" /><path
       class="st3"
       d="m 614.35147,822.23087 c 3.63,-85.23 58.66,-161.62 127.54,-211.95 68.88,-50.33 150.88,-78.82 231.53,-106.63 -29.33,20.04 -48.31,52 -62.59,84.53 -14.28,32.53 -24.87,66.79 -42.32,97.74 -46.21,81.99 -142.13,133.13 -254.16,136.31 z"
       id="path50" /><path
       class="st3"
       d="m 666.50147,805.53087 c -15.11,-77.69 -51.87,-151.05 -105.06,-209.66 -53.18,-58.61 -122.64,-102.3 -198.5,-124.87 62.69,73.8 34.71,196 97.53,269.69 22.84,26.79 55.64,43.82 89.8,52.33 34.16,8.51 69.84,9.05 116.23,12.51 z"
       id="path52" /><path
       class="st3"
       d="m 640.68147,794.00087 c -29.89,-58.28 -89.37,-100.37 -154.27,-109.19 -41.08,-5.58 -85.66,0.79 -121.67,-19.75 15.38,61.98 58.38,116.55 115.04,146 56.66,29.44 126.03,33.27 160.9,-17.06 z"
       id="path54" /><path
       class="st3"
       d="m 592.43147,813.97087 c -34.84,-42.83 -46.71,-100.72 -43.82,-155.86 2.89,-55.14 19.18,-108.57 35.36,-161.36 19.68,39.06 39.36,78.12 59.05,117.18 19.19,38.08 38.76,77.57 40.95,120.15 2.19,42.58 -17.86,89.39 -91.54,79.89 z"
       id="path56" /><path
       class="st4"
       d="m 896.70147,581.74087 c -3.98,-2.33 -10.49,-1.23 -12.59,3.3 -15.1,32.45 -34.14,62.8 -56.12,91.01 -21.4,27.46 -46.51,53.31 -75.2,73.22 -7.96,5.52 -16.24,10.63 -24.71,15.32 -8.96,4.96 -18.36,9.07 -27.24,14.15 -9.13,5.21 -3.08,20.45 7.25,17.2 17.63,-5.54 34.28,-16.02 49.54,-26.27 15.34,-10.31 30.07,-21.51 43.79,-33.91 27.49,-24.86 50.7,-53.95 69.9,-85.61 10.86,-17.91 20.25,-36.64 28.68,-55.81 2,-4.56 1.34,-9.89 -3.3,-12.6 z"
       id="path58" /><path
       class="st4"
       d="m 551.11147,796.75087 c -12,-6.26 -25.64,-9.59 -38,-15.2 -12.74,-5.78 -25.08,-12.44 -36.91,-19.9 -23.3,-14.69 -44.45,-32.48 -62.95,-52.88 -7.82,-8.62 -20.56,4.17 -12.76,12.76 19.5,21.5 42.01,40.28 66.73,55.49 12.16,7.48 24.83,14.11 37.92,19.8 13.2,5.75 27.73,12.49 42.22,13.8 7.39,0.69 10.08,-10.56 3.75,-13.87 z"
       id="path60" /><polygon
       class="st5"
       points="174.35,845.26 786.35,845.26 684.35,1216.33 283.35,1207.26 "
       id="polygon62"
       transform="translate(154.46147,-12.609126)" /><path
       class="st4"
       d="m 611.84147,787.56087 c -7.28,-16.13 -15.13,-31.39 -20.03,-48.51 -4.79,-16.7 -7.39,-33.79 -8.35,-51.12 -2.12,-38.48 3.04,-76.99 9,-114.92 0.67,-4.27 -1.09,-8.62 -5.6,-9.86 -3.95,-1.08 -9.01,1.33 -9.86,5.6 -7.92,39.77 -12.9,80.36 -9.78,120.95 1.41,18.36 4.29,36.77 8.96,54.58 4.61,17.56 10.83,36.68 21.66,51.46 6.19,8.44 18.31,1.38 14,-8.18 z"
       id="path64" /><path
       class="st4"
       d="m 452.78147,632.62087 c -1.07,-5.32 -2.3,-10.62 -3.53,-15.91 -2.53,-10.89 -5.41,-21.7 -8.46,-32.46 -6.02,-21.22 -12.75,-42.22 -20.32,-62.95 -3.67,-10.05 -19.82,-5.8 -16.2,4.47 7.21,20.49 13.74,41.23 19.28,62.24 2.69,10.2 5.13,20.46 7.52,30.73 1.23,5.29 2.41,10.59 3.54,15.91 1.16,5.45 1.89,11.88 5.11,16.55 3.55,5.14 12.72,5.16 14.27,-1.87 1.23,-5.51 -0.11,-11.24 -1.21,-16.71 z"
       id="path66" /><path
       class="st5"
       d="m 311.08147,822.23087 v 0 c 0,-14.91 12.09,-27 27,-27 h 605.21 c 14.91,0 27,12.09 27,27 v 0 c 0,14.91 -12.09,27 -27,27 h -605.21 c -14.91,0 -27,-12.09 -27,-27 z"
       id="path68" /><path
       class="st5"
       d="m 411.42147,1203.7209 v 0 c 0,-14.91 12.09,-27 27,-27 h 390.49 c 14.91,0 27,12.09 27,27 v 0 c 0,14.91 -12.09,27 -27,27 h -390.49 c -14.91,0 -27,-12.08 -27,-27 z"
       id="path70" /><path
       class="st6"
       d="m 886.43147,826.59087 c -70.31,-2.77 -140.8,-1.35 -211.14,-2.18 -70.39,-0.83 -140.74,-0.57 -211.12,1.14 -38.95,0.95 -77.89,2.78 -116.72,-1.72 -3.9,-0.45 -7.18,3.64 -7.21,7.21 -0.04,4.31 3.37,6.71 7.21,7.21 34.15,4.43 68.48,3.26 102.83,2.78 35.17,-0.48 70.33,-1.38 105.5,-1.53 70.38,-0.29 140.76,-1.44 211.14,-0.28 39.8,0.66 79.71,1.63 119.51,1.01 8.81,-0.13 8.77,-13.3 0,-13.64 z"
       id="path72" /><path
       class="st6"
       d="m 776.16147,1208.1409 c -43.1,-0.48 -86.2,-1.84 -129.27,-3.43 -43.06,-1.59 -86.17,-1.73 -129.23,-3.27 -24.52,-0.87 -49.03,-1.83 -73.54,-2.93 -11.61,-0.52 -11.59,17.53 0,18.05 43.07,1.92 86.13,3.98 129.2,5.94 43.06,1.96 86.15,2.68 129.25,3.4 24.53,0.41 49.06,0.66 73.59,1.18 12.19,0.25 12.21,-18.81 0,-18.94 z"
       id="path74" /><path
       class="st6"
       d="m 886.59147,884.62087 c -19.29,72.14 -39.4,144.04003 -57.5,216.50003 -2.48,9.94 -4.94,19.88 -7.39,29.83 -1.26,5.13 -2.51,10.27 -3.81,15.4 -0.65,2.56 -1.29,5.13 -1.94,7.69 -0.24,0.96 -0.48,1.92 -0.73,2.88 -0.04,0.16 -0.14,0.45 -0.26,0.78 -2.54,1.94 -4.19,5.24 -4.24,8.29 -0.12,6.43 5.32,10.76 11.41,10.31 11.83,-0.88 12.79,-16.79 15.07,-25.65 5.43,-21.11 11.12,-42.17 16.72,-63.24 11.2,-42.15 22.06,-84.39 32.92,-126.63003 6.09,-23.68 12.31,-47.32 18.76,-70.91 3.35,-12.26 -15.73,-17.51 -19.01,-5.25 z"
       id="path76" /><path
       class="st7"
       d="m 477.54147,1130.2909 c -1.83,-8.98 -6.1,-17.59 -9.48,-26.08 -3.31,-8.31 -6.61,-16.62 -9.91,-24.94 -6.72,-16.94 -13.39,-33.89 -20.04,-50.85 -13.31,-33.93003 -26.61,-67.86003 -39.8,-101.83003 -7.44,-19.16 -14.97,-38.28 -22.5,-57.4 -3.52,-8.96 -18.03,-5.33 -14.71,4.06 24.37,68.9 49.92,137.37003 75.62,205.78003 3.61,9.6 7.22,19.19 10.84,28.78 3.75,9.93 6.85,20.79 12.34,29.91 5.81,9.65 19.79,3.12 17.64,-7.43 z"
       id="path78" /></pattern><pattern
     patternUnits="userSpaceOnUse"
     width="249.02979"
     height="249.02979"
     patternTransform="translate(384.57751,551.64813)"
     id="pattern1831"><rect
       style="fill:url(#pattern1829);stroke:none;stroke-width:0.187649"
       width="249.02979"
       height="249.02979"
       x="0"
       y="0"
       id="rect957" /></pattern><pattern
     patternUnits="userSpaceOnUse"
     width="91.416039"
     height="91.416039"
     patternTransform="translate(-353.05478,22.065954)"
     id="pattern1893"><rect
       style="fill:url(#pattern1836);stroke:none;stroke-width:0.367089"
       width="91.416039"
       height="91.416039"
       x="0"
       y="0"
       id="rect1834" /></pattern></defs><sodipodi:namedview
   pagecolor="#ffffff"
   bordercolor="#666666"
   borderopacity="1"
   objecttolerance="10"
   gridtolerance="10"
   guidetolerance="10"
   inkscape:pageopacity="0"
   inkscape:pageshadow="2"
   inkscape:window-width="1310"
   inkscape:window-height="957"
   id="namedview81"
   showgrid="false"
   inkscape:zoom="0.48750832"
   inkscape:cx="336.90297"
   inkscape:cy="343.39903"
   inkscape:window-x="0"
   inkscape:window-y="0"
   inkscape:window-maximized="0"
   inkscape:current-layer="Layer_1"
   inkscape:document-rotation="0"
   inkscape:snap-page="false" />
<style
   type="text/css"
   id="style2">
	.st0{fill:#629416;}
	.st1{fill:#FFE926;stroke:#000000;stroke-width:6;stroke-miterlimit:10;}
	.st2{fill:#FF2626;stroke:#000000;stroke-width:6;stroke-miterlimit:10;}
	.st3{fill:#629416;stroke:#000000;stroke-width:3;stroke-miterlimit:10;}
	.st4{fill:#135213;}
	.st5{fill:#945D16;stroke:#000000;stroke-width:6;stroke-miterlimit:10;}
	.st6{fill:#5C370D;}
	.st7{fill:#DEC9B1;}
</style>























<path
   sodipodi:type="star"
   style="opacity:0.999;fill:url(#pattern1904);fill-opacity:1;stroke-width:7.80472"
   id="path1838"
   sodipodi:sides="5"
   sodipodi:cx="473.68182"
   sodipodi:cy="362.09131"
   sodipodi:r1="187.71262"
   sodipodi:r2="93.8563"
   sodipodi:arg1="0.85670563"
   sodipodi:arg2="1.4850242"
   inkscape:flatsided="false"
   inkscape:rounded="0"
   inkscape:randomized="0"
   d="m 596.62055,503.94368 -114.89834,-48.3411 -104.95986,67.2452 10.46959,-124.21304 -96.38837,-79.04284 121.3689,-28.42678 45.38857,-116.09636 64.54052,106.64432 124.44004,7.29135 -81.48066,94.33659 z"
   inkscape:transform-center-x="30.689198"
   inkscape:transform-center-y="-17.770935" /><rect
   style="opacity:0.999;fill:url(#pattern1893);stroke-width:7.80472;fill-opacity:1.0"
   id="rect1898"
   width="1005.5757"
   height="756.54596"
   x="0"
   y="583.17084" /><ellipse
   style="opacity:0.999;fill:url(#pattern1902);fill-opacity:1;stroke-width:7.80472"
   id="path1900"
   cx="803.36084"
   cy="280.00385"
   rx="129.6875"
   ry="257.8125" /><path
   sodipodi:type="star"
   style="opacity:0.999;fill:url(#pattern1893);stroke-width:7.80472;fill-opacity:1.0"
   id="path1906"
   sodipodi:sides="15"
   sodipodi:cx="151.79228"
   sodipodi:cy="36.922441"
   sodipodi:r1="244.84708"
   sodipodi:r2="122.42354"
   sodipodi:arg1="1.0246298"
   sodipodi:arg2="1.2340693"
   inkscape:flatsided="false"
   inkscape:rounded="0"
   inkscape:randomized="0"
   d="M 278.96959,246.14964 192.24098,152.47081 182.87416,279.78867 141.74625,158.93309 81.404398,271.43392 92.988574,144.29863 -7.8946635,222.53001 54.39859,111.09785 -69.582402,141.53286 32.64886,65.071464 -92.992446,42.447618 31.50011,14.177858 -74.076987,-57.592977 51.150969,-32.783004 -16.10668,-141.291 88.203626,-67.691162 70.894884,-194.1743 l 65.356456,109.663623 35.633,-122.588193 15.10188,126.765567 82.41348,-97.496637 -37.76395,121.948594 114.94392,-55.547034 -84.10005,96.045608 127.59951,-3.992836 -115.89448,53.535457 118.19198,48.251757 -127.64971,1.768541 88.34799,92.153183 -117.33315,-50.30417 z"
   inkscape:transform-center-x="-6.2087853"
   inkscape:transform-center-y="-17.397056" /></svg>
