<?xml version="1.0" encoding="utf-8"?>
<!-- Generator: Adobe Adobe Illustrator 24.2.0, SVG Export Plug-In . SVG Version: 6.00 Build 0)  -->
<svg version="1.1" id="Layer_1" xmlns="http://www.w3.org/2000/svg" xmlns:xlink="http://www.w3.org/1999/xlink" x="0px" y="0px"
	 viewBox="0 0 1000 1320" style="enable-background:new 0 0 1000 1320;" xml:space="preserve">
<style type="text/css">
	.st0{fill:#629416;}
	.st1{fill:#FFE926;stroke:#000000;stroke-width:6;stroke-miterlimit:10;}
	.st2{fill:#FF2626;stroke:#000000;stroke-width:6;stroke-miterlimit:10;}
	.st3{fill:#629416;stroke:#000000;stroke-width:3;stroke-miterlimit:10;}
	.st4{fill:#135213;}
	.st5{fill:#945D16;stroke:#000000;stroke-width:6;stroke-miterlimit:10;}
	.st6{fill:#5C370D;}
	.st7{fill:#DEC9B1;}
</style>
<path class="st0" d="M530.94,166.81c-0.38,0.74-0.72,1.49-1.05,2.24c-32.09,67.96-54.06,141.18-69.32,214.88
	c-15.46,74.66-23.16,151.02-23.16,227.33c0,22.48,0.89,44.94,1.11,67.41c0.22,22.88-0.79,45.73-2.8,68.51
	c-0.06-0.38-0.12-0.77-0.18-1.15c-1.94-12.37-3.92-24.74-5.94-37.1c-4.07-24.95-8.07-49.92-12.36-74.84
	c-8.48-49.34-18.11-98.49-28.53-147.45c-5.92-27.8-12.33-55.5-18.7-83.2c-1.66-7.2-12.29-4.14-10.81,3.05
	c10.11,49.06,19.46,98.32,28.63,147.58c9.16,49.21,18.55,98.42,26.79,147.8c2.29,13.7,4.53,27.4,6.72,41.11
	c1.11,6.97,2.21,13.94,3.3,20.91c1.11,7.13,1.8,14.55,4.06,21.4c2.13,6.47,11.71,5.52,11.84-1.64c0.11-6.49-1.18-12.99-2.17-19.4
	c-0.72-4.69-1.45-9.37-2.18-14.05c2.24,4.89,11.34,5.25,12.46-1.13c7.03-39.97,3.56-81.21,2.86-121.57
	c-0.66-38.04,0.68-76.09,3.98-113.98c6.57-75.38,20.94-150.11,42.58-222.48c10.64-35.59,23.08-70.53,36.32-105.17
	c0.48-0.52,0.83-1.19,0.97-2.03c0.06-0.35,0.13-0.68,0.2-1.03c1.54-4.01,3.08-8.01,4.64-12.01
	C542.33,165.35,533.56,161.64,530.94,166.81z"/>
<g>
	
		<ellipse transform="matrix(0.8896 -0.4568 0.4568 0.8896 -119.3921 214.1096)" class="st1" cx="383.19" cy="354.02" rx="40.46" ry="99.12"/>
	
		<ellipse transform="matrix(0.8896 -0.4568 0.4568 0.8896 -139.2671 192.049)" class="st1" cx="327.62" cy="384.1" rx="40.46" ry="99.12"/>
	
		<ellipse transform="matrix(0.8896 -0.4568 0.4568 0.8896 -129.0832 203.3528)" class="st1" cx="356.1" cy="368.69" rx="40.46" ry="99.12"/>
</g>
<path class="st0" d="M647.54,425.82c-3.05-1.82-7.93-0.93-9.56,2.56c-20.41,43.65-41.92,86.8-63.49,129.87
	c-18.22,36.38-36.79,72.59-55.78,108.56c-0.31-4.26-0.62-8.52-0.97-12.78c4-20.43,7.72-40.9,11.07-61.45
	c7.31-44.8,13.24-89.85,17.96-135.02c2.66-25.45,4.76-50.95,6.47-76.48c0.26-3.9-3.44-7.23-7.07-7.23c-4.09,0-6.75,3.32-7.07,7.23
	c-3.61,44.52-8.38,88.97-14.69,133.18c-3.78,26.51-8.07,52.95-12.79,79.31c-3.69-29.89-8.38-59.65-14.24-89.17
	c-5.17-26.03-11.07-51.91-17.45-77.66c-1.99-8.06-14-4.65-12.16,3.43c10.3,45.2,18.11,91.08,24.13,137.08
	c3.6,27.46,6.65,54.98,8.98,82.56c-2.35,11.55-4.78,23.09-7.31,34.6c-2.81,12.79-6.07,25.5-7.6,38.51
	c-0.15,1.27,0.15,2.51,0.74,3.62c-5.81,10.72-11.73,21.64-15.8,33.12c-2.34,6.58,7.38,12.57,11.78,7.01
	c7.5-9.47,13.47-20.3,19.33-30.89c1.14-2.07,2.28-4.14,3.41-6.21c0.16,5.3,0.3,10.61,0.43,15.92c0.33,13.41,0.12,26.86,1.5,40.21
	c0.95,9.13,12.74,9.02,13.82,0c1.41-11.8,1.25-23.65,1.13-35.52c-0.12-11.61-0.45-23.23-0.9-34.83c-0.19-4.79-0.4-9.58-0.63-14.37
	c10.79-20.33,21.45-40.74,31.96-61.23c22.01-42.91,43.27-86.21,63.74-129.91c11.52-24.59,22.46-49.45,33.59-74.22
	C651.62,432.09,651.02,427.9,647.54,425.82z"/>
<g>
	
		<ellipse transform="matrix(0.5029 -0.8644 0.8644 0.5029 -38.6544 805.3287)" class="st1" cx="680.8" cy="436.27" rx="73.58" ry="35.54"/>
	
		<ellipse transform="matrix(0.5029 -0.8644 0.8644 0.5029 -36.9753 750.0157)" class="st1" cx="633.55" cy="407.15" rx="73.58" ry="35.54"/>
	
		<ellipse transform="matrix(0.5029 -0.8644 0.8644 0.5029 -37.8357 778.3579)" class="st1" cx="657.76" cy="422.07" rx="73.58" ry="35.54"/>
</g>
<g>
	<ellipse class="st2" cx="574.45" cy="361.64" rx="31.54" ry="69.16"/>
	<ellipse class="st2" cx="525.22" cy="361.64" rx="31.54" ry="69.16"/>
	<ellipse class="st2" cx="550.44" cy="361.64" rx="31.54" ry="69.16"/>
</g>
<g>
	
		<ellipse transform="matrix(0.8788 -0.4772 0.4772 0.8788 -127.5919 270.7555)" class="st2" cx="469.25" cy="386.57" rx="32.84" ry="84.63"/>
	
		<ellipse transform="matrix(0.8788 -0.4772 0.4772 0.8788 -145.1365 252.5962)" class="st2" cx="424.73" cy="412.03" rx="32.84" ry="84.63"/>
	
		<ellipse transform="matrix(0.8788 -0.4772 0.4772 0.8788 -136.1467 261.9009)" class="st2" cx="447.54" cy="398.99" rx="32.84" ry="84.63"/>
</g>
<g>
	
		<ellipse transform="matrix(0.2473 -0.9689 0.9689 0.2473 291.5363 661.3217)" class="st1" cx="571.43" cy="143.01" rx="84.26" ry="40.33"/>
	
		<ellipse transform="matrix(0.2473 -0.9689 0.9689 0.2473 261.7032 590.0499)" class="st1" cx="510.64" cy="126.58" rx="84.26" ry="40.33"/>
	
		<ellipse transform="matrix(0.2473 -0.9689 0.9689 0.2473 276.9896 626.5693)" class="st1" cx="541.79" cy="135" rx="84.26" ry="40.33"/>
</g>
<path class="st3" d="M418.37,811.37c-8.7-23.26-7.41-49.3-1-73.29c6.41-23.99,17.68-46.35,28.87-68.51
	c32.91-65.18,65.82-130.36,98.73-195.53c26.17,80.81,52.61,166.48,33.69,249.28c-7.58,33.18-23.36,65.85-50.59,86.27
	C500.85,830.02,460.72,835.29,418.37,811.37z"/>
<path class="st3" d="M459.89,834.84c3.63-85.23,58.66-161.62,127.54-211.95c68.88-50.33,150.88-78.82,231.53-106.63
	c-29.33,20.04-48.31,52-62.59,84.53s-24.87,66.79-42.32,97.74C667.84,780.52,571.92,831.66,459.89,834.84z"/>
<path class="st3" d="M512.04,818.14c-15.11-77.69-51.87-151.05-105.06-209.66c-53.18-58.61-122.64-102.3-198.5-124.87
	c62.69,73.8,34.71,196,97.53,269.69c22.84,26.79,55.64,43.82,89.8,52.33S465.65,814.68,512.04,818.14z"/>
<path class="st3" d="M486.22,806.61c-29.89-58.28-89.37-100.37-154.27-109.19c-41.08-5.58-85.66,0.79-121.67-19.75
	c15.38,61.98,58.38,116.55,115.04,146C381.98,853.11,451.35,856.94,486.22,806.61z"/>
<path class="st3" d="M437.97,826.58c-34.84-42.83-46.71-100.72-43.82-155.86c2.89-55.14,19.18-108.57,35.36-161.36
	c19.68,39.06,39.36,78.12,59.05,117.18c19.19,38.08,38.76,77.57,40.95,120.15S511.65,836.08,437.97,826.58z"/>
<path class="st4" d="M742.24,594.35c-3.98-2.33-10.49-1.23-12.59,3.3c-15.1,32.45-34.14,62.8-56.12,91.01
	c-21.4,27.46-46.51,53.31-75.2,73.22c-7.96,5.52-16.24,10.63-24.71,15.32c-8.96,4.96-18.36,9.07-27.24,14.15
	c-9.13,5.21-3.08,20.45,7.25,17.2c17.63-5.54,34.28-16.02,49.54-26.27c15.34-10.31,30.07-21.51,43.79-33.91
	c27.49-24.86,50.7-53.95,69.9-85.61c10.86-17.91,20.25-36.64,28.68-55.81C747.54,602.39,746.88,597.06,742.24,594.35z"/>
<path class="st4" d="M396.65,809.36c-12-6.26-25.64-9.59-38-15.2c-12.74-5.78-25.08-12.44-36.91-19.9
	c-23.3-14.69-44.45-32.48-62.95-52.88c-7.82-8.62-20.56,4.17-12.76,12.76c19.5,21.5,42.01,40.28,66.73,55.49
	c12.16,7.48,24.83,14.11,37.92,19.8c13.2,5.75,27.73,12.49,42.22,13.8C400.29,823.92,402.98,812.67,396.65,809.36z"/>
<polygon class="st5" points="283.35,1207.26 174.35,845.26 786.35,845.26 684.35,1216.33 "/>
<path class="st4" d="M457.38,800.17c-7.28-16.13-15.13-31.39-20.03-48.51c-4.79-16.7-7.39-33.79-8.35-51.12
	c-2.12-38.48,3.04-76.99,9-114.92c0.67-4.27-1.09-8.62-5.6-9.86c-3.95-1.08-9.01,1.33-9.86,5.6c-7.92,39.77-12.9,80.36-9.78,120.95
	c1.41,18.36,4.29,36.77,8.96,54.58c4.61,17.56,10.83,36.68,21.66,51.46C449.57,816.79,461.69,809.73,457.38,800.17z"/>
<path class="st4" d="M298.32,645.23c-1.07-5.32-2.3-10.62-3.53-15.91c-2.53-10.89-5.41-21.7-8.46-32.46
	c-6.02-21.22-12.75-42.22-20.32-62.95c-3.67-10.05-19.82-5.8-16.2,4.47c7.21,20.49,13.74,41.23,19.28,62.24
	c2.69,10.2,5.13,20.46,7.52,30.73c1.23,5.29,2.41,10.59,3.54,15.91c1.16,5.45,1.89,11.88,5.11,16.55
	c3.55,5.14,12.72,5.16,14.27-1.87C300.76,656.43,299.42,650.7,298.32,645.23z"/>
<path class="st5" d="M156.62,834.84L156.62,834.84c0-14.91,12.09-27,27-27h605.21c14.91,0,27,12.09,27,27v0c0,14.91-12.09,27-27,27
	H183.62C168.71,861.84,156.62,849.75,156.62,834.84z"/>
<path class="st5" d="M256.96,1216.33L256.96,1216.33c0-14.91,12.09-27,27-27h390.49c14.91,0,27,12.09,27,27l0,0
	c0,14.91-12.09,27-27,27H283.96C269.05,1243.33,256.96,1231.25,256.96,1216.33z"/>
<path class="st6" d="M731.97,839.2c-70.31-2.77-140.8-1.35-211.14-2.18c-70.39-0.83-140.74-0.57-211.12,1.14
	c-38.95,0.95-77.89,2.78-116.72-1.72c-3.9-0.45-7.18,3.64-7.21,7.21c-0.04,4.31,3.37,6.71,7.21,7.21
	c34.15,4.43,68.48,3.26,102.83,2.78c35.17-0.48,70.33-1.38,105.5-1.53c70.38-0.29,140.76-1.44,211.14-0.28
	c39.8,0.66,79.71,1.63,119.51,1.01C740.78,852.71,740.74,839.54,731.97,839.2z"/>
<path class="st6" d="M621.7,1220.75c-43.1-0.48-86.2-1.84-129.27-3.43c-43.06-1.59-86.17-1.73-129.23-3.27
	c-24.52-0.87-49.03-1.83-73.54-2.93c-11.61-0.52-11.59,17.53,0,18.05c43.07,1.92,86.13,3.98,129.2,5.94
	c43.06,1.96,86.15,2.68,129.25,3.4c24.53,0.41,49.06,0.66,73.59,1.18C633.89,1239.94,633.91,1220.88,621.7,1220.75z"/>
<path class="st6" d="M732.13,897.23c-19.29,72.14-39.4,144.04-57.5,216.5c-2.48,9.94-4.94,19.88-7.39,29.83
	c-1.26,5.13-2.51,10.27-3.81,15.4c-0.65,2.56-1.29,5.13-1.94,7.69c-0.24,0.96-0.48,1.92-0.73,2.88c-0.04,0.16-0.14,0.45-0.26,0.78
	c-2.54,1.94-4.19,5.24-4.24,8.29c-0.12,6.43,5.32,10.76,11.41,10.31c11.83-0.88,12.79-16.79,15.07-25.65
	c5.43-21.11,11.12-42.17,16.72-63.24c11.2-42.15,22.06-84.39,32.92-126.63c6.09-23.68,12.31-47.32,18.76-70.91
	C754.49,890.22,735.41,884.97,732.13,897.23z"/>
<path class="st7" d="M323.08,1142.9c-1.83-8.98-6.1-17.59-9.48-26.08c-3.31-8.31-6.61-16.62-9.91-24.94
	c-6.72-16.94-13.39-33.89-20.04-50.85c-13.31-33.93-26.61-67.86-39.8-101.83c-7.44-19.16-14.97-38.28-22.5-57.4
	c-3.52-8.96-18.03-5.33-14.71,4.06c24.37,68.9,49.92,137.37,75.62,205.78c3.61,9.6,7.22,19.19,10.84,28.78
	c3.75,9.93,6.85,20.79,12.34,29.91C311.25,1159.98,325.23,1153.45,323.08,1142.9z"/>
</svg>
