<?xml version="1.0" encoding="UTF-8" standalone="no"?>
<svg
   xmlns:dc="http://purl.org/dc/elements/1.1/"
   xmlns:cc="http://creativecommons.org/ns#"
   xmlns:rdf="http://www.w3.org/1999/02/22-rdf-syntax-ns#"
   xmlns:svg="http://www.w3.org/2000/svg"
   xmlns="http://www.w3.org/2000/svg"
   xmlns:sodipodi="http://sodipodi.sourceforge.net/DTD/sodipodi-0.dtd"
   xmlns:inkscape="http://www.inkscape.org/namespaces/inkscape"
   width="210mm"
   height="297mm"
   viewBox="0 0 210 297"
   version="1.1"
   id="svg8"
   sodipodi:docname="Пример1.svg"
   inkscape:version="1.0.1 (c497b03c, 2020-09-10)">
  <defs
     id="defs2">
    <inkscape:path-effect
       effect="sketch"
       id="path-effect1688"
       is_visible="true"
       lpeversion="1"
       nbiter_approxstrokes="2"
       strokelength="100"
       strokelength_rdm="0.5;1"
       strokeoverlap="0.3"
       strokeoverlap_rdm="0.3;1"
       ends_tolerance="0.1;1"
       parallel_offset="5;1"
       tremble_size="5;1"
       tremble_frequency="1"
       nbtangents="5"
       tgt_places_rdmness="1;1"
       tgtscale="10"
       tgtlength="12"
       tgtlength_rdm="0.3;1" />
    <inkscape:path-effect
       effect="rough_hatches"
       id="path-effect1686"
       is_visible="true"
       lpeversion="1"
       direction="100.27006,146.95775 , 1.7331823,45.508333"
       dist_rdm="75;1"
       growth="0"
       do_bend="true"
       bender="100.27006,151.95775 , 7.6458333,-32.279167"
       bottom_edge_variation="21.466783;1"
       top_edge_variation="21.466783;1"
       bottom_tgt_variation="0;1"
       top_tgt_variation="0;1"
       scale_bf="1"
       scale_bb="1"
       scale_tf="1"
       scale_tb="1"
       top_smth_variation="0;1"
       bottom_smth_variation="0;1"
       fat_output="true"
       stroke_width_top="1"
       stroke_width_bottom="1"
       front_thickness="1"
       back_thickness="0.25" />
    <inkscape:path-effect
       effect="rough_hatches"
       id="path-effect850"
       is_visible="true"
       lpeversion="1"
       direction="106.67755,126.04011 , 43.512333,0"
       dist_rdm="75;1"
       growth="0"
       do_bend="true"
       bender="106.67755,131.04011 , 5,0"
       bottom_edge_variation="16.33698;1"
       top_edge_variation="16.33698;1"
       bottom_tgt_variation="0;1"
       top_tgt_variation="0.7;1"
       scale_bf="1"
       scale_bb="1"
       scale_tf="1"
       scale_tb="1"
       top_smth_variation="0;1"
       bottom_smth_variation="0;1"
       fat_output="true"
       stroke_width_top="1"
       stroke_width_bottom="1"
       front_thickness="1"
       back_thickness="0.25" />
  </defs>
  <sodipodi:namedview
     id="base"
     pagecolor="#ffffff"
     bordercolor="#666666"
     borderopacity="1.0"
     inkscape:pageopacity="0.0"
     inkscape:pageshadow="2"
     inkscape:zoom="0.5"
     inkscape:cx="444"
     inkscape:cy="596"
     inkscape:document-units="mm"
     inkscape:current-layer="layer1"
     inkscape:document-rotation="0"
     showgrid="false"
     inkscape:window-width="1204"
     inkscape:window-height="774"
     inkscape:window-x="1278"
     inkscape:window-y="274"
     inkscape:window-maximized="0" />
  <metadata
     id="metadata5">
    <rdf:RDF>
      <cc:Work
         rdf:about="">
        <dc:format>image/svg+xml</dc:format>
        <dc:type
           rdf:resource="http://purl.org/dc/dcmitype/StillImage" />
        <dc:title></dc:title>
      </cc:Work>
    </rdf:RDF>
  </metadata>
  <g
     inkscape:label="Слой 1"
     inkscape:groupmode="layer"
     id="layer1">
    <path
       style="fill:none;stroke:#ff00a5;stroke-width:2.665;stroke-linecap:butt;stroke-linejoin:miter;stroke-opacity:1;stroke-miterlimit:4;stroke-dasharray:none"
       d="m 102.69185,97.663162 c -0.58747,-0.990274 -1.24943,-2.079943 -1.98437,-3.251503 C 97.319804,89.011391 92.624505,82.26377 86.781088,75.527367 81.002951,68.86622 74.327763,62.492465 67.500624,58.094396 64.094174,55.899949 60.655471,54.202635 57.289494,53.227273 56.186102,52.907542 55.089797,52.665151 54.003813,52.508089 m 12.981449,-3.243924 c -0.529788,-0.385075 -1.05945,-0.758144 -1.588712,-1.118358 -3.367141,-2.291668 -6.717997,-4.063009 -9.983053,-5.09659 -3.26401,-1.03325 -6.44537,-1.329815 -9.461649,-0.667125 -9.523177,2.092284 -19.405753,4.930067 -28.111588,9.494914 m 4.852704,1.782074 c -6.496333,2.010964 -12.664787,4.541936 -18.1025959,7.854928 -5.36049236,3.265886 -10.0111746,7.292554 -13.5475755,12.315856 -3.3573736,4.769001 -5.7092666,10.436875 -6.6843546,17.169824 m 9.8337744,-10.345135 c -1.6936023,4.096894 -2.8859029,8.664139 -3.4485519,13.789483 -0.8462245,7.708524 -0.2325251,15.447554 1.3785831,23.000564 1.6105927,7.5506 4.2163781,14.90613 7.35049264,21.83336 C 4.3754603,150.11427 10.542217,159.84035 16.144403,167.60605 M -5.4995546,136.45521 c 5.37967986,11.14527 12.4637362,20.71292 18.1566466,27.49174 0.815667,0.97125 1.912702,2.17194 3.259139,3.5664 1.34688,1.39492 2.944602,2.98507 4.763779,4.73691 3.65072,3.51559 8.151082,7.64217 13.319051,12.17124 3.186233,2.79234 6.589671,5.70576 10.178789,8.70647 m -12.62858,-7.41956 c 1.339896,1.51303 2.750867,3.06242 4.233247,4.6438 9.229843,9.84621 19.892866,19.52012 31.839442,29.03937 2.944505,2.34624 5.879918,4.61406 8.783902,6.80132 m -15.853449,-7.63654 c 0.637253,0.65556 1.276293,1.30911 1.916896,1.96055 10.417982,10.59429 20.76488,20.13414 29.018406,27.49416 4.013497,3.579 7.472376,6.58793 9.817626,8.61333 0.81111,0.70048 1.51427,1.30508 2.07253,1.78406 m -3.18363,-13.28495 c 3.1078,2.88335 5.70334,5.36573 7.54477,7.14441 1.07867,1.0419 1.96599,1.9077 2.52884,2.45819 0.0961,0.094 0.56521,0.55374 0.66131,0.64773 0.0271,0.0266 0.14245,0.13977 0.16955,0.16634 0.0106,0.0104 0.0325,0.0319 0.0431,0.0423 0.005,0.005 0.01,0.01 0.0148,0.0146 0,0 1e-5,1e-5 1e-5,1e-5 7.87932,-8.5724 15.44389,-16.85702 22.78076,-24.89501 m -9.35857,10.39015 c 16.43269,-16.92727 31.72704,-35.13251 46.84178,-53.97633 0,0 0,-1e-5 1e-5,-1e-5 -0.004,0.004 0.0122,-0.0113 0.008,-0.007 -0.002,0.002 0.0248,-0.0231 0.0224,-0.0208 0.0197,-0.0183 0.0489,-0.0456 0.0873,-0.0816 0.0767,-0.0719 0.19036,-0.17899 0.33797,-0.31933 0.29501,-0.28047 0.72821,-0.69632 1.27684,-1.23425 1.0994,-1.07794 2.6619,-2.64556 4.5342,-4.62528 1.60956,-1.70189 3.43943,-3.69917 5.40072,-5.94904 m -14.19753,15.12713 c 1.64347,-1.74556 3.30143,-3.50101 4.97301,-5.26436 0,0 0,0 1e-5,-1e-5 -0.002,0.002 0.0102,-0.008 0.008,-0.006 -0.002,0.002 0.0255,-0.0197 0.023,-0.0178 0.0202,-0.0157 0.0502,-0.0389 0.0897,-0.0697 0.0789,-0.0615 0.19554,-0.15275 0.34759,-0.27287 0.30437,-0.24047 0.74894,-0.59512 1.3166,-1.05713 1.137,-0.92539 2.75521,-2.27123 4.71799,-3.98115 3.92091,-3.41578 9.20222,-8.27248 14.57678,-13.9498 5.36301,-5.66511 10.84695,-12.1789 15.00061,-18.78953 2.0814,-3.31259 3.83429,-6.6572 5.08576,-9.95754 1.25193,-3.30157 1.99918,-6.55134 2.07934,-9.67748 0.021,-0.81717 0.0436,-1.64053 0.0673,-2.46961 m -9.76713,23.62601 c 1.82239,-3.0794 3.31114,-6.20366 4.35562,-9.31192 1.15247,-3.42959 1.76381,-6.83925 1.68273,-10.14051 -0.3272,-13.32327 -0.87208,-28.45295 -3.27514,-41.728364 -0.51236,-2.830476 -1.10793,-5.559722 -1.80192,-8.140315 m -2.21557,11.857703 c -0.18391,-3.021148 -0.46813,-5.999814 -0.86906,-8.887512 -0.889,-6.403017 -2.35105,-12.350808 -4.55042,-17.244026 -2.20146,-4.897865 -5.13718,-8.735114 -9.01498,-10.974163 -7.71753,-4.456119 -19.013,-10.139018 -30.13524,-12.959316 -3.49642,-0.886596 -6.9805,-1.492066 -10.34763,-1.692303 m 20.69698,11.967934 c -3.68229,-1.370936 -7.52734,-2.49735 -11.38775,-3.2 -5.28665,-0.962247 -10.58998,-1.126343 -15.4616,-0.03279 -4.86412,1.091867 -9.32853,3.444469 -12.88703,7.572642 -3.5771,4.149747 -7.35187,9.152537 -11.02945,14.472768 -2.49283,3.606274 -4.89489,7.290816 -7.15328,10.917492 m 15.96158,-19.69487 c -1.40979,1.617596 -2.81883,3.275895 -4.21368,4.95187 -4.08463,4.907849 -8.01339,9.925795 -11.48302,14.504063 -3.46481,4.57189 -6.43011,8.650405 -8.55184,11.616884 -1.05701,1.477837 -1.90211,2.676197 -2.48005,3.500709 -0.28918,0.41256 -0.51337,0.734241 -0.6645,0.951649 -0.019,0.02738 -0.15335,0.221025 -0.17238,0.248401 -0.005,0.007 -0.0394,0.05695 -0.0442,0.06392 -0.005,0.0069 -0.0107,0.0155 -0.0155,0.02243 -10e-6,1.4e-5 -10e-6,2.2e-5 -2e-5,2.3e-5 0,10e-7 0,-2e-6 0,-9e-6 -0.005,-0.0066 -2.23787,-3.246311 -6.005494,-7.919664 -0.533539,-0.661801 -1.09818,-1.352347 -1.691711,-2.065878 m 3.717396,-1.502945 C 98.206157,85.020626 98.036761,84.764969 97.863779,84.505331 94.297567,79.152629 89.360843,72.34132 83.403944,65.620572 77.484877,58.942505 70.713435,52.538701 63.782159,48.112136 60.323975,45.903614 56.833474,44.193547 53.412028,43.206915 52.097555,42.827865 50.792409,42.555312 49.501559,42.402108 m 13.890405,8.952654 c -0.143162,-0.09196 -0.286297,-0.183076 -0.429398,-0.273327 -3.361878,-2.120274 -6.705725,-3.764 -9.961617,-4.696408 -3.256002,-0.93244 -6.425745,-1.154022 -9.429637,-0.4267 -12.018648,2.910036 -24.633865,6.862521 -34.5462996,14.026363 -4.9507532,3.577971 -9.24498005,7.970322 -12.4151791,13.436464 -1.264066,2.179537 -2.3516093,4.533604 -3.2307643,7.080238 M 8.2741036,61.331078 c -4.2272964,3.210273 -7.98039223,6.91382 -10.9978308,11.288193 -3.5495428,5.145763 -6.06686,11.203172 -7.1270892,18.380589 -1.0591646,7.170208 -0.5914656,14.29807 0.9048603,21.12533 1.4972651,6.83155 4.0205985,13.3496 7.0788221,19.35231 1.86920814,3.6689 3.934355,7.13836 6.0857043,10.37658 m -12.7829198,-24.5666 c 1.4200692,4.74339 3.1868554,9.38125 5.1682739,13.84969 6.2346222,14.06014 14.6663816,26.57301 20.9304406,35.01449 0.784281,1.0569 1.835477,2.36616 3.120225,3.8986 1.28516,1.53293 2.801306,3.28598 4.517748,5.23382 3.438499,3.90208 7.650124,8.55128 12.400523,13.76401 2.921475,3.20581 7.606508,8.33139 10.527983,11.5372 M 26.012092,173.77065 c 2.895757,3.0941 6.234429,6.5305 9.938418,10.20788 9.621929,9.55282 20.64702,19.68689 32.538816,29.8903 3.384759,2.90419 6.743797,5.73205 10.059116,8.47724 m -23.159233,-3.4679 c 0.160172,0.14608 3.241224,2.95826 3.401396,3.10435 12.40918,11.33168 20.526851,18.76568 29.925352,27.13304 4.102417,3.65233 7.342455,6.4923 9.763386,8.59845 1.17239,1.01994 2.111317,1.83171 2.736387,2.371 0.092,0.0794 0.62907,0.54194 0.72109,0.62134 0.0233,0.02 0.16197,0.1393 0.18525,0.15934 0.006,0.005 0.0415,0.0356 0.0472,0.0405 0.006,0.005 0.0107,0.009 0.0162,0.0139 0,0 0,0 0,0 5.37474,-5.53454 10.83786,-11.09699 16.42526,-16.71079 m -13.90282,16.03964 c 0.0106,0.01 0.27361,0.25381 0.28426,0.26369 0.016,0.0148 0.15747,0.14603 0.17344,0.16084 0.005,0.004 0.0396,0.0367 0.0441,0.0409 0.006,0.006 0.009,0.008 0.0152,0.0141 1e-5,0 1e-5,0 1e-5,0 20.59865,-22.57609 40.26459,-45.45789 59.96788,-69.52439 m -13.96392,19.92587 c 6.60727,-8.09298 13.48074,-15.80237 20.53744,-23.27286 0,0 0,-1e-5 1e-5,-1e-5 -0.002,0.002 0.0106,-0.008 0.008,-0.007 -0.003,0.002 0.0262,-0.0206 0.0237,-0.0186 0.0209,-0.0164 0.0517,-0.0407 0.0925,-0.0729 0.0817,-0.0646 0.20124,-0.15941 0.35832,-0.28502 0.31527,-0.2521 0.77056,-0.61914 1.35705,-1.09908 1.16659,-0.95466 2.84378,-2.34919 4.8576,-4.07963 3.95524,-3.3987 9.52582,-8.36268 14.93501,-13.83961 5.47788,-5.54648 11.02249,-11.84361 15.20018,-18.34102 2.09133,-3.25257 3.83989,-6.5538 5.07769,-9.84255 0.16648,-0.44232 0.32366,-0.88428 0.47116,-1.32573 m -16.52025,26.34383 c 3.23627,-4.23329 6.25534,-8.75989 8.70703,-13.41355 1.89073,-3.58888 3.44104,-7.24814 4.48626,-10.89014 1.04524,-3.64205 1.58534,-7.26619 1.4557,-10.79055 -0.51662,-14.04527 -0.91331,-30.816163 -3.08121,-45.569116 -0.71988,-4.898907 -1.63553,-9.576716 -2.81692,-13.848984 m -1.55681,32.48984 c -0.48581,-4.679695 -1.05704,-9.265096 -1.79065,-13.583217 -1.10838,-6.524173 -2.59101,-12.463052 -4.735,-17.305212 -2.14448,-4.84325 -4.94806,-8.580773 -8.67194,-10.702967 -7.43589,-4.237624 -18.00181,-9.398886 -28.40749,-11.663541 -5.20996,-1.133876 -10.39626,-1.546606 -15.15197,-0.759706 -1.7172,0.284135 -3.37794,0.724706 -4.96151,1.344084 m 30.19041,-7.849704 c -2.50708,-0.707969 -5.07266,-1.303378 -7.64873,-1.732283 -5.35174,-0.891041 -10.75387,-1.064064 -15.75038,-0.02775 -4.99639,1.036285 -9.59567,3.282081 -13.35818,7.262177 -3.7604,3.977857 -7.83621,8.799203 -11.83115,13.832751 -4.02128,5.066757 -7.89551,10.264926 -11.36796,15.118283 -2.08033,2.907624 -3.96402,5.617821 -5.61634,8.042514 m 17.34457,-14.45817 c -3.02123,3.576551 -5.91278,7.162033 -8.53307,10.500903 -3.39378,4.324497 -6.32087,8.220848 -8.39267,11.02403 -1.03573,1.401356 -1.86484,2.539236 -2.43023,3.319931 -0.28324,0.391105 -0.50265,0.695829 -0.65063,0.901895 -0.0186,0.02585 -0.15017,0.209517 -0.16874,0.235371 -0.005,0.0066 -0.0386,0.05397 -0.0433,0.06056 -0.005,0.0067 -0.0104,0.0146 -0.0152,0.02125 -1e-5,1.4e-5 -2e-5,2.2e-5 -2e-5,2.2e-5 0,0 0,-4e-6 -1e-5,-1.1e-5 -0.004,-0.007 -2.18899,-3.425066 -5.860821,-8.422771 -1.616903,-2.200755 -3.521981,-4.70618 -5.659802,-7.36196 M 172.89892,188.46723 186.98027,175.26397 M 135.29066,54.981196 123.92551,67.920528 m 75.25026,-7.046609 -15.96944,-8.079305 M 17.294828,52.5565 -1.5655714,65.40098 M 100.55467,252.19101 115.22925,266.2809"
       id="path833"
       inkscape:original-d="m 103.1875,95.249999 c 0,0 -33.866668,-55.5625 -58.208334,-50.270833 -24.341667,5.291667 -52.3874997,14.816667 -56.620833,44.979167 -4.233334,30.162507 16.4041667,61.912497 28.575,77.787497 12.170833,15.875 91.016667,91.54584 91.016667,91.54584 l 64.02916,-70.37917 c 0,0 41.80417,-33.86667 40.74584,-60.325 C 211.66666,102.12917 211.1375,67.733333 195.79167,59.266666 180.44583,50.8 151.87083,38.629166 137.05417,53.445833 122.2375,68.262499 103.1875,95.249999 103.1875,95.249999 Z"
       sodipodi:nodetypes="csssccsssc"
       inkscape:path-effect="#path-effect1688" />
    <path
       style="fill:none;stroke:#ff00a5;stroke-width:2.66499;stroke-linecap:butt;stroke-linejoin:miter;stroke-miterlimit:4;stroke-dasharray:none;stroke-opacity:1"
       d="m 108.93385,258.21025 c 0,0 -4.83853,-0.57477 -10.005593,-5.71329 -2.765866,-2.75059 1.437613,-4.15723 7.221643,-5.79063 5.76032,-1.6267 13.10823,-3.46784 16.56488,-7.27446 3.64589,-4.01503 -9.00512,-6.41975 -23.431161,-8.15268 -14.327962,-1.72113 -30.746606,-2.76652 -33.732288,-5.74877 -3.259536,-3.25578 14.504893,-5.87425 33.128015,-7.23165 18.637774,-1.35846 38.148644,-1.33424 39.213484,-2.51107 1.23232,-1.36193 -18.93159,-2.8049 -40.113375,-3.38317 -21.0498,-0.57467 -43.507106,-0.32206 -45.28852,-2.12999 -2.117613,-2.14914 22.726286,-4.94488 48.279975,-6.65349 25.62514,-1.71339 52.12643,-2.15135 55.04673,-5.37507 3.08621,-3.40687 -22.68514,-6.62137 -50.31407,-8.01262 -27.394666,-1.37946 -57.347422,-0.9808 -59.88306,-3.72894 -1.417307,-1.53608 7.000231,-3.57382 20.570196,-5.44317 13.98232,-1.92614 31.678144,-3.44486 50.924234,-4.41715 20.52963,-1.03712 36.14792,-1.19819 52.59928,-1.60473 14.74334,-0.36434 25.20773,-0.89819 26.96984,-2.80893 1.84428,-1.99985 -7.97524,-4.65665 -23.92177,-6.89899 -16.45202,-2.31342 -37.53883,-3.89673 -60.70114,-4.33923 -23.488709,-0.44874 -44.954409,0.32408 -63.485059,1.37804 -17.668826,1.00494 -29.796899,2.05853 -30.202701,1.51024 -0.468518,-0.63302 11.001157,-2.58781 28.33917,-4.52435 18.109089,-2.02266 39.750558,-3.67272 63.55104,-4.42257 24.10228,-0.75935 44.91996,-0.44576 63.2017,0.0974 17.23886,0.51217 28.83384,1.07349 29.3679,0.26792 0.59442,-0.8966 -11.04399,-2.84762 -29.07212,-4.52139 -18.80895,-1.74626 -41.69118,-2.88795 -67.40415,-2.88447 -26.092843,0.004 -49.089137,1.15321 -69.662316,2.45638 -19.377387,1.22743 -32.7212348,2.28378 -33.4140671,1.23151 -0.7481757,-1.13633 11.8137711,-3.90551 30.8979961,-6.64883 19.863292,-2.8553 43.883277,-5.22894 70.026927,-6.47362 26.47977,-1.26069 49.50773,-1.12548 69.44695,-0.64466 18.86051,0.4548 31.42204,1.06785 31.68243,0.18086 0.28804,-0.98118 -12.30497,-3.04973 -31.61059,-4.72681 -20.13893,-1.74947 -44.51891,-2.7704 -71.86828,-2.45365 -27.679348,0.32058 -52.221606,1.90926 -73.927053,3.67599 -20.5027236,1.66884 -34.5339876,3.11024 -35.0540277,2.12451 -0.5646217,-1.07022 12.8531654,-4.10788 33.0713287,-7.24795 21.132919,-3.28214 46.291297,-6.11106 73.878823,-7.88449 28.214769,-1.81375 51.608489,-2.10552 72.767049,-2.28272 19.65678,-0.16462 32.60302,-0.30338 32.51867,-2.1904 -0.0887,-1.98404 -13.63072,-4.78507 -34.16751,-6.88047 -21.30973,-2.17426 -47.32534,-3.28009 -76.098051,-2.80748 -29.173188,0.47918 -55.133895,2.43886 -77.885881,4.52742 -21.5350034,1.97685 -36.18061,3.62195 -36.509114,2.3664 -0.351253,-1.34249 13.6832252,-4.93365 34.691331,-8.62345 21.859662,-3.83936 48.106228,-7.193334 76.541964,-9.252713 28.731471,-2.080798 53.782521,-2.441344 75.172651,-2.270372 20.28542,0.162142 33.6269,0.69801 33.53099,-0.120668 -0.2146,-1.831779 -21.52269,-4.316121 -42.91972,-5.396832 -21.39704,-1.080712 -42.87721,-0.782311 -42.39966,-1.423736 0.62056,-0.833503 25.87886,-1.926999 50.59883,-1.585771 24.71997,0.341229 48.90705,2.094145 48.74931,1.194405 -0.19219,-1.096228 -23.86564,-3.742433 -47.3451,-5.345291 -23.47947,-1.602858 -46.75306,-2.212563 -44.87198,-4.612537 2.03135,-2.591683 24.36242,-4.311322 45.71257,-4.763669 21.35014,-0.452348 41.73536,0.295027 40.87286,-1.575362 -0.95479,-2.070501 -21.351,-4.619661 -41.53353,-5.897571 -20.18254,-1.27791 -40.13993,-1.332972 -39.29674,-2.300816 1.01027,-1.159602 18.42431,-2.045999 35.03568,-2.208109 16.66324,-0.162616 32.3869,0.321497 30.87247,-0.618689 -1.98064,-1.22961 -15.3882,-2.437418 -28.44159,-3.233101 -12.96237,-0.790134 -25.29798,-1.149503 -24.34121,-2.08317 1.15183,-1.12402 12.29941,-1.735199 22.54916,-1.996283 10.25538,-0.261227 19.60643,-0.215685 17.42672,-1.012323 -2.84032,-1.038077 -12.15437,-1.661982 -21.03509,-1.886103 -8.80473,-0.222203 -16.95506,-0.04167 -16.95506,-0.04167 0,0 8.6932,0.07256 17.6421,0.431691 9.01526,0.361792 18.0995,0.996332 19.36686,1.457789 1.78372,0.649471 -7.49497,0.560126 -17.62921,0.838572 -10.12259,0.278125 -21.07531,0.963504 -22.35746,2.215571 -1.47726,1.442595 11.32477,2.031941 24.64756,2.822078 13.3228,0.790137 27.15785,1.817033 28.15008,2.431516 1.33293,0.825467 -14.43841,0.276794 -30.96995,0.46238 -16.53154,0.185586 -33.83425,1.151691 -34.95611,2.44008 -1.28896,1.480289 18.80302,1.753417 39.16414,3.012911 20.36111,1.259494 40.97986,3.553854 41.68886,5.089479 0.80132,1.735576 -19.54083,0.953914 -40.85643,1.432492 -21.3156,0.478579 -43.62044,2.284003 -45.75236,5.005217 -2.28222,2.913046 21.04847,3.737591 44.65782,5.315169 23.60934,1.577577 47.48484,3.960986 47.58523,4.532973 0.13487,0.76838 -24.01255,-1.014814 -48.70973,-1.326638 -24.69718,-0.311824 -49.94964,0.870996 -50.66567,1.833117 -0.85907,1.154313 20.66124,1.073903 42.17492,2.130353 21.51367,1.056449 43.01435,3.27661 43.16834,4.58939 0.0884,0.753562 -13.26403,0.184947 -33.5611,0.01568 -21.38151,-0.178308 -46.48538,0.200948 -75.206156,2.315633 -28.433286,2.093516 -54.710579,5.496758 -76.558575,9.390778 -21.0084476,3.74438 -35.036818,7.39497 -34.670207,8.79462 0.389373,1.48655 15.0727423,0.003 36.628131,-1.87242 22.871458,-1.98982 48.637324,-3.90367 77.90424,-4.40813 28.807567,-0.49654 54.728917,0.52603 76.064227,2.55046 20.5221,1.94727 34.04859,4.53812 34.12585,6.26289 0.0816,1.82175 -12.87648,1.92664 -32.54816,2.08293 -21.13241,0.16789 -44.62614,0.47871 -72.814067,2.32518 -27.586788,1.8071 -52.785268,4.68539 -73.902396,8.022 -20.2172727,3.19442 -33.6228484,6.29065 -33.0282691,7.41622 0.6391785,1.20998 14.714151,-0.0674 35.2195481,-1.6299 21.816202,-1.66243 46.104494,-3.20099 73.850544,-3.54571 27.36226,-0.33995 51.58831,0.59449 71.76615,2.19177 19.29,1.527 31.89648,3.38693 31.68217,4.117 -0.24197,0.82426 -12.80626,0.17742 -31.67944,-0.28726 -19.92919,-0.49067 -43.02522,-0.61161 -69.50322,0.68082 -26.152562,1.27654 -50.215577,3.69784 -70.071354,6.60738 -19.088681,2.79714 -31.6402826,5.62479 -30.8549182,6.81592 0.8407284,1.27509 14.2192552,0.38675 33.5759312,-0.73085 20.677182,-1.19385 43.34862,-2.29378 69.495751,-2.32147 25.69923,-0.0272 48.40167,1.02276 67.26024,2.61591 18.02068,1.52237 29.70934,3.26777 29.27579,3.92193 -0.49391,0.74524 -12.08161,0.1495 -29.32992,-0.37506 -18.26349,-0.55544 -39.16293,-0.85914 -63.26445,-0.0714 -23.812366,0.77827 -45.511228,2.47299 -63.615507,4.5487 -17.348178,1.98902 -28.81056,4.00224 -28.300045,4.69097 0.573255,0.77338 12.730356,-0.10862 30.363024,-1.001 18.57139,-0.93988 39.782681,-1.66527 63.258028,-1.23883 23.10073,0.41964 44.04896,1.90839 60.52733,4.07033 15.94373,2.09179 25.8373,4.54671 24.21181,6.31034 -1.70767,1.85281 -12.15992,2.35082 -26.91276,2.69927 -16.33509,0.38583 -32.23615,0.5612 -52.67229,1.6162 -19.268561,0.99473 -37.016909,2.55325 -51.00112,4.52769 -13.581963,1.91765 -21.988657,4.01083 -20.517946,5.60211 2.960933,3.20365 32.693184,3.05932 59.876786,4.41401 27.41944,1.36643 52.99569,4.27579 50.35138,7.19652 -2.81025,3.10402 -29.37383,3.50396 -55.062468,5.24871 -25.618448,1.73998 -50.524133,4.63483 -48.291839,6.89637 2.240679,2.27004 24.475535,2.27389 45.302776,2.83163 20.960801,0.56131 40.908811,1.71195 40.122941,2.58097 -0.95338,1.05425 -20.52753,0.98566 -39.228245,2.36711 -18.687392,1.38046 -36.511458,4.08776 -33.132495,7.45684 3.464414,3.45429 19.655196,4.75506 33.755309,6.46399 14.197721,1.72075 26.620091,3.84645 23.424751,7.36734 -3.34405,3.68474 -10.75743,5.46912 -16.57894,7.10208 -5.84626,1.6399 -10.106338,3.11504 -7.21327,5.98701 6.18611,6.14098 10.99624,5.71166 10.99624,5.71166 z M 99.429767,89.453067 c 0,0 -27.387214,1.110034 -55.275055,3.806096 -27.846445,2.692061 -56.112047,6.967747 -56.145725,6.366001 -0.04376,-0.781939 27.382801,-5.746852 54.289651,-9.102 26.906849,-3.355149 53.298072,-5.117793 52.711117,-5.943938 -0.715136,-1.00656 -28.903724,-0.03647 -57.255428,2.401632 -28.3517036,2.438099 -56.860955,6.32069 -56.524,3.989853 0.363871,-2.517025 25.1598605,-8.10499 49.207852,-12.175931 24.047992,-4.070941 47.358377,-6.668727 45.957583,-8.299185 -1.550663,-1.804901 -23.220998,-1.043202 -44.612858,0.946361 -21.391861,1.989563 -42.492561,5.153433 -41.954521,4.144567 0.6446404,-1.208754 21.824972,-5.358368 42.422453,-8.4552 C 52.848317,64.034492 72.870411,61.958928 72.0804,61.175397 71.117864,60.220756 54.121744,61.161542 37.459293,62.713612 20.796843,64.265682 4.4765914,66.393031 5.4496682,65.346504 6.6211345,64.086613 24.217656,60.820809 41.176801,58.357952 58.135945,55.895096 74.46585,54.200835 73.698609,53.574054 72.725409,52.77902 58.6459,53.56089 45.651018,54.473172 c -12.995599,0.912333 -24.887187,1.882183 -21.118309,-0.09796 4.287725,-2.25274 12.556973,-4.181307 19.86813,-5.48981 7.271178,-1.301347 13.461112,-1.966356 13.461112,-1.966356 0,0 -6.287079,0.612839 -13.734911,1.906691 -7.489618,1.301111 -16.011985,3.26759 -20.618307,5.691813 -5.047369,2.656338 7.158527,1.855202 20.597984,0.871193 C 57.558951,54.4038 72.263972,53.31382 72.688087,53.659591 73.318228,54.17333 57.04842,55.821942 40.152089,58.29661 23.255757,60.771277 5.7251567,64.104699 4.4211638,65.50796 2.9187408,67.124756 19.480177,65.178476 36.39434,63.579509 53.308502,61.980542 70.567288,60.763093 71.069928,61.260722 71.745152,61.929213 51.751918,63.96632 31.195359,67.081995 10.6388,70.197671 -10.487929,74.42081 -11.203747,75.763282 -12.026183,77.30571 9.2864737,74.32322 30.854685,72.294023 52.422897,70.264826 74.23567,69.235335 75.387083,70.573354 c 1.301335,1.51224 -22.00713,4.07774 -46.032232,8.174478 -24.0251013,4.096738 -48.776267,9.764518 -49.158014,12.405384 -0.408659,2.827033 28.2849086,-0.871612 56.746728,-3.341917 28.461819,-2.470305 56.690083,-3.704644 57.06354,-3.17977 0.501685,0.705092 -25.900599,2.440177 -52.795211,5.826793 -26.894611,3.386616 -54.28453,8.437345 -54.233972,9.339108 0.06066,1.0819 28.590181,-3.262837 56.687379,-6.116872 28.139509,-2.858333 55.764466,-4.227491 55.764466,-4.227491 z"
       id="path833-6"
       inkscape:original-d="m 103.1875,95.249999 c 0,0 -33.866668,-55.5625 -58.208334,-50.270833 -24.341667,5.291667 -52.3874997,14.816667 -56.620833,44.979167 -4.233334,30.162507 22.225,65.087497 34.395833,80.962497 12.170833,15.875 85.195834,88.37084 85.195834,88.37084 l 64.02916,-70.37917 c 0,0 41.80417,-33.86667 40.74584,-60.325 C 211.66666,102.12917 211.1375,67.733333 195.79167,59.266666 180.44583,50.8 151.87083,38.629166 137.05417,53.445833 122.2375,68.262499 103.1875,95.249999 103.1875,95.249999 Z"
       sodipodi:nodetypes="csssccsssc"
       inkscape:path-effect="#path-effect1686" />
  </g>
</svg>
