<?xml version="1.0" encoding="UTF-8" standalone="no"?>
<svg
   xmlns:dc="http://purl.org/dc/elements/1.1/"
   xmlns:cc="http://creativecommons.org/ns#"
   xmlns:rdf="http://www.w3.org/1999/02/22-rdf-syntax-ns#"
   xmlns:svg="http://www.w3.org/2000/svg"
   xmlns="http://www.w3.org/2000/svg"
   xmlns:sodipodi="http://sodipodi.sourceforge.net/DTD/sodipodi-0.dtd"
   xmlns:inkscape="http://www.inkscape.org/namespaces/inkscape"
   version="1.1"
   id="Layer_1"
   x="0px"
   y="0px"
   viewBox="0 0 700 497"
   style="enable-background:new 0 0 700 497;"
   xml:space="preserve"
   sodipodi:docname="Пример_2.svg"
   inkscape:version="1.0.1 (c497b03c, 2020-09-10)"><metadata
   id="metadata993"><rdf:RDF><cc:Work
       rdf:about=""><dc:format>image/svg+xml</dc:format><dc:type
         rdf:resource="http://purl.org/dc/dcmitype/StillImage" /></cc:Work></rdf:RDF></metadata><defs
   id="defs991"><filter
     inkscape:collect="always"
     style="color-interpolation-filters:sRGB"
     id="filter1592"
     x="-0.016986019"
     width="1.033972"
     y="-0.015264366"
     height="1.0305287"><feGaussianBlur
       inkscape:collect="always"
       stdDeviation="2.6165546"
       id="feGaussianBlur1594" /></filter></defs><sodipodi:namedview
   pagecolor="#ffffff"
   bordercolor="#666666"
   borderopacity="1"
   objecttolerance="10"
   gridtolerance="10"
   guidetolerance="10"
   inkscape:pageopacity="0"
   inkscape:pageshadow="2"
   inkscape:window-width="1612"
   inkscape:window-height="1026"
   id="namedview989"
   showgrid="false"
   inkscape:zoom="1.8614286"
   inkscape:cx="350"
   inkscape:cy="248.5"
   inkscape:window-x="0"
   inkscape:window-y="25"
   inkscape:window-maximized="0"
   inkscape:current-layer="Layer_1" />
<style
   type="text/css"
   id="style918">
	.st0{opacity:0.62;}
	.st1{fill:#F96450;}
	.st2{fill:#A01604;}
</style>
<g
   id="g952"
   style="opacity:0.24115756;filter:url(#filter1592)">
	<g
   class="st0"
   id="g936">
		<path
   d="M215.2,293.5c0.3-29.6,9.9-61.5,26.1-91.5L206,183.9c-25,43.5-40,90.4-40.3,133.7L215.2,293.5z"
   id="path920" />
		<path
   d="M251.8,369.5c-16.7-9.6-28.7-26.1-33.8-48.4l-50.2,24.5c5.8,35.6,23.4,61.6,49.1,75.9L251.8,369.5z"
   id="path922" />
		<path
   d="M260.8,171c20.5-28.1,46.5-52.9,75.3-69.9V51.4c-42.4,23.9-80.7,60.2-110.2,101.6L260.8,171z"
   id="path924" />
		<path
   d="M365.1,37.3v49.6c30.1-11.5,57.3-11.7,78.2-2.2l35-52C448.3,18.7,408.8,19.4,365.1,37.3z"
   id="path926" />
		<path
   d="M462.2,97.5c14.8,14.3,23.5,36,23.8,63.9l49.4-24.1c-0.3-41.5-14.3-73.1-37.8-92.4L462.2,97.5z"
   id="path928" />
		<path
   d="M483.2,191.8c-4.9,25.8-15.8,52.4-31.2,77.2l35,17.9c24.2-38.2,40.8-79.8,46.4-119.6L483.2,191.8z"
   id="path930" />
		<path
   d="M430.6,299c-18.7,22.9-41.2,42.9-65.5,57.3v49.6c37.9-21.4,72.7-52.8,100.7-88.9L430.6,299z"
   id="path932" />
		<path
   d="M336.1,370.4c-22.9,8.7-44.1,10.9-62.2,7.3l-35.4,52.6c27.5,7.6,61,4.7,97.6-10.3V370.4z"
   id="path934" />
	</g>
	<g
   id="g950">
		<path
   d="M303.2,248.9c-4.2,2.4-5,3.5-5,8.2v14.4c-4,5.2-10.9,10.3-18.3,14c-7.3,3.6-14.7,4.4-19.4,1.8c-4-2.3-6-6.9-6-13.9    c0-7.9,2.9-15.9,7.7-22.7c4.3-6.1,10.2-11.2,17.2-14.6c3.9-1.9,6.3-2.5,9.6-3c1.4-0.2,2.4-0.5,3.2-0.8c1.5-0.7,2.8-2.4,3.2-4    l1.6-0.8l0.6,14.9l-1.7,0.8c-1.8-3.5-3-4.8-5.1-5.9c-2.7-1.3-6.5-0.8-10.5,1.2c-5,2.4-8.9,6.2-12,10.8c-3.8,5.7-5.5,13.1-5.5,20.2    c0,13.4,7.6,17.7,18.9,12.2c5.5-2.7,9.6-6.7,9.6-9.1v-11.3c0-5.6-0.7-5.8-6.4-3.5v-1.3l18.4-9V248.9z"
   id="path938" />
		<path
   d="M335.9,254.4c-2.2,3.8-4,5.4-6.5,6.6c-2.7,1.3-4.2,0.6-4.6-3l-0.1,0c-3.8,6.2-7.3,8.8-10.4,10.3c-4.5,2.2-7.6,1-7.6-3.8    c0-3.7,2.2-7.6,5-10.9c2.2-2.5,4.8-5.2,13-12.2v-3.9c0-4.5-2.4-5.3-5.6-3.7c-2.9,1.4-5,4-5,6c0,1.3,0.4,1.3,0.4,2.8    c0,1.4-1.4,3.7-3.3,4.6c-1.5,0.7-3.1,0.1-3.1-1.8c0-1.9,1.2-4.7,3.7-7.6c2-2.3,5-4.6,8.3-6.2c4-2,6.8-2.1,8.5-0.9    c1.7,1.2,2,2.6,2,7v13.8c0,3.3,0.9,4.3,2.2,3.7c1.2-0.6,1.9-1.3,3.1-2.9V254.4z M324.8,243.2c-4.5,3.8-7.4,6.7-9.2,9.2    c-1.7,2.4-2.4,4.5-2.4,6.7c0,3.8,2.2,4.5,5,3.1c1.4-0.7,3-1.8,4.2-3.2c2.1-2.5,2.5-3.7,2.5-5.8V243.2z"
   id="path940" />
		<path
   d="M347.6,225.1c3.6-6.9,5.6-9.5,8.6-11c2.4-1.2,4-0.5,4,1.9c0,2-1.1,3.8-2.8,4.6c-0.9,0.5-1.7,0.5-2.9,0    c-0.8-0.3-1.4-0.4-1.9-0.2c-2,1-5,6.1-5,8.4v16.2c0,4.1,1.2,4.6,6.1,2.4v1.1l-17.3,8.4v-1.1c4.6-3.1,5.1-3.9,5.1-7.5v-18    c0-3.2-0.6-4-2.4-3.1c-0.9,0.4-1.5,0.8-2.5,1.5v-1.2c4.2-3.4,6.8-5.7,10.7-9.1l0.4,0V225.1z"
   id="path942" />
		<path
   d="M362.6,244.1V243c5-2.7,5.7-3.7,5.7-9.2v-16.3c0-3.4-0.6-4.3-2.4-3.4c-0.6,0.3-1.7,0.8-3,1.8v-1.2l11.2-9.4l0.3,0.1v25.3    c0,5.3,0.6,5.8,5.3,3.9v1.1L362.6,244.1z M370.6,198.3c-2,1-3.6,0.2-3.6-1.9c0-2,1.7-4.5,3.7-5.5c2.1-1,3.7-0.1,3.7,1.9    C374.4,194.9,372.8,197.3,370.6,198.3z"
   id="path944" />
		<path
   d="M411.1,209.9c-2.3,5.6-3.7,8.4-5.9,11.2c-2.4,3.2-5.2,5.6-8.3,7.1c-8,3.9-13.7,0-13.7-9.3c0-6,2.2-12,6-17.1    c2.9-3.8,6.3-6.8,9.7-8.4c6-3,11.1-2,11.1,2c0,1.7-1.5,3.8-3.4,4.7c-1.6,0.8-2.9,0.2-3.5-1.6l-0.4-1.4c-0.7-2.3-1.7-2.6-4.2-1.4    c-5.8,2.8-9.8,9.8-9.8,17.3c0,8.3,4.5,11.8,11.2,8.6c4.1-2,6.7-5,10.2-11.7L411.1,209.9z"
   id="path946" />
		<path
   d="M432.1,210.2v-1.1c4.2-2.5,4.9-3.7,4.9-8.7v-14.3c0-5-1.8-6.8-5.3-5c-2.9,1.4-5,3.7-8.1,8.5V207c0,5,0.7,5.5,4.9,3.9v1.1    l-15.6,7.6v-1.1c4.2-2.6,4.6-3.5,4.6-8.5v-33.9c0-3.1-0.6-3.4-3.7-1.9c-0.3,0.1-0.6,0.3-0.9,0.5v-1.2l1.9-1.5    c4.1-3.2,5.8-4.5,8.3-6.6l0.4,0v21.9c3.3-5.9,6.3-9.1,10.6-11.2c5.9-2.9,8.9-0.4,8.9,7.1v14.3c0,5,0.4,5.3,4.3,4.2v1.1    L432.1,210.2z"
   id="path948" />
	</g>
</g>
<g
   id="g986">
	<g
   class="st0"
   id="g970">
		<path
   class="st1"
   d="M255.1,300c0.3-29.6,9.9-61.5,26.1-91.5L246,190.5c-25,43.5-40,90.4-40.3,133.7L255.1,300z"
   id="path954" />
		<path
   class="st1"
   d="M291.8,376c-16.7-9.6-28.7-26.1-33.8-48.4l-50.2,24.5c5.8,35.6,23.4,61.6,49.1,75.9L291.8,376z"
   id="path956" />
		<path
   class="st1"
   d="M300.8,177.5c20.5-28.1,46.5-52.9,75.3-69.9V58c-42.4,23.9-80.7,60.2-110.2,101.6L300.8,177.5z"
   id="path958" />
		<path
   class="st1"
   d="M405,43.8v49.6c30.1-11.5,57.3-11.7,78.2-2.2l35-52C488.2,25.2,448.8,25.9,405,43.8z"
   id="path960" />
		<path
   class="st1"
   d="M502.2,104c14.8,14.3,23.5,36,23.8,63.9l49.4-24.1c-0.3-41.5-14.3-73.1-37.8-92.4L502.2,104z"
   id="path962" />
		<path
   class="st1"
   d="M523.1,198.3c-4.9,25.8-15.8,52.4-31.2,77.2l35,17.9c24.2-38.2,40.8-79.8,46.4-119.6L523.1,198.3z"
   id="path964" />
		<path
   class="st1"
   d="M470.5,305.5c-18.7,22.9-41.2,42.9-65.5,57.3v49.6c37.9-21.4,72.7-52.8,100.7-88.9L470.5,305.5z"
   id="path966" />
		<path
   class="st1"
   d="M376,376.9c-22.9,8.7-44.1,10.9-62.2,7.3l-35.4,52.6c27.5,7.6,61,4.7,97.6-10.3V376.9z"
   id="path968" />
	</g>
	<g
   id="g984">
		<path
   class="st2"
   d="M343.1,255.4c-4.2,2.4-5,3.5-5,8.2V278c-4,5.2-10.9,10.3-18.3,14c-7.3,3.6-14.7,4.4-19.4,1.8    c-4-2.3-6-6.9-6-13.9c0-7.9,2.9-15.9,7.7-22.7c4.3-6.1,10.2-11.2,17.2-14.6c3.9-1.9,6.3-2.5,9.6-3c1.4-0.2,2.4-0.5,3.2-0.8    c1.5-0.7,2.8-2.4,3.2-4l1.6-0.8l0.6,14.9l-1.7,0.8c-1.8-3.5-3-4.8-5.1-5.9c-2.7-1.3-6.5-0.8-10.5,1.2c-5,2.4-8.9,6.2-12,10.8    c-3.8,5.7-5.5,13.1-5.5,20.2c0,13.4,7.6,17.7,18.9,12.2c5.5-2.7,9.6-6.7,9.6-9.1v-11.3c0-5.6-0.7-5.8-6.4-3.5v-1.3l18.4-9V255.4z"
   id="path972" />
		<path
   class="st2"
   d="M375.9,260.9c-2.2,3.8-4,5.4-6.5,6.6c-2.7,1.3-4.2,0.6-4.6-3l-0.1,0c-3.8,6.2-7.3,8.8-10.4,10.3    c-4.5,2.2-7.6,1-7.6-3.8c0-3.7,2.2-7.6,5-10.9c2.2-2.5,4.8-5.2,13-12.2v-3.9c0-4.5-2.4-5.3-5.6-3.7c-2.9,1.4-5,4-5,6    c0,1.3,0.4,1.3,0.4,2.8c0,1.4-1.4,3.7-3.3,4.6c-1.5,0.7-3.1,0.1-3.1-1.8c0-1.9,1.2-4.7,3.7-7.6c2-2.3,5-4.6,8.3-6.2    c4-2,6.8-2.1,8.5-0.9c1.7,1.2,2,2.6,2,7v13.8c0,3.3,0.9,4.3,2.2,3.7c1.2-0.6,1.9-1.3,3.1-2.9V260.9z M364.7,249.8    c-4.5,3.8-7.4,6.7-9.2,9.2c-1.7,2.4-2.4,4.5-2.4,6.7c0,3.8,2.2,4.5,5,3.1c1.4-0.7,3-1.8,4.2-3.2c2.1-2.5,2.5-3.7,2.5-5.8V249.8z"
   id="path974" />
		<path
   class="st2"
   d="M387.5,231.6c3.6-6.9,5.6-9.5,8.6-11c2.4-1.2,4-0.5,4,1.9c0,2-1.1,3.8-2.8,4.6c-0.9,0.5-1.7,0.5-2.9,0    c-0.8-0.3-1.4-0.4-1.9-0.2c-2,1-5,6.1-5,8.4v16.2c0,4.1,1.2,4.6,6.1,2.4v1.1l-17.3,8.4v-1.1c4.6-3.1,5.1-3.9,5.1-7.5v-18    c0-3.2-0.6-4-2.4-3.1c-0.9,0.4-1.5,0.8-2.5,1.5v-1.2c4.2-3.4,6.8-5.7,10.7-9.1l0.4,0V231.6z"
   id="path976" />
		<path
   class="st2"
   d="M402.5,250.6v-1.1c5-2.7,5.7-3.7,5.7-9.2V224c0-3.4-0.6-4.3-2.4-3.4c-0.6,0.3-1.7,0.8-3,1.8v-1.2l11.2-9.4    l0.3,0.1v25.3c0,5.3,0.6,5.8,5.3,3.9v1.1L402.5,250.6z M410.6,204.9c-2,1-3.6,0.2-3.6-1.9c0-2,1.7-4.5,3.7-5.5    c2.1-1,3.7-0.1,3.7,1.9C414.3,201.5,412.7,203.8,410.6,204.9z"
   id="path978" />
		<path
   class="st2"
   d="M451,216.4c-2.3,5.6-3.7,8.4-5.9,11.2c-2.4,3.2-5.2,5.6-8.3,7.1c-8,3.9-13.7,0-13.7-9.3c0-6,2.2-12,6-17.1    c2.9-3.8,6.3-6.8,9.7-8.4c6-3,11.1-2,11.1,2c0,1.7-1.5,3.8-3.4,4.7c-1.6,0.8-2.9,0.2-3.5-1.6l-0.4-1.4c-0.7-2.3-1.7-2.6-4.2-1.4    c-5.8,2.8-9.8,9.8-9.8,17.3c0,8.3,4.5,11.8,11.2,8.6c4.1-2,6.7-5,10.2-11.7L451,216.4z"
   id="path980" />
		<path
   class="st2"
   d="M472,216.7v-1.1c4.2-2.5,4.9-3.7,4.9-8.7v-14.3c0-5-1.8-6.8-5.3-5c-2.9,1.4-5,3.7-8.1,8.5v17.4    c0,5,0.7,5.5,4.9,3.9v1.1l-15.6,7.6V225c4.2-2.6,4.6-3.5,4.6-8.5v-33.9c0-3.1-0.6-3.4-3.7-1.9c-0.3,0.1-0.6,0.3-0.9,0.5V180    l1.9-1.5c4.1-3.2,5.8-4.5,8.3-6.6l0.4,0v21.9c3.3-5.9,6.3-9.1,10.6-11.2c5.9-2.9,8.9-0.4,8.9,7.1v14.3c0,5,0.4,5.3,4.3,4.2v1.1    L472,216.7z"
   id="path982" />
	</g>
</g>
</svg>
