<?xml version="1.0" encoding="utf-8"?>
<!-- Generator: Adobe Adobe Illustrator 24.2.0, SVG Export Plug-In . SVG Version: 6.00 Build 0)  -->
<svg version="1.1" id="Layer_1" xmlns="http://www.w3.org/2000/svg" xmlns:xlink="http://www.w3.org/1999/xlink" x="0px" y="0px"
	 viewBox="0 0 890 720" style="enable-background:new 0 0 890 720;" xml:space="preserve">
<style type="text/css">
	.st0{fill:#CDDAE8;}
	.st1{fill:#292929;}
	.st2{fill:#F5F5F5;stroke:#000000;stroke-width:3;stroke-miterlimit:10;}
	.st3{fill:#5DA2CF;stroke:#000000;stroke-width:3;stroke-miterlimit:10;}
	.st4{fill:none;stroke:#FFFFFF;stroke-miterlimit:10;}
	.st5{fill:#FFFFFF;}
	.st6{fill:none;}
	.st7{font-family:'SourceSansPro-Regular';}
	.st8{font-size:100.375px;}
	.st9{opacity:0.851;fill:url(#SVGID_1_);}
</style>
<circle class="st0" cx="411" cy="362.06" r="259"/>
<circle class="st1" cx="411" cy="362.06" r="248.16"/>
<circle class="st0" cx="411" cy="362.06" r="163.84"/>
<g>
	<circle class="st2" cx="411" cy="362.06" r="154.2"/>
	<path class="st3" d="M411,362.06H256.8c0-85.16,69.04-154.2,154.2-154.2V362.06z"/>
	<path class="st3" d="M411,362.06l154.2,0c0,85.16-69.04,154.2-154.2,154.2L411,362.06z"/>
</g>
<path class="st4" d="M245.76,113.6"/>
<g>
	<path class="st5" d="M214.2,230.57l10.98-16.2c7.49-11.05,16.46-16.25,26.02-9.77c5.4,3.66,8.25,9.83,6.48,16.03l0.33,0.23
		c5.64-5.64,13.06-7.28,20.53-2.21c10.72,7.26,10.21,19.29,1.99,31.42l-11.82,17.45L214.2,230.57z M247.57,231.24
		c6.25-9.22,5.43-15.35-0.14-19.13c-6.32-4.28-11.57-1.53-17.31,6.94l-5.63,8.31l17.62,11.94L247.57,231.24z M274.29,247.28
		c6.31-9.31,6.64-16.96-0.67-21.91c-6.73-4.56-13.35-1.41-19.77,8.06l-6.42,9.47l20.44,13.85L274.29,247.28z"/>
</g>
<rect x="376.08" y="121.9" class="st6" width="145.84" height="129.87"/>
<text transform="matrix(1 0 0 1 376.0793 193.3656)" class="st5 st7 st8">M</text>
<text transform="matrix(0.5395 0.842 -0.842 0.5395 531.4967 235.766)" class="st5 st7 st8">W</text>
<radialGradient id="SVGID_1_" cx="318.3097" cy="258.216" r="269.2539" gradientUnits="userSpaceOnUse">
	<stop  offset="0" style="stop-color:#FFFFFF"/>
	<stop  offset="1" style="stop-color:#FFFFFF;stop-opacity:0"/>
</radialGradient>
<circle class="st9" cx="411" cy="362.06" r="259"/>
<path class="st4" d="M252.87,150.84"/>
<path class="st4" d="M413.77,365.76c0.3,19.81,0.07,39.62-0.7,59.42"/>
<path class="st4" d="M413.58,366.16c1.99-0.71,4.14-0.82,6.25-0.92c25.66-1.18,51.38-1.19,77.04-0.01"/>
<path class="st4" d="M260.3,358.25c0.77-44.54,22.73-88.26,58-115.46c3.52-2.71,7.16-5.27,10.92-7.64c3.32-2.09,6.72-4.02,10.2-5.83
	c20.52-10.7,43.32-16.99,67.16-18.08c0.33,14.89,0.65,29.77,0.98,44.66"/>
<path class="st4" d="M447.26,121.89c-25.07-4.1-50.76-3.99-75.82,0.18c-25.07,4.17-49.41,12.36-72.04,23.9
	c-19.76,10.07-38,23.03-54.14,38.24c-15.47,14.58-28.97,31.22-40.08,49.34c-11.05,18.03-19.73,37.5-25.69,57.79
	c-0.73,2.48-1.42,4.97-2.06,7.47"/>
</svg>
