<?xml version="1.0" encoding="utf-8"?>
<!-- Generator: Adobe Adobe Illustrator 24.2.0, SVG Export Plug-In . SVG Version: 6.00 Build 0)  -->
<svg version="1.1" id="Layer_1" xmlns="http://www.w3.org/2000/svg" xmlns:xlink="http://www.w3.org/1999/xlink" x="0px" y="0px"
	 viewBox="0 0 1000 1080" style="enable-background:new 0 0 1000 1080;" xml:space="preserve">
<style type="text/css">
	.st0{fill:#8BB5A8;}
	.st1{fill:#9E6626;stroke:#4D2929;stroke-width:9;stroke-miterlimit:10;}
	.st2{fill:#E3BD91;}
	.st3{fill:#FFFFFF;}
	.st4{fill:#D9D4C3;stroke:#292B2A;stroke-miterlimit:10;}
	.st5{fill:#B5601F;stroke:#0D0C0C;stroke-miterlimit:10;}
	.st6{fill:#D9D4C3;stroke:#000000;stroke-miterlimit:10;}
	.st7{fill:#B5601F;stroke:#000000;stroke-miterlimit:10;}
	.st8{fill:#D9D4C3;}
	.st9{fill:#D9D4C3;stroke:#171717;stroke-miterlimit:10;}
	.st10{fill:#FFEA30;}
	.st11{fill:#D9D4C3;stroke:#1C1B1B;stroke-miterlimit:10;}
	.st12{fill:#21AD6E;}
	.st13{fill:#D9D4C3;stroke:#030303;stroke-miterlimit:10;}
	.st14{fill:#D9D4C3;stroke:#0A0A0A;stroke-miterlimit:10;}
	.st15{fill:#B5601F;stroke:#242424;stroke-miterlimit:10;}
	.st16{fill:#B5601F;}
	.st17{stroke:#000000;stroke-miterlimit:10;}
	.st18{fill:#FFFCFA;}
	.st19{fill:#0D0C0C;}
	.st20{opacity:0.5686;fill:#8BB5A8;}
	.st21{opacity:0.7882;fill:#FFFFFF;}
</style>
<path class="st0" d="M221.69,270.53V160.1c0-12.85,10.41-23.26,23.26-23.26h491.23c12.85,0,23.26,10.41,23.26,23.26v110.43
	c0,12.85-10.41,23.26-23.26,23.26H244.95C232.1,293.79,221.69,283.37,221.69,270.53z"/>
<path class="st0" d="M655.23,521.4V273.2H325.89v248.2c-105.08,58.08-176.25,170-176.25,298.56c0,84.79,30.96,162.34,82.18,221.98
	H749.3c51.22-59.65,82.18-137.19,82.18-221.98C831.48,691.4,760.31,579.48,655.23,521.4z"/>
<g>
	<path class="st1" d="M365.2,289.05l-22.26-185.37c-3.23-26.85,18.04-50.46,45.46-50.46h219.76c28.34,0,49.88,25.15,45.13,52.71
		L621.01,293.5c-3.78,21.94-23.19,37.89-45.75,37.59l-165.21-2.2C387.08,328.58,367.91,311.55,365.2,289.05z"/>
	<ellipse class="st2" cx="420.36" cy="139.7" rx="20.24" ry="19.96"/>
	<ellipse class="st2" cx="576.93" cy="199.61" rx="21.48" ry="21.19"/>
	<ellipse class="st2" cx="401.61" cy="255.35" rx="18.75" ry="18.49"/>
	<ellipse class="st2" cx="573.21" cy="106.61" rx="17.76" ry="17.52"/>
	<ellipse class="st2" cx="490.79" cy="179.64" rx="20.25" ry="19.98"/>
	<ellipse class="st2" cx="380.69" cy="93.77" rx="13.02" ry="12.84"/>
	<ellipse class="st2" cx="561.31" cy="287.59" rx="27.26" ry="22.81"/>
</g>
<path class="st3" d="M723.34,1023.75H257.78l-2.12-2.57c-48.04-58.2-74.5-132.54-74.5-209.31c0-115.6,59.8-222.33,156.34-279.55
	l2.61-236.52l304.88,1.11l-1.3,235.45c96.5,57.23,156.27,163.93,156.27,279.51c0,76.77-26.46,151.11-74.5,209.31L723.34,1023.75z
	 M264.48,1009.6h452.17c44.63-55.29,69.16-125.36,69.16-197.73c0-111.94-58.53-215.14-152.75-269.33l-3.57-2.05l1.27-229.48
	l-276.66-1.01l-2.54,230.52l-3.5,2.02c-94.22,54.18-152.75,157.38-152.75,269.33C195.32,884.23,219.85,954.31,264.48,1009.6z"/>
<path class="st3" d="M695.76,284.14H285.37c-24.12,0-43.74-19.62-43.74-43.74v-50.17c0-24.12,19.62-43.74,43.74-43.74h410.39
	c24.12,0,43.74,19.62,43.74,43.74v50.17C739.5,264.52,719.88,284.14,695.76,284.14z M285.37,158.06
	c-17.73,0-32.16,14.43-32.16,32.16v50.17c0,17.73,14.43,32.16,32.16,32.16h410.39c17.73,0,32.16-14.43,32.16-32.16v-50.17
	c0-17.73-14.43-32.16-32.16-32.16H285.37z"/>
<g>
	<path class="st4" d="M359.14,910.25c-25.33-20.27-43.33-49.51-50.04-81.25c44.58,16.83,89.17,33.66,133.75,50.5
		C419.06,896.92,390.46,907.69,359.14,910.25z"/>
	<path class="st5" d="M519.82,764.98c20.18,26.85,40.35,53.7,60.53,80.55c0.32-12.15,0.64-24.29,0.96-36.44
		c6.12,4.26,12.24,8.52,18.36,12.78c-5.68-14.58-11.36-29.16-17.04-43.74c14.48,10.82,31.69,17.94,49.58,20.52
		c-8.07-7.2-16.15-14.41-24.22-21.61c14.23,3.48,29.49,2.63,43.25-2.41c-39.07-7.74-76.21-25.03-107.28-49.95
		C535.51,735.53,527.05,746.37,519.82,764.98z"/>
	<path class="st6" d="M524.42,716.79c15.17,16.46,30.33,32.92,45.5,49.38c11.59,12.58,35,11.36,47.33-0.59
		c12.33-11.95,13.92-31.35,6.68-46.51s-21.9-26.36-37.97-33.41s-33.66-10.43-51.06-13.75L524.42,716.79z"/>
	<path class="st7" d="M403.16,752.04c-18.33,23.45-42.02,42.68-68.73,55.81c15.38-1.91,30.77-3.81,46.15-5.72
		c-4.99,9.84-9.97,19.67-14.96,29.51c11.39-10.41,22.79-20.82,34.18-31.24c-4.06,13.76-8.13,27.52-12.19,41.29
		c6.98-10.1,13.96-20.19,20.94-30.29c2.99,12.65,5.98,25.29,8.97,37.94c3.62-17.64,10.9-34.52,21.25-49.26
		c2.62,14.4,5.23,28.8,7.85,43.2c4.83-30.58,9.66-61.15,14.49-91.73C443.4,748.66,425.7,745.77,403.16,752.04z"/>
	<path class="st6" d="M401.1,683.93c-27.85,17.24-49.3,44.57-59.42,75.73c-5.52,17.01,8.72,36.02,26.23,39.69
		c17.51,3.66,35.77-4.99,48.22-17.83s20.21-29.4,27.73-45.63L401.1,683.93z"/>
	<circle class="st8" cx="480.46" cy="688.11" r="105.51"/>
	<path class="st8" d="M494.72,751.99c-1.28,5.08-1.12,14.04-7.16,16.08c-6.77,2.29-9.89-11.18-8.84-15.8
		c0.52-2.28-2.99-3.26-3.51-0.97c-1.1,4.8,0.37,9.21,2.27,13.61c1.53,3.53,3.83,7.07,8.12,7.06c9.59-0.02,11.31-12.47,12.22-19.56
		C498.05,750.63,495.15,750.3,494.72,751.99z"/>
	<path class="st8" d="M447.19,764.18c-35.9,42.14-55.8,97.59-54.88,152.94c0.62,37.7,29.99,72.1,66.42,81.81
		c36.43,9.7,77.21-4.03,102.97-31.57c25.76-27.53,36.81-67.19,32.6-104.66s-22.78-72.55-48.78-99.85
		c-17.27-18.14-49.25-19.34-67.83-2.56L447.19,764.18z"/>
	<path class="st8" d="M406.63,901.33c-5.94-12.22-23.4-15.57-35.29-8.99c-11.89,6.58-18.32,20.39-19.55,33.92
		c-1.23,13.53,1.94,27.03,5.09,40.25c4.46,18.72,23.13,33,42.37,32.42c19.24-0.59,37-15.98,40.31-34.94
		C442.88,945.03,421.47,931.84,406.63,901.33z"/>
	<path class="st8" d="M568.42,907.11c-9.34,9.09-18.82,18.36-25.12,29.78c-6.29,11.42-9.04,25.5-4.19,37.6
		c4.86,12.1,18.74,20.85,31.25,17.16c18.31-5.4,36.16-14.77,47.55-30.09s14.94-37.38,5.11-53.74S589.93,886.19,568.42,907.11z"/>
	<path class="st6" d="M325.52,962.47c22.37,33.04,64.53,51.45,103.97,45.42c17.58-2.69,27.96-26.22,18.09-41.02
		c-23.03-34.55-67.38-53.47-108.26-46.2C325.84,923.07,311.95,942.43,325.52,962.47z"/>
	<path class="st9" d="M562.33,947.36c-20.12,3.74-38.93,21.9-37.86,40.95c1.07,19.06,23.22,33.69,41.17,27.2
		c13.85-5.01,28.52-7.26,42.81-10.86s28.61-8.83,39.56-18.68c10.95-9.85,17.93-25.18,14.54-39.51
		c-3.39-14.34-19.25-25.54-33.25-20.96C609.7,931.9,595.42,936.54,562.33,947.36z"/>
	<path class="st10" d="M554.33,771.01c21.28,32.07,38.36,69.2,38.36,107.68c0,17.37-4.02,15.75-11.23,18.73
		c-66.81,27.6-157.3-4.34-189.99-27.5c-11.01-21.12-11.69-35.25-7.21-47.53c4.48-12.28,15.9-21.76,28.79-23.91
		c8.93-1.49,16.45-9.25,18.9-18.91c17.75,11.27,42.96,18.78,63.92,17.19C516.83,795.17,533.43,784.49,554.33,771.01z"/>
	<path class="st11" d="M513,591.14l93.33-64.94c7.23-5.03,17.24-0.49,18.15,8.27c5.54,53.3-12.43,108.89-48.85,148.31"/>
	<path class="st12" d="M583.39,833.21c-0.79-5.88-4.67-9.45-9.98-11.58c-5.58-2.24-13.41-0.04-19.28,0.52
		c-5.64,0.53-11.28,0.97-16.94,1.28c-11.28,0.63-22.58,0.61-33.83-0.52c-2.59-0.26-5.17-0.59-7.76-0.88
		c-0.74-0.08-1.48-0.16-2.23-0.25c-1.3-0.2-2.6-0.39-3.9-0.62c-5.43-0.93-10.76-2.23-16.12-3.46c-10.74-2.46-21.34-5.23-31.9-8.37
		c-6.26-1.86-13.88,2.24-15.35,8.72c-1.66,7.27,2.24,12.68,8.72,15.35c7.19,2.97,9.74,4.04,16.53,6.83
		c5.1,2.09,10.23,4.24,15.48,5.92c11.6,3.71,23.73,6.29,35.88,7.19c11.46,0.85,23.01,0.57,34.47-0.23
		c5.66-0.39,11.3-0.96,16.94-1.59c3.03-0.34,6.07-0.7,9.1-1.07c4.64-0.57,9.58-0.53,13.51-3.36
		C581.4,843.75,584.19,839.16,583.39,833.21z"/>
	<path class="st12" d="M589.16,859.03c-2.68-1.86-5.62-2.44-8.82-2.31c-2.63,0.34-3.94,0.51-3.95,0.52
		c-0.76,0.08-1.51,0.18-2.27,0.29c-0.33,0.03-3.06,0.37-3.54,0.43c-1.49,0.2-2.57,0.34-3.27,0.44c-0.56,0.07-1.11,0.14-1.67,0.2
		c-6.64,0.72-13.33,1.24-20,1.56c-12.75,0.61-25.5,0.75-38.26,0.42c-6.55-0.17-13.06-0.6-19.58-1.19c-2.84-0.26-5.68-0.53-8.52-0.86
		c-1.62-0.19-3.23-0.41-4.85-0.61c-0.51-0.06-1.01-0.13-1.52-0.19c-0.08-0.01-0.17-0.02-0.26-0.04c-4.2-0.66-8.41-1.22-12.64-1.66
		c-1.59-0.16-3.17-0.37-4.76-0.55c-0.18-0.02-0.34-0.04-0.48-0.06c-0.49-0.07-0.99-0.14-1.48-0.22c-6.41-0.99-12.75-2.32-18.95-4.22
		c-6.32-1.93-13.13,1.8-15.61,7.66c-2.34,5.54-0.59,13.79,5.41,16.52c12.27,5.57,25.35,11.29,38.79,13.22
		c13.78,1.98,27.47,2.51,41.38,2.68c12.93,0.16,25.89,0.06,38.82-0.06c7.7-0.07,15.29-0.43,22.92-1.52c3.28-0.47,6.6-0.93,9.81-1.75
		c1.6-0.41,3.21-0.91,4.77-1.47c0.82-0.33,1.64-0.68,2.45-1.02c5.13-0.44,9.72-3.48,11.85-8.54
		C597.81,869.9,595.02,863.1,589.16,859.03z"/>
	<path class="st13" d="M432.74,602.44c-24.18-18.65-45.15-41.42-61.82-67c-4.87-7.48-16.32-5.12-17.91,3.66
		c-10.03,55.31,4.82,115.04,40.64,158.52"/>
	<path class="st14" d="M591.42,792.45c-19,4.08-33.35,23.64-31.53,42.99c1.82,19.35,19.56,35.89,38.99,36.36
		s37.94-15.21,40.68-34.45S628.91,797.88,591.42,792.45z"/>
	<path class="st6" d="M443.02,798.18c-20.63-7.42-46.06,3.23-55.26,23.13c-9.2,19.9-0.83,46.17,18.19,57.08
		c19.02,10.91,45.92,4.88,58.45-13.11S478.11,810.8,443.02,798.18z"/>
	<path class="st15" d="M541.21,659.46c9.12,48.25,3.87,99.12-14.92,144.48c22.73-15.72,36.88-41.56,43.86-68.3
		c6.98-26.74,7.54-54.68,8.05-82.32L541.21,659.46z"/>
	<path class="st7" d="M484.39,594.11c-11.19,20.08-4.09,48.31,15.27,60.7c57.92,37.07,135.38,41.35,197.02,10.88
		c-56.41,11.76-118.89-19.81-142.88-72.2C542.31,568.41,503.99,558.95,484.39,594.11z"/>
	<path class="st7" d="M393.9,690.35c0.82,43.33,16.54,86.25,43.9,119.85c-14.88-42.37-19.24-88.4-12.56-132.8L393.9,690.35z"/>
	<path class="st7" d="M481.18,566.78c-27.85-3.5-57.12,11.47-70.59,36.09c-3.08,5.63-6.43,11.1-10,16.42
		c-4.49-4.46-8.01-10.27-10.65-16.05c-4.93-10.76-8.4-22.63-16.65-31.11c1.39,18.87,2.77,37.74,4.16,56.6
		c0.35,4.75-0.19,12.61,1.09,18.17c-25.67,27.26-58.3,48.01-94.08,59.08c67.9,20.77,146.86-0.7,194.9-52.99
		C499.88,630.64,503.26,594.34,481.18,566.78z"/>
	<path class="st16" d="M552.24,603.44c16.14-8.42,32.92-20.77,45.19-34.59c-6.14,21.92-12.28,43.84-18.42,65.76
		c-2.11,7.52-12.16,10.72-19.22,7.37s-10.98-11.33-11.64-19.11C547.5,615.09,552.24,612.75,552.24,603.44z"/>
	<ellipse class="st17" cx="456.42" cy="709.41" rx="6.32" ry="9.32"/>
	<ellipse class="st17" cx="518.1" cy="709.41" rx="6.32" ry="9.32"/>
	<path d="M503.03,732.3c-3.13-0.54-4.54,4.09-1.34,4.85c3.14,0.75,10.4,3,6.54,7.75c-2.01,2.47-6.35,4.85-9.53,4
		c-2.75-0.73-4.83-3.33-6.6-5.4c-2.87-3.35-3.8-6.23-3.68-10.68c0-0.09-0.01-0.16-0.02-0.25c0.48-0.34,1.03-0.63,1.47-1.05
		c0.98-0.93,1.78-2.26,1.74-3.66c-0.09-2.98-3.45-4.17-5.78-5.07c-2.42-0.93-6.42-1.62-7.52,1.53c-0.88,2.51,1.36,5.83,2.72,7.78
		c0.07,0.11,0.16,0.19,0.24,0.28c1.26,6.38-2.44,14.69-9.02,16.53c-3.38,0.94-7.56-0.48-9.37-3.55c-0.85-1.44-1.02-3.04-0.41-4.59
		c0.15-0.37,1.08-1.87,1.84-2.6c0.57,0.57,1.42,0.89,2.47,0.71c2.79-0.48,3.34-4.29,1.1-5.81c-2.29-1.56-5.58-0.1-7.43,1.49
		c-5.28,4.54-4.57,12.49,0.62,16.74c4.99,4.1,10.28,4.11,14.74,1.82c0.56,5.75,2.77,12.46,9.63,12.29c6.21-0.16,9.44-6.79,9.9-12.46
		c2.54,1.2,5.36,1.52,8.36,0.38c4.11-1.56,9.24-5.53,9.41-10.33C513.3,737.3,508.22,733.2,503.03,732.3z M485.96,760.77
		c-5.37,1.05-5.87-6.81-5.98-10.26c0-0.14-0.03-0.26-0.05-0.39c2.23-2.13,4.05-4.85,5.24-7.81c1.13,2.29,2.91,4.36,4.58,6.26
		c0.57,0.65,1.18,1.26,1.81,1.82C490.68,754.12,490.69,759.85,485.96,760.77z"/>
	<path d="M467.17,684.85c-5.78-3.28-14.68-3.18-18.57,2.82c-1.42,2.19,2.09,4.23,3.49,2.04c3.35-5.23,9.48-1.89,14.14-1.4
		C468.13,688.51,468.68,685.71,467.17,684.85z"/>
	<path d="M525.54,684.39c-5.07-4.67-14.06-3.01-19.17,0.7c-2.19,1.59-0.09,5.28,2.15,3.67c2.29-1.64,4.78-2.66,7.62-2.75
		c2.72-0.09,4.98,0.96,7.56,1.54C525.45,687.94,527,685.74,525.54,684.39z"/>
	<path class="st18" d="M434.43,605.65c-0.52-2.19-1.77-4.23-3.47-5.49c-3.35-2.5-9.38-2.99-12.27,0.73
		c-6.06,7.8-17.61,22.12-9.69,31.9c5.26,6.5,14.31,5.01,19.35-0.86c3.96-4.62,7.35-10.54,9.53-16.19
		C439.26,612.15,437.37,607.96,434.43,605.65z"/>
	<path class="st18" d="M561,622.35c0.11-2.3-0.31-4.65-1.6-6.55c-0.95-1.4-1.93-2.78-2.96-4.11c-0.43-0.64-0.93-1.24-1.46-1.79
		c-0.06-0.07-0.12-0.14-0.18-0.21c-0.01,0.01-0.01,0.01-0.02,0.02c-0.76-0.75-1.57-1.39-2.35-1.85c-2.51-1.47-6.21-2.09-9.02-1.18
		c-2.83,0.92-5.57,2.67-7,5.38c-1.36,2.58-2.37,6.2-1.18,9.02c1,2.39,2.03,4.68,3.3,6.93c1.49,2.62,4.33,4.76,7.22,5.55
		c0.04,0.01,0.07,0.01,0.11,0.02c1.62,0.92,3.61,1.48,5.21,1.41c2.32-0.1,4.37-0.78,6.22-2.2
		C560.56,630.25,561.88,626.19,561,622.35z"/>
	<path d="M477.8,795.73c-3.2-0.75-6.41-1.43-9.6-2.22c-3.16-0.78-6.31-1.62-9.45-2.5c-3.14-0.89-6.26-1.82-9.36-2.81
		c-2.89-0.92-5.77-1.87-8.58-3.01c-3.17-1.28-6.24-2.81-9.06-4.76c-0.34-0.23-0.65,0.32-0.32,0.55c4.99,3.44,10.73,5.55,16.46,7.4
		c6.24,2.01,12.55,3.81,18.9,5.41c3.6,0.9,7.22,1.8,10.87,2.5C478.01,796.36,478.17,795.82,477.8,795.73z"/>
	<path d="M530.72,784.38c-3.89,2.86-8.11,5.26-12.57,7.12c-4.44,1.85-9.09,3.18-13.83,3.93c-2.7,0.43-5.42,0.65-8.16,0.73
		c-0.39,0.01-0.39,0.62,0,0.61c4.85-0.06,9.71-0.8,14.39-2.05c4.69-1.25,9.24-3.05,13.51-5.37c2.43-1.32,4.76-2.8,6.98-4.43
		C531.36,784.68,531.05,784.14,530.72,784.38z"/>
	<path class="st19" d="M521.8,719.09c-1.37-0.87-3.03-1.15-4.63-1.03c-0.86,0.07-1.72,0.24-2.55,0.46
		c-0.46,0.12-0.91,0.26-1.35,0.41c-0.42,0.14-0.89,0.27-1.26,0.53c-0.28,0.2-0.21,0.72,0.19,0.7c0.8-0.04,1.6-0.44,2.37-0.66
		c0.81-0.23,1.63-0.42,2.47-0.5c1.5-0.14,3.02,0.08,4.3,0.89C521.84,720.21,522.3,719.41,521.8,719.09z"/>
	<path class="st19" d="M460.47,718.94c-1.67-0.76-3.48-0.87-5.28-0.58c-0.94,0.15-1.85,0.41-2.74,0.71
		c-0.44,0.15-0.87,0.31-1.31,0.48c-0.43,0.17-0.96,0.3-1.3,0.63c-0.24,0.24-0.06,0.65,0.27,0.65c0.42,0.01,0.82-0.21,1.2-0.36
		c0.41-0.16,0.82-0.31,1.23-0.46c0.82-0.29,1.66-0.54,2.52-0.7c1.64-0.32,3.4-0.29,4.94,0.4
		C460.53,719.95,460.99,719.18,460.47,718.94z"/>
	<path class="st19" d="M390.29,863.22c-1.17-1.53-3.14-1.61-4.88-1.18c-2.02,0.5-3.92,1.64-5.63,2.79
		c-3.66,2.45-6.75,5.68-9.31,9.25c-2.87,4-5.05,8.44-6.94,12.97c-1.99,4.76-3.76,9.63-5.46,14.5c-1.95,5.58-3.68,11.24-4.88,17.02
		c-0.11,0.51,0.68,0.73,0.79,0.22c1.01-5.01,2.45-9.92,4.08-14.76c1.6-4.75,3.33-9.47,5.18-14.13c3.35-8.47,7.61-16.97,14.82-22.82
		c1.83-1.49,3.86-2.81,6.02-3.77c1.63-0.72,4.26-1.37,5.55,0.3C389.93,863.98,390.59,863.61,390.29,863.22z"/>
	<path class="st19" d="M625.12,911.33c-1.83-4.3-4.62-8.22-8.17-11.26c-3.56-3.06-7.81-5.22-12.42-6.18
		c-3.35-0.7-6.82-0.8-10.21-0.35c0.71-5.28,1.03-10.6,0.94-15.93c-0.03-1.58-0.09-3.15-0.19-4.73c-0.03-0.43-0.69-0.43-0.67,0
		c0.43,6.92,0.17,13.88-0.77,20.76c-1.02,0.16-2.02,0.35-3.02,0.61c-4.54,1.16-8.83,3.41-12.32,6.55c-0.44,0.39-0.86,0.8-1.27,1.23
		c-0.38,0.4,0.22,1.01,0.61,0.61c3.26-3.24,7.19-5.65,11.57-7.06c4.35-1.4,9.01-1.87,13.54-1.2c4.5,0.67,8.8,2.43,12.43,5.18
		c3.64,2.75,6.61,6.4,8.64,10.49c2.04,4.09,3.15,8.65,3.07,13.23c-0.01,0.57-0.04,1.13-0.08,1.7c-0.03,0.38,0.55,0.37,0.58,0
		C627.8,920.32,626.95,915.62,625.12,911.33z"/>
	<path class="st19" d="M525.66,993.23c-10.34,2.63-20.55,5.97-31.14,7.51c-5.27,0.77-10.55,0.95-15.86,0.55
		c-4.95-0.38-9.94-0.83-14.84-1.63c-5.24-0.85-10.45-2.24-15.06-4.92c-0.3-0.17-0.57,0.29-0.27,0.46c4.15,2.41,8.78,3.8,13.47,4.67
		c4.81,0.89,9.71,1.33,14.58,1.77c5.34,0.48,10.65,0.52,15.99-0.12c5.25-0.62,10.42-1.75,15.54-3.03c2.93-0.73,5.85-1.52,8.76-2.3
		c3-0.8,6-1.57,8.98-2.42C526.15,993.67,526,993.14,525.66,993.23z"/>
</g>
<path class="st20" d="M750.61,797.82c-4.33-27.62-10.31-54.73-18.02-81.38c-7.65-10.92-15.08-21.99-22.5-33.05
	c-10.65-15.86-21.25-31.77-32.16-47.46c-10.06-14.46-21.37-28.04-31.27-42.59c-7.57-11.12-14.47-22.61-19.92-34.83
	c-2.22-2.9-4.21-6.01-6.12-9.06c-3.91-6.23-6.6-13.11-9.46-19.87c-3-7.1-5.06-13.64-6.47-21.2c-1.7-9.05-2.89-18.22-3.85-27.38
	c-1.09-10.36,4.97-20.94,11.71-28.28c2.96-3.23,6.52-5.69,10.4-7.52c-1.99-8.95-3.67-17.83-5.07-26.84
	c-3.18-7.33-3.37-15.99-3.22-24.24c-1.62-13.89-2.91-27.82-3.78-41.78c-3.48,0.42-6.97,0.83-10.46,1.22
	c-34.43,3.88-69.18,5.68-103.83,5.25c-17.21-0.21-34.42-1-51.58-2.37c-8.9-0.71-17.79-1.58-26.66-2.6
	c-8.03-0.93-16.11-2.31-24.2-2.69c-2.04,0.28-4.09,0.48-6.13,0.48c-3.49,0-6.96-0.5-10.39-1.16c-0.37,8.06-0.78,16.11-1.2,24.16
	c-1.83,35.03-6.4,69.65-13.07,104.08c-3.11,16.05-7.01,32.03-12.02,47.59c-5.65,17.58-11.91,35.9-21.08,51.94
	c-5.5,9.63-15.55,14.92-26.1,15.54c-5.26,6.27-10.41,12.64-15.45,19.13c2.08-2.69,4.16-5.39,6.24-8.08
	c-4.48,5.81-8.97,11.61-13.46,17.41c-10.34,13.43-20.03,27.29-29.65,41.24c-12.35,17.9-23.88,36.38-34.68,55.29
	c-3.84,10.66-7.39,21.43-10.64,32.28c0.63,5.52,1.28,11.03,1.99,16.54c4.74,33.84,10.92,67.64,19.74,100.65
	c8.93,33.41,18.6,67.11,31.75,99.17c2.16,5.01,4.37,10,6.65,14.95c1.94,4.22,3.1,8.51,3.44,12.7c0.37,0.5,0.75,1,1.12,1.5
	c0.35,0.45,0.7,0.9,1.06,1.34c0.89,1.12,1.78,2.23,2.68,3.34c7.54-9.19,19.6-12.56,31.94-10.23c13.25,2.5,26.06,6.87,39.07,10.36
	c11.27,3.03,22.7,5.38,34.23,7.14c18.09,2.13,36.37,2.54,54.55,1.26c9.64-0.67,19.33-1.17,28.94-2.06
	c4.69-0.43,9.36-1.02,14.07-1.19c4.44-0.17,8.78,0.17,13.13,0.7c16.97,0.56,33.61,3.34,50.35,5.8c10.33,1.16,20.54,1.45,30.86,0.56
	c1.93-0.39,3.84-0.87,5.72-1.45c1.57-0.87,3.08-1.83,4.56-2.92l-3.22,2.49c0.01,0,0.01,0,0.02-0.01c6.71-4.86,13.38-7.79,22.08-8.18
	c2.25-0.1,4.46,0.09,6.63,0.52c2.91-1.42,6-2.62,8.92-3.94c8.53-3.87,17.35-7.1,26.04-10.61c15.54-6.78,30.76-14.19,46.4-20.76
	c-3.17,1.34-6.34,2.67-9.5,4.01c9.16-3.89,17.93-8.32,26.49-13.21c2.9-2.22,6.11-4.08,9.41-5.6c1.68-1.04,3.36-2.1,5.03-3.18
	c7.33-4.72,15.59-6.05,23.52-4.83c1.92-11.29,3.93-22.56,5.6-33.89C754.39,874.14,754.54,835.87,750.61,797.82z"/>
<path class="st21" d="M349.62,527.21c-35.23,19.82-65.41,48.54-86.95,82.74c-11.57,18.37,4.54,46.8,26.24,46.32
	c32.41-0.72,65.34-1.53,96.26-11.27c30.92-9.74,60.13-29.8,73.28-59.44c13.15-29.64,5.92-69.15-21.29-86.77
	C409.95,481.17,365.79,496.1,349.62,527.21z"/>
<path class="st3" d="M301.65,656.56c25.05,2.79,45.38,27.95,42.85,53.03c-2.53,25.08-27.49,45.67-52.59,43.39
	s-45.94-27.02-43.92-52.15C250.01,675.7,274.64,653.55,301.65,656.56z"/>
</svg>
