<?xml version="1.0" encoding="UTF-8" standalone="no"?>
<svg
   xmlns:dc="http://purl.org/dc/elements/1.1/"
   xmlns:cc="http://creativecommons.org/ns#"
   xmlns:rdf="http://www.w3.org/1999/02/22-rdf-syntax-ns#"
   xmlns:svg="http://www.w3.org/2000/svg"
   xmlns="http://www.w3.org/2000/svg"
   xmlns:sodipodi="http://sodipodi.sourceforge.net/DTD/sodipodi-0.dtd"
   xmlns:inkscape="http://www.inkscape.org/namespaces/inkscape"
   version="1.1"
   id="Layer_1"
   x="0px"
   y="0px"
   viewBox="0 0 1000 1000"
   style="enable-background:new 0 0 1000 1000;"
   xml:space="preserve"
   sodipodi:docname="3.svg"
   inkscape:version="1.0.1 (c497b03c, 2020-09-10)"><metadata
   id="metadata1256"><rdf:RDF><cc:Work
       rdf:about=""><dc:format>image/svg+xml</dc:format><dc:type
         rdf:resource="http://purl.org/dc/dcmitype/StillImage" /></cc:Work></rdf:RDF></metadata><defs
   id="defs1254"><filter
     inkscape:label="Opaline"
     inkscape:menu-tooltip="Contouring version of smooth shader"
     inkscape:menu="Non-Realistic 3D Shaders"
     height="1.5"
     y="-0.25"
     width="1.5"
     x="-0.25"
     style="color-interpolation-filters:sRGB"
     id="filter1903"><feGaussianBlur
       stdDeviation="5"
       result="result8"
       in="SourceGraphic"
       id="feGaussianBlur1883" /><feComposite
       in2="result8"
       operator="xor"
       id="feComposite1885" /><feComposite
       k2="1"
       operator="arithmetic"
       result="result16"
       in2="result8"
       id="feComposite1887" /><feComposite
       in2="result16"
       result="result6"
       operator="xor"
       in="result16"
       id="feComposite1889" /><feOffset
       result="result17"
       in="result16"
       id="feOffset1891" /><feDisplacementMap
       in2="result16"
       xChannelSelector="A"
       yChannelSelector="A"
       scale="100"
       result="result4"
       in="result17"
       id="feDisplacementMap1893" /><feComposite
       in2="result4"
       result="result2"
       operator="arithmetic"
       in="SourceGraphic"
       k1="1"
       k3="1"
       id="feComposite1895" /><feComposite
       in2="result2"
       result="fbSourceGraphic"
       in="result6"
       operator="in"
       id="feComposite1897" /><feComposite
       in2="SourceGraphic"
       operator="in"
       result="result14"
       id="feComposite1899" /><feComposite
       result="result15"
       in2="SourceGraphic"
       operator="in"
       in="result14"
       id="feComposite1901" /></filter></defs>
<style
   type="text/css"
   id="style1044">
	.st0{fill:#3A416E;}
</style>
<sodipodi:namedview
   bordercolor="#666666"
   borderopacity="1"
   gridtolerance="10"
   guidetolerance="10"
   id="namedview850"
   inkscape:current-layer="Layer_1"
   inkscape:cx="365.46841"
   inkscape:cy="515.25055"
   inkscape:pageopacity="0"
   inkscape:pageshadow="2"
   inkscape:window-height="826"
   inkscape:window-maximized="0"
   inkscape:window-width="1502"
   inkscape:window-x="1003"
   inkscape:window-y="157"
   inkscape:zoom="0.918"
   objecttolerance="10"
   pagecolor="#ffffff"
   showgrid="false"
   inkscape:document-rotation="0">
	</sodipodi:namedview>
<g
   id="g1251"
   style="filter:url(#filter1903)">
	<g
   id="g1061">
		<path
   class="st0"
   d="M617.57,610.13c0.44,0.24,0.84,0.54,1.22,0.91c1.25,1.25,1.87,2.98,1.85,5.19c-0.02,2.21-0.67,3.96-1.95,5.24    c-0.41,0.41-0.84,0.74-1.32,1.01c-1.62,0.81-3.32,0.73-5.11-0.25c-1.99-1.11-3.54-1.59-4.66-1.42l-15.49,2.73l6.08,4.86    c0.47,0.41,1.23,0.83,2.28,1.27c1.05,0.44,1.76,0.84,2.13,1.22c0.61,0.61,0.86,1.52,0.76,2.73c-0.1,1.22-0.63,2.3-1.57,3.24    c-1.05,1.05-2.52,1.81-4.41,2.28c-2.06,0.51-3.53,0.32-4.41-0.56c-0.34-0.34-0.52-0.89-0.56-1.67c-0.03-0.78-0.22-1.33-0.56-1.67    l-28.2-25.57c-0.41-0.34-1.05-0.62-1.92-0.86c-0.88-0.24-1.45-0.49-1.72-0.76c-0.57-0.57-0.78-1.65-0.61-3.24    c0.07-0.34,0.54-0.94,1.42-1.82c3-3,5.52-4.27,7.54-3.8c0.54,0.14,0.96,0.35,1.27,0.66s0.57,0.87,0.78,1.7    c0.22,0.83,0.52,1.43,0.89,1.8l11.14,11.14l-5.11-22.13c-0.44-1.11-0.89-2.21-1.37-3.29c-0.4-1.28-0.05-2.48,1.06-3.6    c1.08-1.08,2.53-1.82,4.35-2.23c2.03-0.47,3.41-0.17,4.15,0.91c0.54,0.81,0.68,1.59,0.41,2.33c-0.3,0.98-0.41,1.66-0.3,2.03    l5.77,26.23l19.8-3.7c1.11-0.3,2.26-0.62,3.44-0.96C615.82,609.74,616.8,609.76,617.57,610.13z"
   id="path1047" />
		<path
   class="st0"
   d="M617.32,572.4c4.32-0.2,8.93,2.14,13.82,7.04c3.78,3.78,6.21,7.8,7.29,12.05c1.25,4.83,0.3,8.81-2.84,11.95    c-3.11,3.11-6.87,4.14-11.29,3.09c-3.85-0.88-7.6-3.14-11.24-6.79c-3.21-3.21-5.52-6.67-6.94-10.38c-1.52-3.95-1.57-7.1-0.15-9.47    c0.74-1.21,1.64-2.35,2.68-3.39C611.26,573.91,614.15,572.54,617.32,572.4z M613.72,580.35c-1.22,1.01-1.23,2.92-0.05,5.72    c1.08,2.5,2.6,4.73,4.56,6.68c2.87,2.87,5.03,4.76,6.48,5.67c2.6,1.65,4.74,1.84,6.43,0.56c1.08-0.81,0.79-2.85-0.86-6.13    c-1.59-3.14-3.73-6.06-6.43-8.76C619.4,579.64,616.02,578.4,613.72,580.35z"
   id="path1049" />
		<path
   class="st0"
   d="M657.47,580.56c0.47,1.82-0.2,3.65-2.03,5.47c-1.69,1.69-3.39,2.35-5.11,1.97c-0.51-0.1-0.94-0.34-1.32-0.71    c-0.3-0.3-0.68-0.92-1.14-1.85c-0.46-0.93-0.92-1.63-1.39-2.1l-29.62-29.22c-1.62-1.62-2.45-2.45-2.48-2.48    c-0.27-0.47-0.12-1.27,0.46-2.38c0.57-1.11,1.33-2.14,2.28-3.09c1.38-1.38,2.49-2.03,3.32-1.95c0.83,0.08,1.49,0.38,2,0.89    c0.34,0.34,0.76,1.03,1.27,2.08c0.51,1.05,1,1.81,1.47,2.28l27.34,27.34c0.47,0.47,1.22,0.94,2.25,1.39    c1.03,0.46,1.71,0.85,2.05,1.19C657.12,579.7,657.34,580.08,657.47,580.56z"
   id="path1051" />
		<path
   class="st0"
   d="M654.33,535.39c4.32-0.2,8.93,2.14,13.82,7.04c3.78,3.78,6.21,7.8,7.29,12.05c1.25,4.83,0.3,8.81-2.84,11.95    c-3.11,3.11-6.87,4.14-11.29,3.09c-3.85-0.88-7.6-3.14-11.24-6.79c-3.21-3.21-5.52-6.67-6.94-10.38c-1.52-3.95-1.57-7.1-0.15-9.47    c0.74-1.21,1.64-2.35,2.68-3.39C648.27,536.89,651.16,535.52,654.33,535.39z M650.74,543.34c-1.22,1.01-1.23,2.92-0.05,5.72    c1.08,2.5,2.6,4.73,4.56,6.68c2.87,2.87,5.03,4.76,6.48,5.67c2.6,1.65,4.74,1.84,6.43,0.56c1.08-0.81,0.79-2.85-0.86-6.13    c-1.59-3.14-3.73-6.06-6.43-8.76C656.41,542.63,653.03,541.38,650.74,543.34z"
   id="path1053" />
		<path
   class="st0"
   d="M692.72,520.2c3.51,3.51,5.86,6.84,7.04,9.98c1.59,4.15,0.98,7.63-1.82,10.43c-2.09,2.09-4.91,2.92-8.46,2.48    c0.3,0.24,0.77,0.5,1.39,0.78c0.62,0.29,1.04,0.53,1.24,0.73c0.27,0.27,0.4,0.57,0.4,0.91c0.03,0.91-0.61,2.03-1.92,3.34    c-2.09,2.09-3.75,2.94-4.96,2.53c-0.41-0.13-0.74-0.34-1.01-0.61c-0.3-0.3-0.56-0.83-0.76-1.57c-0.2-0.74-0.46-1.27-0.76-1.57    l-26.48-26.48c-0.41-0.41-1-0.78-1.77-1.11c-0.78-0.34-1.33-0.67-1.67-1.01c-0.34-0.34-0.62-0.76-0.86-1.27    c-0.67-1.49-0.17-3.07,1.52-4.76c2.06-2.06,4.12-2.77,6.18-2.13c0.47,0.14,0.86,0.35,1.16,0.66c0.41,0.41,0.77,1.21,1.09,2.41    c0.32,1.2,0.72,2.03,1.19,2.51l6.38,6.38c-0.54-3.44-0.12-5.86,1.27-7.24c2.46-2.46,5.97-3.1,10.53-1.92    C685.81,514.82,689.51,516.99,692.72,520.2z M686.59,526.33c-1.92-1.92-3.83-3.46-5.72-4.61c-2.7-1.01-4.44-1.13-5.22-0.35    c-0.68,0.68-0.35,2.45,0.96,5.32c1.25,2.4,2.57,4.29,3.95,5.67c1.86,1.86,4,3.39,6.43,4.61c2.6,1.32,4.29,1.59,5.06,0.81    c1.65-1.65,0.96-4.37-2.08-8.15c-0.41-0.41-0.98-0.98-1.72-1.72C687.48,527.19,686.93,526.66,686.59,526.33z"
   id="path1055" />
		<path
   class="st0"
   d="M701.68,488.05c4.32-0.2,8.93,2.14,13.82,7.04c3.78,3.78,6.21,7.8,7.29,12.05c1.25,4.83,0.3,8.81-2.84,11.95    c-3.11,3.11-6.87,4.14-11.29,3.09c-3.85-0.88-7.6-3.14-11.24-6.79c-3.21-3.21-5.52-6.67-6.94-10.38c-1.52-3.95-1.57-7.1-0.15-9.47    c0.74-1.21,1.64-2.35,2.68-3.39C695.62,489.55,698.5,488.18,701.68,488.05z M698.08,496c-1.22,1.01-1.23,2.92-0.05,5.72    c1.08,2.5,2.6,4.73,4.56,6.68c2.87,2.87,5.03,4.76,6.48,5.67c2.6,1.65,4.74,1.84,6.43,0.56c1.08-0.81,0.79-2.85-0.86-6.13    c-1.59-3.14-3.73-6.06-6.43-8.76C703.75,495.29,700.38,494.04,698.08,496z"
   id="path1057" />
		<path
   class="st0"
   d="M731.7,455.89c0.64,0.17,1.16,0.46,1.57,0.86c0.61,0.61,1.08,1.65,1.42,3.14c0.41,2.03,0.71,3.28,0.91,3.75    c2.36,5.33,5.28,12.07,8.76,20.2c1.59,2.46,2.46,4.46,2.63,5.98c0.3,1.99-0.41,3.78-2.13,5.37c-1.69,1.49-3.06,2.25-4.1,2.28    c-0.74,0.07-1.5-0.29-2.28-1.06c-0.1-0.1-0.26-0.26-0.48-0.48c-0.22-0.22-0.38-0.38-0.48-0.48c-0.54-0.54-1.05-0.94-1.52-1.22    l-21.82-11.49c-0.47-0.27-1.5-0.42-3.09-0.46c-1.28,0-2.13-0.34-2.53-1.01c-1.01-1.69-0.49-3.56,1.57-5.62    c0.44-0.44,0.88-0.81,1.32-1.11c1.55-1.08,4.93-0.3,10.13,2.33c4.73,2.63,9.45,5.23,14.18,7.8l-9.32-19.85    c-0.47-1.01-0.76-1.74-0.86-2.18c-0.17-0.78-0.11-1.58,0.18-2.41c0.29-0.83,0.84-1.65,1.65-2.46    C728.95,456.21,730.39,455.59,731.7,455.89z"
   id="path1059" />
	</g>
	<g
   id="g1079">
		<path
   class="st0"
   d="M617.57,610.13c0.44,0.24,0.84,0.54,1.22,0.91c1.25,1.25,1.87,2.98,1.85,5.19c-0.02,2.21-0.67,3.96-1.95,5.24    c-0.41,0.41-0.84,0.74-1.32,1.01c-1.62,0.81-3.32,0.73-5.11-0.25c-1.99-1.11-3.54-1.59-4.66-1.42l-15.49,2.73l6.08,4.86    c0.47,0.41,1.23,0.83,2.28,1.27c1.05,0.44,1.76,0.84,2.13,1.22c0.61,0.61,0.86,1.52,0.76,2.73c-0.1,1.22-0.63,2.3-1.57,3.24    c-1.05,1.05-2.52,1.81-4.41,2.28c-2.06,0.51-3.53,0.32-4.41-0.56c-0.34-0.34-0.52-0.89-0.56-1.67c-0.03-0.78-0.22-1.33-0.56-1.67    l-28.2-25.57c-0.41-0.34-1.05-0.62-1.92-0.86c-0.88-0.24-1.45-0.49-1.72-0.76c-0.57-0.57-0.78-1.65-0.61-3.24    c0.07-0.34,0.54-0.94,1.42-1.82c3-3,5.52-4.27,7.54-3.8c0.54,0.14,0.96,0.35,1.27,0.66s0.57,0.87,0.78,1.7    c0.22,0.83,0.52,1.43,0.89,1.8l11.14,11.14l-5.11-22.13c-0.44-1.11-0.89-2.21-1.37-3.29c-0.4-1.28-0.05-2.48,1.06-3.6    c1.08-1.08,2.53-1.82,4.35-2.23c2.03-0.47,3.41-0.17,4.15,0.91c0.54,0.81,0.68,1.59,0.41,2.33c-0.3,0.98-0.41,1.66-0.3,2.03    l5.77,26.23l19.8-3.7c1.11-0.3,2.26-0.62,3.44-0.96C615.82,609.74,616.8,609.76,617.57,610.13z"
   id="path1063" />
		<path
   class="st0"
   d="M606.67,561.75c-5.31-9.83-16.95-23.74-34.94-41.73c-13.9-13.9-26.54-24.95-37.92-33.16    c-12.95-9.38-21-12.49-24.14-9.35c-3.11,3.11-0.48,10.53,7.88,22.26c7.2,10.17,17.5,21.95,30.89,35.35    c11.78,11.78,22.96,21.82,33.54,30.1c11.26,8.83,18.71,13.17,22.34,13.02c1.85-0.11,3.29-0.69,4.34-1.74    C611.26,573.91,610.6,568.99,606.67,561.75z M592.89,559.52c-0.74,1.49-5.18-1.03-13.31-7.53c-7.29-5.87-14.53-12.4-21.72-19.59    c-10.55-10.55-17.85-18.12-21.92-22.74c-7.34-8.29-10.64-13.55-9.9-15.78c0.45-1.44,5.61,1.96,15.47,10.21    c9.46,7.91,19.15,16.82,29.08,26.75C586.97,547.21,594.4,556.77,592.89,559.52z"
   id="path1065" />
		<path
   class="st0"
   d="M657.47,580.56c0.47,1.82-0.2,3.65-2.03,5.47c-1.69,1.69-3.39,2.35-5.11,1.97c-0.51-0.1-0.94-0.34-1.32-0.71    c-0.3-0.3-0.68-0.92-1.14-1.85c-0.46-0.93-0.92-1.63-1.39-2.1l-29.62-29.22c-1.62-1.62-2.45-2.45-2.48-2.48    c-0.27-0.47-0.12-1.27,0.46-2.38c0.57-1.11,1.33-2.14,2.28-3.09c1.38-1.38,2.49-2.03,3.32-1.95c0.83,0.08,1.49,0.38,2,0.89    c0.34,0.34,0.76,1.03,1.27,2.08c0.51,1.05,1,1.81,1.47,2.28l27.34,27.34c0.47,0.47,1.22,0.94,2.25,1.39    c1.03,0.46,1.71,0.85,2.05,1.19C657.12,579.7,657.34,580.08,657.47,580.56z"
   id="path1067" />
		<path
   class="st0"
   d="M654.33,535.39c4.32-0.2,8.93,2.14,13.82,7.04c3.78,3.78,6.21,7.8,7.29,12.05c1.25,4.83,0.3,8.81-2.84,11.95    c-3.11,3.11-6.87,4.14-11.29,3.09c-3.85-0.88-7.6-3.14-11.24-6.79c-3.21-3.21-5.52-6.67-6.94-10.38c-1.52-3.95-1.57-7.1-0.15-9.47    c0.74-1.21,1.64-2.35,2.68-3.39C648.27,536.89,651.16,535.52,654.33,535.39z M650.74,543.34c-1.22,1.01-1.23,2.92-0.05,5.72    c1.08,2.5,2.6,4.73,4.56,6.68c2.87,2.87,5.03,4.76,6.48,5.67c2.6,1.65,4.74,1.84,6.43,0.56c1.08-0.81,0.79-2.85-0.86-6.13    c-1.59-3.14-3.73-6.06-6.43-8.76C656.41,542.63,653.03,541.38,650.74,543.34z"
   id="path1069" />
		<path
   class="st0"
   d="M692.72,520.2c3.51,3.51,5.86,6.84,7.04,9.98c1.59,4.15,0.98,7.63-1.82,10.43c-2.09,2.09-4.91,2.92-8.46,2.48    c0.3,0.24,0.77,0.5,1.39,0.78c0.62,0.29,1.04,0.53,1.24,0.73c0.27,0.27,0.4,0.57,0.4,0.91c0.03,0.91-0.61,2.03-1.92,3.34    c-2.09,2.09-3.75,2.94-4.96,2.53c-0.41-0.13-0.74-0.34-1.01-0.61c-0.3-0.3-0.56-0.83-0.76-1.57c-0.2-0.74-0.46-1.27-0.76-1.57    l-26.48-26.48c-0.41-0.41-1-0.78-1.77-1.11c-0.78-0.34-1.33-0.67-1.67-1.01c-0.34-0.34-0.62-0.76-0.86-1.27    c-0.67-1.49-0.17-3.07,1.52-4.76c2.06-2.06,4.12-2.77,6.18-2.13c0.47,0.14,0.86,0.35,1.16,0.66c0.41,0.41,0.77,1.21,1.09,2.41    c0.32,1.2,0.72,2.03,1.19,2.51l6.38,6.38c-0.54-3.44-0.12-5.86,1.27-7.24c2.46-2.46,5.97-3.1,10.53-1.92    C685.81,514.82,689.51,516.99,692.72,520.2z M686.59,526.33c-1.92-1.92-3.83-3.46-5.72-4.61c-2.7-1.01-4.44-1.13-5.22-0.35    c-0.68,0.68-0.35,2.45,0.96,5.32c1.25,2.4,2.57,4.29,3.95,5.67c1.86,1.86,4,3.39,6.43,4.61c2.6,1.32,4.29,1.59,5.06,0.81    c1.65-1.65,0.96-4.37-2.08-8.15c-0.41-0.41-0.98-0.98-1.72-1.72C687.48,527.19,686.93,526.66,686.59,526.33z"
   id="path1071" />
		<path
   class="st0"
   d="M701.68,488.05c4.32-0.2,8.93,2.14,13.82,7.04c3.78,3.78,6.21,7.8,7.29,12.05c1.25,4.83,0.3,8.81-2.84,11.95    c-3.11,3.11-6.87,4.14-11.29,3.09c-3.85-0.88-7.6-3.14-11.24-6.79c-3.21-3.21-5.52-6.67-6.94-10.38c-1.52-3.95-1.57-7.1-0.15-9.47    c0.74-1.21,1.64-2.35,2.68-3.39C695.62,489.55,698.5,488.18,701.68,488.05z M698.08,496c-1.22,1.01-1.23,2.92-0.05,5.72    c1.08,2.5,2.6,4.73,4.56,6.68c2.87,2.87,5.03,4.76,6.48,5.67c2.6,1.65,4.74,1.84,6.43,0.56c1.08-0.81,0.79-2.85-0.86-6.13    c-1.59-3.14-3.73-6.06-6.43-8.76C703.75,495.29,700.38,494.04,698.08,496z"
   id="path1073" />
		<path
   class="st0"
   d="M701.68,488.05c4.32-0.2,8.93,2.14,13.82,7.04c3.78,3.78,6.21,7.8,7.29,12.05c1.25,4.83,0.3,8.81-2.84,11.95    c-3.11,3.11-6.87,4.14-11.29,3.09c-3.85-0.88-7.6-3.14-11.24-6.79c-3.21-3.21-5.52-6.67-6.94-10.38c-1.52-3.95-1.57-7.1-0.15-9.47    c0.74-1.21,1.64-2.35,2.68-3.39C695.62,489.55,698.5,488.18,701.68,488.05z M698.08,496c-1.22,1.01-1.23,2.92-0.05,5.72    c1.08,2.5,2.6,4.73,4.56,6.68c2.87,2.87,5.03,4.76,6.48,5.67c2.6,1.65,4.74,1.84,6.43,0.56c1.08-0.81,0.79-2.85-0.86-6.13    c-1.59-3.14-3.73-6.06-6.43-8.76C703.75,495.29,700.38,494.04,698.08,496z"
   id="path1075" />
		<path
   class="st0"
   d="M726.88,453.65c-0.55-1-1.21-1.88-1.98-2.65c-1.16-1.16-2.88-2.33-5.16-3.53c-3.08-1.55-5.01-2.58-5.78-3.1    c-8.74-5.93-19.75-13.33-33.02-22.19c-4.28-3.45-7.54-5.65-9.79-6.62c-2.99-1.39-5.2-1.23-6.64,0.46    c-1.31,1.7-1.74,3.28-1.28,4.76c0.26,1.03,1.13,2.28,2.61,3.76c0.19,0.19,0.5,0.5,0.92,0.92c0.42,0.42,0.72,0.72,0.92,0.92    c1.03,1.03,1.85,1.95,2.46,2.75L697,465.77c0.61,0.8,1.32,2.35,2.13,4.63c0.61,1.83,1.5,3.19,2.66,4.1    c2.89,2.25,5.31,2.41,7.27,0.46c0.41-0.41,0.73-0.86,0.96-1.34c0.8-1.7-1.93-6.89-8.18-15.56c-6.02-8-12-15.99-17.92-23.97    l32.78,22.81c1.67,1.16,2.84,1.92,3.52,2.27c1.19,0.61,2.3,0.91,3.35,0.9c1.04-0.01,1.95-0.4,2.71-1.17    C727.74,457.42,727.95,455.67,726.88,453.65z"
   id="path1077" />
	</g>
	<g
   id="g1095">
		<path
   class="st0"
   d="M495.59,684.36c0.14,0.48,0.21,0.98,0.21,1.5c0,1.77-0.79,3.43-2.36,4.98s-3.27,2.33-5.08,2.33    c-0.57,0-1.12-0.07-1.65-0.21c-1.72-0.57-2.86-1.84-3.44-3.8c-0.62-2.2-1.39-3.63-2.29-4.3l-12.89-9.02l0.86,7.73    c0.05,0.62,0.29,1.46,0.72,2.51c0.43,1.05,0.64,1.84,0.64,2.36c0,0.86-0.47,1.68-1.4,2.47c-0.93,0.79-2.07,1.18-3.4,1.18    c-1.48,0-3.06-0.5-4.73-1.5c-1.81-1.1-2.72-2.27-2.72-3.51c0-0.48,0.26-1,0.79-1.58c0.52-0.57,0.79-1.1,0.79-1.58l-1.86-38.03    c-0.05-0.52-0.3-1.18-0.75-1.97c-0.45-0.79-0.68-1.37-0.68-1.75c0-0.81,0.62-1.72,1.86-2.72c0.29-0.19,1.05-0.29,2.29-0.29    c4.25,0,6.92,0.88,8.02,2.65c0.29,0.48,0.43,0.93,0.43,1.36s-0.21,1.01-0.64,1.75c-0.43,0.74-0.64,1.37-0.64,1.9v15.75    l12.03-19.26c0.48-1.1,0.93-2.2,1.36-3.29c0.62-1.19,1.72-1.79,3.29-1.79c1.53,0,3.08,0.5,4.65,1.5c1.77,1.1,2.53,2.29,2.29,3.58    c-0.19,0.96-0.64,1.6-1.36,1.93c-0.91,0.48-1.46,0.88-1.65,1.22l-14.47,22.63l16.61,11.39c1,0.57,2.04,1.16,3.11,1.75    C494.63,682.85,495.31,683.55,495.59,684.36z"
   id="path1081" />
		<path
   class="st0"
   d="M522.09,657.51c3.2,2.91,4.8,7.83,4.8,14.75c0,5.35-1.12,9.91-3.37,13.68c-2.53,4.3-6.02,6.45-10.46,6.45    c-4.39,0-7.78-1.93-10.17-5.8c-2.1-3.34-3.15-7.59-3.15-12.75c0-4.54,0.81-8.62,2.43-12.25c1.72-3.87,3.91-6.13,6.59-6.8    c1.38-0.33,2.82-0.5,4.3-0.5C516.74,654.29,519.75,655.36,522.09,657.51z M513.92,660.59c-1.58-0.14-2.94,1.19-4.08,4.01    c-1,2.53-1.5,5.18-1.5,7.95c0,4.06,0.19,6.92,0.57,8.59c0.67,3.01,2.05,4.65,4.15,4.94c1.34,0.19,2.58-1.46,3.72-4.94    c1.1-3.34,1.65-6.92,1.65-10.74C518.43,664.1,516.93,660.83,513.92,660.59z"
   id="path1083" />
		<path
   class="st0"
   d="M544.72,691.67c-0.96,1.62-2.72,2.43-5.3,2.43c-2.39,0-4.06-0.74-5.01-2.22c-0.29-0.43-0.43-0.91-0.43-1.43    c0-0.43,0.17-1.13,0.5-2.11c0.33-0.98,0.5-1.8,0.5-2.47l-0.29-41.61c0-2.29,0-3.46,0-3.51c0.14-0.52,0.81-0.98,2.01-1.36    c1.19-0.38,2.46-0.57,3.8-0.57c1.96,0,3.2,0.32,3.72,0.97c0.52,0.64,0.79,1.32,0.79,2.04c0,0.48-0.19,1.27-0.57,2.36    c-0.38,1.1-0.57,1.98-0.57,2.65v38.67c0,0.67,0.2,1.53,0.61,2.58c0.41,1.05,0.61,1.81,0.61,2.29    C545.07,690.81,544.95,691.24,544.72,691.67z"
   id="path1085" />
		<path
   class="st0"
   d="M574.43,657.51c3.2,2.91,4.8,7.83,4.8,14.75c0,5.35-1.12,9.91-3.37,13.68c-2.53,4.3-6.02,6.45-10.46,6.45    c-4.39,0-7.78-1.93-10.17-5.8c-2.1-3.34-3.15-7.59-3.15-12.75c0-4.54,0.81-8.62,2.43-12.25c1.72-3.87,3.91-6.13,6.59-6.8    c1.38-0.33,2.82-0.5,4.3-0.5C569.09,654.29,572.09,655.36,574.43,657.51z M566.27,660.59c-1.58-0.14-2.94,1.19-4.08,4.01    c-1,2.53-1.5,5.18-1.5,7.95c0,4.06,0.19,6.92,0.57,8.59c0.67,3.01,2.05,4.65,4.15,4.94c1.34,0.19,2.58-1.46,3.72-4.94    c1.1-3.34,1.65-6.92,1.65-10.74C570.78,664.1,569.28,660.83,566.27,660.59z"
   id="path1087" />
		<path
   class="st0"
   d="M612.31,673.91c0,4.97-0.69,8.98-2.08,12.03c-1.81,4.06-4.7,6.09-8.67,6.09c-2.96,0-5.54-1.41-7.73-4.22    c0.05,0.38,0.19,0.9,0.43,1.54c0.24,0.64,0.36,1.11,0.36,1.4c0,0.38-0.12,0.69-0.36,0.93c-0.62,0.67-1.86,1-3.72,1    c-2.96,0-4.73-0.57-5.3-1.72c-0.19-0.38-0.29-0.76-0.29-1.15c0-0.43,0.19-0.98,0.57-1.65c0.38-0.67,0.57-1.22,0.57-1.65v-37.45    c0-0.57-0.16-1.25-0.47-2.04c-0.31-0.79-0.47-1.42-0.47-1.9c0-0.48,0.1-0.98,0.29-1.5c0.57-1.53,2.05-2.29,4.44-2.29    c2.91,0,4.87,0.96,5.87,2.86c0.24,0.43,0.36,0.86,0.36,1.29c0,0.57-0.31,1.4-0.93,2.47c-0.62,1.07-0.93,1.95-0.93,2.61v9.02    c2.05-2.82,4.06-4.22,6.02-4.22c3.48,0,6.42,2.03,8.81,6.09C611.24,665.22,612.31,669.37,612.31,673.91z M603.65,673.91    c0-2.72-0.26-5.16-0.79-7.3c-1.19-2.62-2.34-3.94-3.44-3.94c-0.96,0-1.98,1.48-3.08,4.44c-0.81,2.58-1.22,4.85-1.22,6.8    c0,2.63,0.43,5.23,1.29,7.81c0.91,2.77,1.91,4.15,3.01,4.15c2.34,0,3.77-2.41,4.3-7.23c0-0.57,0-1.38,0-2.43    C603.67,675.15,603.65,674.39,603.65,673.91z"
   id="path1089" />
		<path
   class="st0"
   d="M641.39,657.51c3.2,2.91,4.8,7.83,4.8,14.75c0,5.35-1.12,9.91-3.37,13.68c-2.53,4.3-6.02,6.45-10.46,6.45    c-4.39,0-7.78-1.93-10.17-5.8c-2.1-3.34-3.15-7.59-3.15-12.75c0-4.54,0.81-8.62,2.43-12.25c1.72-3.87,3.91-6.13,6.59-6.8    c1.38-0.33,2.82-0.5,4.3-0.5C636.04,654.29,639.05,655.36,641.39,657.51z M633.22,660.59c-1.58-0.14-2.94,1.19-4.08,4.01    c-1,2.53-1.5,5.18-1.5,7.95c0,4.06,0.19,6.92,0.57,8.59c0.67,3.01,2.05,4.65,4.15,4.94c1.34,0.19,2.58-1.46,3.72-4.94    c1.1-3.34,1.65-6.92,1.65-10.74C637.73,664.1,636.23,660.83,633.22,660.59z"
   id="path1091" />
		<path
   class="st0"
   d="M685.35,656.01c0.33,0.57,0.5,1.15,0.5,1.72c0,0.86-0.41,1.93-1.22,3.22c-1.15,1.72-1.81,2.82-2.01,3.29    c-2.1,5.44-4.8,12.27-8.09,20.48c-0.62,2.86-1.41,4.89-2.36,6.09c-1.19,1.62-2.96,2.39-5.3,2.29c-2.24-0.14-3.75-0.57-4.51-1.29    c-0.57-0.48-0.86-1.26-0.86-2.36c0-0.14,0-0.37,0-0.68c0-0.31,0-0.54,0-0.68c0-0.76-0.07-1.41-0.21-1.93l-7.3-23.56    c-0.14-0.52-0.76-1.36-1.86-2.51c-0.91-0.91-1.26-1.74-1.07-2.51c0.48-1.91,2.17-2.86,5.08-2.86c0.62,0,1.19,0.05,1.72,0.14    c1.86,0.33,3.7,3.27,5.51,8.81c1.48,5.2,2.98,10.38,4.51,15.54l7.45-20.62c0.38-1.05,0.69-1.77,0.93-2.15    c0.43-0.67,1.04-1.19,1.83-1.58c0.79-0.38,1.75-0.57,2.9-0.57C683.18,654.29,684.64,654.86,685.35,656.01z"
   id="path1093" />
	</g>
	<g
   id="g1113">
		<path
   class="st0"
   d="M495.59,684.36c0.14,0.48,0.21,0.98,0.21,1.5c0,1.77-0.79,3.43-2.36,4.98s-3.27,2.33-5.08,2.33    c-0.57,0-1.12-0.07-1.65-0.21c-1.72-0.57-2.86-1.84-3.44-3.8c-0.62-2.2-1.39-3.63-2.29-4.3l-12.89-9.02l0.86,7.73    c0.05,0.62,0.29,1.46,0.72,2.51c0.43,1.05,0.64,1.84,0.64,2.36c0,0.86-0.47,1.68-1.4,2.47c-0.93,0.79-2.07,1.18-3.4,1.18    c-1.48,0-3.06-0.5-4.73-1.5c-1.81-1.1-2.72-2.27-2.72-3.51c0-0.48,0.26-1,0.79-1.58c0.52-0.57,0.79-1.1,0.79-1.58l-1.86-38.03    c-0.05-0.52-0.3-1.18-0.75-1.97c-0.45-0.79-0.68-1.37-0.68-1.75c0-0.81,0.62-1.72,1.86-2.72c0.29-0.19,1.05-0.29,2.29-0.29    c4.25,0,6.92,0.88,8.02,2.65c0.29,0.48,0.43,0.93,0.43,1.36s-0.21,1.01-0.64,1.75c-0.43,0.74-0.64,1.37-0.64,1.9v15.75    l12.03-19.26c0.48-1.1,0.93-2.2,1.36-3.29c0.62-1.19,1.72-1.79,3.29-1.79c1.53,0,3.08,0.5,4.65,1.5c1.77,1.1,2.53,2.29,2.29,3.58    c-0.19,0.96-0.64,1.6-1.36,1.93c-0.91,0.48-1.46,0.88-1.65,1.22l-14.47,22.63l16.61,11.39c1,0.57,2.04,1.16,3.11,1.75    C494.63,682.85,495.31,683.55,495.59,684.36z"
   id="path1097" />
		<path
   class="st0"
   d="M522.09,642.44c3.2-10.7,4.8-28.77,4.8-54.21c0-19.65-1.12-36.41-3.37-50.26    c-2.53-15.79-6.02-23.68-10.46-23.68c-4.39,0-7.78,7.11-10.17,21.32c-2.1,12.28-3.15,27.9-3.15,46.84c0,16.67,0.81,31.67,2.43,45    c1.72,14.21,3.91,22.54,6.59,25c1.38,1.23,2.82,1.84,4.3,1.84C516.74,654.29,519.75,650.34,522.09,642.44z M513.92,631.13    c-1.58,0.53-2.94-4.39-4.08-14.74c-1-9.3-1.5-19.04-1.5-29.21c0-14.91,0.19-25.44,0.57-31.58c0.67-11.05,2.05-17.11,4.15-18.16    c1.34-0.7,2.58,5.35,3.72,18.16c1.1,12.28,1.65,25.44,1.65,39.47C518.43,618.23,516.93,630.25,513.92,631.13z"
   id="path1099" />
		<path
   class="st0"
   d="M544.72,691.67c-0.96,1.62-2.72,2.43-5.3,2.43c-2.39,0-4.06-0.74-5.01-2.22c-0.29-0.43-0.43-0.91-0.43-1.43    c0-0.43,0.17-1.13,0.5-2.11c0.33-0.98,0.5-1.8,0.5-2.47l-0.29-41.61c0-2.29,0-3.46,0-3.51c0.14-0.52,0.81-0.98,2.01-1.36    c1.19-0.38,2.46-0.57,3.8-0.57c1.96,0,3.2,0.32,3.72,0.97c0.52,0.64,0.79,1.32,0.79,2.04c0,0.48-0.19,1.27-0.57,2.36    c-0.38,1.1-0.57,1.98-0.57,2.65v38.67c0,0.67,0.2,1.53,0.61,2.58c0.41,1.05,0.61,1.81,0.61,2.29    C545.07,690.81,544.95,691.24,544.72,691.67z"
   id="path1101" />
		<path
   class="st0"
   d="M574.43,657.51c3.2,2.91,4.8,7.83,4.8,14.75c0,5.35-1.12,9.91-3.37,13.68c-2.53,4.3-6.02,6.45-10.46,6.45    c-4.39,0-7.78-1.93-10.17-5.8c-2.1-3.34-3.15-7.59-3.15-12.75c0-4.54,0.81-8.62,2.43-12.25c1.72-3.87,3.91-6.13,6.59-6.8    c1.38-0.33,2.82-0.5,4.3-0.5C569.09,654.29,572.09,655.36,574.43,657.51z M566.27,660.59c-1.58-0.14-2.94,1.19-4.08,4.01    c-1,2.53-1.5,5.18-1.5,7.95c0,4.06,0.19,6.92,0.57,8.59c0.67,3.01,2.05,4.65,4.15,4.94c1.34,0.19,2.58-1.46,3.72-4.94    c1.1-3.34,1.65-6.92,1.65-10.74C570.78,664.1,569.28,660.83,566.27,660.59z"
   id="path1103" />
		<path
   class="st0"
   d="M612.31,673.91c0,4.97-0.69,8.98-2.08,12.03c-1.81,4.06-4.7,6.09-8.67,6.09c-2.96,0-5.54-1.41-7.73-4.22    c0.05,0.38,0.19,0.9,0.43,1.54c0.24,0.64,0.36,1.11,0.36,1.4c0,0.38-0.12,0.69-0.36,0.93c-0.62,0.67-1.86,1-3.72,1    c-2.96,0-4.73-0.57-5.3-1.72c-0.19-0.38-0.29-0.76-0.29-1.15c0-0.43,0.19-0.98,0.57-1.65c0.38-0.67,0.57-1.22,0.57-1.65v-37.45    c0-0.57-0.16-1.25-0.47-2.04c-0.31-0.79-0.47-1.42-0.47-1.9c0-0.48,0.1-0.98,0.29-1.5c0.57-1.53,2.05-2.29,4.44-2.29    c2.91,0,4.87,0.96,5.87,2.86c0.24,0.43,0.36,0.86,0.36,1.29c0,0.57-0.31,1.4-0.93,2.47c-0.62,1.07-0.93,1.95-0.93,2.61v9.02    c2.05-2.82,4.06-4.22,6.02-4.22c3.48,0,6.42,2.03,8.81,6.09C611.24,665.22,612.31,669.37,612.31,673.91z M603.65,673.91    c0-2.72-0.26-5.16-0.79-7.3c-1.19-2.62-2.34-3.94-3.44-3.94c-0.96,0-1.98,1.48-3.08,4.44c-0.81,2.58-1.22,4.85-1.22,6.8    c0,2.63,0.43,5.23,1.29,7.81c0.91,2.77,1.91,4.15,3.01,4.15c2.34,0,3.77-2.41,4.3-7.23c0-0.57,0-1.38,0-2.43    C603.67,675.15,603.65,674.39,603.65,673.91z"
   id="path1105" />
		<path
   class="st0"
   d="M641.39,657.51c3.2,2.91,4.8,7.83,4.8,14.75c0,5.35-1.12,9.91-3.37,13.68c-2.53,4.3-6.02,6.45-10.46,6.45    c-4.39,0-7.78-1.93-10.17-5.8c-2.1-3.34-3.15-7.59-3.15-12.75c0-4.54,0.81-8.62,2.43-12.25c1.72-3.87,3.91-6.13,6.59-6.8    c1.38-0.33,2.82-0.5,4.3-0.5C636.04,654.29,639.05,655.36,641.39,657.51z M633.22,660.59c-1.58-0.14-2.94,1.19-4.08,4.01    c-1,2.53-1.5,5.18-1.5,7.95c0,4.06,0.19,6.92,0.57,8.59c0.67,3.01,2.05,4.65,4.15,4.94c1.34,0.19,2.58-1.46,3.72-4.94    c1.1-3.34,1.65-6.92,1.65-10.74C637.73,664.1,636.23,660.83,633.22,660.59z"
   id="path1107" />
		<path
   class="st0"
   d="M641.39,657.51c3.2,2.91,4.8,7.83,4.8,14.75c0,5.35-1.12,9.91-3.37,13.68c-2.53,4.3-6.02,6.45-10.46,6.45    c-4.39,0-7.78-1.93-10.17-5.8c-2.1-3.34-3.15-7.59-3.15-12.75c0-4.54,0.81-8.62,2.43-12.25c1.72-3.87,3.91-6.13,6.59-6.8    c1.38-0.33,2.82-0.5,4.3-0.5C636.04,654.29,639.05,655.36,641.39,657.51z M633.22,660.59c-1.58-0.14-2.94,1.19-4.08,4.01    c-1,2.53-1.5,5.18-1.5,7.95c0,4.06,0.19,6.92,0.57,8.59c0.67,3.01,2.05,4.65,4.15,4.94c1.34,0.19,2.58-1.46,3.72-4.94    c1.1-3.34,1.65-6.92,1.65-10.74C637.73,664.1,636.23,660.83,633.22,660.59z"
   id="path1109" />
		<path
   class="st0"
   d="M683.53,651.01c0.32-1.09,0.47-2.18,0.47-3.28c0-1.64-0.38-3.69-1.15-6.14c-1.08-3.28-1.72-5.37-1.9-6.28    c-1.99-10.37-4.54-23.39-7.66-39.04c-0.59-5.46-1.33-9.33-2.24-11.6c-1.13-3.09-2.8-4.55-5.02-4.37    c-2.13,0.27-3.55,1.09-4.27,2.46c-0.54,0.91-0.81,2.41-0.81,4.5c0,0.27,0,0.7,0,1.3c0,0.59,0,1.02,0,1.3    c0,1.45-0.07,2.68-0.2,3.69l-6.92,44.91c-0.14,1-0.72,2.59-1.76,4.78c-0.86,1.73-1.2,3.32-1.02,4.78    c0.45,3.64,2.06,5.46,4.81,5.46c0.59,0,1.13-0.09,1.63-0.27c1.76-0.64,3.5-6.23,5.22-16.79c1.4-9.92,2.82-19.79,4.27-29.62    l7.05,39.31c0.36,2,0.65,3.37,0.88,4.1c0.41,1.27,0.98,2.27,1.73,3c0.75,0.73,1.66,1.09,2.75,1.09    C681.47,654.29,682.85,653.2,683.53,651.01z"
   id="path1111" />
	</g>
	<g
   id="g1129">
		<path
   class="st0"
   d="M356.85,650.6c-0.24,0.44-0.54,0.84-0.91,1.22c-1.25,1.25-2.98,1.87-5.19,1.85s-3.96-0.67-5.24-1.95    c-0.41-0.41-0.74-0.84-1.01-1.32c-0.81-1.62-0.73-3.32,0.25-5.11c1.11-1.99,1.59-3.54,1.42-4.66l-2.73-15.49l-4.86,6.08    c-0.41,0.47-0.83,1.23-1.27,2.28c-0.44,1.05-0.84,1.76-1.22,2.13c-0.61,0.61-1.52,0.86-2.73,0.76c-1.22-0.1-2.3-0.63-3.24-1.57    c-1.05-1.05-1.81-2.52-2.28-4.41c-0.51-2.06-0.32-3.53,0.56-4.41c0.34-0.34,0.89-0.52,1.67-0.56c0.78-0.03,1.33-0.22,1.67-0.56    l25.57-28.2c0.34-0.41,0.62-1.05,0.86-1.92c0.24-0.88,0.49-1.45,0.76-1.72c0.57-0.57,1.65-0.78,3.24-0.61    c0.34,0.07,0.94,0.54,1.82,1.42c3,3,4.27,5.52,3.8,7.54c-0.14,0.54-0.35,0.96-0.66,1.27c-0.3,0.3-0.87,0.57-1.7,0.78    c-0.83,0.22-1.43,0.52-1.8,0.89l-11.14,11.14l22.13-5.11c1.11-0.44,2.21-0.89,3.29-1.37c1.28-0.4,2.48-0.05,3.6,1.06    c1.08,1.08,1.82,2.53,2.23,4.35c0.47,2.03,0.17,3.41-0.91,4.15c-0.81,0.54-1.59,0.68-2.33,0.41c-0.98-0.3-1.66-0.41-2.03-0.3    l-26.23,5.77l3.7,19.8c0.3,1.11,0.62,2.26,0.96,3.44C357.23,648.85,357.22,649.83,356.85,650.6z"
   id="path1115" />
		<path
   class="st0"
   d="M394.57,650.35c0.2,4.32-2.14,8.93-7.04,13.82c-3.78,3.78-7.8,6.21-12.05,7.29    c-4.83,1.25-8.81,0.3-11.95-2.84c-3.11-3.11-4.14-6.87-3.09-11.29c0.88-3.85,3.14-7.6,6.79-11.24c3.21-3.21,6.67-5.52,10.38-6.94    c3.95-1.52,7.1-1.57,9.47-0.15c1.21,0.74,2.35,1.64,3.39,2.68C393.07,644.29,394.43,647.18,394.57,650.35z M386.62,646.75    c-1.01-1.22-2.92-1.23-5.72-0.05c-2.5,1.08-4.73,2.6-6.68,4.56c-2.87,2.87-4.76,5.03-5.67,6.48c-1.65,2.6-1.84,4.74-0.56,6.43    c0.81,1.08,2.85,0.79,6.13-0.86c3.14-1.59,6.06-3.73,8.76-6.43C387.33,652.42,388.58,649.05,386.62,646.75z"
   id="path1117" />
		<path
   class="st0"
   d="M386.42,690.5c-1.82,0.47-3.65-0.2-5.47-2.03c-1.69-1.69-2.35-3.39-1.97-5.11c0.1-0.51,0.34-0.94,0.71-1.32    c0.3-0.3,0.92-0.68,1.85-1.14c0.93-0.46,1.63-0.92,2.1-1.39l29.22-29.62c1.62-1.62,2.45-2.45,2.48-2.48    c0.47-0.27,1.27-0.12,2.38,0.46c1.11,0.57,2.14,1.33,3.09,2.28c1.38,1.38,2.03,2.49,1.95,3.32c-0.08,0.83-0.38,1.49-0.89,2    c-0.34,0.34-1.03,0.76-2.08,1.27c-1.05,0.51-1.81,1-2.28,1.47l-27.34,27.34c-0.47,0.47-0.94,1.22-1.39,2.25    c-0.46,1.03-0.85,1.71-1.19,2.05C387.28,690.15,386.89,690.37,386.42,690.5z"
   id="path1119" />
		<path
   class="st0"
   d="M431.58,687.36c0.2,4.32-2.14,8.93-7.04,13.82c-3.78,3.78-7.8,6.21-12.05,7.29    c-4.83,1.25-8.81,0.3-11.95-2.84c-3.11-3.11-4.14-6.87-3.09-11.29c0.88-3.85,3.14-7.6,6.79-11.24c3.21-3.21,6.67-5.52,10.38-6.94    c3.95-1.52,7.1-1.57,9.47-0.15c1.21,0.74,2.35,1.64,3.39,2.68C430.08,681.3,431.45,684.19,431.58,687.36z M423.63,683.77    c-1.01-1.22-2.92-1.23-5.72-0.05c-2.5,1.08-4.73,2.6-6.68,4.56c-2.87,2.87-4.76,5.03-5.67,6.48c-1.65,2.6-1.84,4.74-0.56,6.43    c0.81,1.08,2.85,0.79,6.13-0.86c3.14-1.59,6.06-3.73,8.76-6.43C424.34,689.44,425.59,686.06,423.63,683.77z"
   id="path1121" />
		<path
   class="st0"
   d="M446.77,725.74c-3.51,3.51-6.84,5.86-9.98,7.04c-4.15,1.59-7.63,0.98-10.43-1.82    c-2.09-2.09-2.92-4.91-2.48-8.46c-0.24,0.3-0.5,0.77-0.78,1.39c-0.29,0.62-0.53,1.04-0.73,1.24c-0.27,0.27-0.57,0.4-0.91,0.4    c-0.91,0.03-2.03-0.61-3.34-1.92c-2.09-2.09-2.94-3.75-2.53-4.96c0.13-0.41,0.34-0.74,0.61-1.01c0.3-0.3,0.83-0.56,1.57-0.76    c0.74-0.2,1.27-0.46,1.57-0.76l26.48-26.48c0.41-0.41,0.78-1,1.11-1.77c0.34-0.78,0.67-1.33,1.01-1.67    c0.34-0.34,0.76-0.62,1.27-0.86c1.49-0.67,3.07-0.17,4.76,1.52c2.06,2.06,2.77,4.12,2.13,6.18c-0.14,0.47-0.35,0.86-0.66,1.16    c-0.41,0.41-1.21,0.77-2.41,1.09c-1.2,0.32-2.03,0.72-2.51,1.19l-6.38,6.38c3.44-0.54,5.86-0.12,7.24,1.27    c2.46,2.46,3.1,5.97,1.92,10.53C452.16,718.84,449.98,722.54,446.77,725.74z M440.65,719.62c1.92-1.92,3.46-3.83,4.61-5.72    c1.01-2.7,1.13-4.44,0.35-5.22c-0.68-0.68-2.45-0.35-5.32,0.96c-2.4,1.25-4.29,2.57-5.67,3.95c-1.86,1.86-3.39,4-4.61,6.43    c-1.32,2.6-1.59,4.29-0.81,5.06c1.65,1.65,4.37,0.96,8.15-2.08c0.41-0.41,0.98-0.98,1.72-1.72    C439.78,720.51,440.31,719.95,440.65,719.62z"
   id="path1123" />
		<path
   class="st0"
   d="M478.93,734.71c0.2,4.32-2.14,8.93-7.04,13.82c-3.78,3.78-7.8,6.21-12.05,7.29    c-4.83,1.25-8.81,0.3-11.95-2.84c-3.11-3.11-4.14-6.87-3.09-11.29c0.88-3.85,3.14-7.6,6.79-11.24c3.21-3.21,6.67-5.52,10.38-6.94    c3.95-1.52,7.1-1.57,9.47-0.15c1.21,0.74,2.35,1.64,3.39,2.68C477.42,728.65,478.79,731.53,478.93,734.71z M470.98,731.11    c-1.01-1.22-2.92-1.23-5.72-0.05c-2.5,1.08-4.73,2.6-6.68,4.56c-2.87,2.87-4.76,5.03-5.67,6.48c-1.65,2.6-1.84,4.74-0.56,6.43    c0.81,1.08,2.85,0.79,6.13-0.86c3.14-1.59,6.06-3.73,8.76-6.43C471.68,736.78,472.93,733.41,470.98,731.11z"
   id="path1125" />
		<path
   class="st0"
   d="M511.08,764.73c-0.17,0.64-0.46,1.16-0.86,1.57c-0.61,0.61-1.65,1.08-3.14,1.42    c-2.03,0.41-3.28,0.71-3.75,0.91c-5.33,2.36-12.07,5.28-20.2,8.76c-2.46,1.59-4.46,2.46-5.98,2.63c-1.99,0.3-3.78-0.41-5.37-2.13    c-1.49-1.69-2.25-3.06-2.28-4.1c-0.07-0.74,0.29-1.5,1.06-2.28c0.1-0.1,0.26-0.26,0.48-0.48c0.22-0.22,0.38-0.38,0.48-0.48    c0.54-0.54,0.94-1.05,1.22-1.52l11.49-21.82c0.27-0.47,0.42-1.5,0.46-3.09c0-1.28,0.34-2.13,1.01-2.53    c1.69-1.01,3.56-0.49,5.62,1.57c0.44,0.44,0.81,0.88,1.11,1.32c1.08,1.55,0.3,4.93-2.33,10.13c-2.63,4.73-5.23,9.45-7.8,14.18    l19.85-9.32c1.01-0.47,1.74-0.76,2.18-0.86c0.78-0.17,1.58-0.11,2.41,0.18c0.83,0.29,1.65,0.84,2.46,1.65    C510.76,761.98,511.38,763.42,511.08,764.73z"
   id="path1127" />
	</g>
	<g
   id="g1147">
		<path
   class="st0"
   d="M356.85,650.6c-0.24,0.44-0.54,0.84-0.91,1.22c-1.25,1.25-2.98,1.87-5.19,1.85s-3.96-0.67-5.24-1.95    c-0.41-0.41-0.74-0.84-1.01-1.32c-0.81-1.62-0.73-3.32,0.25-5.11c1.11-1.99,1.59-3.54,1.42-4.66l-2.73-15.49l-4.86,6.08    c-0.41,0.47-0.83,1.23-1.27,2.28c-0.44,1.05-0.84,1.76-1.22,2.13c-0.61,0.61-1.52,0.86-2.73,0.76c-1.22-0.1-2.3-0.63-3.24-1.57    c-1.05-1.05-1.81-2.52-2.28-4.41c-0.51-2.06-0.32-3.53,0.56-4.41c0.34-0.34,0.89-0.52,1.67-0.56c0.78-0.03,1.33-0.22,1.67-0.56    l25.57-28.2c0.34-0.41,0.62-1.05,0.86-1.92c0.24-0.88,0.49-1.45,0.76-1.72c0.57-0.57,1.65-0.78,3.24-0.61    c0.34,0.07,0.94,0.54,1.82,1.42c3,3,4.27,5.52,3.8,7.54c-0.14,0.54-0.35,0.96-0.66,1.27c-0.3,0.3-0.87,0.57-1.7,0.78    c-0.83,0.22-1.43,0.52-1.8,0.89l-11.14,11.14l22.13-5.11c1.11-0.44,2.21-0.89,3.29-1.37c1.28-0.4,2.48-0.05,3.6,1.06    c1.08,1.08,1.82,2.53,2.23,4.35c0.47,2.03,0.17,3.41-0.91,4.15c-0.81,0.54-1.59,0.68-2.33,0.41c-0.98-0.3-1.66-0.41-2.03-0.3    l-26.23,5.77l3.7,19.8c0.3,1.11,0.62,2.26,0.96,3.44C357.23,648.85,357.22,649.83,356.85,650.6z"
   id="path1131" />
		<path
   class="st0"
   d="M405.22,639.7c9.83-5.31,23.74-16.95,41.73-34.94c13.9-13.9,24.95-26.54,33.16-37.92    c9.38-12.95,12.49-21,9.35-24.14c-3.11-3.11-10.53-0.48-22.26,7.88c-10.17,7.2-21.95,17.5-35.35,30.89    c-11.78,11.78-21.82,22.96-30.1,33.54c-8.83,11.26-13.17,18.71-13.02,22.34c0.11,1.85,0.69,3.29,1.74,4.34    C393.07,644.29,397.98,643.62,405.22,639.7z M407.45,625.92c-1.49-0.74,1.03-5.18,7.53-13.31c5.87-7.29,12.4-14.53,19.59-21.72    c10.55-10.55,18.12-17.85,22.74-21.92c8.29-7.34,13.55-10.64,15.78-9.9c1.44,0.45-1.96,5.61-10.21,15.47    c-7.91,9.46-16.82,19.15-26.75,29.08C419.76,619.99,410.2,627.43,407.45,625.92z"
   id="path1133" />
		<path
   class="st0"
   d="M386.42,690.5c-1.82,0.47-3.65-0.2-5.47-2.03c-1.69-1.69-2.35-3.39-1.97-5.11c0.1-0.51,0.34-0.94,0.71-1.32    c0.3-0.3,0.92-0.68,1.85-1.14c0.93-0.46,1.63-0.92,2.1-1.39l29.22-29.62c1.62-1.62,2.45-2.45,2.48-2.48    c0.47-0.27,1.27-0.12,2.38,0.46c1.11,0.57,2.14,1.33,3.09,2.28c1.38,1.38,2.03,2.49,1.95,3.32c-0.08,0.83-0.38,1.49-0.89,2    c-0.34,0.34-1.03,0.76-2.08,1.27c-1.05,0.51-1.81,1-2.28,1.47l-27.34,27.34c-0.47,0.47-0.94,1.22-1.39,2.25    c-0.46,1.03-0.85,1.71-1.19,2.05C387.28,690.15,386.89,690.37,386.42,690.5z"
   id="path1135" />
		<path
   class="st0"
   d="M431.58,687.36c0.2,4.32-2.14,8.93-7.04,13.82c-3.78,3.78-7.8,6.21-12.05,7.29    c-4.83,1.25-8.81,0.3-11.95-2.84c-3.11-3.11-4.14-6.87-3.09-11.29c0.88-3.85,3.14-7.6,6.79-11.24c3.21-3.21,6.67-5.52,10.38-6.94    c3.95-1.52,7.1-1.57,9.47-0.15c1.21,0.74,2.35,1.64,3.39,2.68C430.08,681.3,431.45,684.19,431.58,687.36z M423.63,683.77    c-1.01-1.22-2.92-1.23-5.72-0.05c-2.5,1.08-4.73,2.6-6.68,4.56c-2.87,2.87-4.76,5.03-5.67,6.48c-1.65,2.6-1.84,4.74-0.56,6.43    c0.81,1.08,2.85,0.79,6.13-0.86c3.14-1.59,6.06-3.73,8.76-6.43C424.34,689.44,425.59,686.06,423.63,683.77z"
   id="path1137" />
		<path
   class="st0"
   d="M446.77,725.74c-3.51,3.51-6.84,5.86-9.98,7.04c-4.15,1.59-7.63,0.98-10.43-1.82    c-2.09-2.09-2.92-4.91-2.48-8.46c-0.24,0.3-0.5,0.77-0.78,1.39c-0.29,0.62-0.53,1.04-0.73,1.24c-0.27,0.27-0.57,0.4-0.91,0.4    c-0.91,0.03-2.03-0.61-3.34-1.92c-2.09-2.09-2.94-3.75-2.53-4.96c0.13-0.41,0.34-0.74,0.61-1.01c0.3-0.3,0.83-0.56,1.57-0.76    c0.74-0.2,1.27-0.46,1.57-0.76l26.48-26.48c0.41-0.41,0.78-1,1.11-1.77c0.34-0.78,0.67-1.33,1.01-1.67    c0.34-0.34,0.76-0.62,1.27-0.86c1.49-0.67,3.07-0.17,4.76,1.52c2.06,2.06,2.77,4.12,2.13,6.18c-0.14,0.47-0.35,0.86-0.66,1.16    c-0.41,0.41-1.21,0.77-2.41,1.09c-1.2,0.32-2.03,0.72-2.51,1.19l-6.38,6.38c3.44-0.54,5.86-0.12,7.24,1.27    c2.46,2.46,3.1,5.97,1.92,10.53C452.16,718.84,449.98,722.54,446.77,725.74z M440.65,719.62c1.92-1.92,3.46-3.83,4.61-5.72    c1.01-2.7,1.13-4.44,0.35-5.22c-0.68-0.68-2.45-0.35-5.32,0.96c-2.4,1.25-4.29,2.57-5.67,3.95c-1.86,1.86-3.39,4-4.61,6.43    c-1.32,2.6-1.59,4.29-0.81,5.06c1.65,1.65,4.37,0.96,8.15-2.08c0.41-0.41,0.98-0.98,1.72-1.72    C439.78,720.51,440.31,719.95,440.65,719.62z"
   id="path1139" />
		<path
   class="st0"
   d="M478.93,734.71c0.2,4.32-2.14,8.93-7.04,13.82c-3.78,3.78-7.8,6.21-12.05,7.29    c-4.83,1.25-8.81,0.3-11.95-2.84c-3.11-3.11-4.14-6.87-3.09-11.29c0.88-3.85,3.14-7.6,6.79-11.24c3.21-3.21,6.67-5.52,10.38-6.94    c3.95-1.52,7.1-1.57,9.47-0.15c1.21,0.74,2.35,1.64,3.39,2.68C477.42,728.65,478.79,731.53,478.93,734.71z M470.98,731.11    c-1.01-1.22-2.92-1.23-5.72-0.05c-2.5,1.08-4.73,2.6-6.68,4.56c-2.87,2.87-4.76,5.03-5.67,6.48c-1.65,2.6-1.84,4.74-0.56,6.43    c0.81,1.08,2.85,0.79,6.13-0.86c3.14-1.59,6.06-3.73,8.76-6.43C471.68,736.78,472.93,733.41,470.98,731.11z"
   id="path1141" />
		<path
   class="st0"
   d="M478.93,734.71c0.2,4.32-2.14,8.93-7.04,13.82c-3.78,3.78-7.8,6.21-12.05,7.29    c-4.83,1.25-8.81,0.3-11.95-2.84c-3.11-3.11-4.14-6.87-3.09-11.29c0.88-3.85,3.14-7.6,6.79-11.24c3.21-3.21,6.67-5.52,10.38-6.94    c3.95-1.52,7.1-1.57,9.47-0.15c1.21,0.74,2.35,1.64,3.39,2.68C477.42,728.65,478.79,731.53,478.93,734.71z M470.98,731.11    c-1.01-1.22-2.92-1.23-5.72-0.05c-2.5,1.08-4.73,2.6-6.68,4.56c-2.87,2.87-4.76,5.03-5.67,6.48c-1.65,2.6-1.84,4.74-0.56,6.43    c0.81,1.08,2.85,0.79,6.13-0.86c3.14-1.59,6.06-3.73,8.76-6.43C471.68,736.78,472.93,733.41,470.98,731.11z"
   id="path1143" />
		<path
   class="st0"
   d="M513.32,759.91c1-0.55,1.88-1.21,2.65-1.98c1.16-1.16,2.33-2.88,3.53-5.16c1.55-3.08,2.58-5.01,3.1-5.78    c5.93-8.74,13.33-19.75,22.19-33.02c3.45-4.28,5.65-7.54,6.62-9.79c1.39-2.99,1.23-5.2-0.46-6.64c-1.7-1.31-3.28-1.74-4.76-1.28    c-1.03,0.26-2.28,1.13-3.76,2.61c-0.19,0.19-0.5,0.5-0.92,0.92c-0.42,0.42-0.72,0.72-0.92,0.92c-1.03,1.03-1.95,1.85-2.75,2.46    l-36.65,26.87c-0.8,0.61-2.35,1.32-4.63,2.13c-1.83,0.61-3.19,1.5-4.1,2.66c-2.25,2.89-2.41,5.31-0.46,7.27    c0.41,0.41,0.86,0.73,1.34,0.96c1.7,0.8,6.89-1.93,15.56-8.18c8-6.02,15.99-12,23.97-17.92l-22.81,32.78    c-1.16,1.67-1.92,2.84-2.27,3.52c-0.61,1.19-0.91,2.3-0.9,3.35c0.01,1.04,0.4,1.95,1.17,2.71    C509.55,760.77,511.3,760.98,513.32,759.91z"
   id="path1145" />
	</g>
	<g
   id="g1163">
		<path
   class="st0"
   d="M282.61,528.62c-0.48,0.14-0.98,0.21-1.5,0.21c-1.77,0-3.43-0.79-4.98-2.36c-1.55-1.58-2.33-3.27-2.33-5.08    c0-0.57,0.07-1.12,0.21-1.65c0.57-1.72,1.84-2.86,3.8-3.44c2.2-0.62,3.63-1.39,4.3-2.29l9.02-12.89l-7.73,0.86    c-0.62,0.05-1.46,0.29-2.51,0.72c-1.05,0.43-1.84,0.64-2.36,0.64c-0.86,0-1.68-0.47-2.47-1.4c-0.79-0.93-1.18-2.07-1.18-3.4    c0-1.48,0.5-3.06,1.5-4.73c1.1-1.81,2.27-2.72,3.51-2.72c0.48,0,1,0.26,1.58,0.79c0.57,0.52,1.1,0.79,1.58,0.79l38.03-1.86    c0.52-0.05,1.18-0.3,1.97-0.75c0.79-0.45,1.37-0.68,1.75-0.68c0.81,0,1.72,0.62,2.72,1.86c0.19,0.29,0.29,1.05,0.29,2.29    c0,4.25-0.88,6.92-2.65,8.02c-0.48,0.29-0.93,0.43-1.36,0.43s-1.01-0.21-1.75-0.64c-0.74-0.43-1.37-0.64-1.9-0.64h-15.75    l19.26,12.03c1.1,0.48,2.2,0.93,3.29,1.36c1.19,0.62,1.79,1.72,1.79,3.29c0,1.53-0.5,3.08-1.5,4.65c-1.1,1.77-2.29,2.53-3.58,2.29    c-0.96-0.19-1.6-0.64-1.93-1.36c-0.48-0.91-0.88-1.46-1.22-1.65l-22.63-14.47l-11.39,16.61c-0.57,1-1.16,2.04-1.75,3.11    C284.12,527.65,283.42,528.33,282.61,528.62z"
   id="path1149" />
		<path
   class="st0"
   d="M309.46,555.12c-2.91,3.2-7.83,4.8-14.75,4.8c-5.35,0-9.91-1.12-13.68-3.37c-4.3-2.53-6.45-6.02-6.45-10.46    c0-4.39,1.93-7.78,5.8-10.17c3.34-2.1,7.59-3.15,12.75-3.15c4.54,0,8.62,0.81,12.25,2.43c3.87,1.72,6.13,3.91,6.8,6.59    c0.33,1.38,0.5,2.82,0.5,4.3C312.68,549.77,311.61,552.78,309.46,555.12z M306.38,546.95c0.14-1.58-1.19-2.94-4.01-4.08    c-2.53-1-5.18-1.5-7.95-1.5c-4.06,0-6.92,0.19-8.59,0.57c-3.01,0.67-4.65,2.05-4.94,4.15c-0.19,1.34,1.46,2.58,4.94,3.72    c3.34,1.1,6.92,1.65,10.74,1.65C302.87,551.46,306.14,549.96,306.38,546.95z"
   id="path1151" />
		<path
   class="st0"
   d="M275.3,577.74c-1.62-0.96-2.43-2.72-2.43-5.3c0-2.39,0.74-4.06,2.22-5.01c0.43-0.29,0.91-0.43,1.43-0.43    c0.43,0,1.13,0.17,2.11,0.5c0.98,0.33,1.8,0.5,2.47,0.5l41.61-0.29c2.29,0,3.46,0,3.51,0c0.52,0.14,0.98,0.81,1.36,2.01    c0.38,1.19,0.57,2.46,0.57,3.8c0,1.96-0.32,3.2-0.97,3.72c-0.64,0.52-1.32,0.79-2.04,0.79c-0.48,0-1.27-0.19-2.36-0.57    c-1.1-0.38-1.98-0.57-2.65-0.57h-38.67c-0.67,0-1.53,0.2-2.58,0.61c-1.05,0.41-1.81,0.61-2.29,0.61    C276.16,578.1,275.73,577.98,275.3,577.74z"
   id="path1153" />
		<path
   class="st0"
   d="M309.46,607.46c-2.91,3.2-7.83,4.8-14.75,4.8c-5.35,0-9.91-1.12-13.68-3.37c-4.3-2.53-6.45-6.02-6.45-10.46    c0-4.39,1.93-7.78,5.8-10.17c3.34-2.1,7.59-3.15,12.75-3.15c4.54,0,8.62,0.81,12.25,2.43c3.87,1.72,6.13,3.91,6.8,6.59    c0.33,1.38,0.5,2.82,0.5,4.3C312.68,602.11,311.61,605.12,309.46,607.46z M306.38,599.3c0.14-1.58-1.19-2.94-4.01-4.08    c-2.53-1-5.18-1.5-7.95-1.5c-4.06,0-6.92,0.19-8.59,0.57c-3.01,0.67-4.65,2.05-4.94,4.15c-0.19,1.34,1.46,2.58,4.94,3.72    c3.34,1.1,6.92,1.65,10.74,1.65C302.87,603.81,306.14,602.31,306.38,599.3z"
   id="path1155" />
		<path
   class="st0"
   d="M293.06,645.34c-4.97,0-8.98-0.69-12.03-2.08c-4.06-1.81-6.09-4.7-6.09-8.67c0-2.96,1.41-5.54,4.22-7.73    c-0.38,0.05-0.9,0.19-1.54,0.43c-0.64,0.24-1.11,0.36-1.4,0.36c-0.38,0-0.69-0.12-0.93-0.36c-0.67-0.62-1-1.86-1-3.72    c0-2.96,0.57-4.73,1.72-5.3c0.38-0.19,0.76-0.29,1.15-0.29c0.43,0,0.98,0.19,1.65,0.57c0.67,0.38,1.22,0.57,1.65,0.57h37.45    c0.57,0,1.25-0.16,2.04-0.47c0.79-0.31,1.42-0.47,1.9-0.47c0.48,0,0.98,0.1,1.5,0.29c1.53,0.57,2.29,2.05,2.29,4.44    c0,2.91-0.96,4.87-2.86,5.87c-0.43,0.24-0.86,0.36-1.29,0.36c-0.57,0-1.4-0.31-2.47-0.93c-1.07-0.62-1.95-0.93-2.61-0.93h-9.02    c2.82,2.05,4.22,4.06,4.22,6.02c0,3.48-2.03,6.42-6.09,8.81C301.75,644.27,297.6,645.34,293.06,645.34z M293.06,636.68    c2.72,0,5.16-0.26,7.3-0.79c2.62-1.19,3.94-2.34,3.94-3.44c0-0.96-1.48-1.98-4.44-3.08c-2.58-0.81-4.85-1.22-6.8-1.22    c-2.63,0-5.23,0.43-7.81,1.29c-2.77,0.91-4.15,1.91-4.15,3.01c0,2.34,2.41,3.77,7.23,4.3c0.57,0,1.38,0,2.43,0    C291.82,636.7,292.59,636.68,293.06,636.68z"
   id="path1157" />
		<path
   class="st0"
   d="M309.46,674.42c-2.91,3.2-7.83,4.8-14.75,4.8c-5.35,0-9.91-1.12-13.68-3.37c-4.3-2.53-6.45-6.02-6.45-10.46    c0-4.39,1.93-7.78,5.8-10.17c3.34-2.1,7.59-3.15,12.75-3.15c4.54,0,8.62,0.81,12.25,2.43c3.87,1.72,6.13,3.91,6.8,6.59    c0.33,1.38,0.5,2.82,0.5,4.3C312.68,669.07,311.61,672.08,309.46,674.42z M306.38,666.25c0.14-1.58-1.19-2.94-4.01-4.08    c-2.53-1-5.18-1.5-7.95-1.5c-4.06,0-6.92,0.19-8.59,0.57c-3.01,0.67-4.65,2.05-4.94,4.15c-0.19,1.34,1.46,2.58,4.94,3.72    c3.34,1.1,6.92,1.65,10.74,1.65C302.87,670.76,306.14,669.26,306.38,666.25z"
   id="path1159" />
		<path
   class="st0"
   d="M310.97,718.38c-0.57,0.33-1.15,0.5-1.72,0.5c-0.86,0-1.93-0.41-3.22-1.22c-1.72-1.15-2.82-1.81-3.29-2.01    c-5.44-2.1-12.27-4.8-20.48-8.09c-2.86-0.62-4.89-1.41-6.09-2.36c-1.62-1.19-2.39-2.96-2.29-5.3c0.14-2.24,0.57-3.75,1.29-4.51    c0.48-0.57,1.26-0.86,2.36-0.86c0.14,0,0.37,0,0.68,0c0.31,0,0.54,0,0.68,0c0.76,0,1.41-0.07,1.93-0.21l23.56-7.3    c0.52-0.14,1.36-0.76,2.51-1.86c0.91-0.91,1.74-1.26,2.51-1.07c1.91,0.48,2.86,2.17,2.86,5.08c0,0.62-0.05,1.19-0.14,1.72    c-0.33,1.86-3.27,3.7-8.81,5.51c-5.2,1.48-10.38,2.98-15.54,4.51l20.62,7.45c1.05,0.38,1.77,0.69,2.15,0.93    c0.67,0.43,1.19,1.04,1.58,1.83c0.38,0.79,0.57,1.75,0.57,2.9C312.68,716.21,312.11,717.67,310.97,718.38z"
   id="path1161" />
	</g>
	<g
   id="g1181">
		<path
   class="st0"
   d="M282.61,528.62c-0.48,0.14-0.98,0.21-1.5,0.21c-1.77,0-3.43-0.79-4.98-2.36c-1.55-1.58-2.33-3.27-2.33-5.08    c0-0.57,0.07-1.12,0.21-1.65c0.57-1.72,1.84-2.86,3.8-3.44c2.2-0.62,3.63-1.39,4.3-2.29l9.02-12.89l-7.73,0.86    c-0.62,0.05-1.46,0.29-2.51,0.72c-1.05,0.43-1.84,0.64-2.36,0.64c-0.86,0-1.68-0.47-2.47-1.4c-0.79-0.93-1.18-2.07-1.18-3.4    c0-1.48,0.5-3.06,1.5-4.73c1.1-1.81,2.27-2.72,3.51-2.72c0.48,0,1,0.26,1.58,0.79c0.57,0.52,1.1,0.79,1.58,0.79l38.03-1.86    c0.52-0.05,1.18-0.3,1.97-0.75c0.79-0.45,1.37-0.68,1.75-0.68c0.81,0,1.72,0.62,2.72,1.86c0.19,0.29,0.29,1.05,0.29,2.29    c0,4.25-0.88,6.92-2.65,8.02c-0.48,0.29-0.93,0.43-1.36,0.43s-1.01-0.21-1.75-0.64c-0.74-0.43-1.37-0.64-1.9-0.64h-15.75    l19.26,12.03c1.1,0.48,2.2,0.93,3.29,1.36c1.19,0.62,1.79,1.72,1.79,3.29c0,1.53-0.5,3.08-1.5,4.65c-1.1,1.77-2.29,2.53-3.58,2.29    c-0.96-0.19-1.6-0.64-1.93-1.36c-0.48-0.91-0.88-1.46-1.22-1.65l-22.63-14.47l-11.39,16.61c-0.57,1-1.16,2.04-1.75,3.11    C284.12,527.65,283.42,528.33,282.61,528.62z"
   id="path1165" />
		<path
   class="st0"
   d="M324.53,555.12c10.7,3.2,28.77,4.8,54.21,4.8c19.65,0,36.41-1.12,50.26-3.37    c15.79-2.53,23.68-6.02,23.68-10.46c0-4.39-7.11-7.78-21.32-10.17c-12.28-2.1-27.89-3.15-46.84-3.15c-16.67,0-31.67,0.81-45,2.43    c-14.21,1.72-22.54,3.91-25,6.59c-1.23,1.38-1.84,2.82-1.84,4.3C312.68,549.77,316.63,552.78,324.53,555.12z M335.84,546.95    c-0.53-1.58,4.39-2.94,14.74-4.08c9.3-1,19.04-1.5,29.21-1.5c14.91,0,25.44,0.19,31.58,0.57c11.05,0.67,17.11,2.05,18.16,4.15    c0.7,1.34-5.35,2.58-18.16,3.72c-12.28,1.1-25.44,1.65-39.47,1.65C348.74,551.46,336.72,549.96,335.84,546.95z"
   id="path1167" />
		<path
   class="st0"
   d="M275.3,577.74c-1.62-0.96-2.43-2.72-2.43-5.3c0-2.39,0.74-4.06,2.22-5.01c0.43-0.29,0.91-0.43,1.43-0.43    c0.43,0,1.13,0.17,2.11,0.5c0.98,0.33,1.8,0.5,2.47,0.5l41.61-0.29c2.29,0,3.46,0,3.51,0c0.52,0.14,0.98,0.81,1.36,2.01    c0.38,1.19,0.57,2.46,0.57,3.8c0,1.96-0.32,3.2-0.97,3.72c-0.64,0.52-1.32,0.79-2.04,0.79c-0.48,0-1.27-0.19-2.36-0.57    c-1.1-0.38-1.98-0.57-2.65-0.57h-38.67c-0.67,0-1.53,0.2-2.58,0.61c-1.05,0.41-1.81,0.61-2.29,0.61    C276.16,578.1,275.73,577.98,275.3,577.74z"
   id="path1169" />
		<path
   class="st0"
   d="M309.46,607.46c-2.91,3.2-7.83,4.8-14.75,4.8c-5.35,0-9.91-1.12-13.68-3.37c-4.3-2.53-6.45-6.02-6.45-10.46    c0-4.39,1.93-7.78,5.8-10.17c3.34-2.1,7.59-3.15,12.75-3.15c4.54,0,8.62,0.81,12.25,2.43c3.87,1.72,6.13,3.91,6.8,6.59    c0.33,1.38,0.5,2.82,0.5,4.3C312.68,602.11,311.61,605.12,309.46,607.46z M306.38,599.3c0.14-1.58-1.19-2.94-4.01-4.08    c-2.53-1-5.18-1.5-7.95-1.5c-4.06,0-6.92,0.19-8.59,0.57c-3.01,0.67-4.65,2.05-4.94,4.15c-0.19,1.34,1.46,2.58,4.94,3.72    c3.34,1.1,6.92,1.65,10.74,1.65C302.87,603.81,306.14,602.31,306.38,599.3z"
   id="path1171" />
		<path
   class="st0"
   d="M293.06,645.34c-4.97,0-8.98-0.69-12.03-2.08c-4.06-1.81-6.09-4.7-6.09-8.67c0-2.96,1.41-5.54,4.22-7.73    c-0.38,0.05-0.9,0.19-1.54,0.43c-0.64,0.24-1.11,0.36-1.4,0.36c-0.38,0-0.69-0.12-0.93-0.36c-0.67-0.62-1-1.86-1-3.72    c0-2.96,0.57-4.73,1.72-5.3c0.38-0.19,0.76-0.29,1.15-0.29c0.43,0,0.98,0.19,1.65,0.57c0.67,0.38,1.22,0.57,1.65,0.57h37.45    c0.57,0,1.25-0.16,2.04-0.47c0.79-0.31,1.42-0.47,1.9-0.47c0.48,0,0.98,0.1,1.5,0.29c1.53,0.57,2.29,2.05,2.29,4.44    c0,2.91-0.96,4.87-2.86,5.87c-0.43,0.24-0.86,0.36-1.29,0.36c-0.57,0-1.4-0.31-2.47-0.93c-1.07-0.62-1.95-0.93-2.61-0.93h-9.02    c2.82,2.05,4.22,4.06,4.22,6.02c0,3.48-2.03,6.42-6.09,8.81C301.75,644.27,297.6,645.34,293.06,645.34z M293.06,636.68    c2.72,0,5.16-0.26,7.3-0.79c2.62-1.19,3.94-2.34,3.94-3.44c0-0.96-1.48-1.98-4.44-3.08c-2.58-0.81-4.85-1.22-6.8-1.22    c-2.63,0-5.23,0.43-7.81,1.29c-2.77,0.91-4.15,1.91-4.15,3.01c0,2.34,2.41,3.77,7.23,4.3c0.57,0,1.38,0,2.43,0    C291.82,636.7,292.59,636.68,293.06,636.68z"
   id="path1173" />
		<path
   class="st0"
   d="M309.46,674.42c-2.91,3.2-7.83,4.8-14.75,4.8c-5.35,0-9.91-1.12-13.68-3.37c-4.3-2.53-6.45-6.02-6.45-10.46    c0-4.39,1.93-7.78,5.8-10.17c3.34-2.1,7.59-3.15,12.75-3.15c4.54,0,8.62,0.81,12.25,2.43c3.87,1.72,6.13,3.91,6.8,6.59    c0.33,1.38,0.5,2.82,0.5,4.3C312.68,669.07,311.61,672.08,309.46,674.42z M306.38,666.25c0.14-1.58-1.19-2.94-4.01-4.08    c-2.53-1-5.18-1.5-7.95-1.5c-4.06,0-6.92,0.19-8.59,0.57c-3.01,0.67-4.65,2.05-4.94,4.15c-0.19,1.34,1.46,2.58,4.94,3.72    c3.34,1.1,6.92,1.65,10.74,1.65C302.87,670.76,306.14,669.26,306.38,666.25z"
   id="path1175" />
		<path
   class="st0"
   d="M309.46,674.42c-2.91,3.2-7.83,4.8-14.75,4.8c-5.35,0-9.91-1.12-13.68-3.37c-4.3-2.53-6.45-6.02-6.45-10.46    c0-4.39,1.93-7.78,5.8-10.17c3.34-2.1,7.59-3.15,12.75-3.15c4.54,0,8.62,0.81,12.25,2.43c3.87,1.72,6.13,3.91,6.8,6.59    c0.33,1.38,0.5,2.82,0.5,4.3C312.68,669.07,311.61,672.08,309.46,674.42z M306.38,666.25c0.14-1.58-1.19-2.94-4.01-4.08    c-2.53-1-5.18-1.5-7.95-1.5c-4.06,0-6.92,0.19-8.59,0.57c-3.01,0.67-4.65,2.05-4.94,4.15c-0.19,1.34,1.46,2.58,4.94,3.72    c3.34,1.1,6.92,1.65,10.74,1.65C302.87,670.76,306.14,669.26,306.38,666.25z"
   id="path1177" />
		<path
   class="st0"
   d="M315.96,716.56c1.09,0.32,2.18,0.47,3.28,0.47c1.64,0,3.69-0.38,6.14-1.15c3.28-1.08,5.37-1.72,6.28-1.9    c10.37-1.99,23.39-4.54,39.04-7.66c5.46-0.59,9.33-1.33,11.6-2.24c3.09-1.13,4.55-2.8,4.37-5.02c-0.27-2.13-1.09-3.55-2.46-4.27    c-0.91-0.54-2.41-0.81-4.5-0.81c-0.27,0-0.7,0-1.3,0c-0.59,0-1.02,0-1.3,0c-1.45,0-2.68-0.07-3.69-0.2l-44.91-6.92    c-1-0.14-2.59-0.72-4.78-1.76c-1.73-0.86-3.32-1.2-4.78-1.02c-3.64,0.45-5.46,2.06-5.46,4.81c0,0.59,0.09,1.13,0.27,1.63    c0.64,1.76,6.23,3.5,16.79,5.22c9.92,1.4,19.79,2.82,29.62,4.27l-39.31,7.05c-2,0.36-3.37,0.65-4.1,0.88    c-1.27,0.41-2.27,0.98-3,1.73c-0.73,0.75-1.09,1.66-1.09,2.75C312.68,714.5,313.78,715.88,315.96,716.56z"
   id="path1179" />
	</g>
	<g
   id="g1197">
		<path
   class="st0"
   d="M316.37,389.87c-0.44-0.24-0.84-0.54-1.22-0.91c-1.25-1.25-1.87-2.98-1.85-5.19    c0.02-2.21,0.67-3.96,1.95-5.24c0.41-0.41,0.84-0.74,1.32-1.01c1.62-0.81,3.32-0.73,5.11,0.25c1.99,1.11,3.54,1.59,4.66,1.42    l15.49-2.73l-6.08-4.86c-0.47-0.41-1.23-0.83-2.28-1.27c-1.05-0.44-1.76-0.84-2.13-1.22c-0.61-0.61-0.86-1.52-0.76-2.73    c0.1-1.22,0.63-2.3,1.57-3.24c1.05-1.05,2.52-1.81,4.41-2.28c2.06-0.51,3.53-0.32,4.41,0.56c0.34,0.34,0.52,0.89,0.56,1.67    c0.03,0.78,0.22,1.33,0.56,1.67l28.2,25.57c0.41,0.34,1.05,0.62,1.92,0.86c0.88,0.24,1.45,0.49,1.72,0.76    c0.57,0.57,0.78,1.65,0.61,3.24c-0.07,0.34-0.54,0.94-1.42,1.82c-3,3-5.52,4.27-7.54,3.8c-0.54-0.14-0.96-0.35-1.27-0.66    c-0.3-0.3-0.57-0.87-0.78-1.7c-0.22-0.83-0.52-1.43-0.89-1.8l-11.14-11.14l5.11,22.13c0.44,1.11,0.89,2.21,1.37,3.29    c0.4,1.28,0.05,2.48-1.06,3.6c-1.08,1.08-2.53,1.82-4.35,2.23c-2.03,0.47-3.41,0.17-4.15-0.91c-0.54-0.81-0.68-1.59-0.41-2.33    c0.3-0.98,0.41-1.66,0.3-2.03l-5.77-26.23l-19.8,3.7c-1.11,0.3-2.26,0.62-3.44,0.96C318.12,390.26,317.14,390.24,316.37,389.87z"
   id="path1183" />
		<path
   class="st0"
   d="M316.62,427.6c-4.32,0.2-8.93-2.14-13.82-7.04c-3.78-3.78-6.21-7.8-7.29-12.05    c-1.25-4.83-0.3-8.81,2.84-11.95c3.11-3.11,6.87-4.14,11.29-3.09c3.85,0.88,7.6,3.14,11.24,6.79c3.21,3.21,5.52,6.67,6.94,10.38    c1.52,3.95,1.57,7.1,0.15,9.47c-0.74,1.21-1.64,2.35-2.68,3.39C322.68,426.09,319.8,427.46,316.62,427.6z M320.22,419.65    c1.22-1.01,1.23-2.92,0.05-5.72c-1.08-2.5-2.6-4.73-4.56-6.68c-2.87-2.87-5.03-4.76-6.48-5.67c-2.6-1.65-4.74-1.84-6.43-0.56    c-1.08,0.81-0.79,2.85,0.86,6.13c1.59,3.14,3.73,6.06,6.43,8.76C314.55,420.36,317.92,421.6,320.22,419.65z"
   id="path1185" />
		<path
   class="st0"
   d="M276.47,419.44c-0.47-1.82,0.2-3.65,2.03-5.47c1.69-1.69,3.39-2.35,5.11-1.97c0.51,0.1,0.94,0.34,1.32,0.71    c0.3,0.3,0.68,0.92,1.14,1.85c0.46,0.93,0.92,1.63,1.39,2.1l29.62,29.22c1.62,1.62,2.45,2.45,2.48,2.48    c0.27,0.47,0.12,1.27-0.46,2.38c-0.57,1.11-1.33,2.14-2.28,3.09c-1.38,1.38-2.49,2.03-3.32,1.95c-0.83-0.08-1.49-0.38-2-0.89    c-0.34-0.34-0.76-1.03-1.27-2.08c-0.51-1.05-1-1.81-1.47-2.28l-27.34-27.34c-0.47-0.47-1.22-0.94-2.25-1.39    c-1.03-0.46-1.71-0.85-2.05-1.19C276.82,420.3,276.6,419.92,276.47,419.44z"
   id="path1187" />
		<path
   class="st0"
   d="M279.61,464.61c-4.32,0.2-8.93-2.14-13.82-7.04c-3.78-3.78-6.21-7.8-7.29-12.05    c-1.25-4.83-0.3-8.81,2.84-11.95c3.11-3.11,6.87-4.14,11.29-3.09c3.85,0.88,7.6,3.14,11.24,6.79c3.21,3.21,5.52,6.67,6.94,10.38    c1.52,3.95,1.57,7.1,0.15,9.47c-0.74,1.21-1.64,2.35-2.68,3.39C285.67,463.11,282.78,464.48,279.61,464.61z M283.2,456.66    c1.22-1.01,1.23-2.92,0.05-5.72c-1.08-2.5-2.6-4.73-4.56-6.68c-2.87-2.87-5.03-4.76-6.48-5.67c-2.6-1.65-4.74-1.84-6.43-0.56    c-1.08,0.81-0.79,2.85,0.86,6.13c1.59,3.14,3.73,6.06,6.43,8.76C277.53,457.37,280.91,458.62,283.2,456.66z"
   id="path1189" />
		<path
   class="st0"
   d="M241.23,479.8c-3.51-3.51-5.86-6.84-7.04-9.98c-1.59-4.15-0.98-7.63,1.82-10.43    c2.09-2.09,4.91-2.92,8.46-2.48c-0.3-0.24-0.77-0.5-1.39-0.78c-0.62-0.29-1.04-0.53-1.24-0.73c-0.27-0.27-0.4-0.57-0.4-0.91    c-0.03-0.91,0.61-2.03,1.92-3.34c2.09-2.09,3.75-2.94,4.96-2.53c0.41,0.13,0.74,0.34,1.01,0.61c0.3,0.3,0.56,0.83,0.76,1.57    c0.2,0.74,0.46,1.27,0.76,1.57l26.48,26.48c0.41,0.41,1,0.78,1.77,1.11c0.78,0.34,1.33,0.67,1.67,1.01    c0.34,0.34,0.62,0.76,0.86,1.27c0.67,1.49,0.17,3.07-1.52,4.76c-2.06,2.06-4.12,2.77-6.18,2.13c-0.47-0.14-0.86-0.35-1.16-0.66    c-0.41-0.41-0.77-1.21-1.09-2.41c-0.32-1.2-0.72-2.03-1.19-2.51l-6.38-6.38c0.54,3.44,0.12,5.86-1.27,7.24    c-2.46,2.46-5.98,3.1-10.53,1.92C248.13,485.18,244.43,483.01,241.23,479.8z M247.35,473.67c1.92,1.92,3.83,3.46,5.72,4.61    c2.7,1.01,4.44,1.13,5.22,0.35c0.68-0.68,0.35-2.45-0.96-5.32c-1.25-2.4-2.57-4.29-3.95-5.67c-1.86-1.86-4-3.39-6.43-4.61    c-2.6-1.32-4.29-1.59-5.06-0.81c-1.65,1.65-0.96,4.37,2.08,8.15c0.41,0.41,0.98,0.98,1.72,1.72    C246.46,472.81,247.02,473.34,247.35,473.67z"
   id="path1191" />
		<path
   class="st0"
   d="M232.26,511.95c-4.32,0.2-8.93-2.14-13.82-7.04c-3.78-3.78-6.21-7.8-7.29-12.05    c-1.25-4.83-0.3-8.81,2.84-11.95c3.11-3.11,6.87-4.14,11.29-3.09c3.85,0.88,7.6,3.14,11.24,6.79c3.21,3.21,5.52,6.67,6.94,10.38    c1.52,3.95,1.57,7.1,0.15,9.47c-0.74,1.21-1.64,2.35-2.68,3.39C238.32,510.45,235.44,511.82,232.26,511.95z M235.86,504    c1.22-1.01,1.23-2.92,0.05-5.72c-1.08-2.5-2.6-4.73-4.56-6.68c-2.87-2.87-5.03-4.76-6.48-5.67c-2.6-1.65-4.74-1.84-6.43-0.56    c-1.08,0.81-0.79,2.85,0.86,6.13c1.59,3.14,3.73,6.06,6.43,8.76C230.19,504.71,233.56,505.96,235.86,504z"
   id="path1193" />
		<path
   class="st0"
   d="M202.24,544.11c-0.64-0.17-1.16-0.46-1.57-0.86c-0.61-0.61-1.08-1.65-1.42-3.14    c-0.41-2.03-0.71-3.28-0.91-3.75c-2.36-5.33-5.28-12.07-8.76-20.2c-1.59-2.46-2.46-4.46-2.63-5.98c-0.3-1.99,0.41-3.78,2.13-5.37    c1.69-1.49,3.06-2.25,4.1-2.28c0.74-0.07,1.5,0.29,2.28,1.06c0.1,0.1,0.26,0.26,0.48,0.48c0.22,0.22,0.38,0.38,0.48,0.48    c0.54,0.54,1.05,0.94,1.52,1.22l21.82,11.49c0.47,0.27,1.5,0.42,3.09,0.46c1.28,0,2.13,0.34,2.53,1.01    c1.01,1.69,0.49,3.56-1.57,5.62c-0.44,0.44-0.88,0.81-1.32,1.11c-1.55,1.08-4.93,0.3-10.13-2.33c-4.73-2.63-9.45-5.23-14.18-7.8    l9.32,19.85c0.47,1.01,0.76,1.74,0.86,2.18c0.17,0.78,0.11,1.58-0.18,2.41c-0.29,0.83-0.84,1.65-1.65,2.46    C204.99,543.79,203.56,544.41,202.24,544.11z"
   id="path1195" />
	</g>
	<g
   id="g1215">
		<path
   class="st0"
   d="M316.37,389.87c-0.44-0.24-0.84-0.54-1.22-0.91c-1.25-1.25-1.87-2.98-1.85-5.19    c0.02-2.21,0.67-3.96,1.95-5.24c0.41-0.41,0.84-0.74,1.32-1.01c1.62-0.81,3.32-0.73,5.11,0.25c1.99,1.11,3.54,1.59,4.66,1.42    l15.49-2.73l-6.08-4.86c-0.47-0.41-1.23-0.83-2.28-1.27c-1.05-0.44-1.76-0.84-2.13-1.22c-0.61-0.61-0.86-1.52-0.76-2.73    c0.1-1.22,0.63-2.3,1.57-3.24c1.05-1.05,2.52-1.81,4.41-2.28c2.06-0.51,3.53-0.32,4.41,0.56c0.34,0.34,0.52,0.89,0.56,1.67    c0.03,0.78,0.22,1.33,0.56,1.67l28.2,25.57c0.41,0.34,1.05,0.62,1.92,0.86c0.88,0.24,1.45,0.49,1.72,0.76    c0.57,0.57,0.78,1.65,0.61,3.24c-0.07,0.34-0.54,0.94-1.42,1.82c-3,3-5.52,4.27-7.54,3.8c-0.54-0.14-0.96-0.35-1.27-0.66    c-0.3-0.3-0.57-0.87-0.78-1.7c-0.22-0.83-0.52-1.43-0.89-1.8l-11.14-11.14l5.11,22.13c0.44,1.11,0.89,2.21,1.37,3.29    c0.4,1.28,0.05,2.48-1.06,3.6c-1.08,1.08-2.53,1.82-4.35,2.23c-2.03,0.47-3.41,0.17-4.15-0.91c-0.54-0.81-0.68-1.59-0.41-2.33    c0.3-0.98,0.41-1.66,0.3-2.03l-5.77-26.23l-19.8,3.7c-1.11,0.3-2.26,0.62-3.44,0.96C318.12,390.26,317.14,390.24,316.37,389.87z"
   id="path1199" />
		<path
   class="st0"
   d="M327.27,438.25c5.31,9.83,16.95,23.74,34.94,41.73c13.9,13.9,26.54,24.95,37.92,33.16    c12.95,9.38,21,12.49,24.14,9.35c3.11-3.11,0.48-10.53-7.88-22.26c-7.2-10.17-17.5-21.95-30.89-35.35    c-11.78-11.78-22.96-21.82-33.54-30.1c-11.26-8.83-18.71-13.17-22.34-13.02c-1.85,0.11-3.29,0.69-4.34,1.74    C322.68,426.09,323.35,431.01,327.27,438.25z M341.05,440.48c0.74-1.49,5.18,1.03,13.31,7.53c7.29,5.87,14.53,12.4,21.72,19.59    c10.55,10.55,17.85,18.12,21.92,22.74c7.34,8.29,10.64,13.55,9.9,15.78c-0.45,1.44-5.61-1.96-15.47-10.21    c-9.46-7.91-19.15-16.82-29.08-26.75C346.98,452.79,339.54,443.23,341.05,440.48z"
   id="path1201" />
		<path
   class="st0"
   d="M276.47,419.44c-0.47-1.82,0.2-3.65,2.03-5.47c1.69-1.69,3.39-2.35,5.11-1.97c0.51,0.1,0.94,0.34,1.32,0.71    c0.3,0.3,0.68,0.92,1.14,1.85c0.46,0.93,0.92,1.63,1.39,2.1l29.62,29.22c1.62,1.62,2.45,2.45,2.48,2.48    c0.27,0.47,0.12,1.27-0.46,2.38c-0.57,1.11-1.33,2.14-2.28,3.09c-1.38,1.38-2.49,2.03-3.32,1.95c-0.83-0.08-1.49-0.38-2-0.89    c-0.34-0.34-0.76-1.03-1.27-2.08c-0.51-1.05-1-1.81-1.47-2.28l-27.34-27.34c-0.47-0.47-1.22-0.94-2.25-1.39    c-1.03-0.46-1.71-0.85-2.05-1.19C276.82,420.3,276.6,419.92,276.47,419.44z"
   id="path1203" />
		<path
   class="st0"
   d="M279.61,464.61c-4.32,0.2-8.93-2.14-13.82-7.04c-3.78-3.78-6.21-7.8-7.29-12.05    c-1.25-4.83-0.3-8.81,2.84-11.95c3.11-3.11,6.87-4.14,11.29-3.09c3.85,0.88,7.6,3.14,11.24,6.79c3.21,3.21,5.52,6.67,6.94,10.38    c1.52,3.95,1.57,7.1,0.15,9.47c-0.74,1.21-1.64,2.35-2.68,3.39C285.67,463.11,282.78,464.48,279.61,464.61z M283.2,456.66    c1.22-1.01,1.23-2.92,0.05-5.72c-1.08-2.5-2.6-4.73-4.56-6.68c-2.87-2.87-5.03-4.76-6.48-5.67c-2.6-1.65-4.74-1.84-6.43-0.56    c-1.08,0.81-0.79,2.85,0.86,6.13c1.59,3.14,3.73,6.06,6.43,8.76C277.53,457.37,280.91,458.62,283.2,456.66z"
   id="path1205" />
		<path
   class="st0"
   d="M241.23,479.8c-3.51-3.51-5.86-6.84-7.04-9.98c-1.59-4.15-0.98-7.63,1.82-10.43    c2.09-2.09,4.91-2.92,8.46-2.48c-0.3-0.24-0.77-0.5-1.39-0.78c-0.62-0.29-1.04-0.53-1.24-0.73c-0.27-0.27-0.4-0.57-0.4-0.91    c-0.03-0.91,0.61-2.03,1.92-3.34c2.09-2.09,3.75-2.94,4.96-2.53c0.41,0.13,0.74,0.34,1.01,0.61c0.3,0.3,0.56,0.83,0.76,1.57    c0.2,0.74,0.46,1.27,0.76,1.57l26.48,26.48c0.41,0.41,1,0.78,1.77,1.11c0.78,0.34,1.33,0.67,1.67,1.01    c0.34,0.34,0.62,0.76,0.86,1.27c0.67,1.49,0.17,3.07-1.52,4.76c-2.06,2.06-4.12,2.77-6.18,2.13c-0.47-0.14-0.86-0.35-1.16-0.66    c-0.41-0.41-0.77-1.21-1.09-2.41c-0.32-1.2-0.72-2.03-1.19-2.51l-6.38-6.38c0.54,3.44,0.12,5.86-1.27,7.24    c-2.46,2.46-5.98,3.1-10.53,1.92C248.13,485.18,244.43,483.01,241.23,479.8z M247.35,473.67c1.92,1.92,3.83,3.46,5.72,4.61    c2.7,1.01,4.44,1.13,5.22,0.35c0.68-0.68,0.35-2.45-0.96-5.32c-1.25-2.4-2.57-4.29-3.95-5.67c-1.86-1.86-4-3.39-6.43-4.61    c-2.6-1.32-4.29-1.59-5.06-0.81c-1.65,1.65-0.96,4.37,2.08,8.15c0.41,0.41,0.98,0.98,1.72,1.72    C246.46,472.81,247.02,473.34,247.35,473.67z"
   id="path1207" />
		<path
   class="st0"
   d="M232.26,511.95c-4.32,0.2-8.93-2.14-13.82-7.04c-3.78-3.78-6.21-7.8-7.29-12.05    c-1.25-4.83-0.3-8.81,2.84-11.95c3.11-3.11,6.87-4.14,11.29-3.09c3.85,0.88,7.6,3.14,11.24,6.79c3.21,3.21,5.52,6.67,6.94,10.38    c1.52,3.95,1.57,7.1,0.15,9.47c-0.74,1.21-1.64,2.35-2.68,3.39C238.32,510.45,235.44,511.82,232.26,511.95z M235.86,504    c1.22-1.01,1.23-2.92,0.05-5.72c-1.08-2.5-2.6-4.73-4.56-6.68c-2.87-2.87-5.03-4.76-6.48-5.67c-2.6-1.65-4.74-1.84-6.43-0.56    c-1.08,0.81-0.79,2.85,0.86,6.13c1.59,3.14,3.73,6.06,6.43,8.76C230.19,504.71,233.56,505.96,235.86,504z"
   id="path1209" />
		<path
   class="st0"
   d="M232.26,511.95c-4.32,0.2-8.93-2.14-13.82-7.04c-3.78-3.78-6.21-7.8-7.29-12.05    c-1.25-4.83-0.3-8.81,2.84-11.95c3.11-3.11,6.87-4.14,11.29-3.09c3.85,0.88,7.6,3.14,11.24,6.79c3.21,3.21,5.52,6.67,6.94,10.38    c1.52,3.95,1.57,7.1,0.15,9.47c-0.74,1.21-1.64,2.35-2.68,3.39C238.32,510.45,235.44,511.82,232.26,511.95z M235.86,504    c1.22-1.01,1.23-2.92,0.05-5.72c-1.08-2.5-2.6-4.73-4.56-6.68c-2.87-2.87-5.03-4.76-6.48-5.67c-2.6-1.65-4.74-1.84-6.43-0.56    c-1.08,0.81-0.79,2.85,0.86,6.13c1.59,3.14,3.73,6.06,6.43,8.76C230.19,504.71,233.56,505.96,235.86,504z"
   id="path1211" />
		<path
   class="st0"
   d="M207.06,546.35c0.55,1,1.21,1.88,1.98,2.65c1.16,1.16,2.88,2.33,5.16,3.53c3.08,1.55,5.01,2.58,5.78,3.1    c8.74,5.93,19.75,13.33,33.02,22.19c4.28,3.45,7.54,5.65,9.79,6.62c2.99,1.39,5.2,1.23,6.64-0.46c1.31-1.7,1.74-3.28,1.28-4.76    c-0.26-1.03-1.13-2.28-2.61-3.76c-0.19-0.19-0.5-0.5-0.92-0.92c-0.42-0.42-0.72-0.72-0.92-0.92c-1.03-1.03-1.85-1.95-2.46-2.75    l-26.87-36.65c-0.61-0.8-1.32-2.35-2.13-4.63c-0.61-1.83-1.5-3.19-2.66-4.1c-2.89-2.25-5.31-2.41-7.27-0.46    c-0.41,0.41-0.73,0.86-0.96,1.34c-0.8,1.7,1.93,6.89,8.18,15.56c6.02,8,12,15.99,17.92,23.97l-32.78-22.81    c-1.67-1.16-2.84-1.92-3.52-2.27c-1.19-0.61-2.3-0.91-3.35-0.9c-1.04,0.01-1.95,0.4-2.71,1.17    C206.2,542.58,206,544.33,207.06,546.35z"
   id="path1213" />
	</g>
	<g
   id="g1231">
		<path
   class="st0"
   d="M438.35,315.64c-0.14-0.48-0.21-0.98-0.21-1.5c0-1.77,0.79-3.43,2.36-4.98c1.58-1.55,3.27-2.33,5.08-2.33    c0.57,0,1.12,0.07,1.65,0.21c1.72,0.57,2.86,1.84,3.44,3.8c0.62,2.2,1.39,3.63,2.29,4.3l12.89,9.02l-0.86-7.73    c-0.05-0.62-0.29-1.46-0.72-2.51c-0.43-1.05-0.64-1.84-0.64-2.36c0-0.86,0.47-1.68,1.4-2.47c0.93-0.79,2.07-1.18,3.4-1.18    c1.48,0,3.06,0.5,4.73,1.5c1.81,1.1,2.72,2.27,2.72,3.51c0,0.48-0.26,1-0.79,1.58c-0.52,0.57-0.79,1.1-0.79,1.58l1.86,38.03    c0.05,0.52,0.3,1.18,0.75,1.97c0.45,0.79,0.68,1.37,0.68,1.75c0,0.81-0.62,1.72-1.86,2.72c-0.29,0.19-1.05,0.29-2.29,0.29    c-4.25,0-6.92-0.88-8.02-2.65c-0.29-0.48-0.43-0.93-0.43-1.36s0.21-1.01,0.64-1.75c0.43-0.74,0.64-1.37,0.64-1.9v-15.75    l-12.03,19.26c-0.48,1.1-0.93,2.2-1.36,3.29c-0.62,1.19-1.72,1.79-3.29,1.79c-1.53,0-3.08-0.5-4.65-1.5    c-1.77-1.1-2.53-2.29-2.29-3.58c0.19-0.96,0.64-1.6,1.36-1.93c0.91-0.48,1.46-0.88,1.65-1.22l14.47-22.63l-16.61-11.39    c-1-0.57-2.04-1.16-3.11-1.75C439.32,317.15,438.64,316.45,438.35,315.64z"
   id="path1217" />
		<path
   class="st0"
   d="M411.86,342.49c-3.2-2.91-4.8-7.83-4.8-14.75c0-5.35,1.12-9.91,3.37-13.68c2.53-4.3,6.02-6.45,10.46-6.45    c4.39,0,7.78,1.93,10.17,5.8c2.1,3.34,3.15,7.59,3.15,12.75c0,4.54-0.81,8.62-2.43,12.25c-1.72,3.87-3.91,6.13-6.59,6.8    c-1.38,0.33-2.82,0.5-4.3,0.5C417.2,345.71,414.2,344.64,411.86,342.49z M420.02,339.41c1.58,0.14,2.94-1.19,4.08-4.01    c1-2.53,1.5-5.18,1.5-7.95c0-4.06-0.19-6.92-0.57-8.59c-0.67-3.01-2.05-4.65-4.15-4.94c-1.34-0.19-2.58,1.46-3.72,4.94    c-1.1,3.34-1.65,6.92-1.65,10.74C415.51,335.9,417.01,339.17,420.02,339.41z"
   id="path1219" />
		<path
   class="st0"
   d="M389.23,308.33c0.96-1.62,2.72-2.43,5.3-2.43c2.39,0,4.06,0.74,5.01,2.22c0.29,0.43,0.43,0.91,0.43,1.43    c0,0.43-0.17,1.13-0.5,2.11c-0.33,0.98-0.5,1.8-0.5,2.47l0.29,41.61c0,2.29,0,3.46,0,3.51c-0.14,0.52-0.81,0.98-2.01,1.36    c-1.19,0.38-2.46,0.57-3.8,0.57c-1.96,0-3.2-0.32-3.72-0.97c-0.52-0.64-0.79-1.32-0.79-2.04c0-0.48,0.19-1.27,0.57-2.36    c0.38-1.1,0.57-1.98,0.57-2.65v-38.67c0-0.67-0.2-1.53-0.61-2.58c-0.41-1.05-0.61-1.81-0.61-2.29    C388.87,309.19,388.99,308.76,389.23,308.33z"
   id="path1221" />
		<path
   class="st0"
   d="M359.51,342.49c-3.2-2.91-4.8-7.83-4.8-14.75c0-5.35,1.12-9.91,3.37-13.68c2.53-4.3,6.02-6.45,10.46-6.45    c4.39,0,7.78,1.93,10.17,5.8c2.1,3.34,3.15,7.59,3.15,12.75c0,4.54-0.81,8.62-2.43,12.25c-1.72,3.87-3.91,6.13-6.59,6.8    c-1.38,0.33-2.82,0.5-4.3,0.5C364.86,345.71,361.85,344.64,359.51,342.49z M367.67,339.41c1.58,0.14,2.94-1.19,4.08-4.01    c1-2.53,1.5-5.18,1.5-7.95c0-4.06-0.19-6.92-0.57-8.59c-0.67-3.01-2.05-4.65-4.15-4.94c-1.34-0.19-2.58,1.46-3.72,4.94    c-1.1,3.34-1.65,6.92-1.65,10.74C363.16,335.9,364.67,339.17,367.67,339.41z"
   id="path1223" />
		<path
   class="st0"
   d="M321.63,326.09c0-4.97,0.69-8.98,2.08-12.03c1.81-4.06,4.7-6.09,8.67-6.09c2.96,0,5.54,1.41,7.73,4.22    c-0.05-0.38-0.19-0.9-0.43-1.54c-0.24-0.64-0.36-1.11-0.36-1.4c0-0.38,0.12-0.69,0.36-0.93c0.62-0.67,1.86-1,3.72-1    c2.96,0,4.73,0.57,5.3,1.72c0.19,0.38,0.29,0.76,0.29,1.15c0,0.43-0.19,0.98-0.57,1.65c-0.38,0.67-0.57,1.22-0.57,1.65v37.45    c0,0.57,0.16,1.25,0.47,2.04c0.31,0.79,0.47,1.42,0.47,1.9c0,0.48-0.1,0.98-0.29,1.5c-0.57,1.53-2.05,2.29-4.44,2.29    c-2.91,0-4.87-0.96-5.87-2.86c-0.24-0.43-0.36-0.86-0.36-1.29c0-0.57,0.31-1.4,0.93-2.47c0.62-1.07,0.93-1.95,0.93-2.61v-9.02    c-2.05,2.82-4.06,4.22-6.02,4.22c-3.48,0-6.42-2.03-8.81-6.09C322.7,334.78,321.63,330.63,321.63,326.09z M330.29,326.09    c0,2.72,0.26,5.16,0.79,7.3c1.19,2.62,2.34,3.94,3.44,3.94c0.96,0,1.98-1.48,3.08-4.44c0.81-2.58,1.22-4.85,1.22-6.8    c0-2.63-0.43-5.23-1.29-7.81c-0.91-2.77-1.91-4.15-3.01-4.15c-2.34,0-3.77,2.41-4.3,7.23c0,0.57,0,1.38,0,2.43    C330.27,324.85,330.29,325.61,330.29,326.09z"
   id="path1225" />
		<path
   class="st0"
   d="M292.56,342.49c-3.2-2.91-4.8-7.83-4.8-14.75c0-5.35,1.12-9.91,3.37-13.68c2.53-4.3,6.02-6.45,10.46-6.45    c4.39,0,7.78,1.93,10.17,5.8c2.1,3.34,3.15,7.59,3.15,12.75c0,4.54-0.81,8.62-2.43,12.25c-1.72,3.87-3.91,6.13-6.59,6.8    c-1.38,0.33-2.82,0.5-4.3,0.5C297.9,345.71,294.9,344.64,292.56,342.49z M300.72,339.41c1.58,0.14,2.94-1.19,4.08-4.01    c1-2.53,1.5-5.18,1.5-7.95c0-4.06-0.19-6.92-0.57-8.59c-0.67-3.01-2.05-4.65-4.15-4.94c-1.34-0.19-2.58,1.46-3.72,4.94    c-1.1,3.34-1.65,6.92-1.65,10.74C296.21,335.9,297.71,339.17,300.72,339.41z"
   id="path1227" />
		<path
   class="st0"
   d="M248.59,343.99c-0.33-0.57-0.5-1.15-0.5-1.72c0-0.86,0.41-1.93,1.22-3.22c1.15-1.72,1.81-2.82,2.01-3.29    c2.1-5.44,4.8-12.27,8.09-20.48c0.62-2.86,1.41-4.89,2.36-6.09c1.19-1.62,2.96-2.39,5.3-2.29c2.24,0.14,3.75,0.57,4.51,1.29    c0.57,0.48,0.86,1.26,0.86,2.36c0,0.14,0,0.37,0,0.68c0,0.31,0,0.54,0,0.68c0,0.76,0.07,1.41,0.21,1.93l7.3,23.56    c0.14,0.52,0.76,1.36,1.86,2.51c0.91,0.91,1.26,1.74,1.07,2.51c-0.48,1.91-2.17,2.86-5.08,2.86c-0.62,0-1.19-0.05-1.72-0.14    c-1.86-0.33-3.7-3.27-5.51-8.81c-1.48-5.2-2.98-10.38-4.51-15.54l-7.45,20.62c-0.38,1.05-0.69,1.77-0.93,2.15    c-0.43,0.67-1.04,1.19-1.83,1.58c-0.79,0.38-1.75,0.57-2.9,0.57C250.76,345.71,249.3,345.14,248.59,343.99z"
   id="path1229" />
	</g>
	<g
   id="g1249">
		<path
   class="st0"
   d="M438.35,315.64c-0.14-0.48-0.21-0.98-0.21-1.5c0-1.77,0.79-3.43,2.36-4.98c1.58-1.55,3.27-2.33,5.08-2.33    c0.57,0,1.12,0.07,1.65,0.21c1.72,0.57,2.86,1.84,3.44,3.8c0.62,2.2,1.39,3.63,2.29,4.3l12.89,9.02l-0.86-7.73    c-0.05-0.62-0.29-1.46-0.72-2.51c-0.43-1.05-0.64-1.84-0.64-2.36c0-0.86,0.47-1.68,1.4-2.47c0.93-0.79,2.07-1.18,3.4-1.18    c1.48,0,3.06,0.5,4.73,1.5c1.81,1.1,2.72,2.27,2.72,3.51c0,0.48-0.26,1-0.79,1.58c-0.52,0.57-0.79,1.1-0.79,1.58l1.86,38.03    c0.05,0.52,0.3,1.18,0.75,1.97c0.45,0.79,0.68,1.37,0.68,1.75c0,0.81-0.62,1.72-1.86,2.72c-0.29,0.19-1.05,0.29-2.29,0.29    c-4.25,0-6.92-0.88-8.02-2.65c-0.29-0.48-0.43-0.93-0.43-1.36s0.21-1.01,0.64-1.75c0.43-0.74,0.64-1.37,0.64-1.9v-15.75    l-12.03,19.26c-0.48,1.1-0.93,2.2-1.36,3.29c-0.62,1.19-1.72,1.79-3.29,1.79c-1.53,0-3.08-0.5-4.65-1.5    c-1.77-1.1-2.53-2.29-2.29-3.58c0.19-0.96,0.64-1.6,1.36-1.93c0.91-0.48,1.46-0.88,1.65-1.22l14.47-22.63l-16.61-11.39    c-1-0.57-2.04-1.16-3.11-1.75C439.32,317.15,438.64,316.45,438.35,315.64z"
   id="path1233" />
		<path
   class="st0"
   d="M411.86,357.56c-3.2,10.7-4.8,28.77-4.8,54.21c0,19.65,1.12,36.41,3.37,50.26    c2.53,15.79,6.02,23.68,10.46,23.68c4.39,0,7.78-7.11,10.17-21.32c2.1-12.28,3.15-27.89,3.15-46.84c0-16.67-0.81-31.67-2.43-45    c-1.72-14.21-3.91-22.54-6.59-25c-1.38-1.23-2.82-1.84-4.3-1.84C417.2,345.71,414.2,349.66,411.86,357.56z M420.02,368.87    c1.58-0.53,2.94,4.39,4.08,14.74c1,9.3,1.5,19.04,1.5,29.21c0,14.91-0.19,25.44-0.57,31.58c-0.67,11.05-2.05,17.11-4.15,18.16    c-1.34,0.7-2.58-5.35-3.72-18.16c-1.1-12.28-1.65-25.44-1.65-39.47C415.51,381.77,417.01,369.75,420.02,368.87z"
   id="path1235" />
		<path
   class="st0"
   d="M389.23,308.33c0.96-1.62,2.72-2.43,5.3-2.43c2.39,0,4.06,0.74,5.01,2.22c0.29,0.43,0.43,0.91,0.43,1.43    c0,0.43-0.17,1.13-0.5,2.11c-0.33,0.98-0.5,1.8-0.5,2.47l0.29,41.61c0,2.29,0,3.46,0,3.51c-0.14,0.52-0.81,0.98-2.01,1.36    c-1.19,0.38-2.46,0.57-3.8,0.57c-1.96,0-3.2-0.32-3.72-0.97c-0.52-0.64-0.79-1.32-0.79-2.04c0-0.48,0.19-1.27,0.57-2.36    c0.38-1.1,0.57-1.98,0.57-2.65v-38.67c0-0.67-0.2-1.53-0.61-2.58c-0.41-1.05-0.61-1.81-0.61-2.29    C388.87,309.19,388.99,308.76,389.23,308.33z"
   id="path1237" />
		<path
   class="st0"
   d="M359.51,342.49c-3.2-2.91-4.8-7.83-4.8-14.75c0-5.35,1.12-9.91,3.37-13.68c2.53-4.3,6.02-6.45,10.46-6.45    c4.39,0,7.78,1.93,10.17,5.8c2.1,3.34,3.15,7.59,3.15,12.75c0,4.54-0.81,8.62-2.43,12.25c-1.72,3.87-3.91,6.13-6.59,6.8    c-1.38,0.33-2.82,0.5-4.3,0.5C364.86,345.71,361.85,344.64,359.51,342.49z M367.67,339.41c1.58,0.14,2.94-1.19,4.08-4.01    c1-2.53,1.5-5.18,1.5-7.95c0-4.06-0.19-6.92-0.57-8.59c-0.67-3.01-2.05-4.65-4.15-4.94c-1.34-0.19-2.58,1.46-3.72,4.94    c-1.1,3.34-1.65,6.92-1.65,10.74C363.16,335.9,364.67,339.17,367.67,339.41z"
   id="path1239" />
		<path
   class="st0"
   d="M321.63,326.09c0-4.97,0.69-8.98,2.08-12.03c1.81-4.06,4.7-6.09,8.67-6.09c2.96,0,5.54,1.41,7.73,4.22    c-0.05-0.38-0.19-0.9-0.43-1.54c-0.24-0.64-0.36-1.11-0.36-1.4c0-0.38,0.12-0.69,0.36-0.93c0.62-0.67,1.86-1,3.72-1    c2.96,0,4.73,0.57,5.3,1.72c0.19,0.38,0.29,0.76,0.29,1.15c0,0.43-0.19,0.98-0.57,1.65c-0.38,0.67-0.57,1.22-0.57,1.65v37.45    c0,0.57,0.16,1.25,0.47,2.04c0.31,0.79,0.47,1.42,0.47,1.9c0,0.48-0.1,0.98-0.29,1.5c-0.57,1.53-2.05,2.29-4.44,2.29    c-2.91,0-4.87-0.96-5.87-2.86c-0.24-0.43-0.36-0.86-0.36-1.29c0-0.57,0.31-1.4,0.93-2.47c0.62-1.07,0.93-1.95,0.93-2.61v-9.02    c-2.05,2.82-4.06,4.22-6.02,4.22c-3.48,0-6.42-2.03-8.81-6.09C322.7,334.78,321.63,330.63,321.63,326.09z M330.29,326.09    c0,2.72,0.26,5.16,0.79,7.3c1.19,2.62,2.34,3.94,3.44,3.94c0.96,0,1.98-1.48,3.08-4.44c0.81-2.58,1.22-4.85,1.22-6.8    c0-2.63-0.43-5.23-1.29-7.81c-0.91-2.77-1.91-4.15-3.01-4.15c-2.34,0-3.77,2.41-4.3,7.23c0,0.57,0,1.38,0,2.43    C330.27,324.85,330.29,325.61,330.29,326.09z"
   id="path1241" />
		<path
   class="st0"
   d="M292.56,342.49c-3.2-2.91-4.8-7.83-4.8-14.75c0-5.35,1.12-9.91,3.37-13.68c2.53-4.3,6.02-6.45,10.46-6.45    c4.39,0,7.78,1.93,10.17,5.8c2.1,3.34,3.15,7.59,3.15,12.75c0,4.54-0.81,8.62-2.43,12.25c-1.72,3.87-3.91,6.13-6.59,6.8    c-1.38,0.33-2.82,0.5-4.3,0.5C297.9,345.71,294.9,344.64,292.56,342.49z M300.72,339.41c1.58,0.14,2.94-1.19,4.08-4.01    c1-2.53,1.5-5.18,1.5-7.95c0-4.06-0.19-6.92-0.57-8.59c-0.67-3.01-2.05-4.65-4.15-4.94c-1.34-0.19-2.58,1.46-3.72,4.94    c-1.1,3.34-1.65,6.92-1.65,10.74C296.21,335.9,297.71,339.17,300.72,339.41z"
   id="path1243" />
		<path
   class="st0"
   d="M292.56,342.49c-3.2-2.91-4.8-7.83-4.8-14.75c0-5.35,1.12-9.91,3.37-13.68c2.53-4.3,6.02-6.45,10.46-6.45    c4.39,0,7.78,1.93,10.17,5.8c2.1,3.34,3.15,7.59,3.15,12.75c0,4.54-0.81,8.62-2.43,12.25c-1.72,3.87-3.91,6.13-6.59,6.8    c-1.38,0.33-2.82,0.5-4.3,0.5C297.9,345.71,294.9,344.64,292.56,342.49z M300.72,339.41c1.58,0.14,2.94-1.19,4.08-4.01    c1-2.53,1.5-5.18,1.5-7.95c0-4.06-0.19-6.92-0.57-8.59c-0.67-3.01-2.05-4.65-4.15-4.94c-1.34-0.19-2.58,1.46-3.72,4.94    c-1.1,3.34-1.65,6.92-1.65,10.74C296.21,335.9,297.71,339.17,300.72,339.41z"
   id="path1245" />
		<path
   class="st0"
   d="M250.41,348.99c-0.32,1.09-0.47,2.18-0.47,3.28c0,1.64,0.38,3.69,1.15,6.14c1.08,3.28,1.72,5.37,1.9,6.28    c1.99,10.37,4.54,23.39,7.66,39.04c0.59,5.46,1.33,9.33,2.24,11.6c1.13,3.09,2.8,4.55,5.02,4.37c2.13-0.27,3.55-1.09,4.27-2.46    c0.54-0.91,0.81-2.41,0.81-4.5c0-0.27,0-0.7,0-1.3c0-0.59,0-1.02,0-1.3c0-1.45,0.07-2.68,0.2-3.69l6.92-44.91    c0.14-1,0.72-2.59,1.76-4.78c0.86-1.73,1.2-3.32,1.02-4.78c-0.45-3.64-2.06-5.46-4.81-5.46c-0.59,0-1.13,0.09-1.63,0.27    c-1.76,0.64-3.5,6.23-5.22,16.79c-1.4,9.92-2.82,19.79-4.27,29.62l-7.05-39.31c-0.36-2-0.65-3.37-0.88-4.1    c-0.41-1.27-0.98-2.27-1.73-3c-0.75-0.73-1.66-1.09-2.75-1.09C252.47,345.71,251.09,346.81,250.41,348.99z"
   id="path1247" />
	</g>
</g>
</svg>
