<?xml version="1.0" encoding="UTF-8" standalone="no"?>
<svg
   xmlns:dc="http://purl.org/dc/elements/1.1/"
   xmlns:cc="http://creativecommons.org/ns#"
   xmlns:rdf="http://www.w3.org/1999/02/22-rdf-syntax-ns#"
   xmlns:svg="http://www.w3.org/2000/svg"
   xmlns="http://www.w3.org/2000/svg"
   xmlns:sodipodi="http://sodipodi.sourceforge.net/DTD/sodipodi-0.dtd"
   xmlns:inkscape="http://www.inkscape.org/namespaces/inkscape"
   version="1.1"
   id="Layer_1"
   x="0px"
   y="0px"
   viewBox="0 0 700 400"
   style="enable-background:new 0 0 700 400;"
   xml:space="preserve"
   sodipodi:docname="kolsch_ucoz_org.svg"
   inkscape:version="1.0.1 (c497b03c, 2020-09-10)"><metadata
   id="metadata1016"><rdf:RDF><cc:Work
       rdf:about=""><dc:format>image/svg+xml</dc:format><dc:type
         rdf:resource="http://purl.org/dc/dcmitype/StillImage" /></cc:Work></rdf:RDF></metadata><defs
   id="defs1014"><filter
     style="color-interpolation-filters:sRGB;"
     inkscape:label="Drop Shadow"
     id="filter1208"><feFlood
       flood-opacity="0.498039"
       flood-color="rgb(0,0,0)"
       result="flood"
       id="feFlood1198" /><feComposite
       in="flood"
       in2="SourceGraphic"
       operator="in"
       result="composite1"
       id="feComposite1200" /><feGaussianBlur
       in="composite1"
       stdDeviation="3.6036"
       result="blur"
       id="feGaussianBlur1202" /><feOffset
       dx="6.88623"
       dy="1.1976"
       result="offset"
       id="feOffset1204" /><feComposite
       in="SourceGraphic"
       in2="offset"
       operator="over"
       result="composite2"
       id="feComposite1206" /></filter></defs><sodipodi:namedview
   pagecolor="#ffffff"
   bordercolor="#666666"
   borderopacity="1"
   objecttolerance="10"
   gridtolerance="10"
   guidetolerance="10"
   inkscape:pageopacity="0"
   inkscape:pageshadow="2"
   inkscape:window-width="1417"
   inkscape:window-height="910"
   id="namedview1012"
   showgrid="false"
   inkscape:zoom="1.3114286"
   inkscape:cx="350"
   inkscape:cy="200"
   inkscape:window-x="0"
   inkscape:window-y="25"
   inkscape:window-maximized="0"
   inkscape:current-layer="Layer_1" />
<style
   type="text/css"
   id="style833">
	.st0{fill:#FFC400;}
	.st1{fill:#324B9B;}
	.st2{fill:#FFFFFF;}
</style>
<g
   id="g843">
	<path
   class="st0"
   d="M235.7,145.5l-0.3-0.5l-5.8,4.6c-0.8,0.7-2.5,1.8-4.7,1.7c-1.3,0-2.4-0.4-3.1-1.2c-1.1-1.1-1.7-3.2-1.6-5.6   c0-1.6,0.5-6.8,5.3-6.8c0,0,0.1,0,0.1,0c1,0,2,0.3,3.2,1.3l5.2,4.7l4.9-5.5L235.7,145.5z M174.8,150.2l-0.9,1.4l-1.1-3.1   C173.4,149.1,174.1,149.7,174.8,150.2z M136.7,166.9L136.7,166.9c-3.9,1.1-5.9-4.1-6.4-5.6c-0.8-2.5-0.8-4.8-0.1-6.1   c0.3-0.5,0.7-1,1.8-1.3c0.4-0.1,0.7-0.2,1.1-0.2c2.2,0,4.3,2.3,5.4,5.9c0.8,2.4,0.8,4.6,0.1,5.9C138.3,166,137.8,166.5,136.7,166.9   z"
   id="path835" />
	<path
   class="st0"
   d="M604.9,135.1L604.9,135.1c-3.1-3-6.6-5.3-10.4-6.8l1.2-1.1l-36.9-35.3l-23.3,20.9c-2.5,1.4-4.8,3.1-7,5   c-2.2,1.9-4.1,4.1-5.7,6.4c-1.1,0.3-2.2,0.7-3.3,1.1c-2.4,0.9-4.7,2.1-6.8,3.5l-1.1,0.4c-1.1-1-2.2-1.9-3.4-2.7   c-9.8-6.9-21.9-9-33.2-6.4l7.3-24.1l-70.2-18.4l-3.8,12.4c-8.8-3.2-18.6-3.3-27.8-0.1c-8.2,2.8-15.1,8-19.9,14.8   c-6.8,0.3-13.2,2.3-19.1,6c-6.1,3.8-11,8.9-14.3,14.9l-38.8,9c-1.9-3.7-5.3-8.1-11.5-11.3l6.3-15.1l-19.4-6.9l0-0.1   c-0.5-0.2-1-0.4-1.4-0.7c-0.1,0-0.1,0-0.2-0.1c-0.6-0.1-1.1-0.3-1.6-0.6l-0.2,0.2l-13.7-4.9l-7.3,17.5c-4.3-2.1-8.9-3.2-13.9-3.3   c-7.3-0.1-14,1.7-19.6,5.2c-6.3-3.3-13.6-4.6-20.7-3.8c-5.7,0.7-10.7,2.4-14.8,5.2l-6.3-17.4l-36.9,11.6l5.5,15.1   c-2.9,0.1-5.7,0.5-8.5,1.2c-7.7,2.1-14.1,6.5-18.5,12.7l-9.3,0.9l-2-16.7l-38.4,3.9l10,84.4l78.4-8l-7.6-8.9   c2.5-0.1,4.9-0.5,7.3-1.2c6.6-1.8,12.3-5.4,16.6-10.2c5.1,2.6,11.2,3,17.3,1.1c3.1-1,5.8-2.3,8.1-4.1c2.2,0.1,4.5,0.1,6.7-0.2   c5.5-0.6,10.3-2.3,14.5-4.9l1.6,1.4c1,0.2,2,0.6,2.9,1.3c0.5,0.1,0.9,0.4,1.3,0.6c0.1,0,0.2,0,0.2,0c0.7,0,1.4,0.1,2,0.4   c0.2,0,0.4,0,0.7,0c0.6,0,1.1,0.1,1.6,0.2c0.3-0.1,0.7-0.2,1-0.2h0.2c0.7-0.1,1.4,0,2.1,0.2c0.2,0,0.5,0,0.7,0c0.1,0,0.3,0,0.4,0   l0-0.2c0.5,0,1.1,0.1,1.6,0.1c1.4,0,2.8,0,4.2-0.2l9.1,3.2l0,0l16.8,6c0.3,0.7,0.6,1.5,1,2.2c3.4,6.8,9.3,11.7,16.6,14   c2.7,0.8,5.5,1.3,8.3,1.3c6.4,0,12.3-2.1,17-5.7c9,10.1,20.8,11.1,25,11.1c2.9,0,5.8-0.3,8.8-1c2.7-0.6,5.3-1.5,7.8-2.7l33.7-7.8   l-3.2-11.8c6.8-0.5,13.5-2.7,19.5-6.4c4.4-2.7,8.2-6.3,11.3-10.4c3.4-0.3,6.8-1,10.1-2.1c3.3-1.1,6.4-2.6,9.3-4.5l7.9,2.1   c1.7,2.2,3.8,4.2,6,5.8c3.1,2.1,6.5,3.6,10.1,4.4c2.8,6.9,7.6,13,13.9,17.5c6.9,4.9,15.4,7.6,23.9,7.6c8.7,0,16.9-2.6,24-7.4   l9.7,22l44.1-16.7c4.1,1.8,8.5,2.7,13.1,2.7c9.6,0,19.3-4.1,27.9-11.8c9.8-8.8,15.2-19.8,15.4-31   C615.2,150.2,611.6,141.5,604.9,135.1z M82,192.3l-5.8-48.7l2.6-0.3l5.8,48.7L82,192.3z M106.2,189.8L91,171.5l9.3-13.5l2.1-0.2   l-9.6,13.5l15.7,18.2L106.2,189.8z M150.1,166.7c-0.3,0.9-0.7,1.8-1.1,2.6c-1.9,3.5-5.3,6.1-9.5,7.3c-1.4,0.4-2.9,0.6-4.4,0.6   c-2.9,0-12.5-0.9-16.2-12.7c-0.3-0.9-0.5-1.8-0.7-2.7l-1.1-5.6l2.2-4.5c0.1-0.2,0.2-0.4,0.3-0.6c1.9-3.5,5.2-6,9.4-7.2   c4.6-1.2,9.4-0.6,13.3,1.9l11.9,7.5L150.1,166.7z M166.6,165.1l-3.2-5.8l1.2,0.7l-13.9-38.1l2.5-0.8l17.1,46.9   C169.2,167.9,167.9,167.4,166.6,165.1z M229.7,160.8l-2.3,0.4c-1.1,0.2-2.2,0.3-3.3,0.3c-3-0.1-5.8-0.8-8.1-2l-0.7-0.4l-0.6-0.4   c-0.5-0.3-1-0.7-1.4-1.1l-7-6.3l-1.7,2l-3.8-2.1l0.7,5.9l-1.2,1.5c-0.1,0.1-0.3,0.3-0.4,0.5c-0.7,0.5-1.4,1-2,1.6   c-1.8,1.1-4.1,1.9-6.9,2.2c-2,0.2-4.2,0.2-6.2-0.2l-4.4-0.8l-4.9,4.6c-0.2,0.2-0.4,0.4-0.8,0.6l12.6-19.2l-7.2-5   c-0.4-0.3-0.7-0.5-1-0.8l-2.1-2l0.3-3.3c0.1-1.3,0.6-2.5,1.5-3.6c2.2-2.8,6-3.8,8.9-4.1c4-0.5,8,0.4,11.3,2.4l9.5,5.7l5-5   c3.1-3.1,7.2-4.6,12.2-4.5c3.2,0.1,6,1,8.4,2.7l-0.7,0.8c-2.2-1.6-4.7-2.3-7.5-2.4l-0.2,0c-8.2,0-14.1,6.4-14.3,15.6   c-0.1,4.9,1.4,9.1,4.1,12c2.4,2.5,5.8,3.9,9.5,4c3,0.1,6.1-0.8,8.8-2.5l4,5.7L229.7,160.8z M254,139.6l-3.8,1.3l-9.8,23.7l-2.4-0.9   l19-45.7l2.4,0.9l-7.4,17.8l12,1.3c1,0.1,2,0.3,3,0.7c1.9,0.7,3.5,1.6,4.5,2.8l-7.7-2.4C260.1,137.9,256.8,138.7,254,139.6z    M289.1,181.1c0,0.1-0.1,0.3-0.1,0.4c-1.5,4-5,6.4-9.2,6.4c-1,0-2-0.2-3-0.5c-2.6-0.8-4.6-2.5-5.8-4.9c-0.4-0.8-0.7-1.7-0.8-2.6   l-0.9-5.2l-8.2-2.9l7.8-18.7c0.5-1.3,0.9-2.5,1.2-3.6l1.9-8c0.3,0.4,0.6,0.9,0.8,1.4c0.4,0.9,1.6,3.6-1.1,10.1l-6.7,16.1l14.3-0.8   c1-0.1,1.9,0,2.9,0.2l1.6,0.5c0.9,0.4,1.8,0.9,2.6,1.6l4.9,4.1L289.1,181.1z M587.6,177.2c-5.3,4.7-10.8,7.2-15.9,7.2   c-3.8,0-7.1-1.3-9.8-3.9c-1.5-1.4-2.6-3.2-3.3-5.2l-1-3.1l-2.8-1.7c-0.7-0.5-1.5-1-2.1-1.7c-1-1-1.8-2.1-2.4-3.3l-1.4-3.1l-3.2-1.3   l-0.2-0.1c-0.2-0.1-0.4-0.2-0.6-0.3l-21.2-9.3l16,36.2l-15.5,5.9l-13.8-31.3l-9.3,11.4c-0.1,0.1-0.1,0.2-0.2,0.3   c-5.3,6.4-12.4,9.9-19.9,9.9c-4.9,0-9.7-1.5-13.6-4.3c-4.6-3.2-7.6-7.7-8.6-13l-1.5-7.6l-7.8,0.4c-2.2,0.1-4.4-0.5-6.2-1.8   c-1.2-0.8-2.2-1.9-2.9-3.2l-1.9-3.4l-23.6-6.2l-3.6,3c-2.2,1.8-4.6,3.2-7.4,4.2c-2.7,0.9-5.6,1.4-8.4,1.2l-6.1-0.3l-2.7,5   c-1.8,3.4-4.6,6.3-7.9,8.4c-6,3.7-12.9,4.8-19.4,2.8l-15.6-4.8l6,22.2l-17.7,4.1l-1,0.5c-1.4,0.8-3,1.3-4.6,1.7   c-1.6,0.4-3.2,0.6-4.7,0.6c-5.1,0-12-2.2-15.7-12.4l-0.5-1.3l-7.8-28.6l42.4-9.9l1.7-4.4c1.7-4.3,4.9-8,9.1-10.7   c4.3-2.7,8.8-3.7,13.8-3.3l6.2,0.6l2.7-5.5c2.5-5.1,7-8.9,12.7-10.9c7.4-2.5,15.9-1.3,21.9,3.3l10.3,7.8l5.7-18.7l35.3,9.2   l-2.9,9.6l-21.1,16.4l16,4.2l4.1,3.5c0.1,0.1,0.1,0.1,0.2,0.2l6.1,5.8l6.2-5.3c10.1-8.6,22.1-7.2,29.6-1.9c1.7,1.2,3.2,2.6,4.5,4.2   l4.1,5.1l15-5.7l1-0.8c1.1-0.8,2.3-1.5,3.5-1.9c1.3-0.5,2.5-0.8,3.7-1l4.5-0.6l2.2-4c1.1-2,2.5-3.8,4.3-5.3c1.3-1.2,2.8-2.2,4.4-3   l1-0.5l12.5-11.2l10.8,10.3l-2.5,2.2l3.8,6.4c0.6,0.9,1,1.9,1.4,2.9l2.4,6.8l7.1-0.9c4-0.5,7.6,0.8,10.9,3.9   c3,2.9,4.6,6.9,4.6,11.2C596.9,165.5,593.6,171.9,587.6,177.2z"
   id="path837" />
	<path
   class="st0"
   d="M129.6,145.1c-3.2,0.9-5.8,2.8-7.3,5.7c-1.9,3.5-2.1,8.2-0.6,13.1c2.7,8.6,8.5,12.1,13.9,12.1   c1.1,0,2.2-0.1,3.3-0.4l0.1,0c3.3-0.9,5.9-2.9,7.4-5.7c1.9-3.5,2.1-8.1,0.6-13c-2.4-7.5-7.7-12.2-14-12.2   C131.9,144.7,130.7,144.8,129.6,145.1z M138.4,158.7c-0.1,0.2-0.2,0.4-0.3,0.7c-0.6,1.1-1.6,2-2.6,2.6l-1-3.9   C136,157.8,137.4,158.2,138.4,158.7z M135.4,162.1c-0.4,0.2-0.7,0.3-1.1,0.4c-0.4,0.1-0.8,0.2-1.3,0.2c-1.2,0-2.1-0.3-2.7-0.7   c0.1-0.2,0.2-0.5,0.3-0.8c0.9-1.7,2.5-2.7,3.7-3L135.4,162.1z"
   id="path839" />
	<path
   class="st0"
   d="M130,163.2L130,163.2L130,163.2z"
   id="path841" />
</g>
<ellipse
   class="st0"
   cx="408"
   cy="128"
   rx="38"
   ry="28.5"
   id="ellipse845" />
<circle
   class="st0"
   cx="362.5"
   cy="149.1"
   r="27.4"
   id="circle847" />
<ellipse
   class="st0"
   cx="323.2"
   cy="163.2"
   rx="17.3"
   ry="23.7"
   id="ellipse849" />
<ellipse
   class="st0"
   cx="483.5"
   cy="156.5"
   rx="20.8"
   ry="24.5"
   id="ellipse851" />
<g
   id="g917"
   style="filter:url(#filter1208)">
	<g
   id="g857">
		<polygon
   class="st0"
   points="111.1,153.2 98.4,154.5 86.6,171.7 82.7,139.2 72.2,140.3 78.9,196.9 89.4,195.8 88.1,185.1     92.4,179.3 104.8,194.3 116.9,193 98.3,171.4   "
   id="polygon853" />
		<path
   class="st1"
   d="M74.5,202.4l-7.9-66.5l20.5-2.1L90,158l5.6-8.2l26-2.6l-17,23.9l22.3,26l-24.2,2.5l-9.1-11l1.4,11.7    L74.5,202.4z M77.7,144.8l5.5,46.7l0.6-0.1l-0.9-7.6l0,0l-4.6-39.1L77.7,144.8z"
   id="path855" />
	</g>
	<g
   id="g863">
		<path
   class="st0"
   d="M128.4,140.5L128.4,140.5c-5.2,1.4-9.4,4.7-11.9,9.1c-2.6,4.7-3,10.4-1.1,16.4c3.4,10.7,11.9,15.5,20,15.5    c1.9,0,3.7-0.2,5.5-0.7c5.3-1.4,9.5-4.7,12-9.2c2.6-4.7,2.9-10.3,1.1-16.2C149.8,142.1,137.9,137.9,128.4,140.5z M138.4,171.9    c-5.4,1.5-10.3-2.1-12.5-9c-1.2-3.9-1.1-7.4,0.3-10c1-1.9,2.6-3.1,4.8-3.7c0.8-0.2,1.6-0.3,2.4-0.3c4.4,0,8.3,3.5,10.2,9.4    c1.2,3.8,1.1,7.3-0.3,9.8C142.3,170,140.6,171.3,138.4,171.9L138.4,171.9z"
   id="path859" />
		<path
   class="st1"
   d="M135.5,186.4c-9.1,0-20.4-5-24.8-18.9c-2.3-7.3-1.8-14.3,1.4-20.3c3.1-5.7,8.4-9.8,14.9-11.5v0    c11.9-3.2,26.6,2,31.7,18.2c2.3,7.2,1.8,14.2-1.5,20.1c-3.1,5.7-8.4,9.8-15,11.6C140.1,186.1,137.8,186.4,135.5,186.4z     M121.7,150.8c-0.3,0.4-0.5,0.8-0.7,1.2c-1.9,3.5-2.2,7.8-0.7,12.5c1.4,4.3,3.9,7.7,7.1,9.7c-2.7-2.2-4.9-5.5-6.2-9.7    C119.5,159.4,119.7,154.5,121.7,150.8z M141.8,146.8c2.9,2.2,5.2,5.7,6.6,10c1.6,4.9,1.4,9.6-0.4,13.3c0.2-0.3,0.4-0.7,0.6-1    c1.9-3.5,2.1-7.7,0.7-12.3C147.7,152,145,148.7,141.8,146.8z M133.4,153.9c-0.3,0-0.7,0.1-1.1,0.2c-1.1,0.3-1.5,0.8-1.8,1.3    c-0.7,1.3-0.7,3.6,0.1,6.1c0.5,1.6,2.5,6.7,6.4,5.6l0,0c1.2-0.3,1.6-0.9,1.9-1.3c0.7-1.3,0.7-3.5-0.1-5.9    C137.6,156.2,135.6,153.9,133.4,153.9z"
   id="path861" />
	</g>
	<g
   id="g873">
		<path
   class="st0"
   d="M276.6,141.7c-1.3-3-4-5.2-7.9-6.6h0c-4-1.4-7.9-1.1-11.3-0.2l1.2-2.7l6.4-15.4l-10-3.6l-17.8,42.8l-2.5-3.6    l-1.7,1.3c-1.4,1.1-4.2,2.9-7.9,2.8c-2.7-0.1-5-1-6.6-2.8c-2-2.1-3.1-5.4-3-9.2c0.2-7.1,4.4-11.8,10.5-11.7c2.4,0,4.5,0.9,6.4,2.6    l1.5,1.3l6-6.8l-1.5-1.3c-3.6-3.3-7.7-4.9-12.6-5c-13.7-0.3-21,10.2-21.3,20.6c0,1.3,0,2.5,0.2,3.7c-2.9-4.9-9.3-6.2-13.4-7l0,0    c-4.8-0.9-7.2-1.7-7.4-3.5c-0.1-0.7,0.1-1.4,0.5-1.9c0.7-0.9,2.2-1.6,4.1-1.8c2.8-0.3,5.3,0.2,8.2,1.6l1.6,0.8l4.7-7.1l-1.8-1.1    c-4.1-2.5-9-3.5-13.8-3c-5.1,0.6-9.1,2.5-11.6,5.7c-1.9,2.4-2.6,5.3-2.2,8.3c1.1,8.1,10,9.9,14.3,10.8c4.4,0.9,7.7,1.8,8,4    c0.1,0.8-0.1,1.6-0.5,2.2c-0.8,1-2.4,1.7-4.5,1.9c-4.1,0.5-7.4-0.2-10.9-2.3l-1.6-1l-4.7,7.1l0.3,0.2l-0.2,0.1    c-0.3,0.2-0.5,0.2-0.7,0.3c-0.1-0.1-0.2-0.3-0.3-0.6L156,116.4l-10.1,3.2l16.5,45.2c2.1,5.8,5.5,7.4,8.6,7.4    c1.1,0,2.3-0.2,3.3-0.5c1.9-0.6,3.2-1.3,4.2-2.2l1.2-1.1l-2.5-4.1c3.4,1.8,7.3,2.8,11.5,2.8c1,0,2-0.1,3-0.2    c5.4-0.6,9.6-2.7,12.2-6c1.5-2,2.4-4.4,2.4-6.8c0.9,2.1,2.1,4,3.7,5.7c3.5,3.7,8.7,5.8,14.4,5.9c0.1,0,0.3,0,0.4,0    c3.2,0,6.4-0.8,9.4-2.2l-1.2,2.8l10,3.6l10.6-25.4c4.6-1.9,7.2-2.2,9.8-1.3c1.6,0.6,2.6,1.3,3,2.2c0.6,1.3,0.3,3.5-1,6.5    l-9.4,22.6l10,3.6l9.6-23.1C277.8,149.6,278.2,145.2,276.6,141.7z"
   id="path865" />
		<path
   class="st0"
   d="M172.9,162.6C172.9,162.6,172.9,162.6,172.9,162.6l0.6,1.9L172.9,162.6C172.9,162.6,172.9,162.6,172.9,162.6z    "
   id="path867" />
		<path
   class="st1"
   d="M281.2,139.7c-1.3-2.9-4.2-6.9-10.8-9.3c-1.7-0.6-3.4-1-5.1-1.2l6.4-15.4l-19.4-6.9l-8.3,20.1l-2.1-1.9    c-4.4-4.1-9.8-6.2-15.9-6.3c-7.4-0.1-13.9,2.3-18.7,7.1l-3.5-2.1c-5-3-11-4.3-17-3.6c-6.5,0.7-11.7,3.4-14.9,7.6    c-1.9,2.5-3,5.3-3.3,8.3l-9.4-25.8l-19.7,6.2l18.3,50.1c3.4,9.3,9.8,10.7,13.3,10.7c1.5,0,3.2-0.3,4.8-0.8    c2.6-0.8,4.5-1.9,6.1-3.3l1.6-1.5c2.8,0.5,5.8,0.6,8.7,0.2c4.7-0.5,8.6-2,11.8-4.3c0.4-0.5,0.8-0.9,1.4-1.2c0.7-0.6,1.4-1.3,2-2.1    c0.7,0.7,1.5,1.3,2.3,1.9l0.3,0.5c0.7,0.2,1.4,0.6,1.9,1l0-0.2c3.6,2,7.8,3.1,12.3,3.1c1.7,0,3.3-0.1,5-0.4l16.5,5.9l11.5-27.8    c2.4-0.8,3.4-0.8,4.2-0.5c-0.1,0.5-0.3,1.2-0.7,2.2l-11.4,27.4l19.4,6.9l11.4-27.5C283,150.1,283.3,144.5,281.2,139.7z     M152.4,122.8l0.6-0.2l14.5,39.6l-0.4,0.6L152.4,122.8z M167.3,163.5l0.8,0.6l0.6,1.9l0.5-0.2l1,1.3    C169.4,166.9,168.3,166.1,167.3,163.5z M174.3,151.8l-1.1-3.1c0.6,0.6,1.3,1.2,2.1,1.7L174.3,151.8z M178.5,138.5    c-0.2-1.5,0.1-2.9,0.8-4.1c-0.5,1.2-0.6,2.5-0.5,3.8c0.2,1.6,0.8,2.8,1.7,3.8C179.4,141.1,178.7,139.9,178.5,138.5z M201.3,154    c0,1-0.3,2-0.7,2.9c0.4-1.1,0.5-2.4,0.3-3.6c-0.3-2.1-1.3-3.6-2.6-4.7c0.9,0.6,1.7,1.3,2.2,2.1l0.9,1.4L201.3,154z M213.6,156.3    c-1.1-1.1-2-2.5-2.7-4.2L210,150l-0.3-2.5c-0.1-1.1-0.2-2.1-0.2-3c0.1-4.7,2-9.5,5.9-12.6c-3,2.9-4.9,7.3-5,12.6    c-0.1,5.1,1.4,9.7,4.4,12.8c0.3,0.3,0.6,0.6,1,0.9C215,157.6,214.2,157,213.6,156.3z M236.1,145.7l-0.3-0.5l-5.8,4.6    c-0.8,0.7-2.5,1.8-4.7,1.7c-1.3,0-2.4-0.4-3.1-1.2c-1.1-1.1-1.7-3.2-1.6-5.6c0-1.6,0.5-6.8,5.3-6.8c0,0,0.1,0,0.1,0    c1,0,2,0.3,3.2,1.3l5.2,4.7l4.9-5.5L236.1,145.7z M254,130.2l-5.5,12.2l0.5-0.1l-8.8,21.3l-0.6-0.2l18.2-43.9l0.6,0.2L254,130.2z     M271,153l-7.8,18.7l-0.6-0.2l7.3-17.7c1.8-4.4,2.1-7.8,0.9-10.5c-0.5-1.1-1.2-2-2.1-2.8c1.6,0.8,2.7,1.9,3.3,3.1v0    C273,145.9,272.6,149,271,153z"
   id="path869" />
		<path
   class="st1"
   d="M261.6,147L261.6,147L261.6,147z"
   id="path871" />
	</g>
	<g
   id="g879">
		<path
   class="st0"
   d="M282.3,172.1c-3.6-1.1-7.4,0.7-8.7,4.3c-0.6,1.7-0.5,3.5,0.2,5.1c0.8,1.6,2.2,2.8,4,3.3    c0.7,0.2,1.4,0.3,2.2,0.3c2.9,0,5.5-1.7,6.5-4.6c0.6-1.8,0.6-3.6-0.2-5.2C285.5,173.8,284.1,172.6,282.3,172.1z"
   id="path875" />
		<path
   class="st1"
   d="M280.1,190.2c-1.2,0-2.4-0.2-3.6-0.6c-3.1-1-5.6-3-7-5.9c-1.4-2.8-1.6-6-0.5-9c2.2-6.2,8.6-9.4,14.8-7.4l0,0    c0,0,0,0,0,0c3.1,1,5.6,3,7,5.9c1.4,2.8,1.6,6,0.5,9.1C289.5,187.1,285.1,190.2,280.1,190.2z M280.2,176.7c-0.8,0-1.5,0.5-1.8,1.4    c-0.1,0.3-0.2,0.8,0,1.2c0.2,0.5,0.7,0.7,1,0.8c1.1,0.3,2.1-0.2,2.5-1.2c0.1-0.3,0.2-0.8,0-1.3c-0.2-0.5-0.7-0.7-1-0.8l0,0    C280.6,176.8,280.4,176.7,280.2,176.7z"
   id="path877" />
	</g>
	<g
   id="g885">
		<path
   class="st0"
   d="M325.6,147.9l7.1,26.1c-2.1,4.1-3.9,5.8-6.8,6.5c-2.7,0.6-5.4,0.7-7.3-6.2l-6.3-23.3l-10.4,2.4l6.6,24.2    c2.8,10.2,8.4,12.9,13.6,12.9c1.4,0,2.8-0.2,4.1-0.5c4.8-1.1,7.9-3.9,10-6.9l1.3,3.4l9-2.1l-10.5-38.9L325.6,147.9z"
   id="path881" />
		<path
   class="st1"
   d="M322.1,195.6c-5.2,0-14.5-2.2-18.5-16.6l-7.9-29.2l20.1-4.7l7.6,27.9c0.4,1.5,0.8,2.3,1,2.7    c0.1,0,0.2,0,0.3-0.1c0.6-0.1,1.3-0.3,2.5-2.3l-7.9-29.1l20.1-4.7l13.2,48.6l-18.3,4.3l-0.1-0.4c-2.1,1.4-4.4,2.4-6.9,2.9    C325.5,195.4,323.8,195.6,322.1,195.6z M308.1,157.1l5.2,19.2c2.5,9.1,7,9.2,8.8,9.2c-3.9-0.8-6.7-4.1-8.3-10l-5-18.6L308.1,157.1    z M337.5,172.6l2,5.2l-7.1-26.3l-0.6,0.1L337.5,172.6L337.5,172.6z"
   id="path883" />
	</g>
	<g
   id="g891">
		<path
   class="st0"
   d="M377.5,149.6c-0.4,1.6-1.6,4.5-4.7,6.4v0c-5.1,3.2-11.2,1.3-15.5-4.7c-2.3-3.2-3.3-6.6-2.7-9.5    c0.4-2.3,1.8-4.2,3.9-5.5c2-1.3,4.2-1.7,6.9-1.3l2.1,0.3l0.7-8.9l-1.8-0.3c-4.9-0.8-9.3,0.1-13.4,2.6c-4.7,2.9-7.9,7.3-8.8,12.3    c-1,5.3,0.4,10.9,4.2,16c4.8,6.6,11.3,10.1,18.1,10.1c3.8,0,7.6-1.1,11.2-3.3c4.2-2.6,7.3-6.7,8.6-11.5l0.5-1.8l-8.5-3.2    L377.5,149.6z"
   id="path887" />
		<path
   class="st1"
   d="M366.4,172.3c-8.5,0-16.5-4.4-22.1-12.1c-4.6-6.3-6.3-13.2-5-19.9c1.2-6.4,5.2-11.9,11.1-15.6    c5.1-3.1,10.7-4.3,16.8-3.3l6.5,1l-1.6,18.8l-7.4-1.1c-1.9-0.3-2.8,0.1-3.5,0.6c-0.9,0.6-1.5,1.3-1.6,2.2    c-0.3,1.5,0.4,3.6,1.9,5.6c1,1.4,4.8,5.9,8.8,3.4c1.6-1,2.2-2.6,2.5-3.5l0,0l2-7.4l17.9,6.7l-1.6,6.1c-1.6,6-5.4,11.2-10.7,14.5    C376,170.9,371.2,172.3,366.4,172.3z M350.3,138.8c-0.5,1.1-0.9,2.2-1.2,3.3c-0.8,3.9,0.4,8.1,3.3,12.2c3.2,4.4,7.3,7.1,11.7,7.8    c-4-1-7.8-3.7-10.9-7.9c-3.1-4.3-4.4-9.1-3.6-13.4C349.8,140.1,350,139.4,350.3,138.8z"
   id="path889" />
	</g>
	<g
   id="g897">
		<path
   class="st0"
   d="M453.7,144.5c-2-1.4-4.5-1.6-6.7-0.7l0.8-2.7l-18.5-4.8l25.1-19.5l1.8-5.7l-29.5-7.7l-2.6,8.6l15.6,4.1    L416,134.5c0.5-3.6,0-7.4-1.5-11.3c-5.1-12.9-17.3-16.4-26.6-13.2h0c-5.1,1.7-9,5.2-11.2,9.8c-2.3,4.9-2.2,10.6,0.1,16.5    c3.9,9.9,12,14.2,19.8,14.2c2.3,0,4.6-0.4,6.7-1.1c4.4-1.5,7.9-4.3,10.2-7.9l29.2,7.6c-0.1,0.6-0.1,1.3,0,1.9    c0.2,1.7,1.2,3.3,2.7,4.3c1.2,0.9,2.6,1.3,4,1.3c2.1,0,4.1-0.9,5.6-2.7c1.2-1.5,1.8-3.3,1.5-5.1    C456.2,147.1,455.2,145.5,453.7,144.5z M404.7,136.8c-0.9,1.9-2.4,3.3-4.6,4c-5.3,1.8-10.4-1.4-13.1-8.2c-1.5-3.8-1.7-7.4-0.5-10    c0.9-1.9,2.4-3.2,4.5-4c1-0.3,1.9-0.5,2.9-0.5c4.2,0,8.1,3.2,10.3,8.8C405.7,130.7,405.9,134.1,404.7,136.8z"
   id="path893" />
		<path
   class="st1"
   d="M449.3,161.6c-2.5,0-4.8-0.7-6.9-2.2c-2.3-1.6-3.8-3.8-4.5-6.4l-22.5-5.9c-2.8,3.1-6.3,5.5-10.5,6.9    c-2.7,0.9-5.5,1.4-8.3,1.4c-10.8,0-20.2-6.6-24.4-17.3c-2.9-7.2-2.9-14.2,0-20.4c2.7-5.8,7.7-10.3,14.1-12.4    c11.6-4,26.6,0.3,32.9,16.1c0.5,1.2,0.8,2.3,1.2,3.5l8.5-6.6l-10.9-2.8l5.5-18.2l39.2,10.3l-3.7,12.2L440.5,134l13.7,3.6l-0.4,1.4    c1,0.4,1.9,0.8,2.8,1.5l0,0c2.6,1.8,4.3,4.6,4.8,7.7c0.4,3.2-0.5,6.3-2.6,9C456.4,159.9,453,161.6,449.3,161.6z M447.8,148.9    l-0.2,1.1c0,0.1,0,0.2,0,0.3c0,0.3,0.3,0.6,0.6,0.9c0.9,0.6,2.1,0.4,2.8-0.5c0.2-0.2,0.5-0.7,0.5-1.3c0-0.3-0.2-0.6-0.6-0.9l0,0    c-0.8-0.5-1.5-0.3-1.9-0.2L447.8,148.9z M381.9,120.6c-0.3,0.4-0.5,0.9-0.7,1.4c-1.7,3.6-1.6,8,0.2,12.5c1.6,4,4.2,7.1,7.4,9    c-2.7-2-5-5.1-6.5-9C380.3,129.4,380.2,124.4,381.9,120.6z M402,115.8c2.9,2,5.3,5.2,6.9,9.3c1.9,4.9,2.1,9.6,0.5,13.4l1.2-2    l0.4-2.8c0.4-2.8,0-5.7-1.2-8.7C408,120.5,405.2,117.5,402,115.8z M393.9,123.1c-0.4,0-0.8,0.1-1.3,0.2c-1,0.4-1.4,0.8-1.6,1.3    c-0.6,1.4-0.4,3.6,0.6,6.1c0.4,1.1,2.9,6.7,6.8,5.3c1.1-0.4,1.5-0.9,1.7-1.4l0,0c0.6-1.3,0.4-3.5-0.6-5.9    C398.2,125.3,396.1,123.1,393.9,123.1z"
   id="path895" />
	</g>
	<g
   id="g903">
		<path
   class="st0"
   d="M496.5,143.9L496.5,143.9c-10.4-7.4-22.7-2.9-29.5,5.4c-4.1,5-5.9,10.5-5.2,15.9c0.7,4.9,3.3,9.2,7.6,12.2    c3.3,2.3,7.5,3.7,11.8,3.7c6,0,12.5-2.6,17.6-8.9c4.2-5.1,6-10.6,5.2-16C503.5,151.2,500.8,146.9,496.5,143.9z M490.3,165.7    c-4.8,5.8-10.7,7.4-15.2,4.3c-1.7-1.2-2.8-2.9-3-4.8c-0.4-2.9,0.9-6.2,3.6-9.5c3.2-3.9,7-5.9,10.5-5.9c1.7,0,3.3,0.5,4.8,1.5    c1.8,1.2,2.8,2.9,3.1,4.9C494.3,159,493,162.4,490.3,165.7z"
   id="path899" />
		<path
   class="st1"
   d="M481.2,186c-5.3,0-10.5-1.6-14.7-4.6c-5.4-3.8-8.8-9.3-9.7-15.6c-0.9-6.8,1.3-13.6,6.3-19.7    c10.9-13.2,26.5-13.2,36.3-6.3l0,0c5.4,3.8,8.8,9.4,9.7,15.6c0.9,6.8-1.3,13.7-6.3,19.9C497.1,182.2,489.4,186,481.2,186z     M498.8,155.1c0,0.1,0,0.2,0.1,0.4c0.6,4.3-1.1,9.1-4.7,13.5l0,0c-2.5,3.1-5.4,5.3-8.4,6.5c2.9-0.9,6.2-2.7,9.3-6.4    c3.3-4,4.7-8.2,4.2-12.2C499.1,156.2,499,155.6,498.8,155.1z M486.1,154.7c-2,0-4.5,1.5-6.6,4.1c-2,2.5-2.6,4.5-2.5,5.6    c0.1,0.4,0.2,0.8,1,1.4c2.7,1.9,6.2-0.6,8.5-3.4c2.1-2.5,2.7-4.6,2.5-5.8c-0.1-0.4-0.2-0.9-1-1.4    C487.4,154.9,486.8,154.7,486.1,154.7z M479.9,146.1c-3.5,1.2-6.7,3.5-9.1,6.3c-3.2,3.9-4.6,8.1-4.1,12.1c0.1,0.6,0.2,1.2,0.4,1.7    c0-0.1,0-0.3-0.1-0.4c-0.6-4.3,1.1-9,4.6-13.3C474.2,149.6,477,147.4,479.9,146.1z"
   id="path901" />
	</g>
	<g
   id="g909">
		<path
   class="st0"
   d="M530.3,154.4c1.2-0.5,1.9-0.6,2.9-0.7l2.1-0.2l-1.4-9.1l-1.6-0.1c-1.6-0.1-3.1,0.2-5,0.9    c-3.3,1.2-5.8,3.9-7.3,7.6l-1.7-3.2l-8.7,3.3l16.4,37.1l9.9-3.7l-10.1-23C525.9,158.6,527.5,155.4,530.3,154.4z"
   id="path905" />
		<path
   class="st1"
   d="M523.4,196.3L503,150l17.7-6.7l0,0.1c1.5-1.2,3.1-2.2,4.9-2.9c2.5-1,4.7-1.3,7-1.2l5.7,0.3l2.8,18.3l-7.3,0.7    c-0.6,0.1-0.9,0.1-1.7,0.4c-0.3,0.1-1,1.1-1.2,3.2l11.8,26.8L523.4,196.3z M518.2,159.7l10.5,23.8l0.5-0.2l-8.4-19.1l-0.1,0.2    L518.2,159.7z"
   id="path907" />
	</g>
	<g
   id="g915">
		<path
   class="st0"
   d="M590.8,150.5c-5.2-5-11.6-4.1-19,2.6l-5.4,4.9c-3.5,3.2-4.6,2.1-5.1,1.7c-0.6-0.5-0.8-1.1-0.9-1.8    c1.7-0.7,3.2-1.6,4.5-2.8c3.4-3.1,5.3-7,5.4-11c0.1-3.8-1.5-7.3-4.6-10.2c-1.4-1.3-3.1-2.4-4.8-3l4.3-3.9l-6.5-6.2l-10.9,9.8    c-1.7,0.7-3.4,1.8-4.9,3.2c-3.5,3.1-5.4,7.1-5.5,11.3c-0.1,3.9,1.5,7.4,4.6,10.4c2.7,2.6,6.5,4.1,10.3,4.3c0,2,0.4,4.9,2.8,7.2    c1.7,1.7,3.9,2.6,6.2,2.7c-0.3,3.7,0.7,6.9,3,9.1c2.2,2.1,4.8,3.1,7.7,3.1c4.3,0,9.1-2.2,13.9-6.5c5.4-4.8,8.3-10.4,8.4-15.7    C594.5,156,593.2,152.9,590.8,150.5z M585,161c0,2.4-1.6,5.2-4.2,7.6h0c-3.3,2.9-7.6,5.2-10.1,2.9c-1.2-1.2-1.4-2.8-1.3-4.2    c1.5-0.9,2.7-1.9,3.6-2.6l4.8-4.3c4.3-3.8,5.5-2.7,6.3-1.9C584.9,159.1,585,160.2,585,161z M560.9,145.4c0,1.4-0.7,2.7-1.8,3.7    c-2.7,2.4-6.6,2.1-9.6-0.8c-1.5-1.5-2.3-3.1-2.3-4.7c0-1.4,0.7-2.7,1.9-3.8c1.2-1.1,2.7-1.6,4.2-1.6c1.8,0,3.7,0.8,5.3,2.3    C560.1,142,560.9,143.7,560.9,145.4z"
   id="path911" />
		<path
   class="st1"
   d="M572.1,186.7c-4.3,0-8.1-1.5-11.2-4.5c-2.4-2.3-3.9-5.3-4.4-8.7c-1.7-0.7-3.4-1.7-4.8-3.1    c-1.8-1.8-3.1-4-3.8-6.4c-3.5-0.9-6.8-2.6-9.3-5.1c-4.1-3.9-6.2-8.8-6.1-14.1c0.1-5.6,2.6-10.9,7.1-14.9c1.7-1.5,3.6-2.8,5.5-3.7    l13.7-12.3l13.7,13.1l-3.5,3.1c0,0,0,0,0.1,0.1c4.1,3.9,6.2,8.7,6.1,13.9c0,0.1,0,0.2,0,0.4c9.1-4.7,15.6-0.8,18.9,2.4l0,0    c3.4,3.3,5.3,7.8,5.2,12.7c-0.1,6.7-3.7,13.6-10.1,19.3C583.7,184,577.7,186.7,572.1,186.7z M582.5,152.5c1.8,0,3.5,0.7,5,2.2    c0.6,0.5,1,1.1,1.4,1.8c-0.4-0.9-0.9-1.7-1.6-2.3c-0.9-0.9-2.4-2.3-5.3-1.6C582.2,152.6,582.4,152.5,582.5,152.5z M542.7,146.9    c0.4,1.7,1.3,3.3,2.8,4.8c0.6,0.6,1.2,1,2,1.4c-0.5-0.4-1-0.8-1.5-1.3C544.2,150.2,543.2,148.5,542.7,146.9z M552.2,143.8    c0.1,0.1,0.2,0.4,0.7,0.9c0.2,0.2,1.8,1.6,2.8,0.7c0.1-0.1,0.1-0.1,0.1-0.1c0-0.1-0.2-0.5-0.8-1.1c-1-0.9-2-1.2-2.7-0.6    C552.3,143.7,552.2,143.8,552.2,143.8z M552.5,133.1l-0.2,0.2c0.2,0,0.4,0,0.7,0L552.5,133.1z"
   id="path913" />
	</g>
</g>
<g
   id="g1009">
	<g
   id="g923">
		<polygon
   class="st2"
   points="106,156 98.6,156.7 84.4,177.2 84.2,177.2 80,141.7 73.5,142.4 79.7,195 86.2,194.3 85.1,184.9     91.4,176.4 104.7,192.5 111.9,191.7 94.8,171.8   "
   id="polygon919" />
		<path
   class="st0"
   d="M77.9,197.2l-6.7-56.6l10.5-1.1l3.8,32.5l11.9-17.1l12.7-1.3l-12.8,18.1l18.6,21.7l-12,1.2l-12.4-14.9    l-4.3,5.8l1.3,10.7L77.9,197.2z M75.7,144.2l5.8,48.7l2.6-0.3l-1-8.2l8.2-11.2l14.3,17.2l2.3-0.2l-15.7-18.2l9.6-13.5l-2.1,0.2    l-14.1,20.4l-3.1,0.3l-4.2-35.5L75.7,144.2z"
   id="path921" />
	</g>
	<g
   id="g929">
		<path
   class="st2"
   d="M128,142.7c-9.2,2.5-15.2,11.3-11.5,23c3.6,11.5,13.9,15.9,23.1,13.4c9.2-2.5,15.3-11.4,11.7-22.9    C147.5,144.6,137.1,140.2,128,142.7z M137.9,174.2c-6.4,1.7-12.4-2.4-14.9-10.3c-2.5-8,0.1-14.5,6.5-16.3    c6.5-1.8,12.5,2.4,15,10.4C147,165.9,144.4,172.4,137.9,174.2z"
   id="path925" />
		<path
   class="st0"
   d="M134.6,181.7c-8.2,0-16.7-4.8-20-15.5c-1.9-6-1.5-11.7,1.1-16.4c2.4-4.5,6.6-7.7,11.9-9.1h0    c9.6-2.6,21.4,1.7,25.6,14.9c1.9,5.9,1.5,11.5-1.1,16.2c-2.5,4.5-6.7,7.8-12,9.2C138.3,181.5,136.4,181.7,134.6,181.7z M133,144    c-1.5,0-3.1,0.2-4.5,0.6h0c-4.2,1.1-7.5,3.7-9.4,7.2c-2.1,3.8-2.3,8.4-0.8,13.3c3.5,11.2,13.2,14.1,20.6,12.1    c4.2-1.1,7.6-3.7,9.5-7.3c2-3.7,2.3-8.3,0.8-13.1C146.3,147.7,139.5,144,133,144z M135,176.6c-6.1,0-11.4-4.5-13.8-12.1    c-1.6-4.9-1.4-9.6,0.6-13.1c1.5-2.8,4.1-4.8,7.3-5.6c7.6-2.1,14.6,2.7,17.4,11.7c1.5,4.9,1.3,9.5-0.6,13c-1.5,2.8-4.1,4.8-7.4,5.7    C137.3,176.4,136.1,176.6,135,176.6z M132.4,149.2c-0.8,0-1.6,0.1-2.4,0.3c-2.2,0.6-3.8,1.8-4.8,3.7c-1.4,2.6-1.5,6.1-0.3,10    c2.2,6.9,7.1,10.4,12.5,9h0c2.3-0.6,3.9-1.9,5-3.8c1.4-2.5,1.5-6,0.3-9.8C140.7,152.7,136.9,149.2,132.4,149.2z"
   id="path927" />
	</g>
	<g
   id="g935">
		<path
   class="st2"
   d="M172.5,164.8c-1,0.3-2.1-0.1-2.7-1.9l-16-43.7l-6.3,2l15.8,43.2c1.8,4.9,4.7,7.2,9.4,5.7    c1.6-0.5,2.7-1.1,3.4-1.8l-2.4-4.1C173.2,164.6,172.9,164.7,172.5,164.8z"
   id="path931" />
		<path
   class="st0"
   d="M170.1,172.6c-3.2,0-6.5-1.7-8.6-7.4l-16.5-45.2l10.1-3.2l16.6,45.5c0.1,0.3,0.2,0.5,0.3,0.6    c0.3-0.1,0.4-0.1,0.7-0.3l1.7-1l4.3,7.2l-1.2,1.1c-1,0.9-2.3,1.6-4.2,2.2C172.3,172.3,171.2,172.6,170.1,172.6z M150.1,122.5    l15.1,41.3c1.9,5.2,4.5,5.2,7,4.5c0.5-0.2,0.9-0.3,1.3-0.5l-0.6-1c-1.7,0.4-3.9-0.1-5-3.2l-15.3-41.9L150.1,122.5z M171.9,162.9    C171.9,162.9,171.9,162.9,171.9,162.9l0.6,1.9L171.9,162.9C171.9,162.9,171.9,162.9,171.9,162.9z"
   id="path933" />
	</g>
	<g
   id="g941">
		<path
   class="st2"
   d="M189.9,143.3c-5.1-1-8.6-1.9-9-5.2c-0.4-2.7,1.5-5.4,6.4-6c3.4-0.4,6.3,0.3,9.3,1.9l2.6-3.9    c-3.3-2-7.7-3.2-12.6-2.7c-8.4,1-12.8,6-12,11.7c0.8,5.9,6.7,7.8,12.8,9.1c4.6,1,9.1,2,9.6,5.7c0.4,3.1-1.7,5.8-6.8,6.4    c-4.8,0.5-8.5-0.4-12.1-2.6l-2.6,3.9c4,2.8,9.4,4.2,15.1,3.5c9.2-1,13.5-6.5,12.7-12.3C202.4,146.4,196.3,144.6,189.9,143.3z"
   id="path937" />
		<path
   class="st0"
   d="M187.7,167.4c-5,0-9.8-1.4-13.5-4l-1.6-1.1l4.7-7.1l1.6,1c3.5,2.1,6.8,2.8,10.9,2.3c2.1-0.2,3.7-0.9,4.5-1.9    c0.5-0.6,0.7-1.4,0.5-2.2c-0.3-2.2-3.7-3.1-8-4c-4.3-0.9-13.3-2.7-14.3-10.8c-0.4-3,0.4-5.9,2.2-8.3c2.4-3.1,6.4-5.1,11.6-5.7    c4.8-0.6,9.7,0.5,13.8,3l1.8,1.1l-4.7,7.1l-1.6-0.8c-2.8-1.5-5.3-2-8.2-1.6c-1.9,0.2-3.4,0.9-4.1,1.8c-0.4,0.6-0.6,1.2-0.5,1.9    c0.2,1.8,2.6,2.5,7.4,3.5l0,0c5.2,1.1,13.8,2.8,14.9,11.3c0.4,3.1-0.4,6.2-2.3,8.6c-2.6,3.3-6.8,5.3-12.2,6    C189.7,167.3,188.7,167.4,187.7,167.4z M178.2,161.1c3.4,1.9,7.7,2.6,12.1,2.1c4.3-0.5,7.6-2.1,9.5-4.4c1.3-1.6,1.8-3.6,1.5-5.6    c-0.6-4.7-4.6-6.4-11.7-7.9c-4.7-0.9-9.9-2-10.6-6.9c-0.2-1.8,0.2-3.5,1.3-4.9c1-1.3,3-2.9,6.8-3.3c3-0.4,5.9,0.1,8.8,1.3l0.4-0.6    c-2.9-1.3-6.2-1.8-9.5-1.4c-4,0.5-7.1,1.9-8.9,4.1c-1.2,1.5-1.7,3.4-1.4,5.3c0.6,4.3,4.9,6.1,11.2,7.4c4.7,1,10.5,2.2,11.2,7.4    c0.3,1.9-0.2,3.7-1.4,5.2c-1,1.3-3.1,3-7.2,3.5c-4.3,0.5-8-0.1-11.7-1.9L178.2,161.1z"
   id="path939" />
	</g>
	<g
   id="g947">
		<path
   class="st2"
   d="M233.4,155.7c-2.4,1.9-5.6,3.3-9.2,3.2c-7.1-0.1-11.8-5.7-11.6-14c0.2-8.3,5.5-13.8,12.5-13.7    c3.1,0.1,5.6,1.2,7.7,3.1l3.4-3.8c-2.7-2.4-6.2-4.4-11.3-4.5c-10-0.2-18.9,6.5-19.2,18.7c-0.3,12,7.5,19,17.8,19.2    c4.7,0.1,9.1-1.5,12.7-4.4L233.4,155.7z"
   id="path943" />
		<path
   class="st0"
   d="M223.8,166c-0.1,0-0.3,0-0.4,0c-5.7-0.1-10.9-2.2-14.4-5.9c-3.7-3.8-5.5-9.2-5.4-15.4    c0.2-10.4,7.6-20.9,21.3-20.6c4.9,0.1,9,1.7,12.6,5l1.5,1.3l-6,6.8l-1.5-1.3c-1.9-1.7-4-2.6-6.4-2.6c-6.1-0.1-10.3,4.6-10.5,11.7    c-0.1,3.8,1,7.1,3,9.2c1.7,1.8,4,2.7,6.6,2.8c3.7,0.1,6.6-1.7,7.9-2.8l1.7-1.3l5.1,7.3l-1.5,1.2C233.6,164.3,228.8,166,223.8,166z     M224.3,128.1c-11.2,0-16.5,8.6-16.7,16.7c-0.1,5.1,1.4,9.5,4.3,12.5c2.8,3,6.9,4.6,11.6,4.7c3.6,0.1,6.9-0.9,9.9-2.8l-0.5-0.8    c-2.7,1.7-5.8,2.5-8.8,2.5c-3.8-0.1-7-1.5-9.5-4c-2.8-2.9-4.2-7.2-4.1-12c0.2-9.4,6.2-15.8,14.6-15.6c2.7,0.1,5.2,0.8,7.4,2.4    l0.7-0.8c-2.5-1.8-5.2-2.6-8.5-2.7C224.6,128.1,224.5,128.1,224.3,128.1z"
   id="path945" />
	</g>
	<g
   id="g953">
		<path
   class="st2"
   d="M267.1,137.3c-5-1.8-9.7-0.6-14.4,1.3l3.1-6.9l5.6-13.5l-6.2-2.2l-20.5,49.4l6.2,2.2l10.1-24.4    c5-2.1,8.3-2.9,12-1.6c4.8,1.7,5.8,5.1,3.2,11.4l-8.6,20.6l6.2,2.2l8.9-21.4C276.3,145.9,274.8,140.1,267.1,137.3z"
   id="path949" />
		<path
   class="st0"
   d="M265,178.4l-10-3.6l9.4-22.6c1.2-3,1.6-5.2,1-6.5c-0.4-0.9-1.4-1.7-3-2.2c-2.6-0.9-5.2-0.6-9.8,1.3L242,170.2    l-10-3.6l22.1-53.1l10,3.6l-6.4,15.4l-1.2,2.7c3.5-0.9,7.3-1.2,11.3,0.2h0c3.9,1.4,6.6,3.6,7.9,6.6c1.6,3.5,1.2,7.8-1,13.2    L265,178.4z M260.3,172.5l2.4,0.9l8.1-19.6c1.8-4.3,2.1-7.7,1.1-10.1c-0.9-1.9-2.7-3.4-5.6-4.4l0,0c-3.3-1.2-6.5-0.9-9.5,0    c2.3-0.4,4.5-0.3,6.8,0.5c2.7,1,4.4,2.4,5.3,4.4c1.1,2.5,0.8,5.5-0.9,9.7L260.3,172.5z M237.3,164.3l2.4,0.9l9.6-23.1l-0.5,0.2    l5.2-11.4l4.8-11.5l-2.4-0.9L237.3,164.3z"
   id="path951" />
	</g>
	<g
   id="g959">
		<path
   class="st2"
   d="M280.8,174.3c-2.5-0.8-5.2,0.4-6.2,3.1c-0.9,2.6,0.5,5.1,3,5.9c2.5,0.8,5.2-0.4,6.2-3    C284.7,177.5,283.3,175.1,280.8,174.3z"
   id="path955" />
		<path
   class="st0"
   d="M279.1,185.5c-0.7,0-1.4-0.1-2.2-0.3c-1.8-0.6-3.2-1.7-4-3.3c-0.8-1.6-0.9-3.4-0.2-5.1c1.3-3.6,5-5.5,8.7-4.3    c1.8,0.6,3.2,1.7,4,3.3c0.8,1.6,0.9,3.4,0.2,5.2C284.6,183.7,282,185.5,279.1,185.5z M279.2,176.1c-1.2,0-2.3,0.8-2.8,2    c-0.3,0.7-0.2,1.4,0.1,2c0.3,0.6,0.9,1.1,1.6,1.3c1.6,0.5,3.1-0.3,3.7-1.8c0.3-0.7,0.2-1.5,0-2.1c-0.3-0.6-0.9-1.1-1.6-1.3h0    C279.9,176.1,279.6,176.1,279.2,176.1z"
   id="path957" />
	</g>
	<g
   id="g965">
		<path
   class="st2"
   d="M327.1,149.7l6.7,24.8c-2.4,4.9-4.6,7.4-8.4,8.2c-5,1.2-7.9-1.1-9.7-7.6l-5.8-21.4l-6.5,1.5l6,22.2    c2.4,8.9,7.3,12.9,15.3,11c5.2-1.2,8.3-4.6,10.7-9.2l0.2-0.1l2,5.4l5.3-1.2l-9.5-35L327.1,149.7z"
   id="path961" />
		<path
   class="st0"
   d="M321.2,190.9c-5.3,0-10.9-2.8-13.6-12.9l-6.6-24.2l10.4-2.4l6.3,23.3c1.9,6.9,4.6,6.8,7.3,6.2    c2.9-0.7,4.7-2.4,6.8-6.5l-7.1-26.1l10.4-2.4l10.5,38.9l-9,2.1l-1.3-3.4c-2.1,3-5.2,5.8-10,6.9    C323.9,190.7,322.6,190.9,321.2,190.9z M305.9,156.7l5.5,20.2c2.2,8.2,6.2,11.1,12.9,9.6c3.1-0.7,5.5-2.4,7.7-5.3    c-1.6,1.7-3.5,3-6.1,3.6c-9,2.1-11.3-6.3-12.1-9.1l-5.3-19.6L305.9,156.7z M337,176.8l2,5.4l1.6-0.4l-8.5-31.2l-2.6,0.6l6.4,23.5    l-0.3,0.7c-0.3,0.7-0.7,1.3-1,2L337,176.8z"
   id="path963" />
	</g>
	<g
   id="g971">
		<path
   class="st2"
   d="M373,158c-5.9,3.7-13.2,1.6-18.2-5.2c-5-6.9-4.1-14.2,1.8-17.8c2.6-1.6,5.3-2,8.3-1.6l0.4-4.9    c-3.7-0.6-7.7-0.3-12,2.4c-8.3,5.2-11.4,15.4-4.1,25.5c7.2,9.9,18,11.6,26.6,6.2c3.9-2.4,6.5-6,7.7-10.3l-4.8-1.8    C377.7,153.2,376,156.1,373,158z"
   id="path967" />
		<path
   class="st0"
   d="M365.5,167.6c-6.7,0-13.3-3.5-18.1-10.1c-3.8-5.2-5.2-10.7-4.2-16c1-5,4.1-9.4,8.8-12.3    c4.1-2.5,8.4-3.4,13.4-2.6l1.8,0.3l-0.7,8.9l-2.1-0.3c-2.7-0.4-4.9,0-6.9,1.3c-2.1,1.3-3.5,3.2-3.9,5.5c-0.6,2.9,0.4,6.3,2.7,9.5    c4.4,6,10.5,7.9,15.5,4.7v0c3.1-1.9,4.2-4.8,4.7-6.4l0.6-2.1l8.5,3.2l-0.5,1.8c-1.3,4.8-4.3,8.9-8.6,11.5    C373,166.5,369.2,167.6,365.5,167.6z M362.1,130.2c-2.8,0-5.4,0.8-7.9,2.3c-3.8,2.3-6.3,5.8-7,9.7c-0.8,4.2,0.4,8.7,3.5,12.9    c6.2,8.6,15.6,10.8,23.9,5.7c2.9-1.8,5-4.4,6.2-7.4l-1.1-0.4c-1.2,2.8-3.2,5.1-5.7,6.7l0,0c-6.9,4.3-15.3,2-20.9-5.8    c-3-4.1-4.2-8.6-3.4-12.6c0.7-3.4,2.6-6.2,5.7-8.1c2.3-1.4,4.7-2.1,7.5-2l0.1-1C362.7,130.2,362.4,130.2,362.1,130.2z"
   id="path969" />
	</g>
	<g
   id="g977">
		<path
   class="st2"
   d="M387.5,112.2c-9,3.1-14.4,12.3-9.8,23.6c4.5,11.2,15,15,24,11.9c9-3.1,14.4-12.3,10-23.5    C407.1,112.9,396.5,109.2,387.5,112.2z M399.8,143c-6.2,2.1-12.5-1.6-15.6-9.3c-3.1-7.8-1-14.5,5.3-16.6    c6.3-2.2,12.6,1.6,15.7,9.4C408.2,134.2,406.1,140.8,399.8,143z"
   id="path973" />
		<path
   class="st0"
   d="M395.6,150.8c-7.8,0-15.9-4.3-19.8-14.2c-2.3-5.9-2.4-11.6-0.1-16.5c2.1-4.6,6.1-8.1,11.2-9.8h0    c9.3-3.2,21.5,0.3,26.6,13.2c2.3,5.8,2.3,11.4,0.1,16.3c-2.1,4.6-6.1,8.1-11.2,9.9C400.2,150.4,397.9,150.8,395.6,150.8z     M388.2,114.1c-4,1.4-7.2,4.1-8.8,7.7c-1.8,3.9-1.7,8.5,0.2,13.3c4.4,11,14.2,13.3,21.5,10.8c4.1-1.4,7.2-4.2,8.9-7.8    c1.8-3.9,1.7-8.4-0.2-13.1C405.4,113.9,395.5,111.6,388.2,114.1L388.2,114.1z M396.2,145.6c-5.8,0-11.1-4.1-13.9-11.2    c-1.9-4.8-2.1-9.5-0.4-13.2c1.3-2.9,3.7-5,6.9-6.1c7.4-2.5,14.7,1.7,18.2,10.6c1.9,4.8,2,9.4,0.4,13c-1.3,2.9-3.8,5-7,6.1l0,0    C399,145.4,397.6,145.6,396.2,145.6z M393,118.4c-1,0-1.9,0.2-2.9,0.5c-2.1,0.7-3.7,2.1-4.5,4c-1.2,2.6-1.1,6.2,0.5,10    c2.7,6.8,7.8,10,13.1,8.2l0,0c2.2-0.7,3.8-2.1,4.6-4c1.2-2.6,1-6.1-0.4-9.8C401.1,121.6,397.2,118.4,393,118.4z"
   id="path975" />
	</g>
	<g
   id="g983">
		<polygon
   class="st2"
   points="424,137.5 451.9,115.9 452.8,112.7 427.2,106 425.7,110.8 443.3,115.4 415.4,137.1 414.4,140.2     442.9,147.7 444.4,142.8   "
   id="polygon979" />
		<path
   class="st0"
   d="M444.3,150.1l-32.4-8.5l1.8-5.7l25.2-19.6l-15.6-4.1l2.6-8.6l29.5,7.7l-1.8,5.7l-25.1,19.5l18.5,4.8    L444.3,150.1z M416.9,138.8l24.6,6.4l0.3-1l-22.3-5.8l30.6-23.7l0.2-0.5l-21.8-5.7l-0.3,1l19.4,5.1l-30.6,23.8L416.9,138.8z"
   id="path981" />
	</g>
	<g
   id="g989">
		<path
   class="st2"
   d="M451.6,146.4c-2.1-1.5-5.1-1.1-6.9,1.1c-1.8,2.2-1.3,4.9,0.8,6.4c2.1,1.5,5.1,1.1,6.9-1.1    C454.2,150.7,453.7,147.9,451.6,146.4z"
   id="path985" />
		<path
   class="st0"
   d="M448.4,156.9c-1.4,0-2.8-0.4-4-1.3c-1.5-1-2.5-2.6-2.7-4.3c-0.2-1.8,0.3-3.5,1.5-5c2.4-3,6.6-3.6,9.6-1.5l0,0    c1.5,1,2.5,2.6,2.7,4.3c0.2,1.8-0.3,3.6-1.5,5.1C452.5,156,450.4,156.9,448.4,156.9z M448.8,147.5c-0.9,0-1.9,0.4-2.5,1.3    c-0.5,0.6-0.7,1.3-0.6,1.9c0.1,0.6,0.5,1.2,1,1.6c1.3,0.9,3.1,0.6,4.2-0.7c0.5-0.7,0.8-1.4,0.7-2c-0.1-0.6-0.4-1.2-1-1.6l0,0    C450,147.7,449.4,147.5,448.8,147.5z"
   id="path987" />
	</g>
	<g
   id="g995">
		<path
   class="st2"
   d="M494.4,145.8c-7.6-5.4-18.9-4.6-26.8,5c-7.8,9.5-5.6,19.8,2,25.2c7.6,5.4,18.9,4.7,26.8-4.8    C504.3,161.5,502,151.2,494.4,145.8z M490.9,167.3c-5.4,6.6-12.6,8.4-17.9,4.6c-5.3-3.7-5.3-10.6,0.1-17.2    c5.4-6.6,12.7-8.5,18-4.8C496.4,153.7,496.4,160.7,490.9,167.3z"
   id="path991" />
		<path
   class="st0"
   d="M480.3,181.3c-4.4,0-8.5-1.4-11.8-3.7c-4.2-3-6.9-7.3-7.6-12.2c-0.7-5.4,1.1-10.9,5.2-15.9    c6.8-8.2,19.1-12.7,29.5-5.4v0c4.2,3,6.9,7.3,7.6,12.2c0.7,5.4-1.1,11-5.2,16C492.8,178.7,486.3,181.3,480.3,181.3z M483.8,144.5    c-4.9,0-10.2,2.2-14.7,7.6c-3.4,4.1-4.9,8.6-4.3,12.8c0.5,3.7,2.6,7.1,5.9,9.4c8.5,6,18.5,2.3,24.1-4.5c3.4-4.2,5-8.7,4.4-12.9    c-0.5-3.8-2.6-7.1-5.9-9.5v0C490.7,145.6,487.4,144.5,483.8,144.5z M479,175.9c-2.5,0-5-0.8-7.2-2.3c-2.7-1.9-4.3-4.5-4.7-7.6    c-0.5-4,1-8.4,4.4-12.6c6.1-7.5,14.5-9.5,20.7-5.2c2.7,1.9,4.3,4.5,4.7,7.6c0.5,4-1.1,8.5-4.5,12.7    C488.5,173.3,483.7,175.9,479,175.9z M485.1,150c-3.5,0-7.3,2.1-10.5,5.9c-2.7,3.3-3.9,6.6-3.6,9.5c0.3,2,1.3,3.6,3,4.8    c4.5,3.2,10.5,1.5,15.2-4.3l1.5,1.3l-1.5-1.3c2.7-3.3,4-6.7,3.6-9.6c-0.3-2-1.3-3.6-3.1-4.9C488.5,150.5,486.8,150,485.1,150z"
   id="path993" />
	</g>
	<g
   id="g1001">
		<path
   class="st2"
   d="M528.7,152.8c1.4-0.5,2.3-0.7,3.5-0.8l-0.8-5.4c-1.3-0.1-2.5,0.2-4.2,0.8c-4,1.5-6.5,5.6-7.2,10.8l-0.2,0.1    l-3.2-5.9l-5.1,1.9l14.7,33.5l6.2-2.3l-9.5-21.5C522.9,157.3,525.6,153.9,528.7,152.8z"
   id="path997" />
		<path
   class="st0"
   d="M525.1,190.2l-16.4-37.1l8.7-3.3l1.7,3.2c1.5-3.7,4-6.3,7.3-7.6c1.9-0.7,3.3-1,5-0.9l1.6,0.1l1.4,9.1    l-2.1,0.2c-1,0.1-1.7,0.2-2.9,0.7l0,0c-2.8,1.1-4.4,4.3-4.5,8.8l10.1,23L525.1,190.2z M529.6,148.7c-0.5,0.1-1.1,0.3-1.8,0.5    c-2.8,1-4.8,3.7-5.6,7.4c1.6-3.7,4.3-5.2,5.7-5.7h0c0.7-0.3,1.3-0.5,1.9-0.6L529.6,148.7z M514.1,155.4l13.1,29.8l2.4-0.9    l-8.8-19.9l0-0.4c0-1.6,0.1-2.9,0.4-4.2l-2.5,0.9l-3.2-5.9L514.1,155.4z"
   id="path999" />
	</g>
	<g
   id="g1007">
		<path
   class="st2"
   d="M588.4,152.3c-4.5-4.3-9.8-3.2-16.3,2.6l-5.4,4.9c-3.7,3.4-6.1,3.2-7.8,1.6c-1.5-1.4-1.7-3-1.5-4.7    c1.9-0.6,3.7-1.6,5.1-2.8c5.7-5.1,6.6-12.7,0.8-18.2c-2.3-2.2-5.2-3.3-7.8-3.3l5.7-5.1l-3.6-3.4l-9.7,8.7    c-1.4,0.6-3.1,1.5-4.6,2.9c-5.7,5.1-6.8,13-0.9,18.7c3.2,3.1,7.7,4,10.9,3.7l0.2,0.2c-0.5,2.2-0.3,5.4,2,7.5c2.1,2,4.7,2.4,6.9,2    l0.2,0.2c-0.9,3.9-0.2,7.4,2.1,9.5c4.7,4.5,12,2.7,18.9-3.4C592.4,166.2,593.5,157.2,588.4,152.3z M547.1,150.1    c-4-3.8-3.7-8.4-0.4-11.4c3.3-2.9,8.3-3,12.2,0.7c4,3.8,3.7,8.6,0.5,11.5C556.2,153.8,551.1,153.9,547.1,150.1z M581.1,170.3    c-5.1,4.6-9.9,5.6-12.8,2.8c-1.6-1.5-2.3-3.8-1.7-7c1.5-0.8,3-1.9,4.1-2.8l4.8-4.3c3.7-3.3,6.5-4.3,9-1.9    C587.3,159.8,586.4,165.6,581.1,170.3z"
   id="path1003" />
		<path
   class="st0"
   d="M571.1,182c-2.9,0-5.6-1-7.7-3.1c-2.3-2.2-3.3-5.3-3-9.1c-2.3-0.1-4.4-1-6.2-2.7c-2.4-2.3-2.9-5.1-2.8-7.2    c-3.9-0.2-7.6-1.7-10.3-4.3c-3-2.9-4.6-6.5-4.6-10.4c0.1-4.1,2-8.2,5.5-11.3c1.5-1.3,3.2-2.5,4.9-3.2l10.9-9.8l6.5,6.2l-4.3,3.9    c1.8,0.7,3.4,1.7,4.8,3c3,2.9,4.6,6.4,4.6,10.2c-0.1,4-2,7.9-5.4,11c-1.3,1.1-2.8,2.1-4.5,2.8c0.1,0.8,0.3,1.3,0.9,1.8    c0.5,0.4,1.6,1.5,5.1-1.7l5.4-4.9c7.4-6.7,13.8-7.5,19-2.6l0,0c2.4,2.3,3.7,5.5,3.7,9c-0.1,5.3-3.1,10.9-8.4,15.7    C580.3,179.8,575.4,182,571.1,182z M564.5,169.5c-0.4,2.8,0.2,5.1,1.7,6.5c4.4,4.2,11.2,1,16.2-3.5c4.5-4,7-8.7,7.1-12.8    c0-2.4-0.8-4.5-2.4-6.1c-2.4-2.3-6.1-4.1-13.6,2.6l-5.4,4.9c-5.2,4.7-8.6,3.4-10.5,1.6c-1.3-1.2-1.8-2.5-2-3.7    c-0.2,1.2-0.2,3.5,1.5,5.2c1.8,1.7,3.8,1.7,5.1,1.5l1-0.2l1.3,1.3c0-0.3,0.1-0.7,0.2-1l0.2-1l0.9-0.4c1.2-0.6,2.5-1.5,3.6-2.5    l4.8-4.3c1.9-1.7,7-6.3,11.7-1.8c1.4,1.4,2.2,3.4,2.2,5.6c-0.1,3.5-2.1,7.4-5.6,10.5c-5.9,5.3-11.8,6.3-15.5,2.8    C565.6,173.3,564.7,171.5,564.5,169.5z M568.5,167.5c-0.1,1.4,0,3.1,1.3,4.2c2.5,2.4,6.8,0.1,10.1-2.9h0c2.6-2.4,4.2-5.2,4.2-7.6    c0-0.8-0.1-1.9-0.9-2.6c-0.8-0.8-2-1.9-6.3,1.9l-4.8,4.3C571.2,165.6,569.9,166.6,568.5,167.5z M554.2,155.9l1.3,1.2    c0-0.2,0-0.4,0.1-0.6l0.2-1.3l1.3-0.4c1.6-0.5,3.1-1.3,4.3-2.4c2.6-2.3,4-5.2,4.1-8.1c0-2.6-1.1-5.1-3.3-7.2    c-1.8-1.7-4.1-2.7-6.3-2.7c0,0,0,0,0,0l-5.3,0l8-7.2l-0.7-0.6l-8.6,7.8l-0.3,0.1c-1.4,0.5-2.8,1.4-4,2.6c-2.6,2.4-4.1,5.3-4.2,8.4    c0,2.7,1.1,5.3,3.3,7.4c2.8,2.7,6.7,3.4,9.4,3.2L554.2,155.9z M553.9,155c-2.9,0-5.8-1.2-8.2-3.5c-2.3-2.2-3.6-4.9-3.5-7.6    c0-2.5,1.2-4.9,3.2-6.7c4.2-3.8,10.5-3.5,15,0.7c2.3,2.2,3.6,5,3.6,7.8c0,2.5-1.1,4.9-3.1,6.6C558.8,154.1,556.4,155,553.9,155z     M552.3,138.6c-1.5,0-3,0.5-4.2,1.6c-1.2,1.1-1.8,2.4-1.9,3.8c0,1.6,0.8,3.2,2.3,4.7l0,0c3,2.9,7,3.2,9.6,0.8    c1.1-1,1.8-2.3,1.8-3.7c0-1.7-0.8-3.3-2.3-4.8C556,139.3,554.1,138.6,552.3,138.6z"
   id="path1005" />
	</g>
</g>
</svg>
