<?xml version="1.0" encoding="utf-8"?>
<!-- Generator: Adobe Adobe Illustrator 24.2.0, SVG Export Plug-In . SVG Version: 6.00 Build 0)  -->
<svg version="1.1" id="Layer_1" xmlns="http://www.w3.org/2000/svg" xmlns:xlink="http://www.w3.org/1999/xlink" x="0px" y="0px"
	 viewBox="0 0 1728 1296" style="enable-background:new 0 0 1728 1296;" xml:space="preserve">
<style type="text/css">
	.st0{stroke:#000000;stroke-miterlimit:10;}
	.st1{fill:#4DFFA9;}
	.st2{fill:url(#SVGID_1_);}
</style>
<rect class="st0" width="1728" height="1296"/>
<g>
	<path class="st1" d="M262.47,686.52l12.76-2.46c4.43-0.85,7.87-2.09,10.34-3.72c2.47-1.62,4.55-3.99,6.25-7.1L357,562.8
		c1.75-3.48,3.79-6.05,6.13-7.71c2.34-1.66,5.37-2.85,9.1-3.57l28.66-5.52l-74.65,126.24c-1.79,3.25-3.59,5.98-5.4,8.2
		c-1.81,2.22-3.82,4.15-6.04,5.79c3.35,0.44,6.5,1.44,9.46,2.98c2.95,1.55,5.97,3.71,9.05,6.5l122.5,99.47l-29.36,5.66
		c-2.21,0.43-4.13,0.65-5.76,0.66c-1.63,0.01-3.09-0.19-4.38-0.61c-1.29-0.41-2.45-0.98-3.5-1.68c-1.04-0.71-2.09-1.56-3.12-2.57
		l-105.51-82.81c-2.89-2.46-5.8-4.05-8.71-4.76c-2.92-0.71-7.11-0.53-12.59,0.52l-15.38,2.96l22.1,114.66l-33.73,6.5l-48.28-250.46
		l33.73-6.5L262.47,686.52z"/>
	<path class="st1" d="M506.79,598.82c12.93-2.49,25-2.58,36.2-0.27c11.2,2.31,21.24,6.72,30.1,13.23
		c8.87,6.51,16.34,15.01,22.41,25.5c6.07,10.49,10.44,22.67,13.12,36.54c2.7,13.98,3.17,26.94,1.42,38.88
		c-1.75,11.94-5.53,22.58-11.34,31.91c-5.81,9.34-13.5,17.14-23.05,23.39c-9.55,6.25-20.79,10.62-33.73,13.12
		c-13.05,2.52-25.2,2.65-36.45,0.41c-11.25-2.24-21.31-6.62-30.18-13.13c-8.87-6.51-16.33-14.98-22.39-25.41
		c-6.06-10.43-10.44-22.64-13.13-36.62c-2.67-13.86-3.14-26.8-1.4-38.79c1.74-12,5.51-22.66,11.32-32
		c5.81-9.34,13.52-17.17,23.12-23.49C482.41,605.76,493.74,601.34,506.79,598.82z M537.24,756.83c17.48-3.37,29.4-11.74,35.77-25.11
		c6.36-13.37,7.53-30.54,3.48-51.52c-4.06-21.09-11.54-36.69-22.43-46.8c-10.89-10.11-25.08-13.48-42.55-10.11
		c-8.86,1.71-16.29,4.71-22.28,9.01c-6,4.3-10.63,9.73-13.9,16.28c-3.27,6.55-5.18,14.2-5.73,22.95
		c-0.55,8.75,0.19,18.36,2.21,28.85c4.04,20.97,11.53,36.48,22.47,46.52C505.2,756.93,519.53,760.24,537.24,756.83z"/>
	<path class="st1" d="M647.56,491.2l49.62,257.46l-31.11,6L616.44,497.2L647.56,491.2z"/>
	<path class="st1" d="M787.48,544.72c12.93-2.49,25-2.58,36.2-0.27c11.2,2.31,21.24,6.72,30.1,13.23
		c8.87,6.51,16.34,15.01,22.41,25.5c6.07,10.49,10.44,22.67,13.12,36.54c2.7,13.98,3.17,26.94,1.42,38.88
		c-1.75,11.94-5.53,22.58-11.34,31.91c-5.81,9.34-13.49,17.14-23.05,23.39c-9.55,6.25-20.79,10.62-33.73,13.12
		c-13.05,2.52-25.2,2.65-36.45,0.41c-11.25-2.24-21.31-6.62-30.18-13.13c-8.87-6.51-16.33-14.98-22.39-25.41
		c-6.06-10.43-10.44-22.64-13.13-36.62c-2.67-13.86-3.14-26.8-1.4-38.79c1.74-12,5.51-22.66,11.32-32
		c5.81-9.34,13.52-17.17,23.12-23.49C763.1,551.65,774.43,547.23,787.48,544.72z M817.94,702.72c17.48-3.37,29.4-11.74,35.77-25.11
		c6.37-13.37,7.53-30.54,3.48-51.52c-4.06-21.09-11.54-36.69-22.43-46.8c-10.89-10.11-25.08-13.48-42.55-10.11
		c-8.86,1.71-16.28,4.71-22.28,9.01c-6,4.3-10.63,9.73-13.9,16.28c-3.27,6.55-5.18,14.2-5.73,22.95
		c-0.55,8.75,0.19,18.36,2.21,28.85c4.04,20.97,11.53,36.48,22.47,46.52C785.9,702.82,800.22,706.14,817.94,702.72z"/>
	<path class="st1" d="M947.79,543.19c5.79-10.06,12.89-18.56,21.28-25.49c8.39-6.93,18.71-11.58,30.94-13.94
		c10.37-2,20.1-1.82,29.2,0.54c9.09,2.36,17.28,6.73,24.56,13.12c7.27,6.39,13.49,14.65,18.64,24.78
		c5.15,10.13,9.02,21.89,11.61,35.29c2.76,14.33,3.53,27.72,2.3,40.16c-1.23,12.44-4.33,23.47-9.31,33.06
		c-4.98,9.6-11.74,17.61-20.29,24.03c-8.55,6.42-18.71,10.77-30.48,13.04c-11.65,2.25-21.89,1.95-30.71-0.88
		c-8.83-2.83-16.98-7.69-24.47-14.59l1.53,16.38c-0.08,4.61-2.33,7.34-6.76,8.19l-20.1,3.87L896.09,443.3l31.29-6.03L947.79,543.19z
		 M968.78,652.08c7.19,6.59,14.5,10.8,21.92,12.63c7.42,1.83,15.21,1.96,23.37,0.39c16.66-3.21,28.29-11.55,34.88-25.03
		c6.59-13.47,7.63-31.86,3.14-55.17c-4.18-21.67-11.18-36.85-21.01-45.53c-9.83-8.68-22.03-11.62-36.59-8.81
		c-10.14,1.95-18.51,5.99-25.13,12.1c-6.62,6.11-12.31,14.04-17.08,23.78L968.78,652.08z"/>
	<path class="st1" d="M1181.43,468.78c12.93-2.49,25-2.58,36.2-0.27c11.2,2.31,21.24,6.72,30.1,13.23
		c8.87,6.51,16.34,15.01,22.41,25.5c6.07,10.49,10.44,22.67,13.12,36.54c2.7,13.98,3.17,26.94,1.42,38.88
		c-1.75,11.94-5.53,22.58-11.34,31.91c-5.81,9.34-13.5,17.14-23.05,23.39c-9.55,6.25-20.79,10.62-33.73,13.12
		c-13.05,2.52-25.2,2.65-36.45,0.41c-11.25-2.24-21.31-6.62-30.18-13.13c-8.87-6.51-16.33-14.98-22.39-25.41
		c-6.06-10.43-10.44-22.64-13.13-36.62c-2.67-13.86-3.14-26.8-1.4-38.79c1.74-12,5.51-22.66,11.32-32
		c5.81-9.34,13.52-17.17,23.12-23.49C1157.06,475.72,1168.38,471.3,1181.43,468.78z M1211.89,626.79
		c17.48-3.37,29.4-11.74,35.77-25.11c6.37-13.37,7.53-30.55,3.49-51.52c-4.06-21.09-11.54-36.69-22.44-46.8
		c-10.89-10.11-25.07-13.48-42.55-10.11c-8.86,1.71-16.28,4.71-22.28,9.01c-6,4.3-10.63,9.73-13.9,16.28
		c-3.27,6.55-5.18,14.2-5.73,22.95c-0.55,8.75,0.19,18.36,2.21,28.85c4.04,20.97,11.53,36.48,22.47,46.52
		C1179.85,626.89,1194.18,630.2,1211.89,626.79z"/>
	<path class="st1" d="M1452.36,419.47l-38.06,190.97l-27.96,5.39l-106.31-163.14l25.34-4.89c2.56-0.49,4.78-0.26,6.66,0.71
		c1.88,0.97,3.28,2.27,4.2,3.9l66.88,105.3c2.23,4.04,4.26,8,6.1,11.88c1.84,3.88,3.61,7.77,5.33,11.66
		c0.15-4.26,0.35-8.53,0.61-12.81c0.26-4.28,0.73-8.72,1.42-13.32l23.48-122.72c0.34-2,1.21-3.77,2.6-5.31
		c1.39-1.54,3.2-2.52,5.41-2.95L1452.36,419.47z"/>
</g>
<g>
	<path class="st1" d="M315.92,963.79l12.76-2.46c4.43-0.85,8.08-1.02,10.96-0.5c2.88,0.52,5.67,1.82,8.37,3.91l100.42,72.36
		c2.88,2.39,5.7,3.88,8.48,4.48c2.77,0.6,6.02,0.54,9.75-0.18l28.66-5.53l-114.91-82.65c-2.84-2.17-5.5-3.9-7.98-5.17
		c-2.48-1.28-5.05-2.23-7.71-2.84c2.96-1.59,5.53-3.59,7.73-5.99c2.19-2.41,4.22-5.37,6.08-8.9l78.19-130.4l-29.36,5.66
		c-2.21,0.43-4.08,0.93-5.6,1.5c-1.52,0.57-2.81,1.28-3.85,2.1c-1.05,0.82-1.93,1.73-2.65,2.72c-0.72,0.99-1.38,2.11-1.98,3.35
		l-68.38,109.82c-1.81,3.18-3.94,5.6-6.4,7.26c-2.46,1.66-6.43,3.02-11.9,4.08l-15.38,2.96l-20.71-107.43l-33.73,6.5l45.23,234.67
		l33.73-6.5L315.92,963.79z"/>
	<path class="st1" d="M574.85,951.93c12.93-2.49,24.19-6.76,33.79-12.8c9.59-6.04,17.34-13.48,23.25-22.32
		c5.91-8.84,9.8-18.9,11.67-30.19c1.87-11.29,1.56-23.43-0.95-36.42c-2.53-13.1-6.75-24.52-12.67-34.24
		c-5.93-9.73-13.27-17.6-22.04-23.61c-8.77-6.01-18.73-10.01-29.87-11.99c-11.14-1.98-23.17-1.73-36.11,0.76
		c-13.05,2.52-24.41,6.77-34.07,12.77c-9.66,5.99-17.45,13.41-23.36,22.25c-5.91,8.84-9.81,18.87-11.69,30.11
		c-1.88,11.23-1.56,23.4,0.96,36.5c2.5,12.99,6.72,24.38,12.66,34.16c5.93,9.78,13.29,17.68,22.06,23.69
		c8.77,6.01,18.76,10.03,29.97,12.06C549.67,954.68,561.8,954.44,574.85,951.93z M546.31,803.88c17.48-3.37,31.58-0.4,42.32,8.91
		c10.74,9.31,18,23.79,21.79,43.44c3.81,19.76,2.46,35.98-4.03,48.67c-6.5,12.69-18.49,20.72-35.96,24.09
		c-8.86,1.71-16.85,1.77-23.98,0.21c-7.13-1.57-13.4-4.61-18.8-9.12c-5.4-4.51-9.93-10.46-13.59-17.85
		c-3.66-7.39-6.44-16-8.33-25.82c-3.79-19.65-2.4-35.8,4.17-48.45C516.46,815.33,528.6,807.3,546.31,803.88z"/>
	<path class="st1" d="M744.59,994.62l-46.5-241.22l-31.11,6l46.5,241.22L744.59,994.62z"/>
	<path class="st1" d="M855.54,897.82c12.93-2.49,24.19-6.76,33.79-12.8c9.59-6.04,17.34-13.48,23.25-22.32
		c5.91-8.84,9.8-18.9,11.67-30.19c1.87-11.29,1.56-23.43-0.95-36.42c-2.53-13.1-6.75-24.52-12.67-34.24
		c-5.92-9.73-13.27-17.6-22.04-23.61c-8.77-6.01-18.73-10.01-29.86-11.99c-11.14-1.98-23.18-1.73-36.11,0.76
		c-13.05,2.52-24.41,6.77-34.07,12.77c-9.66,5.99-17.45,13.41-23.36,22.25c-5.91,8.84-9.81,18.87-11.69,30.11
		c-1.88,11.23-1.56,23.4,0.96,36.5c2.5,12.99,6.72,24.38,12.66,34.16c5.93,9.78,13.29,17.68,22.06,23.69
		c8.77,6.01,18.76,10.03,29.97,12.06C830.36,900.58,842.49,900.34,855.54,897.82z M827.01,749.78c17.48-3.37,31.58-0.4,42.32,8.91
		c10.74,9.31,18,23.79,21.79,43.44c3.81,19.76,2.46,35.98-4.03,48.67c-6.5,12.69-18.49,20.72-35.96,24.09
		c-8.86,1.71-16.85,1.77-23.98,0.21c-7.13-1.57-13.4-4.61-18.8-9.12c-5.4-4.51-9.93-10.46-13.59-17.85
		c-3.66-7.39-6.44-16-8.33-25.82c-3.79-19.65-2.4-35.8,4.17-48.45C797.15,761.22,809.29,753.19,827.01,749.78z"/>
	<path class="st1" d="M1005.28,841.45c9.01,6.64,18.67,11.46,28.98,14.46c10.3,3,21.58,3.31,33.81,0.96
		c10.37-2,19.36-5.66,26.98-10.98c7.61-5.32,13.66-12.06,18.13-20.22c4.47-8.16,7.28-17.57,8.43-28.21
		c1.15-10.64,0.52-22.24-1.9-34.79c-2.59-13.43-6.69-25.32-12.31-35.67c-5.62-10.35-12.48-18.8-20.56-25.34
		c-8.09-6.54-17.27-11.05-27.54-13.55c-10.27-2.49-21.29-2.61-33.06-0.34c-11.65,2.25-21.08,6.19-28.27,11.82
		c-7.19,5.63-13.03,12.79-17.52,21.47l-4.48-14.76c-1.73-3.97-4.81-5.53-9.24-4.67l-20.1,3.87l46.5,241.22l31.29-6.03
		L1005.28,841.45z M985.61,739.42c4.32-8.31,9.61-14.59,15.85-18.85c6.25-4.26,13.45-7.18,21.61-8.75
		c16.66-3.21,30.48-0.16,41.47,9.16c10.98,9.32,18.57,24.9,22.78,46.73c3.91,20.31,2.86,35.99-3.16,47.06
		c-6.02,11.07-16.32,18.01-30.88,20.81c-10.14,1.95-19.39,1.47-27.74-1.45c-8.36-2.92-16.51-7.75-24.45-14.48L985.61,739.42z"/>
	<path class="st1" d="M1249.49,821.89c12.93-2.49,24.19-6.76,33.79-12.8c9.59-6.04,17.34-13.48,23.25-22.32
		c5.91-8.84,9.8-18.9,11.67-30.19c1.87-11.29,1.56-23.43-0.95-36.42c-2.53-13.1-6.75-24.52-12.67-34.24
		c-5.92-9.73-13.27-17.6-22.04-23.61c-8.77-6.01-18.73-10.01-29.87-11.99c-11.14-1.98-23.17-1.73-36.11,0.76
		c-13.05,2.52-24.41,6.77-34.07,12.77c-9.66,5.99-17.45,13.41-23.36,22.25c-5.91,8.84-9.81,18.87-11.69,30.11
		c-1.89,11.23-1.56,23.4,0.96,36.5c2.5,12.99,6.72,24.38,12.66,34.16c5.93,9.78,13.29,17.68,22.06,23.69
		c8.77,6.01,18.76,10.03,29.97,12.06C1224.31,824.65,1236.44,824.41,1249.49,821.89z M1220.96,673.85
		c17.48-3.37,31.58-0.4,42.32,8.91c10.74,9.31,18,23.79,21.79,43.44c3.81,19.76,2.46,35.98-4.03,48.67
		c-6.5,12.69-18.48,20.72-35.96,24.09c-8.86,1.71-16.85,1.77-23.98,0.21c-7.13-1.57-13.4-4.61-18.8-9.12
		c-5.4-4.51-9.93-10.46-13.59-17.85c-3.66-7.39-6.44-16-8.33-25.82c-3.79-19.65-2.4-35.8,4.17-48.45
		C1191.11,685.29,1203.25,677.26,1220.96,673.85z"/>
	<path class="st1" d="M1519.38,767.15l-104.16-151.98l-27.96,5.39l-40.21,179.81l25.34-4.89c2.56-0.49,4.54-1.5,5.94-3.01
		c1.4-1.52,2.23-3.15,2.5-4.9l24.34-115.43c0.62-4.31,1.09-8.48,1.4-12.5c0.31-4.03,0.56-8.04,0.76-12.04
		c1.67,3.64,3.4,7.27,5.18,10.89c1.78,3.62,3.82,7.3,6.12,11.05l66.02,98.02c1.04,1.61,2.48,2.83,4.33,3.67
		c1.85,0.83,3.88,1.03,6.1,0.61L1519.38,767.15z"/>
</g>
<linearGradient id="SVGID_1_" gradientUnits="userSpaceOnUse" x1="838.377" y1="632.8875" x2="830.9674" y2="1109.7234" gradientTransform="matrix(1.0578 -0.2039 0.1779 0.9228 -172.2624 21.1441)">
	<stop  offset="0" style="stop-color:#000000;stop-opacity:0"/>
	<stop  offset="1" style="stop-color:#000000"/>
</linearGradient>
<polygon class="st2" points="249.48,1239.36 174.53,850.52 1570.83,581.39 1645.78,970.23 "/>
</svg>
