<?xml version="1.0" encoding="UTF-8" standalone="no"?>
<svg
   xmlns:dc="http://purl.org/dc/elements/1.1/"
   xmlns:cc="http://creativecommons.org/ns#"
   xmlns:rdf="http://www.w3.org/1999/02/22-rdf-syntax-ns#"
   xmlns:svg="http://www.w3.org/2000/svg"
   xmlns="http://www.w3.org/2000/svg"
   xmlns:xlink="http://www.w3.org/1999/xlink"
   xmlns:sodipodi="http://sodipodi.sourceforge.net/DTD/sodipodi-0.dtd"
   xmlns:inkscape="http://www.inkscape.org/namespaces/inkscape"
   version="1.1"
   id="Layer_1"
   x="0px"
   y="0px"
   viewBox="0 0 547 400"
   style="enable-background:new 0 0 547 400;"
   xml:space="preserve"
   sodipodi:docname="6.svg"
   inkscape:version="1.0.1 (c497b03c, 2020-09-10)"><metadata
   id="metadata4252"><rdf:RDF><cc:Work
       rdf:about=""><dc:format>image/svg+xml</dc:format><dc:type
         rdf:resource="http://purl.org/dc/dcmitype/StillImage" /></cc:Work></rdf:RDF></metadata><defs
   id="defs4250" /><sodipodi:namedview
   pagecolor="#ffffff"
   bordercolor="#666666"
   borderopacity="1"
   objecttolerance="10"
   gridtolerance="10"
   guidetolerance="10"
   inkscape:pageopacity="0"
   inkscape:pageshadow="2"
   inkscape:window-width="1820"
   inkscape:window-height="1123"
   id="namedview4248"
   showgrid="false"
   inkscape:zoom="2.3820841"
   inkscape:cx="273.5"
   inkscape:cy="200"
   inkscape:window-x="0"
   inkscape:window-y="25"
   inkscape:window-maximized="0"
   inkscape:current-layer="g4231" />
<style
   type="text/css"
   id="style4108">
	.st0{fill:#B6DED9;}
	.st1{fill:none;stroke:#88B3AE;stroke-miterlimit:10;}
	.st2{fill:none;stroke:#4A827E;stroke-width:4;stroke-miterlimit:10;}
	.st3{fill:#88B3AE;stroke:#4A827E;stroke-miterlimit:10;}
	.st4{fill:#88B3AE;}
	.st5{fill:#678581;}
	.st6{fill:none;}
</style>
<rect
   class="st0"
   width="553"
   height="400"
   id="rect4110" />
<path
   class="st1"
   d="M496.19,53.76c0.58,10.25-22.34,16.12-21.44,26.36c0.18,2.04,1.36,3.99,2.81,5.8  c7.18,8.96,21.72,16.56,20.05,26.63c-0.97,5.86-7.39,10.58-12.75,15.31s-10.08,10.75-7.09,16.31c3.28,6.09,14.36,8.9,18.94,14.61  c4.56,5.7,1.47,12.82-3.68,18.3c-5.15,5.48-12.22,10.18-16.45,15.99s-4.82,13.55,2.25,18.02c2.1,1.33,4.7,2.25,7.03,3.41  c10.58,5.24,14.37,15.61,8.57,23.44c-6.74,9.11-24.63,15.35-23.11,25.43c0.96,6.37,9.58,10.83,16.99,14.97  c7.41,4.15,14.88,10.02,12.46,16.21c-2.92,7.48-17.92,9.86-23.87,16.51c-5.16,5.76-2.18,13.25,3.05,18.99s12.55,10.64,16.75,16.73"
   id="path4112" />
<path
   class="st1"
   d="M496.19,342.18c0.58-10.16-22.34-15.98-21.44-26.12c0.18-2.02,1.36-3.96,2.81-5.75  c7.18-8.88,21.72-16.42,20.05-26.39c-0.97-5.81-7.39-10.48-12.75-15.17c-5.36-4.69-10.08-10.65-7.09-16.16  c3.28-6.04,14.36-8.82,18.94-14.48c4.56-5.65,1.47-12.7-3.68-18.14c-5.15-5.44-12.22-10.09-16.45-15.85s-4.82-13.43,2.25-17.86  c2.1-1.32,4.7-2.23,7.03-3.38c10.58-5.2,14.37-15.47,8.57-23.24c-6.74-9.03-24.63-15.21-23.11-25.2  c0.96-6.31,9.58-10.73,16.99-14.84c7.41-4.11,14.88-9.93,12.46-16.07c-2.92-7.41-17.92-9.77-23.87-16.36  c-5.16-5.71-2.18-13.14,3.05-18.82s12.55-10.55,16.75-16.58"
   id="path4114" />
<path
   class="st1"
   d="M493.36,334.11c0.33-9.88-12.77-15.53-12.25-25.4c0.1-1.97,0.78-3.85,1.61-5.59  c4.1-8.63,12.41-15.96,11.46-25.66c-0.56-5.65-4.23-10.19-7.29-14.75c-3.06-4.56-5.76-10.36-4.05-15.71  c1.87-5.87,8.21-8.57,10.82-14.08c2.61-5.49,0.84-12.35-2.1-17.63c-2.94-5.28-6.99-9.81-9.4-15.41c-2.42-5.6-2.75-13.06,1.29-17.36  c1.2-1.28,2.69-2.17,4.02-3.28c6.05-5.05,8.21-15.04,4.9-22.59c-3.85-8.77-14.07-14.79-13.21-24.5c0.55-6.13,5.47-10.43,9.71-14.43  s8.5-9.65,7.12-15.62c-1.67-7.21-10.24-9.5-13.65-15.91c-2.95-5.55-1.25-12.77,1.74-18.3c2.99-5.52,7.17-10.25,9.57-16.12"
   id="path4116" />
<path
   class="st1"
   d="M495.14,53.76c0.37,10.22-14.36,16.07-13.78,26.27c0.12,2.04,0.87,3.98,1.81,5.78  c4.62,8.93,13.96,16.51,12.89,26.54c-0.62,5.84-4.75,10.54-8.2,15.26c-3.44,4.71-6.48,10.72-4.56,16.26  c2.11,6.07,9.23,8.87,12.17,14.57c2.93,5.68,0.95,12.78-2.36,18.24c-3.31,5.47-7.86,10.14-10.57,15.94s-3.1,13.51,1.45,17.96  c1.35,1.32,3.02,2.25,4.52,3.39c6.8,5.23,9.24,15.56,5.51,23.37c-4.34,9.08-15.83,15.3-14.85,25.35  c0.62,6.35,6.16,10.79,10.92,14.92c4.76,4.13,9.56,9.99,8.01,16.16c-1.88,7.46-11.52,9.82-15.35,16.46  c-3.32,5.74-1.4,13.21,1.96,18.93s8.07,10.61,10.77,16.68"
   id="path4118" />
<g
   id="g4124">
	<path
   class="st1"
   d="M538.89,96.42c-6.83,2.28-13.67,4.56-20.5,6.85c-6.88,2.3-14.2,4.92-18.65,11.11   c-1.16,1.62-1.89,4.42-0.24,5.41c0.97,0.58,2.16,0.09,3.18-0.38c9.26-4.22,19.54-5.72,29.48-4.29c3.23,0.46,7.33,2.65,6.58,6.13   c-0.63,2.9-4.09,3.53-6.81,3.48c-6.37-0.14-12.77-0.76-19.08,0.22c-6.3,0.98-12.66,3.8-16.6,9.29c6.72,1.59,13.55-1.41,20.37-2.38   c7.2-1.03,14.66,0.26,21.21,3.67c1.12,0.58,2.31,1.34,2.74,2.62c0.96,2.91-2.56,5.1-5.36,5.5c-6.47,0.93-13.03-0.19-19.55-0.06   c-6.52,0.13-13.5,1.81-17.9,7.09c12.36,1.34,24.69-5.08,36.99-3.2c2.86,0.44,6.41,2.65,5.55,5.67c-0.61,2.13-3.01,2.8-5.03,3.11   c-7.59,1.16-15.21,2.06-22.85,2.7c-2.5,0.21-5.08,0.41-7.34,1.62s-4.15,3.69-4.01,6.43c7.65-2.07,15.3-4.14,22.95-6.22   c3.38-0.92,7-1.82,10.27-0.52c3.27,1.3,5.72,5.77,3.92,9.04c-6.46,1.64-13.17,1.57-19.74,2.56c-6.57,1-13.34,3.3-17.83,8.64   c1.01,2.62,4.35,2.63,6.92,2.2c8.27-1.38,16.54-2.75,24.81-4.13c2.09-0.35,4.31-0.68,6.26,0.23c1.95,0.91,3.38,3.55,2.51,5.82   c-4.95,4.37-11.85,4.75-18.2,4.32c-6.34-0.43-12.89-1.46-18.92,0.73c-2.51,0.91-5.16,2.9-5.21,5.8c-0.04,2.52,2.06,4.59,4.29,5.17   s4.58,0.03,6.82-0.51c6.01-1.47,12.03-2.93,18.07-4.23c4.89-1.05,11.34-1.14,13.27,3.89c1.73,4.51-2.17,9.58-6.51,10.73   c-4.33,1.15-8.84-0.25-13.26-0.93c-5.3-0.81-10.74-0.55-15.96,0.76c-1.78,0.45-3.72,1.17-4.56,2.94c-1.17,2.47,0.61,5.63,2.97,6.64   c2.36,1.02,5.02,0.52,7.51,0c4.99-1.03,9.97-2.05,14.96-3.08c3.4-0.7,7.09-1.36,10.19,0.31c3.11,1.68,4.81,6.76,2.29,9.36   c-2.37,2.43-6.15,1-9.25-0.06c-9.18-3.13-19.64-1.36-27.53,4.66c-1.05,0.8-2.17,2.13-1.63,3.4c0.34,0.81,1.23,1.15,2.03,1.33   c5.69,1.27,11.47-1.02,17.22-1.89c5.57-0.84,11.31-0.34,16.69,1.46c1.44,0.48,3,1.21,3.56,2.74c0.67,1.84-0.56,3.98-2.18,4.86   c-1.62,0.88-3.51,0.85-5.33,0.89c-10.67,0.23-21.26,3.56-30.42,9.57c-1.42,0.93-3,2.75-2.11,4.27c7.92-0.1,15.13-4.62,22.61-7.48   c7.48-2.86,16.74-3.68,22.43,2.36c-6.43,9.75-17.98,15.11-28.84,13.41c-3.77-0.59-7.67-1.95-11.28-0.62   c-3.61,1.33-5.95,7.12-2.95,9.69c1.09,0.94,2.56,1.15,3.94,1.19c7.14,0.24,13.97-2.94,20.46-6.21c2.56-1.29,5.25-2.63,8.06-2.42   s5.7,2.6,5.61,5.69c-0.09,3.26-3.21,5.35-6.06,6.27c-11.36,3.66-25.16-0.96-34.37,7.2c0.71,2.63,3.58,3.63,6.05,4.04   c11.85,1.96,23.9-0.48,35.67-2.9c0.4,2.78-2.71,4.4-5.2,5.08c-11.94,3.24-24.52,6.48-36.39,2.95"
   id="path4120" />
	<path
   class="st1"
   d="M538.89,86.42c-6.83,2.28-13.67,4.56-20.5,6.85c-6.88,2.3-14.2,4.92-18.65,11.11   c-1.16,1.62-1.89,4.42-0.24,5.41c0.97,0.58,2.16,0.09,3.18-0.38c9.26-4.22,19.54-5.72,29.48-4.29c3.23,0.46,7.33,2.65,6.58,6.13   c-0.63,2.9-4.09,3.53-6.81,3.48c-6.37-0.14-12.77-0.76-19.08,0.22c-6.3,0.98-12.66,3.8-16.6,9.29c6.72,1.59,13.55-1.41,20.37-2.38   c7.2-1.03,14.66,0.26,21.21,3.67c1.12,0.58,2.31,1.34,2.74,2.62c0.96,2.91-2.56,5.1-5.36,5.5c-6.47,0.93-13.03-0.19-19.55-0.06   c-6.52,0.13-13.5,1.81-17.9,7.09c12.36,1.34,24.69-5.08,36.99-3.2c2.86,0.44,6.41,2.65,5.55,5.67c-0.61,2.13-3.01,2.8-5.03,3.11   c-7.59,1.16-15.21,2.06-22.85,2.7c-2.5,0.21-5.08,0.41-7.34,1.62s-4.15,3.69-4.01,6.43c7.65-2.07,15.3-4.14,22.95-6.22   c3.38-0.92,7-1.82,10.27-0.52c3.27,1.3,5.72,5.77,3.92,9.04c-6.46,1.64-13.17,1.57-19.74,2.56c-6.57,1-13.34,3.3-17.83,8.64   c1.01,2.62,4.35,2.63,6.92,2.2c8.27-1.38,16.54-2.75,24.81-4.13c2.09-0.35,4.31-0.68,6.26,0.23c1.95,0.91,3.38,3.55,2.51,5.82   c-4.95,4.37-11.85,4.75-18.2,4.32c-6.34-0.43-12.89-1.46-18.92,0.73c-2.51,0.91-5.16,2.9-5.21,5.8c-0.04,2.52,2.06,4.59,4.29,5.17   s4.58,0.03,6.82-0.51c6.01-1.47,12.03-2.93,18.07-4.23c4.89-1.05,11.34-1.14,13.27,3.89c1.73,4.51-2.17,9.58-6.51,10.73   c-4.33,1.15-8.84-0.25-13.26-0.93c-5.3-0.81-10.74-0.55-15.96,0.76c-1.78,0.45-3.72,1.17-4.56,2.94c-1.17,2.47,0.61,5.63,2.97,6.64   c2.36,1.02,5.02,0.52,7.51,0c4.99-1.03,9.97-2.05,14.96-3.08c3.4-0.7,7.09-1.36,10.19,0.31c3.11,1.68,4.81,6.76,2.29,9.36   c-2.37,2.43-6.15,1-9.25-0.06c-9.18-3.13-19.64-1.36-27.53,4.66c-1.05,0.8-2.17,2.13-1.63,3.4c0.34,0.81,1.23,1.15,2.03,1.33   c5.69,1.27,11.47-1.02,17.22-1.89c5.57-0.84,11.31-0.34,16.69,1.46c1.44,0.48,3,1.21,3.56,2.74c0.67,1.84-0.56,3.98-2.18,4.86   c-1.62,0.88-3.51,0.85-5.33,0.89c-10.67,0.23-21.26,3.56-30.42,9.57c-1.42,0.93-3,2.75-2.11,4.27c7.92-0.1,15.13-4.62,22.61-7.48   c7.48-2.86,16.74-3.68,22.43,2.36c-6.43,9.75-17.98,15.11-28.84,13.41c-3.77-0.59-7.67-1.95-11.28-0.62   c-3.61,1.33-5.95,7.12-2.95,9.69c1.09,0.94,2.56,1.15,3.94,1.19c7.14,0.24,13.97-2.94,20.46-6.21c2.56-1.29,5.25-2.63,8.06-2.42   s5.7,2.6,5.61,5.69c-0.09,3.26-3.21,5.35-6.06,6.27c-11.36,3.66-25.16-0.96-34.37,7.2c0.71,2.63,3.58,3.63,6.05,4.04   c11.85,1.96,23.9-0.48,35.67-2.9c0.4,2.78-2.71,4.4-5.2,5.08c-11.94,3.24-24.52,6.48-36.39,2.95"
   id="path4122" />
</g>
<g
   id="g4130">
	<path
   class="st1"
   d="M50.89,101.42c-6.83,2.28-13.67,4.56-20.5,6.85c-6.88,2.3-14.2,4.92-18.65,11.11   c-1.16,1.62-1.89,4.42-0.24,5.41c0.97,0.58,2.16,0.09,3.18-0.38c9.26-4.22,19.54-5.72,29.48-4.29c3.23,0.46,7.33,2.65,6.58,6.13   c-0.63,2.9-4.09,3.53-6.81,3.48c-6.37-0.14-12.77-0.76-19.08,0.22s-12.66,3.8-16.6,9.29c6.72,1.59,13.55-1.41,20.37-2.38   c7.2-1.03,14.66,0.26,21.21,3.67c1.12,0.58,2.31,1.34,2.74,2.62c0.96,2.91-2.56,5.1-5.36,5.5c-6.47,0.93-13.03-0.19-19.55-0.06   c-6.52,0.13-13.5,1.81-17.9,7.09c12.36,1.34,24.69-5.08,36.99-3.2c2.86,0.44,6.41,2.65,5.55,5.67c-0.61,2.13-3.01,2.8-5.03,3.11   c-7.59,1.16-15.21,2.06-22.85,2.7c-2.5,0.21-5.08,0.41-7.34,1.62s-4.15,3.69-4.01,6.43c7.65-2.07,15.3-4.14,22.95-6.22   c3.38-0.92,7-1.82,10.27-0.52c3.27,1.3,5.72,5.77,3.92,9.04c-6.46,1.64-13.17,1.57-19.74,2.56c-6.57,1-13.34,3.3-17.83,8.64   c1.01,2.62,4.35,2.63,6.92,2.2c8.27-1.38,16.54-2.75,24.81-4.13c2.09-0.35,4.31-0.68,6.26,0.23c1.95,0.91,3.38,3.55,2.51,5.82   c-4.95,4.37-11.85,4.75-18.2,4.32c-6.34-0.43-12.89-1.46-18.92,0.73c-2.51,0.91-5.16,2.9-5.21,5.8c-0.04,2.52,2.06,4.59,4.29,5.17   s4.58,0.03,6.82-0.51c6.01-1.47,12.03-2.93,18.07-4.23c4.89-1.05,11.34-1.14,13.27,3.89c1.73,4.51-2.17,9.58-6.51,10.73   c-4.33,1.15-8.84-0.25-13.26-0.93c-5.3-0.81-10.74-0.55-15.96,0.76c-1.78,0.45-3.72,1.17-4.56,2.94c-1.17,2.47,0.61,5.63,2.97,6.64   s5.02,0.52,7.51,0c4.99-1.03,9.97-2.05,14.96-3.08c3.4-0.7,7.09-1.36,10.19,0.31c3.11,1.68,4.81,6.76,2.29,9.36   c-2.37,2.43-6.15,1-9.25-0.06c-9.18-3.13-19.64-1.36-27.53,4.66c-1.05,0.8-2.17,2.13-1.63,3.4c0.34,0.81,1.23,1.15,2.03,1.33   c5.69,1.27,11.47-1.02,17.22-1.89c5.57-0.84,11.31-0.34,16.69,1.46c1.44,0.48,3,1.21,3.56,2.74c0.67,1.84-0.56,3.98-2.18,4.86   c-1.62,0.88-3.51,0.85-5.33,0.89c-10.67,0.23-21.26,3.56-30.42,9.57c-1.42,0.93-3,2.75-2.11,4.27c7.92-0.1,15.13-4.62,22.61-7.48   c7.48-2.86,16.74-3.68,22.43,2.36c-6.43,9.75-17.98,15.11-28.84,13.41c-3.77-0.59-7.67-1.95-11.28-0.62   c-3.61,1.33-5.95,7.12-2.95,9.69c1.09,0.94,2.56,1.15,3.94,1.19c7.14,0.24,13.97-2.94,20.46-6.21c2.56-1.29,5.25-2.63,8.06-2.42   s5.7,2.6,5.61,5.69c-0.09,3.26-3.21,5.35-6.06,6.27c-11.36,3.66-25.16-0.96-34.37,7.2c0.71,2.63,3.58,3.63,6.05,4.04   c11.85,1.96,23.9-0.48,35.67-2.9c0.4,2.78-2.71,4.4-5.2,5.08c-11.94,3.24-24.52,6.48-36.39,2.95"
   id="path4126" />
	<path
   class="st1"
   d="M50.89,91.42c-6.83,2.28-13.67,4.56-20.5,6.85c-6.88,2.3-14.2,4.92-18.65,11.11   c-1.16,1.62-1.89,4.42-0.24,5.41c0.97,0.58,2.16,0.09,3.18-0.38c9.26-4.22,19.54-5.72,29.48-4.29c3.23,0.46,7.33,2.65,6.58,6.13   c-0.63,2.9-4.09,3.53-6.81,3.48c-6.37-0.14-12.77-0.76-19.08,0.22c-6.3,0.98-12.66,3.8-16.6,9.29c6.72,1.59,13.55-1.41,20.37-2.38   c7.2-1.03,14.66,0.26,21.21,3.67c1.12,0.58,2.31,1.34,2.74,2.62c0.96,2.91-2.56,5.1-5.36,5.5c-6.47,0.93-13.03-0.19-19.55-0.06   c-6.52,0.13-13.5,1.81-17.9,7.09c12.36,1.34,24.69-5.08,36.99-3.2c2.86,0.44,6.41,2.65,5.55,5.67c-0.61,2.13-3.01,2.8-5.03,3.11   c-7.59,1.16-15.21,2.06-22.85,2.7c-2.5,0.21-5.08,0.41-7.34,1.62s-4.15,3.69-4.01,6.43c7.65-2.07,15.3-4.14,22.95-6.22   c3.38-0.92,7-1.82,10.27-0.52c3.27,1.3,5.72,5.77,3.92,9.04c-6.46,1.64-13.17,1.57-19.74,2.56c-6.57,1-13.34,3.3-17.83,8.64   c1.01,2.62,4.35,2.63,6.92,2.2c8.27-1.38,16.54-2.75,24.81-4.13c2.09-0.35,4.31-0.68,6.26,0.23c1.95,0.91,3.38,3.55,2.51,5.82   c-4.95,4.37-11.85,4.75-18.2,4.32c-6.34-0.43-12.89-1.46-18.92,0.73c-2.51,0.91-5.16,2.9-5.21,5.8c-0.04,2.52,2.06,4.59,4.29,5.17   s4.58,0.03,6.82-0.51c6.01-1.47,12.03-2.93,18.07-4.23c4.89-1.05,11.34-1.14,13.27,3.89c1.73,4.51-2.17,9.58-6.51,10.73   c-4.33,1.15-8.84-0.25-13.26-0.93c-5.3-0.81-10.74-0.55-15.96,0.76c-1.78,0.45-3.72,1.17-4.56,2.94c-1.17,2.47,0.61,5.63,2.97,6.64   s5.02,0.52,7.51,0c4.99-1.03,9.97-2.05,14.96-3.08c3.4-0.7,7.09-1.36,10.19,0.31c3.11,1.68,4.81,6.76,2.29,9.36   c-2.37,2.43-6.15,1-9.25-0.06c-9.18-3.13-19.64-1.36-27.53,4.66c-1.05,0.8-2.17,2.13-1.63,3.4c0.34,0.81,1.23,1.15,2.03,1.33   c5.69,1.27,11.47-1.02,17.22-1.89c5.57-0.84,11.31-0.34,16.69,1.46c1.44,0.48,3,1.21,3.56,2.74c0.67,1.84-0.56,3.98-2.18,4.86   c-1.62,0.88-3.51,0.85-5.33,0.89c-10.67,0.23-21.26,3.56-30.42,9.57c-1.42,0.93-3,2.75-2.11,4.27c7.92-0.1,15.13-4.62,22.61-7.48   c7.48-2.86,16.74-3.68,22.43,2.36c-6.43,9.75-17.98,15.11-28.84,13.41c-3.77-0.59-7.67-1.95-11.28-0.62   c-3.61,1.33-5.95,7.12-2.95,9.69c1.09,0.94,2.56,1.15,3.94,1.19c7.14,0.24,13.97-2.94,20.46-6.21c2.56-1.29,5.25-2.63,8.06-2.42   s5.7,2.6,5.61,5.69c-0.09,3.26-3.21,5.35-6.06,6.27c-11.36,3.66-25.16-0.96-34.37,7.2c0.71,2.63,3.58,3.63,6.05,4.04   c11.85,1.96,23.9-0.48,35.67-2.9c0.4,2.78-2.71,4.4-5.2,5.08c-11.94,3.24-24.52,6.48-36.39,2.95"
   id="path4128" />
</g>
<g
   id="g4136">
	<path
   class="st1"
   d="M99.14,13.68c2.28,6.83,4.56,13.67,6.85,20.5c2.3,6.88,4.92,14.2,11.11,18.65c1.62,1.16,4.42,1.89,5.41,0.24   c0.58-0.97,0.09-2.16-0.38-3.18c-4.22-9.26-5.72-19.54-4.29-29.48c0.46-3.23,2.65-7.33,6.13-6.58c2.9,0.63,3.53,4.09,3.48,6.81   c-0.14,6.37-0.76,12.77,0.22,19.08c0.98,6.3,3.8,12.66,9.29,16.6c1.59-6.72-1.41-13.55-2.38-20.37c-1.03-7.2,0.26-14.66,3.67-21.21   c0.58-1.12,1.34-2.31,2.62-2.74c2.91-0.96,5.1,2.56,5.5,5.36c0.93,6.47-0.19,13.03-0.06,19.55c0.13,6.52,1.81,13.5,7.09,17.9   c1.34-12.36-5.08-24.69-3.2-36.99c0.44-2.86,2.65-6.41,5.67-5.55c2.13,0.61,2.8,3.01,3.11,5.03c1.16,7.59,2.06,15.21,2.7,22.85   c0.21,2.5,0.41,5.08,1.62,7.34c1.21,2.26,3.69,4.15,6.43,4.01c-2.07-7.65-4.14-15.3-6.22-22.95c-0.92-3.38-1.82-7-0.52-10.27   c1.3-3.27,5.77-5.72,9.04-3.92c1.64,6.46,1.57,13.17,2.56,19.74s3.3,13.34,8.64,17.83c2.62-1.01,2.63-4.35,2.2-6.92   c-1.38-8.27-2.75-16.54-4.13-24.81c-0.35-2.09-0.68-4.31,0.23-6.26c0.91-1.95,3.55-3.38,5.82-2.51c4.37,4.95,4.75,11.85,4.32,18.2   c-0.43,6.34-1.46,12.89,0.73,18.92c0.91,2.51,2.9,5.16,5.8,5.21c2.52,0.04,4.59-2.06,5.17-4.29c0.58-2.24,0.03-4.58-0.51-6.82   c-1.47-6.01-2.93-12.03-4.23-18.07c-1.05-4.89-1.14-11.34,3.89-13.27c4.51-1.73,9.58,2.17,10.73,6.51s-0.25,8.84-0.93,13.26   c-0.81,5.3-0.55,10.74,0.76,15.96c0.45,1.78,1.17,3.72,2.94,4.56c2.47,1.17,5.63-0.61,6.64-2.97s0.52-5.02,0-7.51   c-1.03-4.99-2.05-9.97-3.08-14.96c-0.7-3.4-1.36-7.09,0.31-10.19c1.68-3.11,6.76-4.81,9.36-2.29c2.43,2.37,1,6.15-0.06,9.25   c-3.13,9.18-1.36,19.64,4.66,27.53c0.8,1.05,2.13,2.17,3.4,1.63c0.81-0.34,1.15-1.23,1.33-2.03c1.27-5.69-1.02-11.47-1.89-17.22   c-0.84-5.57-0.34-11.31,1.46-16.69c0.48-1.44,1.21-3,2.74-3.56c1.84-0.67,3.98,0.56,4.86,2.18c0.88,1.62,0.85,3.51,0.89,5.33   c0.23,10.67,3.56,21.26,9.57,30.42c0.93,1.42,2.75,3,4.27,2.11c-0.1-7.92-4.62-15.13-7.48-22.61c-2.86-7.48-3.68-16.74,2.36-22.43   c9.75,6.43,15.11,17.98,13.41,28.84c-0.59,3.77-1.95,7.67-0.62,11.28s7.12,5.95,9.69,2.95c0.94-1.09,1.15-2.56,1.19-3.94   c0.24-7.14-2.94-13.97-6.21-20.46c-1.29-2.56-2.63-5.25-2.42-8.06c0.21-2.81,2.6-5.7,5.69-5.61c3.26,0.09,5.35,3.21,6.27,6.06   c3.66,11.36-0.96,25.16,7.2,34.37c2.63-0.71,3.63-3.58,4.04-6.05c1.96-11.85-0.48-23.9-2.9-35.67c2.78-0.4,4.4,2.71,5.08,5.2   c3.24,11.94,6.48,24.52,2.95,36.39"
   id="path4132" />
	<path
   class="st1"
   d="M89.14,13.68c2.28,6.83,4.56,13.67,6.85,20.5c2.3,6.88,4.92,14.2,11.11,18.65c1.62,1.16,4.42,1.89,5.41,0.24   c0.58-0.97,0.09-2.16-0.38-3.18c-4.22-9.26-5.72-19.54-4.29-29.48c0.46-3.23,2.65-7.33,6.13-6.58c2.9,0.63,3.53,4.09,3.48,6.81   c-0.14,6.37-0.76,12.77,0.22,19.08c0.98,6.3,3.8,12.66,9.29,16.6c1.59-6.72-1.41-13.55-2.38-20.37c-1.03-7.2,0.26-14.66,3.67-21.21   c0.58-1.12,1.34-2.31,2.62-2.74c2.91-0.96,5.1,2.56,5.5,5.36c0.93,6.47-0.19,13.03-0.06,19.55c0.13,6.52,1.81,13.5,7.09,17.9   c1.34-12.36-5.08-24.69-3.2-36.99c0.44-2.86,2.65-6.41,5.67-5.55c2.13,0.61,2.8,3.01,3.11,5.03c1.16,7.59,2.06,15.21,2.7,22.85   c0.21,2.5,0.41,5.08,1.62,7.34c1.21,2.26,3.69,4.15,6.43,4.01c-2.07-7.65-4.14-15.3-6.22-22.95c-0.92-3.38-1.82-7-0.52-10.27   c1.3-3.27,5.77-5.72,9.04-3.92c1.64,6.46,1.57,13.17,2.56,19.74s3.3,13.34,8.64,17.83c2.62-1.01,2.63-4.35,2.2-6.92   c-1.38-8.27-2.75-16.54-4.13-24.81c-0.35-2.09-0.68-4.31,0.23-6.26c0.91-1.95,3.55-3.38,5.82-2.51c4.37,4.95,4.75,11.85,4.32,18.2   c-0.43,6.34-1.46,12.89,0.73,18.92c0.91,2.51,2.9,5.16,5.8,5.21c2.52,0.04,4.59-2.06,5.17-4.29c0.58-2.24,0.03-4.58-0.51-6.82   c-1.47-6.01-2.93-12.03-4.23-18.07c-1.05-4.89-1.14-11.34,3.89-13.27c4.51-1.73,9.58,2.17,10.73,6.51s-0.25,8.84-0.93,13.26   c-0.81,5.3-0.55,10.74,0.76,15.96c0.45,1.78,1.17,3.72,2.94,4.56c2.47,1.17,5.63-0.61,6.64-2.97s0.52-5.02,0-7.51   c-1.03-4.99-2.05-9.97-3.08-14.96c-0.7-3.4-1.36-7.09,0.31-10.19c1.68-3.11,6.76-4.81,9.36-2.29c2.43,2.37,1,6.15-0.06,9.25   c-3.13,9.18-1.36,19.64,4.66,27.53c0.8,1.05,2.13,2.17,3.4,1.63c0.81-0.34,1.15-1.23,1.33-2.03c1.27-5.69-1.02-11.47-1.89-17.22   c-0.84-5.57-0.34-11.31,1.46-16.69c0.48-1.44,1.21-3,2.74-3.56c1.84-0.67,3.98,0.56,4.86,2.18c0.88,1.62,0.85,3.51,0.89,5.33   c0.23,10.67,3.56,21.26,9.57,30.42c0.93,1.42,2.75,3,4.27,2.11c-0.1-7.92-4.62-15.13-7.48-22.61c-2.86-7.48-3.68-16.74,2.36-22.43   c9.75,6.43,15.11,17.98,13.41,28.84c-0.59,3.77-1.95,7.67-0.62,11.28s7.12,5.95,9.69,2.95c0.94-1.09,1.15-2.56,1.19-3.94   c0.24-7.14-2.94-13.97-6.21-20.46c-1.29-2.56-2.63-5.25-2.42-8.06c0.21-2.81,2.6-5.7,5.69-5.61c3.26,0.09,5.35,3.21,6.27,6.06   c3.66,11.36-0.96,25.16,7.2,34.37c2.63-0.71,3.63-3.58,4.04-6.05c1.96-11.85-0.48-23.9-2.9-35.67c2.78-0.4,4.4,2.71,5.08,5.2   c3.24,11.94,6.48,24.52,2.95,36.39"
   id="path4134" />
</g>
<g
   id="g4142">
	<path
   class="st1"
   d="M248,9.13c2.28,6.83,4.56,13.67,6.85,20.5c2.3,6.88,4.92,14.2,11.11,18.65c1.62,1.16,4.42,1.89,5.41,0.24   c0.58-0.97,0.09-2.16-0.38-3.18c-4.22-9.26-5.72-19.54-4.29-29.48c0.46-3.23,2.65-7.33,6.13-6.58c2.9,0.63,3.53,4.09,3.48,6.81   c-0.14,6.37-0.76,12.77,0.22,19.08c0.98,6.3,3.8,12.66,9.29,16.6c1.59-6.72-1.41-13.55-2.38-20.37c-1.03-7.2,0.26-14.66,3.67-21.21   c0.58-1.12,1.34-2.31,2.62-2.74c2.91-0.96,5.1,2.56,5.5,5.36c0.93,6.47-0.19,13.03-0.06,19.55s1.81,13.5,7.09,17.9   c1.34-12.36-5.08-24.69-3.2-36.99c0.44-2.86,2.65-6.41,5.67-5.55c2.13,0.61,2.8,3.01,3.11,5.03c1.16,7.59,2.06,15.21,2.7,22.85   c0.21,2.5,0.41,5.08,1.62,7.34s3.69,4.15,6.43,4.01c-2.07-7.65-4.14-15.3-6.22-22.95c-0.92-3.38-1.82-7-0.52-10.27   c1.3-3.27,5.77-5.72,9.04-3.92c1.64,6.46,1.57,13.17,2.56,19.74s3.3,13.34,8.64,17.83c2.62-1.01,2.63-4.35,2.2-6.92   c-1.38-8.27-2.75-16.54-4.13-24.81c-0.35-2.09-0.68-4.31,0.23-6.26s3.55-3.38,5.82-2.51c4.37,4.95,4.75,11.85,4.32,18.2   s-1.46,12.89,0.73,18.92c0.91,2.51,2.9,5.16,5.8,5.21c2.52,0.04,4.59-2.06,5.17-4.29c0.58-2.24,0.03-4.58-0.51-6.82   c-1.47-6.01-2.93-12.03-4.23-18.07c-1.05-4.89-1.14-11.34,3.89-13.27c4.51-1.73,9.58,2.17,10.73,6.51s-0.25,8.84-0.93,13.26   c-0.81,5.3-0.55,10.74,0.76,15.96c0.45,1.78,1.17,3.72,2.94,4.56c2.47,1.17,5.63-0.61,6.64-2.97c1.02-2.36,0.52-5.02,0-7.51   c-1.03-4.99-2.05-9.97-3.08-14.96c-0.7-3.4-1.36-7.09,0.31-10.19s6.76-4.81,9.36-2.29c2.43,2.37,1,6.15-0.06,9.25   c-3.13,9.18-1.36,19.64,4.66,27.53c0.8,1.05,2.13,2.17,3.4,1.63c0.82-0.34,1.15-1.23,1.33-2.03c1.27-5.69-1.02-11.47-1.89-17.22   c-0.84-5.57-0.34-11.31,1.46-16.69c0.48-1.44,1.21-3,2.74-3.56c1.84-0.67,3.98,0.56,4.86,2.18c0.88,1.62,0.85,3.51,0.89,5.33   c0.23,10.67,3.56,21.26,9.57,30.42c0.93,1.42,2.75,3,4.27,2.11c-0.1-7.92-4.62-15.13-7.48-22.61s-3.68-16.74,2.36-22.43   c9.75,6.43,15.11,17.98,13.41,28.84c-0.59,3.77-1.95,7.67-0.62,11.28s7.12,5.95,9.69,2.95c0.94-1.09,1.15-2.56,1.19-3.94   c0.24-7.14-2.94-13.97-6.21-20.46c-1.29-2.56-2.63-5.25-2.42-8.06c0.21-2.81,2.6-5.7,5.69-5.61c3.26,0.09,5.35,3.21,6.27,6.06   c3.66,11.36-0.96,25.16,7.2,34.37c2.63-0.71,3.63-3.58,4.04-6.05c1.96-11.85-0.48-23.9-2.9-35.67c2.78-0.4,4.4,2.71,5.08,5.2   c3.24,11.94,6.48,24.52,2.95,36.39"
   id="path4138" />
	<path
   class="st1"
   d="M238,9.13c2.28,6.83,4.56,13.67,6.85,20.5c2.3,6.88,4.92,14.2,11.11,18.65c1.62,1.16,4.42,1.89,5.41,0.24   c0.58-0.97,0.09-2.16-0.38-3.18c-4.22-9.26-5.72-19.54-4.29-29.48c0.46-3.23,2.65-7.33,6.13-6.58c2.9,0.63,3.53,4.09,3.48,6.81   c-0.14,6.37-0.76,12.77,0.22,19.08c0.98,6.3,3.8,12.66,9.29,16.6c1.59-6.72-1.41-13.55-2.38-20.37c-1.03-7.2,0.26-14.66,3.67-21.21   c0.58-1.12,1.34-2.31,2.62-2.74c2.91-0.96,5.1,2.56,5.5,5.36c0.93,6.47-0.19,13.03-0.06,19.55s1.81,13.5,7.09,17.9   c1.34-12.36-5.08-24.69-3.2-36.99c0.44-2.86,2.65-6.41,5.67-5.55c2.13,0.61,2.8,3.01,3.11,5.03c1.16,7.59,2.06,15.21,2.7,22.85   c0.21,2.5,0.41,5.08,1.62,7.34s3.69,4.15,6.43,4.01c-2.07-7.65-4.14-15.3-6.22-22.95c-0.92-3.38-1.82-7-0.52-10.27   c1.3-3.27,5.77-5.72,9.04-3.92c1.64,6.46,1.57,13.17,2.56,19.74s3.3,13.34,8.64,17.83c2.62-1.01,2.63-4.35,2.2-6.92   c-1.38-8.27-2.75-16.54-4.13-24.81c-0.35-2.09-0.68-4.31,0.23-6.26s3.55-3.38,5.82-2.51c4.37,4.95,4.75,11.85,4.32,18.2   s-1.46,12.89,0.73,18.92c0.91,2.51,2.9,5.16,5.8,5.21c2.52,0.04,4.59-2.06,5.17-4.29c0.58-2.24,0.03-4.58-0.51-6.82   c-1.47-6.01-2.93-12.03-4.23-18.07c-1.05-4.89-1.14-11.34,3.89-13.27c4.51-1.73,9.58,2.17,10.73,6.51s-0.25,8.84-0.93,13.26   c-0.81,5.3-0.55,10.74,0.76,15.96c0.45,1.78,1.17,3.72,2.94,4.56c2.47,1.17,5.63-0.61,6.64-2.97c1.02-2.36,0.52-5.02,0-7.51   c-1.03-4.99-2.05-9.97-3.08-14.96c-0.7-3.4-1.36-7.09,0.31-10.19s6.76-4.81,9.36-2.29c2.43,2.37,1,6.15-0.06,9.25   c-3.13,9.18-1.36,19.64,4.66,27.53c0.8,1.05,2.13,2.17,3.4,1.63c0.82-0.34,1.15-1.23,1.33-2.03c1.27-5.69-1.02-11.47-1.89-17.22   c-0.84-5.57-0.34-11.31,1.46-16.69c0.48-1.44,1.21-3,2.74-3.56c1.84-0.67,3.98,0.56,4.86,2.18c0.88,1.62,0.85,3.51,0.89,5.33   c0.23,10.67,3.56,21.26,9.57,30.42c0.93,1.42,2.75,3,4.27,2.11c-0.1-7.92-4.62-15.13-7.48-22.61s-3.68-16.74,2.36-22.43   c9.75,6.43,15.11,17.98,13.41,28.84c-0.59,3.77-1.95,7.67-0.62,11.28s7.12,5.95,9.69,2.95c0.94-1.09,1.15-2.56,1.19-3.94   c0.24-7.14-2.94-13.97-6.21-20.46c-1.29-2.56-2.63-5.25-2.42-8.06c0.21-2.81,2.6-5.7,5.69-5.61c3.26,0.09,5.35,3.21,6.27,6.06   c3.66,11.36-0.96,25.16,7.2,34.37c2.63-0.71,3.63-3.58,4.04-6.05c1.96-11.85-0.48-23.9-2.9-35.67c2.78-0.4,4.4,2.71,5.08,5.2   c3.24,11.94,6.48,24.52,2.95,36.39"
   id="path4140" />
</g>
<g
   id="g4148">
	<path
   class="st1"
   d="M107.01,347.7c2.04,6.91,4.08,13.82,6.12,20.73c2.05,6.96,4.41,14.37,10.45,19.03   c1.58,1.22,4.35,2.04,5.4,0.43c0.62-0.95,0.17-2.16-0.26-3.19c-3.89-9.4-5.02-19.73-3.25-29.61c0.58-3.22,2.91-7.24,6.35-6.36   c2.88,0.73,3.39,4.22,3.23,6.93c-0.36,6.36-1.21,12.74-0.45,19.07c0.76,6.33,3.35,12.79,8.7,16.92c1.83-6.66-0.93-13.59-1.66-20.44   c-0.77-7.23,0.78-14.64,4.41-21.07c0.62-1.1,1.42-2.26,2.71-2.64c2.94-0.86,5,2.74,5.3,5.55c0.7,6.5-0.66,13.02-0.75,19.54   s1.33,13.55,6.46,18.14c1.78-12.3-4.2-24.86-1.89-37.08c0.54-2.85,2.87-6.31,5.87-5.34c2.11,0.68,2.69,3.11,2.93,5.13   c0.89,7.62,1.52,15.27,1.89,22.93c0.12,2.51,0.23,5.09,1.36,7.39s3.54,4.27,6.29,4.23c-1.8-7.72-3.6-15.44-5.4-23.16   c-0.8-3.41-1.57-7.06-0.16-10.28c1.41-3.23,5.97-5.51,9.17-3.6c1.41,6.51,1.1,13.22,1.86,19.82s2.82,13.45,8,18.13   c2.66-0.92,2.78-4.25,2.45-6.84c-1.08-8.31-2.16-16.62-3.25-24.94c-0.27-2.1-0.53-4.33,0.45-6.24c0.97-1.91,3.67-3.25,5.9-2.3   c4.19,5.1,4.33,12.01,3.68,18.34c-0.66,6.32-1.92,12.83,0.06,18.94c0.82,2.54,2.71,5.26,5.61,5.41c2.52,0.13,4.66-1.89,5.32-4.11   c0.66-2.22,0.2-4.57-0.27-6.83c-1.25-6.06-2.51-12.12-3.59-18.21c-0.88-4.92-0.74-11.38,4.36-13.13c4.56-1.57,9.5,2.51,10.49,6.88   c1,4.37-0.57,8.82-1.4,13.22c-1,5.27-0.93,10.72,0.2,15.98c0.38,1.79,1.04,3.76,2.78,4.66c2.43,1.26,5.65-0.41,6.75-2.74   c1.1-2.33,0.69-5,0.27-7.51c-0.85-5.02-1.7-10.04-2.55-15.06c-0.58-3.43-1.11-7.13,0.68-10.17c1.79-3.04,6.93-4.57,9.43-1.95   c2.35,2.45,0.78,6.18-0.38,9.24c-3.45,9.06-2.05,19.58,3.68,27.68c0.76,1.07,2.05,2.24,3.34,1.75c0.83-0.31,1.19-1.19,1.4-1.98   c1.47-5.64-0.61-11.49-1.28-17.27c-0.65-5.6,0.06-11.32,2.05-16.63c0.53-1.42,1.32-2.96,2.87-3.46c1.87-0.6,3.96,0.7,4.78,2.36   c0.82,1.65,0.72,3.54,0.7,5.35c-0.15,10.67,2.81,21.38,8.49,30.73c0.88,1.45,2.64,3.1,4.2,2.25c0.18-7.92-4.08-15.29-6.68-22.86   c-2.59-7.57-3.09-16.86,3.15-22.33c9.51,6.77,14.47,18.5,12.38,29.3c-0.72,3.74-2.22,7.6-1.02,11.25c1.2,3.65,6.91,6.2,9.58,3.29   c0.97-1.06,1.24-2.51,1.33-3.9c0.49-7.13-2.45-14.06-5.48-20.66c-1.2-2.6-2.45-5.34-2.13-8.14c0.31-2.8,2.8-5.61,5.88-5.41   c3.25,0.21,5.24,3.39,6.05,6.28c3.26,11.48-1.84,25.11,5.98,34.6c2.65-0.62,3.75-3.45,4.25-5.9c2.37-11.77,0.37-23.9-1.64-35.75   c2.79-0.3,4.3,2.87,4.89,5.38c2.81,12.05,5.61,24.73,1.66,36.47"
   id="path4144" />
	<path
   class="st1"
   d="M97.02,347.34c2.04,6.91,4.08,13.82,6.12,20.73c2.05,6.96,4.41,14.37,10.45,19.03   c1.58,1.22,4.35,2.04,5.4,0.43c0.62-0.95,0.17-2.16-0.26-3.19c-3.89-9.4-5.02-19.73-3.25-29.61c0.58-3.22,2.91-7.24,6.35-6.36   c2.88,0.73,3.39,4.22,3.23,6.93c-0.36,6.36-1.21,12.74-0.45,19.07c0.76,6.33,3.35,12.79,8.7,16.92c1.83-6.66-0.93-13.59-1.66-20.44   c-0.77-7.23,0.78-14.64,4.41-21.07c0.62-1.1,1.42-2.26,2.71-2.64c2.94-0.86,5,2.74,5.3,5.55c0.7,6.5-0.66,13.02-0.75,19.54   s1.33,13.55,6.46,18.14c1.78-12.3-4.2-24.86-1.89-37.08c0.54-2.85,2.87-6.31,5.87-5.34c2.11,0.68,2.69,3.11,2.93,5.13   c0.89,7.62,1.52,15.27,1.89,22.93c0.12,2.51,0.23,5.09,1.36,7.39c1.13,2.3,3.54,4.27,6.29,4.23c-1.8-7.72-3.6-15.44-5.4-23.16   c-0.8-3.41-1.57-7.06-0.16-10.28c1.41-3.23,5.97-5.51,9.17-3.6c1.41,6.51,1.1,13.22,1.86,19.82c0.76,6.6,2.82,13.45,8,18.13   c2.66-0.92,2.78-4.25,2.45-6.84c-1.08-8.31-2.16-16.62-3.25-24.94c-0.27-2.1-0.53-4.33,0.45-6.24c0.97-1.91,3.67-3.25,5.9-2.3   c4.19,5.1,4.33,12.01,3.68,18.34c-0.66,6.32-1.92,12.83,0.06,18.94c0.82,2.54,2.71,5.26,5.61,5.41c2.52,0.13,4.66-1.89,5.32-4.11   c0.66-2.22,0.2-4.57-0.27-6.83c-1.25-6.06-2.51-12.12-3.59-18.21c-0.88-4.92-0.74-11.38,4.36-13.13c4.56-1.57,9.5,2.51,10.49,6.88   s-0.57,8.82-1.4,13.22c-1,5.27-0.93,10.72,0.2,15.98c0.38,1.79,1.04,3.76,2.78,4.66c2.43,1.26,5.65-0.41,6.75-2.74   c1.1-2.33,0.69-5,0.27-7.51c-0.85-5.02-1.7-10.04-2.55-15.06c-0.58-3.43-1.11-7.13,0.68-10.17s6.93-4.57,9.43-1.95   c2.35,2.45,0.78,6.18-0.38,9.24c-3.45,9.06-2.05,19.58,3.68,27.68c0.76,1.07,2.05,2.24,3.34,1.75c0.83-0.31,1.19-1.19,1.4-1.98   c1.47-5.64-0.61-11.49-1.28-17.27c-0.65-5.6,0.06-11.32,2.05-16.63c0.53-1.42,1.32-2.96,2.87-3.46c1.87-0.6,3.96,0.7,4.78,2.36   s0.72,3.54,0.7,5.35c-0.15,10.67,2.81,21.38,8.49,30.73c0.88,1.45,2.64,3.1,4.2,2.25c0.18-7.92-4.08-15.29-6.68-22.86   c-2.59-7.57-3.09-16.86,3.15-22.33c9.51,6.77,14.47,18.5,12.38,29.3c-0.72,3.74-2.22,7.6-1.02,11.25s6.91,6.2,9.58,3.29   c0.97-1.06,1.24-2.51,1.33-3.9c0.49-7.13-2.45-14.06-5.48-20.66c-1.2-2.6-2.45-5.34-2.13-8.14s2.8-5.61,5.88-5.41   c3.25,0.21,5.24,3.39,6.05,6.28c3.26,11.48-1.84,25.11,5.98,34.6c2.65-0.62,3.75-3.45,4.25-5.9c2.37-11.77,0.37-23.9-1.64-35.75   c2.79-0.3,4.3,2.87,4.89,5.38c2.81,12.05,5.61,24.73,1.66,36.47"
   id="path4146" />
</g>
<g
   id="g4154">
	<path
   class="st1"
   d="M255.94,348.42c2.04,6.91,4.08,13.82,6.12,20.73c2.05,6.96,4.41,14.37,10.45,19.03   c1.58,1.22,4.35,2.04,5.4,0.43c0.62-0.95,0.17-2.16-0.26-3.19c-3.89-9.4-5.02-19.73-3.25-29.61c0.58-3.22,2.91-7.24,6.35-6.36   c2.88,0.73,3.39,4.22,3.23,6.93c-0.36,6.36-1.21,12.74-0.45,19.07s3.35,12.79,8.7,16.92c1.83-6.66-0.93-13.59-1.66-20.44   c-0.77-7.23,0.78-14.64,4.41-21.07c0.62-1.1,1.42-2.26,2.71-2.64c2.94-0.86,5,2.74,5.3,5.55c0.7,6.5-0.66,13.02-0.75,19.54   s1.33,13.55,6.46,18.14c1.78-12.3-4.2-24.86-1.89-37.08c0.54-2.85,2.87-6.31,5.87-5.34c2.11,0.68,2.69,3.11,2.93,5.13   c0.89,7.62,1.52,15.27,1.89,22.93c0.12,2.51,0.23,5.09,1.36,7.39s3.54,4.27,6.29,4.23c-1.8-7.72-3.6-15.44-5.4-23.16   c-0.8-3.41-1.57-7.06-0.16-10.28s5.97-5.51,9.17-3.6c1.41,6.51,1.1,13.22,1.86,19.82c0.76,6.6,2.82,13.45,8,18.13   c2.66-0.92,2.78-4.25,2.45-6.84c-1.08-8.31-2.16-16.62-3.25-24.94c-0.27-2.1-0.53-4.33,0.45-6.24c0.97-1.91,3.67-3.25,5.9-2.3   c4.19,5.1,4.33,12.01,3.68,18.34c-0.66,6.32-1.92,12.83,0.06,18.94c0.82,2.54,2.71,5.26,5.61,5.41c2.52,0.13,4.66-1.89,5.32-4.11   s0.2-4.57-0.27-6.83c-1.25-6.06-2.51-12.12-3.59-18.21c-0.88-4.92-0.74-11.38,4.36-13.13c4.56-1.57,9.5,2.51,10.49,6.88   s-0.57,8.82-1.4,13.22c-1,5.27-0.93,10.72,0.2,15.98c0.38,1.79,1.04,3.76,2.78,4.66c2.43,1.26,5.65-0.41,6.75-2.74   c1.1-2.33,0.69-5,0.27-7.51c-0.85-5.02-1.7-10.04-2.55-15.06c-0.58-3.43-1.11-7.13,0.68-10.17c1.79-3.04,6.93-4.57,9.43-1.95   c2.35,2.45,0.78,6.18-0.38,9.24c-3.45,9.06-2.05,19.58,3.68,27.68c0.76,1.07,2.05,2.24,3.34,1.75c0.83-0.31,1.19-1.19,1.4-1.98   c1.47-5.64-0.61-11.49-1.28-17.27c-0.65-5.6,0.06-11.32,2.05-16.63c0.53-1.42,1.32-2.96,2.87-3.46c1.87-0.6,3.96,0.7,4.78,2.36   c0.82,1.65,0.72,3.54,0.7,5.35c-0.15,10.67,2.81,21.38,8.49,30.73c0.88,1.45,2.64,3.1,4.2,2.25c0.18-7.92-4.08-15.29-6.68-22.86   s-3.09-16.86,3.15-22.33c9.51,6.77,14.47,18.5,12.38,29.3c-0.72,3.74-2.22,7.6-1.02,11.25c1.2,3.65,6.91,6.2,9.58,3.29   c0.97-1.06,1.24-2.51,1.33-3.9c0.49-7.13-2.45-14.06-5.48-20.66c-1.2-2.6-2.45-5.34-2.13-8.14c0.31-2.8,2.8-5.61,5.88-5.41   c3.25,0.21,5.24,3.39,6.05,6.28c3.26,11.48-1.84,25.11,5.98,34.6c2.65-0.62,3.75-3.45,4.25-5.9c2.37-11.77,0.37-23.9-1.64-35.75   c2.79-0.3,4.3,2.87,4.89,5.38c2.81,12.05,5.61,24.73,1.66,36.47"
   id="path4150" />
	<path
   class="st1"
   d="M245.95,348.07c2.04,6.91,4.08,13.82,6.12,20.73c2.05,6.96,4.41,14.37,10.45,19.03   c1.58,1.22,4.35,2.04,5.4,0.43c0.62-0.95,0.17-2.16-0.26-3.19c-3.89-9.4-5.02-19.73-3.25-29.61c0.58-3.22,2.91-7.24,6.35-6.36   c2.88,0.73,3.39,4.22,3.23,6.93c-0.36,6.36-1.21,12.74-0.45,19.07s3.35,12.79,8.7,16.92c1.83-6.66-0.93-13.59-1.66-20.44   c-0.77-7.23,0.78-14.64,4.41-21.07c0.62-1.1,1.42-2.26,2.71-2.64c2.94-0.86,5,2.74,5.3,5.55c0.7,6.5-0.66,13.02-0.75,19.54   s1.33,13.55,6.46,18.14c1.78-12.3-4.2-24.86-1.89-37.08c0.54-2.85,2.87-6.31,5.87-5.34c2.11,0.68,2.69,3.11,2.93,5.13   c0.89,7.62,1.52,15.27,1.89,22.93c0.12,2.51,0.23,5.09,1.36,7.39c1.13,2.3,3.54,4.27,6.29,4.23c-1.8-7.72-3.6-15.44-5.4-23.16   c-0.8-3.41-1.57-7.06-0.16-10.28s5.97-5.51,9.17-3.6c1.41,6.51,1.1,13.22,1.86,19.82s2.82,13.45,8,18.13   c2.66-0.92,2.78-4.25,2.45-6.84c-1.08-8.31-2.16-16.62-3.25-24.94c-0.27-2.1-0.53-4.33,0.45-6.24c0.97-1.91,3.67-3.25,5.9-2.3   c4.19,5.1,4.33,12.01,3.68,18.34c-0.66,6.32-1.92,12.83,0.06,18.94c0.82,2.54,2.71,5.26,5.61,5.41c2.52,0.13,4.66-1.89,5.32-4.11   s0.2-4.57-0.27-6.83c-1.25-6.06-2.51-12.12-3.59-18.21c-0.88-4.92-0.74-11.38,4.36-13.13c4.56-1.57,9.5,2.51,10.49,6.88   c1,4.37-0.57,8.82-1.4,13.22c-1,5.27-0.93,10.72,0.2,15.98c0.38,1.79,1.04,3.76,2.78,4.66c2.43,1.26,5.65-0.41,6.75-2.74   c1.1-2.33,0.69-5,0.27-7.51c-0.85-5.02-1.7-10.04-2.55-15.06c-0.58-3.43-1.11-7.13,0.68-10.17s6.93-4.57,9.43-1.95   c2.35,2.45,0.78,6.18-0.38,9.24c-3.45,9.06-2.05,19.58,3.68,27.68c0.76,1.07,2.05,2.24,3.34,1.75c0.83-0.31,1.19-1.19,1.4-1.98   c1.47-5.64-0.61-11.49-1.28-17.27c-0.65-5.6,0.06-11.32,2.05-16.63c0.53-1.42,1.32-2.96,2.87-3.46c1.87-0.6,3.96,0.7,4.78,2.36   c0.82,1.65,0.72,3.54,0.7,5.35c-0.15,10.67,2.81,21.38,8.49,30.73c0.88,1.45,2.64,3.1,4.2,2.25c0.18-7.92-4.08-15.29-6.68-22.86   s-3.09-16.86,3.15-22.33c9.51,6.77,14.47,18.5,12.38,29.3c-0.72,3.74-2.22,7.6-1.02,11.25c1.2,3.65,6.91,6.2,9.58,3.29   c0.97-1.06,1.24-2.51,1.33-3.9c0.49-7.13-2.45-14.06-5.48-20.66c-1.2-2.6-2.45-5.34-2.13-8.14c0.31-2.8,2.8-5.61,5.88-5.41   c3.25,0.21,5.24,3.39,6.05,6.28c3.26,11.48-1.84,25.11,5.98,34.6c2.65-0.62,3.75-3.45,4.25-5.9c2.37-11.77,0.37-23.9-1.64-35.75   c2.79-0.3,4.3,2.87,4.89,5.38c2.81,12.05,5.61,24.73,1.66,36.47"
   id="path4152" />
</g>
<g
   id="g4164">
	<path
   class="st1"
   d="M59.77,53.48c-0.54,10.25,20.87,16.12,20.02,26.36c-0.17,2.04-1.27,3.99-2.63,5.8   c-6.71,8.96-20.29,16.56-18.73,26.63c0.91,5.86,6.91,10.58,11.91,15.31c5.01,4.73,9.41,10.75,6.62,16.31   c-3.06,6.09-13.41,8.9-17.69,14.61c-4.26,5.7-1.37,12.82,3.43,18.3c4.81,5.48,11.42,10.18,15.37,15.99   c3.95,5.81,4.5,13.55-2.1,18.02c-1.96,1.33-4.39,2.25-6.57,3.41c-9.88,5.24-13.43,15.61-8.01,23.44c6.3,9.11,23,15.35,21.59,25.43   c-0.9,6.37-8.95,10.83-15.87,14.97c-6.92,4.15-13.9,10.02-11.64,16.21c2.73,7.48,16.74,9.86,22.3,16.51   c4.82,5.76,2.04,13.25-2.85,18.99c-4.89,5.73-11.72,10.64-15.64,16.73"
   id="path4156" />
	<path
   class="st1"
   d="M59.77,341.9c-0.54-10.16,20.87-15.98,20.02-26.12c-0.17-2.02-1.27-3.96-2.63-5.75   c-6.71-8.88-20.29-16.42-18.73-26.39c0.91-5.81,6.91-10.48,11.91-15.17c5.01-4.69,9.41-10.65,6.62-16.16   c-3.06-6.04-13.41-8.82-17.69-14.48c-4.26-5.65-1.37-12.7,3.43-18.14s11.42-10.09,15.37-15.85c3.95-5.76,4.5-13.43-2.1-17.86   c-1.96-1.32-4.39-2.23-6.57-3.38c-9.88-5.2-13.43-15.47-8.01-23.24c6.3-9.03,23-15.21,21.59-25.2c-0.9-6.31-8.95-10.73-15.87-14.84   c-6.92-4.11-13.9-9.93-11.64-16.07c2.73-7.41,16.74-9.77,22.3-16.36c4.82-5.71,2.04-13.14-2.85-18.82   c-4.89-5.68-11.72-10.55-15.64-16.58"
   id="path4158" />
	<path
   class="st1"
   d="M62.41,333.82c-0.31-9.88,11.93-15.53,11.45-25.4c-0.1-1.97-0.73-3.85-1.5-5.59   c-3.83-8.63-11.6-15.96-10.7-25.66c0.52-5.65,3.95-10.19,6.81-14.75c2.86-4.56,5.38-10.36,3.78-15.71   c-1.75-5.87-7.67-8.57-10.11-14.08c-2.44-5.49-0.79-12.35,1.96-17.63c2.75-5.28,6.53-9.81,8.78-15.41   c2.26-5.6,2.57-13.06-1.2-17.36c-1.12-1.28-2.51-2.17-3.75-3.28c-5.65-5.05-7.67-15.04-4.58-22.59c3.6-8.77,13.15-14.79,12.34-24.5   c-0.51-6.13-5.11-10.43-9.07-14.43c-3.96-3.99-7.94-9.65-6.65-15.62c1.56-7.21,9.57-9.5,12.75-15.91   c2.75-5.55,1.17-12.77-1.63-18.3s-6.7-10.25-8.94-16.12"
   id="path4160" />
	<path
   class="st1"
   d="M60.75,53.48c-0.35,10.22,13.42,16.07,12.87,26.27c-0.11,2.04-0.82,3.98-1.69,5.78   c-4.31,8.93-13.04,16.51-12.04,26.54c0.58,5.84,4.44,10.54,7.66,15.26c3.22,4.71,6.05,10.72,4.26,16.26   c-1.97,6.07-8.62,8.87-11.37,14.57c-2.74,5.68-0.88,12.78,2.21,18.24c3.09,5.47,7.34,10.14,9.88,15.94   c2.54,5.8,2.89,13.51-1.35,17.96c-1.26,1.32-2.82,2.25-4.22,3.39c-6.35,5.23-8.63,15.56-5.15,23.37   c4.05,9.08,14.79,15.3,13.88,25.35c-0.58,6.35-5.75,10.79-10.2,14.92c-4.45,4.13-8.93,9.99-7.48,16.16   c1.75,7.46,10.76,9.82,14.34,16.46c3.1,5.74,1.31,13.21-1.83,18.93c-3.14,5.71-7.54,10.61-10.06,16.68"
   id="path4162" />
</g>
<g
   id="g4174">
	<path
   class="st1"
   d="M495.51,54.97c-15.43-0.37-24.26,14.15-39.67,13.58c-3.07-0.11-6.01-0.86-8.73-1.78   c-13.48-4.55-24.93-13.75-40.07-12.7c-8.82,0.62-15.92,4.68-23.04,8.08s-16.18,6.38-24.54,4.49c-9.17-2.07-13.39-9.09-22-11.99   c-8.58-2.89-19.29-0.93-27.54,2.33c-8.25,3.26-15.32,7.74-24.07,10.42s-20.4,3.05-27.12-1.42c-2-1.33-3.39-2.98-5.13-4.45   c-7.89-6.7-23.5-9.1-35.29-5.43c-13.71,4.27-23.1,15.6-38.27,14.63c-9.58-0.61-16.29-6.07-22.53-10.76   c-6.24-4.69-15.08-9.42-24.4-7.89c-11.26,1.85-14.83,11.35-24.85,15.12c-8.67,3.27-19.95,1.38-28.58-1.93   c-8.63-3.31-16.02-7.95-25.18-10.61"
   id="path4166" />
	<path
   class="st1"
   d="M61.41,54.97c15.29-0.37,24.04,14.15,39.32,13.58c3.05-0.11,5.95-0.86,8.65-1.78   c13.36-4.55,24.71-13.75,39.72-12.7c8.74,0.62,15.78,4.68,22.83,8.08c7.05,3.39,16.04,6.38,24.33,4.49   c9.09-2.07,13.27-9.09,21.8-11.99c8.51-2.89,19.12-0.93,27.3,2.33c8.18,3.26,15.18,7.74,23.85,10.42   c8.67,2.68,20.22,3.05,26.88-1.42c1.98-1.33,3.36-2.98,5.08-4.45c7.82-6.7,23.29-9.1,34.97-5.43c13.58,4.27,22.89,15.6,37.93,14.63   c9.5-0.61,16.15-6.07,22.33-10.76c6.18-4.69,14.94-9.42,24.19-7.89c11.16,1.85,14.7,11.35,24.63,15.12   c8.6,3.27,19.77,1.38,28.32-1.93c8.55-3.31,15.87-7.95,24.96-10.61"
   id="path4168" />
	<path
   class="st1"
   d="M73.57,56.77c14.86-0.21,23.38,8.09,38.22,7.76c2.96-0.07,5.79-0.49,8.41-1.02   c12.99-2.6,24.02-7.86,38.61-7.26c8.5,0.35,15.34,2.68,22.2,4.62c6.86,1.94,15.59,3.65,23.65,2.57c8.83-1.19,12.9-5.2,21.19-6.85   c8.27-1.65,18.59-0.53,26.54,1.33c7.95,1.86,14.76,4.42,23.19,5.95c8.43,1.53,19.66,1.74,26.13-0.81c1.92-0.76,3.27-1.7,4.94-2.54   c7.6-3.83,22.64-5.2,34-3.1c13.21,2.44,22.26,8.91,36.88,8.36c9.23-0.35,15.7-3.47,21.71-6.15c6.01-2.68,14.53-5.38,23.51-4.51   c10.85,1.06,14.29,6.49,23.94,8.64c8.36,1.87,19.22,0.79,27.54-1.1s15.43-4.54,24.26-6.06"
   id="path4170" />
	<path
   class="st1"
   d="M495.51,55.64c-15.38-0.24-24.18,9.1-39.54,8.73c-3.06-0.07-5.99-0.55-8.7-1.14   c-13.44-2.92-24.85-8.84-39.95-8.16c-8.79,0.4-15.87,3.01-22.96,5.19s-16.13,4.1-24.47,2.89c-9.14-1.33-13.35-5.85-21.93-7.71   c-8.55-1.86-19.23-0.6-27.46,1.5c-8.23,2.1-15.27,4.98-23.99,6.7c-8.72,1.72-20.33,1.96-27.03-0.92c-1.99-0.86-3.38-1.91-5.11-2.86   c-7.87-4.31-23.42-5.85-35.17-3.49c-13.66,2.75-23.03,10.03-38.15,9.41c-9.55-0.39-16.24-3.9-22.46-6.92   c-6.22-3.02-15.03-6.06-24.33-5.07c-11.22,1.19-14.79,7.29-24.77,9.72c-8.65,2.1-19.89,0.89-28.49-1.24   c-8.6-2.13-15.96-5.11-25.1-6.82"
   id="path4172" />
</g>
<g
   id="g4184">
	<path
   class="st1"
   d="M495.51,346.5c-15.43,0.52-24.26-20.11-39.67-19.29c-3.07,0.16-6.01,1.22-8.73,2.53   c-13.48,6.46-24.93,19.55-40.07,18.04c-8.82-0.87-15.92-6.65-23.04-11.48s-16.18-9.07-24.54-6.38c-9.17,2.95-13.39,12.92-22,17.04   c-8.58,4.11-19.29,1.32-27.54-3.31c-8.25-4.63-15.32-11-24.07-14.8c-8.75-3.8-20.4-4.34-27.12,2.02c-2,1.89-3.39,4.23-5.13,6.33   c-7.89,9.52-23.5,12.94-35.29,7.72c-13.71-6.07-23.1-22.16-38.27-20.8c-9.58,0.86-16.29,8.62-22.53,15.29   c-6.24,6.67-15.08,13.39-24.4,11.21c-11.26-2.63-14.83-16.12-24.85-21.49c-8.67-4.64-19.95-1.97-28.58,2.75   s-16.02,11.29-25.18,15.07"
   id="path4176" />
	<path
   class="st1"
   d="M61.41,346.5c15.29,0.52,24.04-20.11,39.32-19.29c3.05,0.16,5.95,1.22,8.65,2.53   c13.36,6.46,24.71,19.55,39.72,18.04c8.74-0.87,15.78-6.65,22.83-11.48s16.04-9.07,24.33-6.38c9.09,2.95,13.27,12.92,21.8,17.04   c8.51,4.11,19.12,1.32,27.3-3.31c8.18-4.63,15.18-11,23.85-14.8c8.67-3.8,20.22-4.34,26.88,2.02c1.98,1.89,3.36,4.23,5.08,6.33   c7.82,9.52,23.29,12.94,34.97,7.72c13.58-6.07,22.89-22.16,37.93-20.8c9.5,0.86,16.15,8.62,22.33,15.29   c6.18,6.67,14.94,13.39,24.19,11.21c11.16-2.63,14.7-16.12,24.63-21.49c8.6-4.64,19.77-1.97,28.32,2.75s15.87,11.29,24.96,15.07"
   id="path4178" />
	<path
   class="st1"
   d="M73.57,343.95c14.86,0.3,23.38-11.49,38.22-11.03c2.96,0.09,5.79,0.7,8.41,1.45   c12.99,3.69,24.02,11.17,38.61,10.31c8.5-0.5,15.34-3.8,22.2-6.56c6.86-2.76,15.59-5.18,23.65-3.65c8.83,1.69,12.9,7.39,21.19,9.74   c8.27,2.35,18.59,0.76,26.54-1.89c7.95-2.65,14.76-6.29,23.19-8.46c8.43-2.17,19.66-2.48,26.13,1.16c1.92,1.08,3.27,2.42,4.94,3.62   c7.6,5.44,22.64,7.39,34,4.41c13.21-3.47,22.26-12.67,36.88-11.89c9.23,0.49,15.7,4.93,21.71,8.74c6.01,3.81,14.53,7.65,23.51,6.41   c10.85-1.5,14.29-9.22,23.94-12.28c8.36-2.65,19.22-1.12,27.54,1.57c8.31,2.69,15.43,6.46,24.26,8.61"
   id="path4180" />
	<path
   class="st1"
   d="M495.51,345.55c-15.38,0.33-24.18-12.93-39.54-12.4c-3.06,0.1-5.99,0.79-8.7,1.63   c-13.44,4.15-24.85,12.56-39.95,11.6c-8.79-0.56-15.87-4.28-22.96-7.38s-16.13-5.83-24.47-4.1c-9.14,1.9-13.35,8.31-21.93,10.96   c-8.55,2.64-19.23,0.85-27.46-2.13c-8.23-2.98-15.27-7.07-23.99-9.52s-20.33-2.79-27.03,1.3c-1.99,1.22-3.38,2.72-5.11,4.07   c-7.87,6.12-23.42,8.32-35.17,4.96c-13.66-3.9-23.03-14.25-38.15-13.37c-9.55,0.56-16.24,5.54-22.46,9.83   c-6.22,4.29-15.03,8.61-24.33,7.21c-11.22-1.69-14.79-10.37-24.77-13.81c-8.65-2.98-19.89-1.26-28.49,1.77   c-8.6,3.03-15.96,7.26-25.1,9.69"
   id="path4182" />
</g>
<rect
   x="10.48"
   y="7.58"
   class="st2"
   width="532.03"
   height="384.83"
   id="rect4186" />
<rect
   x="55.05"
   y="51.78"
   class="st2"
   width="444"
   height="297"
   id="rect4188" />
<g
   id="g4196">
	<g
   id="g4194">
		<g
   id="g4192">
			<path
   class="st3"
   d="M92.09,29.32l19.82-16H16.45v75.64h0.09c-0.04,7.07,0.05,14.78-0.09,21.36l16-21.36l16,19.82V45.32h43.64     v-0.09c7.07,0.04,14.78-0.05,21.36,0.09L92.09,29.32z"
   id="path4190" />
		</g>
	</g>
</g>
<g
   id="g4204">
	<g
   id="g4202">
		<g
   id="g4200">
			<path
   class="st3"
   d="M92.09,370.55l19.82-16H48.45v-43.64h-0.09c0.04-7.07-0.05-14.78,0.09-21.36l-16,21.36l-16-19.82v95.46     h75.64v-0.09c7.07,0.04,14.78-0.05,21.36,0.09L92.09,370.55z"
   id="path4198" />
		</g>
	</g>
</g>
<path
   class="st3"
   d="M439.45,354.55c6.58,0.14,14.29,0.05,21.36,0.09v-0.09h43.64v-63.46l16,19.82l16-21.36  c-0.14,6.58-0.05,14.29-0.09,21.36h0.09v75.64h-95.46l19.82-16L439.45,354.55z"
   id="path4206" />
<path
   class="st3"
   d="M504.45,110.32c0.14-6.58,0.05-14.29,0.09-21.36h-0.09V45.32h-63.46l19.82-16l-21.36-16  c6.58,0.14,14.29,0.05,21.36,0.09v-0.09h75.64v95.46l-16-19.82L504.45,110.32z"
   id="path4208" />
<g
   id="g4231">
	<polygon
   class="st4"
   points="126.75,154.65 119.26,116.57 211.26,97.79 218.74,135.86  "
   id="polygon4210" />
	<polygon
   class="st5"
   points="227.87,99.84 218.62,135.76 158.51,119.68 167.77,83.75  "
   id="polygon4212" />
	<polygon
   class="st4"
   points="435.96,154.65 442.91,116.57 357.48,97.79 350.53,135.86  "
   id="polygon4214" />
	<polygon
   class="st5"
   points="342.05,99.84 350.65,135.76 406.47,119.68 397.87,83.75  "
   id="polygon4216" />
	<g
   id="g4222">
		<g
   id="g4220">
			<path
   class="st4"
   d="M281.17,70.78c-30.6,0.02-122.66,9.29-122.66,9.29v38.83c0,0,91.93-12.24,122.57-12.24     c31.35,0,125.39,12.24,125.39,12.24V80.06C406.47,80.06,312.64,70.75,281.17,70.78z"
   id="path4218" />
		</g>
	</g>
	<path
   id="SVGID_x5F_1_x5F_"
   class="st6"
   d="M167.59,109.88c77.14-16.25,157.68-16.12,234.77,0.38" />
	<text
   id="text4229">	<textPath
   xlink:href="#SVGID_x5F_1_x5F_"
   startOffset="0%"
   id="textPath4227"> <tspan
   style="font-size:27.014px;font-family:SourceSansPro-Regular;fill:#ffffff"
   id="tspan4225">   Сертификат</tspan>	</textPath></text>
</g>
<path
   class="st1"
   d="M109.91,188.24"
   id="path4233" />
<path
   class="st1"
   d="M105.4,180.36c0,0,329.69,1.35,343.51,3.8"
   id="path4235" />
<path
   class="st1"
   d="M107.34,200.14c0,0,329.69,1.35,343.51,3.8"
   id="path4237" />
<path
   class="st1"
   d="M109.33,223.14c0,0,329.69,1.35,343.51,3.8"
   id="path4239" />
<path
   class="st1"
   d="M109.33,244.84c0,0,329.69,1.35,343.51,3.8"
   id="path4241" />
<path
   class="st1"
   d="M109.33,269.84c0,0,329.69,1.35,343.51,3.8"
   id="path4243" />
<path
   class="st1"
   d="M276.5,296.14c0,0,164.12,1.35,171,3.8"
   id="path4245" />
</svg>
