<?xml version="1.0" encoding="utf-8"?>
<!-- Generator: Adobe Adobe Illustrator 24.2.0, SVG Export Plug-In . SVG Version: 6.00 Build 0)  -->
<svg version="1.1" id="Layer_1" xmlns="http://www.w3.org/2000/svg" xmlns:xlink="http://www.w3.org/1999/xlink" x="0px" y="0px"
	 viewBox="0 0 2580 1320" style="enable-background:new 0 0 2580 1320;" xml:space="preserve">
<style type="text/css">
	.st0{fill:#FC4444;stroke:#000000;stroke-width:4;stroke-miterlimit:10;}
	.st1{fill:#FFFFFF;stroke:#000000;stroke-width:4;stroke-miterlimit:10;}
	.st2{fill:#B5B5B5;stroke:#000000;stroke-width:4;stroke-miterlimit:10;}
	.st3{fill:#6E6E6E;stroke:#000000;stroke-width:4;stroke-miterlimit:10;}
	.st4{fill:none;stroke:#FFFFFF;stroke-width:4;stroke-miterlimit:10;}
</style>
<g>
	<path class="st0" d="M197.65,180.6L197.65,180.6c25.85,0,46.8,20.95,46.8,46.8l0,635.63c0,25.85-20.95,46.8-46.8,46.8h0
		c-25.85,0-46.8-20.95-46.8-46.8l0-635.63C150.85,201.55,171.81,180.6,197.65,180.6z"/>
	<circle class="st1" cx="197.65" cy="234.88" r="34.72"/>
	<circle class="st1" cx="197.65" cy="855.15" r="34.72"/>
	<circle class="st1" cx="197.65" cy="545.02" r="34.72"/>
	<circle class="st1" cx="197.65" cy="700.08" r="34.72"/>
	<circle class="st1" cx="197.65" cy="389.95" r="34.72"/>
</g>
<g>
	<path class="st0" d="M503.65,180.6L503.65,180.6c25.85,0,46.8,20.95,46.8,46.8l0,635.63c0,25.85-20.95,46.8-46.8,46.8h0
		c-25.85,0-46.8-20.95-46.8-46.8l0-635.63C456.85,201.55,477.81,180.6,503.65,180.6z"/>
	<circle class="st1" cx="503.65" cy="234.88" r="34.72"/>
	<circle class="st1" cx="503.65" cy="855.15" r="34.72"/>
	<circle class="st1" cx="503.65" cy="545.02" r="34.72"/>
	<circle class="st1" cx="503.65" cy="700.08" r="34.72"/>
	<circle class="st1" cx="503.65" cy="389.95" r="34.72"/>
</g>
<g>
	<path class="st0" d="M1139.65,180.6L1139.65,180.6c25.85,0,46.8,20.95,46.8,46.8v635.63c0,25.85-20.95,46.8-46.8,46.8h0
		c-25.85,0-46.8-20.95-46.8-46.8V227.4C1092.85,201.55,1113.81,180.6,1139.65,180.6z"/>
	<circle class="st1" cx="1139.65" cy="234.88" r="34.72"/>
	<circle class="st1" cx="1139.65" cy="855.15" r="34.72"/>
	<circle class="st1" cx="1139.65" cy="545.02" r="34.72"/>
	<circle class="st1" cx="1139.65" cy="700.08" r="34.72"/>
	<circle class="st1" cx="1139.65" cy="389.95" r="34.72"/>
</g>
<g>
	<path class="st0" d="M663.65,180.6L663.65,180.6c25.85,0,46.8,20.95,46.8,46.8l0,635.63c0,25.85-20.95,46.8-46.8,46.8h0
		c-25.85,0-46.8-20.95-46.8-46.8l0-635.63C616.85,201.55,637.81,180.6,663.65,180.6z"/>
	<circle class="st1" cx="663.65" cy="234.88" r="34.72"/>
	<circle class="st1" cx="663.65" cy="855.15" r="34.72"/>
	<circle class="st1" cx="663.65" cy="545.02" r="34.72"/>
	<circle class="st1" cx="663.65" cy="700.08" r="34.72"/>
	<circle class="st1" cx="663.65" cy="389.95" r="34.72"/>
</g>
<g>
	<path class="st0" d="M561.65,545.21L561.65,545.21c0,25.85-20.95,46.8-46.8,46.8l-338.4,0c-25.85,0-46.8-20.95-46.8-46.8v0
		c0-25.85,20.95-46.8,46.8-46.8l338.4,0C540.7,498.41,561.65,519.37,561.65,545.21z"/>
	<circle class="st1" cx="507.37" cy="545.21" r="34.72"/>
	<circle class="st1" cx="197.23" cy="545.21" r="34.72"/>
	<circle class="st1" cx="352.3" cy="545.21" r="34.72"/>
</g>
<g>
	<path class="st0" d="M1033.65,237.21L1033.65,237.21c0,25.85-20.95,46.8-46.8,46.8l-338.4,0c-25.85,0-46.8-20.95-46.8-46.8v0
		c0-25.85,20.95-46.8,46.8-46.8l338.4,0C1012.7,190.41,1033.65,211.37,1033.65,237.21z"/>
	<circle class="st1" cx="979.37" cy="237.21" r="34.72"/>
	<circle class="st1" cx="669.23" cy="237.21" r="34.72"/>
	<circle class="st1" cx="824.3" cy="237.21" r="34.72"/>
</g>
<g>
	<path class="st0" d="M1033.65,545.21L1033.65,545.21c0,25.85-20.95,46.8-46.8,46.8l-338.4,0c-25.85,0-46.8-20.95-46.8-46.8v0
		c0-25.85,20.95-46.8,46.8-46.8l338.4,0C1012.7,498.41,1033.65,519.37,1033.65,545.21z"/>
	<circle class="st1" cx="979.37" cy="545.21" r="34.72"/>
	<circle class="st1" cx="669.23" cy="545.21" r="34.72"/>
	<circle class="st1" cx="824.3" cy="545.21" r="34.72"/>
</g>
<g>
	<path class="st0" d="M1033.65,847.21L1033.65,847.21c0,25.85-20.95,46.8-46.8,46.8l-338.4,0c-25.85,0-46.8-20.95-46.8-46.8v0
		c0-25.85,20.95-46.8,46.8-46.8l338.4,0C1012.7,800.41,1033.65,821.37,1033.65,847.21z"/>
	<circle class="st1" cx="979.37" cy="847.21" r="34.72"/>
	<circle class="st1" cx="669.23" cy="847.21" r="34.72"/>
	<circle class="st1" cx="824.3" cy="847.21" r="34.72"/>
</g>
<g>
	<path class="st0" d="M1516.85,847.21L1516.85,847.21c0,25.85-20.95,46.8-46.8,46.8l-338.4,0c-25.85,0-46.8-20.95-46.8-46.8v0
		c0-25.85,20.95-46.8,46.8-46.8l338.4,0C1495.9,800.41,1516.85,821.37,1516.85,847.21z"/>
	<circle class="st1" cx="1462.57" cy="847.21" r="34.72"/>
	<circle class="st1" cx="1152.43" cy="847.21" r="34.72"/>
	<circle class="st1" cx="1307.5" cy="847.21" r="34.72"/>
</g>
<g>
	<path class="st0" d="M1654.83,1034.62L1654.83,1034.62c6.4,25.04-8.71,50.53-33.75,56.93l-327.86,83.82
		c-25.04,6.4-50.53-8.71-56.93-33.75l0,0c-6.4-25.04,8.71-50.53,33.75-56.93l327.86-83.82
		C1622.94,994.47,1648.43,1009.58,1654.83,1034.62z"/>
	<circle class="st1" cx="1602.23" cy="1048.06" r="34.72"/>
	<circle class="st1" cx="1301.76" cy="1124.88" r="34.72"/>
	<circle class="st1" cx="1452" cy="1086.47" r="34.72"/>
</g>
<g>
	<path class="st0" d="M1960.72,1164.97L1960.72,1164.97c-8.18,24.52-34.68,37.77-59.2,29.59l-321.02-107.05
		c-24.52-8.18-37.77-34.68-29.59-59.2l0,0c8.18-24.52,34.68-37.77,59.2-29.59l321.02,107.05
		C1955.64,1113.95,1968.89,1140.45,1960.72,1164.97z"/>
	<circle class="st1" cx="1909.22" cy="1147.8" r="34.72"/>
	<circle class="st1" cx="1615.01" cy="1049.69" r="34.72"/>
	<circle class="st1" cx="1762.11" cy="1098.74" r="34.72"/>
</g>
<g>
	<path class="st0" d="M1351.38,1148.78L1351.38,1148.78c-8.18,24.52-34.68,37.77-59.2,29.59l-321.02-107.05
		c-24.52-8.18-37.77-34.68-29.59-59.2v0c8.18-24.52,34.68-37.77,59.2-29.59l321.02,107.05
		C1346.31,1097.75,1359.56,1124.26,1351.38,1148.78z"/>
	<circle class="st1" cx="1299.88" cy="1131.6" r="34.72"/>
	<circle class="st1" cx="1005.68" cy="1033.5" r="34.72"/>
	<circle class="st1" cx="1152.78" cy="1082.55" r="34.72"/>
</g>
<g>
	<path class="st0" d="M1054.03,1013.12L1054.03,1013.12c7.5,24.74-6.48,50.86-31.21,58.36l-323.86,98.15
		c-24.74,7.5-50.86-6.48-58.36-31.21v0c-7.5-24.74,6.48-50.86,31.21-58.36l323.85-98.15
		C1020.4,974.41,1046.53,988.39,1054.03,1013.12z"/>
	<circle class="st1" cx="1002.07" cy="1028.87" r="34.72"/>
	<circle class="st1" cx="705.27" cy="1118.82" r="34.72"/>
	<circle class="st1" cx="853.67" cy="1073.84" r="34.72"/>
</g>
<g>
	<path class="st0" d="M1597.65,180.6L1597.65,180.6c25.85,0,46.8,20.95,46.8,46.8v635.63c0,25.85-20.95,46.8-46.8,46.8h0
		c-25.85,0-46.8-20.95-46.8-46.8V227.4C1550.85,201.55,1571.81,180.6,1597.65,180.6z"/>
	<circle class="st1" cx="1597.65" cy="234.88" r="34.72"/>
	<circle class="st1" cx="1597.65" cy="855.15" r="34.72"/>
	<circle class="st1" cx="1597.65" cy="545.02" r="34.72"/>
	<circle class="st1" cx="1597.65" cy="700.08" r="34.72"/>
	<circle class="st1" cx="1597.65" cy="389.95" r="34.72"/>
</g>
<g>
	<path class="st0" d="M1974.85,847.21L1974.85,847.21c0,25.85-20.95,46.8-46.8,46.8l-338.4,0c-25.85,0-46.8-20.95-46.8-46.8v0
		c0-25.85,20.95-46.8,46.8-46.8l338.4,0C1953.9,800.41,1974.85,821.37,1974.85,847.21z"/>
	<circle class="st1" cx="1920.57" cy="847.21" r="34.72"/>
	<circle class="st1" cx="1610.43" cy="847.21" r="34.72"/>
	<circle class="st1" cx="1765.5" cy="847.21" r="34.72"/>
</g>
<g>
	<path class="st0" d="M2071.65,166.78L2071.65,166.78c25.85,0,46.8,20.95,46.8,46.8v635.63c0,25.85-20.95,46.8-46.8,46.8h0
		c-25.85,0-46.8-20.95-46.8-46.8V213.58C2024.85,187.73,2045.81,166.78,2071.65,166.78z"/>
	<circle class="st1" cx="2071.65" cy="221.07" r="34.72"/>
	<circle class="st1" cx="2071.65" cy="841.33" r="34.72"/>
	<circle class="st1" cx="2071.65" cy="531.2" r="34.72"/>
	<circle class="st1" cx="2071.65" cy="686.27" r="34.72"/>
	<circle class="st1" cx="2071.65" cy="376.13" r="34.72"/>
</g>
<g>
	<path class="st0" d="M2448.85,833.4L2448.85,833.4c0,25.85-20.95,46.8-46.8,46.8l-338.4,0c-25.85,0-46.8-20.95-46.8-46.8v0
		c0-25.85,20.95-46.8,46.8-46.8l338.4,0C2427.9,786.6,2448.85,807.55,2448.85,833.4z"/>
	<circle class="st1" cx="2394.57" cy="833.4" r="34.72"/>
	<circle class="st1" cx="2084.43" cy="833.4" r="34.72"/>
	<circle class="st1" cx="2239.5" cy="833.4" r="34.72"/>
</g>
<g>
	<path class="st0" d="M2394.05,896.01L2394.05,896.01c-25.85,0-46.8-20.95-46.8-46.8V213.58c0-25.85,20.95-46.8,46.8-46.8l0,0
		c25.85,0,46.8,20.95,46.8,46.8v635.63C2440.85,875.06,2419.9,896.01,2394.05,896.01z"/>
	<circle class="st1" cx="2394.05" cy="841.73" r="34.72"/>
	<circle class="st1" cx="2394.05" cy="221.46" r="34.72"/>
	<circle class="st1" cx="2394.05" cy="531.59" r="34.72"/>
	<circle class="st1" cx="2394.05" cy="376.53" r="34.72"/>
	<circle class="st1" cx="2394.05" cy="686.66" r="34.72"/>
</g>
<g>
	<path class="st0" d="M2016.85,229.4L2016.85,229.4c0-25.85,20.95-46.8,46.8-46.8l338.4,0c25.85,0,46.8,20.95,46.8,46.8v0
		c0,25.85-20.95,46.8-46.8,46.8l-338.4,0C2037.81,276.2,2016.85,255.24,2016.85,229.4z"/>
	<circle class="st1" cx="2071.14" cy="229.4" r="34.72"/>
	<circle class="st1" cx="2381.27" cy="229.4" r="34.72"/>
	<circle class="st1" cx="2226.21" cy="229.4" r="34.72"/>
</g>
<g>
	<circle class="st2" cx="1613.11" cy="847.21" r="45.06"/>
	
		<rect x="1603.15" y="803.86" transform="matrix(0.7071 0.7071 -0.7071 0.7071 1071.5388 -892.498)" class="st3" width="19.93" height="86.71"/>
	<path class="st4" d="M1616.18,814.83c-10.07-2.27-21.26,1.48-27.92,9.35"/>
	<path class="st4" d="M1583.06,832.2c-1.94,3.79-3.29,7.89-3.99,12.09"/>
	<path class="st4" d="M1630.54,880.73c-7.62,4.35-17.36,4.73-25.3,1.01"/>
	<path class="st4" d="M1649.25,839.7c2.59,9.18,1.06,19.45-4.09,27.48"/>
</g>
<g>
	<circle class="st2" cx="1613.11" cy="1042.45" r="45.06"/>
	
		<rect x="1603.15" y="999.1" transform="matrix(-0.6308 0.776 -0.776 -0.6308 3439.5173 448.2569)" class="st3" width="19.93" height="86.71"/>
	<path class="st4" d="M1645.63,1042.18c1.23-10.25-3.65-20.99-12.17-26.81"/>
	<path class="st4" d="M1624.96,1011.02c-3.97-1.54-8.18-2.46-12.44-2.73"/>
	<path class="st4" d="M1581.56,1063.24c-5.1-7.13-6.49-16.78-3.6-25.06"/>
	<path class="st4" d="M1624.29,1077.63c-8.87,3.52-19.24,3.06-27.76-1.25"/>
</g>
<g>
	<circle class="st2" cx="1300.85" cy="1128.6" r="45.06"/>
	
		<rect x="1290.89" y="1085.25" transform="matrix(0.2477 0.9688 -0.9688 0.2477 2072.084 -411.2571)" class="st3" width="19.93" height="86.71"/>
	<path class="st4" d="M1320.01,1102.31c-7.5-7.09-19.04-9.57-28.79-6.19"/>
	<path class="st4" d="M1282.66,1100.36c-3.6,2.27-6.85,5.11-9.6,8.37"/>
	<path class="st4" d="M1298.76,1166.33c-8.77-0.15-17.34-4.78-22.28-12.03"/>
	<path class="st4" d="M1335.77,1140.57c-2.45,9.22-9,17.27-17.53,21.55"/>
</g>
<g>
	<circle class="st2" cx="1004.85" cy="1030.7" r="45.06"/>
	
		<rect x="994.89" y="987.35" transform="matrix(0.4307 -0.9025 0.9025 0.4307 -358.1283 1493.6989)" class="st3" width="19.93" height="86.71"/>
	<path class="st4" d="M973.3,1038.61c1.22,10.25,8.48,19.54,18.13,23.2"/>
	<path class="st4" d="M1000.73,1064.05c4.22,0.56,8.53,0.47,12.73-0.27"/>
	<path class="st4" d="M1030.64,1003.09c6.64,5.73,10.25,14.78,9.39,23.51"/>
	<path class="st4" d="M985.72,999.14c7.79-5.51,17.98-7.49,27.27-5.31"/>
</g>
<g>
	<circle class="st2" cx="2071.65" cy="229.4" r="45.06"/>
	
		<rect x="2061.69" y="186.04" transform="matrix(0.4678 0.8838 -0.8838 0.4678 1305.2987 -1708.92)" class="st3" width="19.93" height="86.71"/>
	<path class="st4" d="M2084.11,199.35c-8.95-5.13-20.75-4.84-29.44,0.73"/>
	<path class="st4" d="M2047.35,206.2c-2.97,3.06-5.46,6.57-7.37,10.38"/>
	<path class="st4" d="M2078.45,266.56c-8.56,1.91-17.98-0.58-24.48-6.47"/>
	<path class="st4" d="M2108.4,232.85c-0.23,9.54-4.7,18.9-11.99,25.06"/>
</g>
<g>
	<circle class="st2" cx="2084.83" cy="833.4" r="45.06"/>
	
		<rect x="2074.87" y="790.04" transform="matrix(-0.5867 0.8098 -0.8098 -0.5867 3982.8247 -366.0622)" class="st3" width="19.93" height="86.71"/>
	<path class="st4" d="M2117.29,831.32c0.65-10.3-4.81-20.76-13.64-26.1"/>
	<path class="st4" d="M2094.92,801.35c-4.05-1.32-8.31-2-12.57-2.03"/>
	<path class="st4" d="M2054.48,855.9c-5.49-6.84-7.41-16.39-4.99-24.82"/>
	<path class="st4" d="M2097.95,867.9c-8.66,4.01-19.04,4.12-27.78,0.3"/>
</g>
<g>
	<circle class="st2" cx="2394.05" cy="833.4" r="45.06"/>
	
		<rect x="2384.09" y="790.04" transform="matrix(-0.0833 0.9965 -0.9965 -0.0833 3423.96 -1482.9236)" class="st3" width="19.93" height="86.71"/>
	<path class="st4" d="M2420.76,814.83c-4.77-9.15-14.85-15.28-25.17-15.28"/>
	<path class="st4" d="M2386.11,800.75c-4.15,0.97-8.15,2.58-11.81,4.76"/>
	<path class="st4" d="M2379.72,868.35c-8.24-3.01-14.82-10.2-17.11-18.66"/>
	<path class="st4" d="M2423.13,856.14c-5.34,7.91-14.16,13.37-23.62,14.62"/>
</g>
<g>
	<circle class="st2" cx="2390.31" cy="231.4" r="45.06"/>
	
		<rect x="2380.35" y="188.05" transform="matrix(-1 -4.186685e-14 4.186685e-14 -1 4780.626 462.805)" class="st3" width="19.93" height="86.71"/>
	<path class="st4" d="M2411.04,256.47c8.72-5.51,13.99-16.07,13.13-26.36"/>
	<path class="st4" d="M2422.18,220.77c-1.31-4.05-3.25-7.9-5.73-11.37"/>
	<path class="st4" d="M2354.28,220.03c2.31-8.46,8.92-15.62,17.17-18.6"/>
	<path class="st4" d="M2370.07,262.27c-8.33-4.66-14.51-13-16.54-22.32"/>
</g>
<g>
	<circle class="st2" cx="1152.11" cy="847.21" r="45.06"/>
	
		<rect x="1142.15" y="803.86" transform="matrix(-0.7071 0.7071 -0.7071 -0.7071 2565.8445 631.618)" class="st3" width="19.93" height="86.71"/>
	<path class="st4" d="M1184.49,850.28c2.27-10.07-1.48-21.26-9.35-27.92"/>
	<path class="st4" d="M1167.12,817.16c-3.79-1.94-7.89-3.29-12.09-3.99"/>
	<path class="st4" d="M1118.59,864.65c-4.35-7.62-4.73-17.36-1.01-25.3"/>
	<path class="st4" d="M1159.62,883.35c-9.18,2.59-19.45,1.06-27.48-4.09"/>
</g>
<g>
	<circle class="st2" cx="668.65" cy="847.21" r="45.06"/>
	
		<rect x="658.69" y="803.86" transform="matrix(0.7339 0.6793 -0.6793 0.7339 753.4244 -228.7425)" class="st3" width="19.93" height="86.71"/>
	<path class="st4" d="M670.47,814.74c-10.15-1.88-21.18,2.3-27.54,10.42"/>
	<path class="st4" d="M638.04,833.37c-1.79,3.87-2.98,8.01-3.52,12.23"/>
	<path class="st4" d="M687.37,880.04c-7.44,4.64-17.16,5.4-25.24,1.99"/>
	<path class="st4" d="M704.48,838.31c2.94,9.08,1.81,19.39-3.02,27.62"/>
</g>
<g>
	<circle class="st2" cx="668.65" cy="545.21" r="45.06"/>
	
		<rect x="658.69" y="501.86" transform="matrix(-0.2273 0.9738 -0.9738 -0.2273 1351.578 17.9874)" class="st3" width="19.93" height="86.71"/>
	<path class="st4" d="M697.77,530.73c-3.38-9.75-12.47-17.27-22.68-18.78"/>
	<path class="st4" d="M665.54,511.76c-4.25,0.36-8.44,1.37-12.37,2.99"/>
	<path class="st4" d="M649.39,577.71c-7.71-4.18-13.18-12.24-14.21-20.95"/>
	<path class="st4" d="M694.11,571.94c-6.43,7.05-15.96,11.17-25.5,11.03"/>
</g>
<g>
	<circle class="st2" cx="668.65" cy="237.21" r="45.06"/>
	
		<rect x="658.69" y="193.86" transform="matrix(-0.9287 0.3709 -0.3709 -0.9287 1377.5934 209.4691)" class="st3" width="19.93" height="86.71"/>
	<path class="st4" d="M697.2,252.8c6.06-8.35,7.03-20.11,2.42-29.35"/>
	<path class="st4" d="M694.3,215.52c-2.72-3.28-5.95-6.13-9.54-8.43"/>
	<path class="st4" d="M630.97,240.01c-0.99-8.71,2.49-17.82,9.05-23.65"/>
	<path class="st4" d="M661.3,273.39c-9.46-1.24-18.29-6.69-23.64-14.6"/>
</g>
<g>
	<circle class="st2" cx="668.65" cy="237.21" r="45.06"/>
	
		<rect x="658.69" y="193.86" transform="matrix(-0.9287 0.3709 -0.3709 -0.9287 1377.5934 209.4691)" class="st3" width="19.93" height="86.71"/>
	<path class="st4" d="M697.2,252.8c6.06-8.35,7.03-20.11,2.42-29.35"/>
	<path class="st4" d="M694.3,215.52c-2.72-3.28-5.95-6.13-9.54-8.43"/>
	<path class="st4" d="M630.97,240.01c-0.99-8.71,2.49-17.82,9.05-23.65"/>
	<path class="st4" d="M661.3,273.39c-9.46-1.24-18.29-6.69-23.64-14.6"/>
</g>
<g>
	<circle class="st2" cx="507.38" cy="545.21" r="45.06"/>
	
		<rect x="497.42" y="501.86" transform="matrix(-0.8051 0.5931 -0.5931 -0.8051 1239.2588 683.2544)" class="st3" width="19.93" height="86.71"/>
	<path class="st4" d="M538.94,553.1c3.76-9.61,1.73-21.24-5.06-29.01"/>
	<path class="st4" d="M526.73,517.75c-3.46-2.49-7.3-4.44-11.36-5.76"/>
	<path class="st4" d="M471.63,557.42c-3.15-8.18-2.08-17.87,2.79-25.16"/>
	<path class="st4" d="M509.39,582.07c-9.47,1.19-19.39-1.86-26.56-8.16"/>
</g>
<g>
	<circle class="st2" cx="201.39" cy="545.21" r="45.06"/>
	
		<rect x="191.43" y="501.86" transform="matrix(-0.29 -0.957 0.957 -0.29 -261.9712 896.0826)" class="st3" width="19.93" height="86.71"/>
	<path class="st4" d="M183.41,572.32c7.81,6.75,19.44,8.72,29.03,4.92"/>
	<path class="st4" d="M220.81,572.63c3.5-2.43,6.62-5.4,9.22-8.78"/>
	<path class="st4" d="M201.83,507.43c8.77-0.24,17.54,4.01,22.78,11.04"/>
	<path class="st4" d="M165.98,534.79c2.05-9.32,8.23-17.65,16.57-22.3"/>
</g>
</svg>
