<?xml version="1.0" encoding="UTF-8" standalone="no"?>
<svg
   xmlns:dc="http://purl.org/dc/elements/1.1/"
   xmlns:cc="http://creativecommons.org/ns#"
   xmlns:rdf="http://www.w3.org/1999/02/22-rdf-syntax-ns#"
   xmlns:svg="http://www.w3.org/2000/svg"
   xmlns="http://www.w3.org/2000/svg"
   xmlns:sodipodi="http://sodipodi.sourceforge.net/DTD/sodipodi-0.dtd"
   xmlns:inkscape="http://www.inkscape.org/namespaces/inkscape"
   version="1.1"
   id="Layer_1"
   x="0px"
   y="0px"
   viewBox="0 0 1212 878"
   style="enable-background:new 0 0 1212 878;"
   xml:space="preserve"
   sodipodi:docname="7.svg"
   inkscape:version="1.0.1 (c497b03c, 2020-09-10)"><metadata
   id="metadata935"><rdf:RDF><cc:Work
       rdf:about=""><dc:format>image/svg+xml</dc:format><dc:type
         rdf:resource="http://purl.org/dc/dcmitype/StillImage" /></cc:Work></rdf:RDF></metadata><defs
   id="defs933"><rect
     x="66.75"
     y="394.22"
     width="427.02778"
     height="62.590456"
     id="rect939" /></defs><sodipodi:namedview
   pagecolor="#ffffff"
   bordercolor="#666666"
   borderopacity="1"
   objecttolerance="10"
   gridtolerance="10"
   guidetolerance="10"
   inkscape:pageopacity="0"
   inkscape:pageshadow="2"
   inkscape:window-width="1542"
   inkscape:window-height="1096"
   id="namedview931"
   showgrid="false"
   inkscape:zoom="0.75742574"
   inkscape:cx="584.87582"
   inkscape:cy="436.35948"
   inkscape:window-x="0"
   inkscape:window-y="25"
   inkscape:window-maximized="0"
   inkscape:current-layer="Layer_1" />
<style
   type="text/css"
   id="style833">
	.st0{opacity:0.5412;fill:url(#SVGID_1_);}
	.st1{fill:url(#SVGID_2_);}
	.st2{opacity:0.5412;fill:url(#SVGID_3_);}
	.st3{opacity:0.5412;fill:url(#SVGID_4_);}
	.st4{opacity:0.5412;fill:url(#SVGID_5_);}
	.st5{opacity:0.5412;fill:url(#SVGID_6_);}
	.st6{opacity:0.5412;fill:url(#SVGID_7_);}
	.st7{fill:none;}
	.st8{font-family:'SinhalaSangamMN-Bold';}
	.st9{font-size:110.125px;}
	.st10{letter-spacing:7;}
	.st11{fill:#303030;}
	.st12{font-size:43.25px;}
	.st13{letter-spacing:2;}
	.st14{letter-spacing:2.86;}
	.st15{font-family:'MyriadPro-Regular';}
	.st16{font-size:53.875px;}
	.st17{letter-spacing:3;}
</style>
<linearGradient
   id="SVGID_1_"
   gradientUnits="userSpaceOnUse"
   x1="658.0155"
   y1="88.8889"
   x2="758.1965"
   y2="247.1429">
	<stop
   offset="0"
   style="stop-color:#B0FFC4"
   id="stop835" />
	<stop
   offset="1"
   style="stop-color:#574569"
   id="stop837" />
</linearGradient>
<path
   class="st0"
   d="M681.55,86.89c-48.85,6.42-93.59,38.46-115.4,82.64c-9.18,18.59-13.82,42.62-0.93,58.85  c7.74,9.76,20.09,14.41,31.8,18.63c15.32,5.51,30.63,11.02,45.95,16.53c29.34,10.56,61.04,21.24,91.08,12.86  c37.07-10.34,60.22-46.13,90.8-69.49c15.85-12.12,35.17-22.38,42.42-40.96c10.33-26.47-10.13-56.05-35.17-69.48  c-25.04-13.43-54.26-16.57-80.69-27L681.55,86.89z"
   id="path840" />
<linearGradient
   id="SVGID_2_"
   gradientUnits="userSpaceOnUse"
   x1="113.2141"
   y1="-50.0647"
   x2="791.2619"
   y2="1021.0348">
	<stop
   offset="0"
   style="stop-color:#B0FFC4"
   id="stop842" />
	<stop
   offset="1"
   style="stop-color:#574569"
   id="stop844" />
</linearGradient>
<path
   class="st1"
   d="M1212,578.76V878H0V0h580.11c45.35,68.64,76.83,151.33,141.34,199.43c47.8,35.64,107.31,47.26,163.59,64.04  c56.29,16.77,114.82,42.71,145.83,95.17c11.13,18.82,18.04,40.06,27.85,59.68c28.95,57.86,80.9,97.97,129.01,139.13  C1195.88,564.42,1204,571.52,1212,578.76z"
   id="path847" />
<linearGradient
   id="SVGID_3_"
   gradientUnits="userSpaceOnUse"
   x1="59.5818"
   y1="37.834"
   x2="128.898"
   y2="147.3315">
	<stop
   offset="0"
   style="stop-color:#B0FFC4"
   id="stop849" />
	<stop
   offset="1"
   style="stop-color:#574569"
   id="stop851" />
</linearGradient>
<path
   class="st2"
   d="M46.14,50.51c-20.76,19.55-31.37,50.45-23.49,77.86s35.75,48.69,64.11,45.8c8.85-0.9,17.34-3.91,25.58-7.26  c28.57-11.6,57.8-30.61,65.3-60.51c6.03-24.05-4.5-50.63-23.61-66.44s-45.48-21.34-70.01-17.7C76.88,23.33,69.97,28.06,46.14,50.51z  "
   id="path854" />
<linearGradient
   id="SVGID_4_"
   gradientUnits="userSpaceOnUse"
   x1="879.4359"
   y1="297.3856"
   x2="995.5063"
   y2="480.7398">
	<stop
   offset="0"
   style="stop-color:#B0FFC4"
   id="stop856" />
	<stop
   offset="1"
   style="stop-color:#574569"
   id="stop858" />
</linearGradient>
<path
   class="st3"
   d="M841.66,430.78c-8.4,14.49-4.06,33.23,4.25,47.76c20.54,35.91,65.87,56.25,105.97,46.07  s70.56-51.06,67.21-92.29c-1.49-18.33-8.84-35.7-11.66-53.88c-2.46-15.87-1.39-32.28,3.12-47.69c4.34-14.86,11.9-30.07,8.02-45.06  c-3.55-13.73-16.46-23.62-30.25-26.93c-13.79-3.31-28.33-1.04-42.01,2.72c-45.21,12.41-85.68,41.38-111.99,80.18  C819.4,363.67,808.86,392.07,841.66,430.78z"
   id="path861" />
<linearGradient
   id="SVGID_5_"
   gradientUnits="userSpaceOnUse"
   x1="451.6663"
   y1="423.5249"
   x2="534.0531"
   y2="553.6699"
   gradientTransform="matrix(0.9269 0.3752 -0.3752 0.9269 251.782 -175.1223)">
	<stop
   offset="0"
   style="stop-color:#B0FFC4"
   id="stop863" />
	<stop
   offset="1"
   style="stop-color:#574569"
   id="stop865" />
</linearGradient>
<path
   class="st4"
   d="M410.02,427.07c-11.64,28.84-16.5,64.79,3.46,88.64c12.83,15.32,33.37,22.13,53.26,24.06  c19.89,1.93,39.96-0.27,59.93,0.63c16.13,0.73,32.18,3.48,48.32,3.02c21.33-0.61,42.47-6.94,60.62-18.17  c7.79-4.82,15.27-10.81,19.3-19.03c4.41-9,4.15-19.7,1.63-29.4c-5.77-22.2-22.59-40.39-42.45-51.86  c-19.86-11.48-42.62-16.93-65.3-20.41c-10.6-1.63-21.59-2.84-31.92,0.05c-7.75,2.16-14.79,6.55-22.66,8.2  c-16.28,3.41-32.28-5.26-47.89-11C430.7,396.05,422.25,396.77,410.02,427.07z"
   id="path868" />
<linearGradient
   id="SVGID_6_"
   gradientUnits="userSpaceOnUse"
   x1="101.0591"
   y1="759.219"
   x2="154.8148"
   y2="844.1359">
	<stop
   offset="0"
   style="stop-color:#B0FFC4"
   id="stop870" />
	<stop
   offset="1"
   style="stop-color:#574569"
   id="stop872" />
</linearGradient>
<path
   class="st5"
   d="M77.4,778.3c8.29-16.85,29.31-22.23,47.83-25.36c24.1-4.07,49.68-7.32,72.29,1.95  c5.78,2.37,11.37,5.64,15.21,10.56c3.1,3.98,4.88,8.81,6.36,13.63c3.19,10.41,5,22.37-0.7,31.64  c-6.42,10.45-19.82,13.72-31.86,16.08c-36.92,7.23-73.84,14.47-117.68,21.62c-8.23,1.03-18.31,1.25-22.81-5.72  c-3.35-5.19-1.85-12-0.24-17.97C48.35,815.28,60.53,812.58,77.4,778.3z"
   id="path875" />
<linearGradient
   id="SVGID_7_"
   gradientUnits="userSpaceOnUse"
   x1="1100.7759"
   y1="85.3743"
   x2="1196.1848"
   y2="236.09">
	<stop
   offset="0"
   style="stop-color:#B0FFC4"
   id="stop877" />
	<stop
   offset="1"
   style="stop-color:#574569"
   id="stop879" />
</linearGradient>
<path
   class="st6"
   d="M1184.89,71.14c-30.74-2.74-64.88-4.52-89,14.73c-11.38,9.08-19.09,21.88-26.43,34.46  c-5.33,9.13-10.65,20.57-5.32,29.7c2.33,4,6.33,6.68,9.66,9.89c22.13,21.34,12.87,62.6,35.47,83.45c8.43,7.78,20,11.22,31.37,12.75  c25.01,3.38,51.07-1.54,73.12-13.81l1.67-118.45L1184.89,71.14z"
   id="path882" />
<rect
   x="55.69"
   y="123"
   class="st7"
   width="657.95"
   height="334"
   id="rect884" />
<text
   transform="matrix(1 0 0 1 55.6877 197.9577)"
   id="text890"><tspan
     x="0"
     y="0"
     class="st8 st9 st10"
     id="tspan886">KOLOBOV</tspan><tspan
     x="0"
     y="132.15"
     class="st8 st9 st10"
     id="tspan888">KIRILL</tspan></text>
<rect
   x="55.69"
   y="123"
   class="st7"
   width="657.95"
   height="334"
   id="rect892" />
<text
   transform="matrix(1 0 0 1 55.6877 197.9577)"
   id="text898"><tspan
     x="0"
     y="0"
     class="st8 st9 st10"
     id="tspan894">KOLOBOV</tspan><tspan
     x="0"
     y="132.15"
     class="st8 st9 st10"
     id="tspan896">KIRILL</tspan></text>
<rect
   x="220.76"
   y="562.4"
   class="st7"
   width="0"
   height="0"
   id="rect900" />
<rect
   x="66.75"
   y="350.19"
   class="st7"
   width="414"
   height="125.57"
   id="rect902" />
<text
   transform="matrix(1 0 0 1 66.7485 379.6243)"
   class="st11 st8 st12 st13"
   id="text904">8(800)555-35-35</text>
<rect
   x="66.75"
   y="394.22"
   class="st7"
   width="414"
   height="125.57"
   id="rect906" />





<rect
   x="394.61"
   y="-131.32"
   class="st7"
   width="0"
   height="0"
   id="rect918" />
<rect
   x="377.08"
   y="667.5"
   class="st7"
   width="886"
   height="362.91"
   id="rect920" />
<text
   id="text928"
   x="276.73492"
   y="722.91272"><tspan
     x="276.73492"
     y="722.91272"
     class="st15 st16 st17"
     id="tspan922">- Ветеран Куликовской битвы</tspan><tspan
     x="276.73492"
     y="787.56268"
     class="st15 st16 st17"
     id="tspan924">- Мать троих детей</tspan><tspan
     x="276.73492"
     y="852.21271"
     class="st15 st16 st17"
     id="tspan926">- Главный питонист России</tspan></text>
<text
   xml:space="preserve"
   id="text937"
   style="font-style:normal;font-weight:normal;font-size:40px;line-height:1.25;font-family:sans-serif;white-space:pre;shape-inside:url(#rect939);fill:#303030;fill-opacity:1;stroke:none;"><tspan
     x="66.75"
     y="430.71392"><tspan
       style="fill:#303030;fill-opacity:1">kirill@mail.ru</tspan></tspan></text></svg>
