<?xml version="1.0" encoding="utf-8"?>
<!-- Generator: Adobe Adobe Illustrator 24.2.0, SVG Export Plug-In . SVG Version: 6.00 Build 0)  -->
<svg version="1.1" xmlns="http://www.w3.org/2000/svg" xmlns:xlink="http://www.w3.org/1999/xlink" x="0px" y="0px"
	 viewBox="0 0 700 400" style="enable-background:new 0 0 700 400;" xml:space="preserve">
<style type="text/css">
	.st0{fill:#E0483A;stroke:#000000;stroke-miterlimit:10;}
	.st1{opacity:0.4902;}
	.st2{fill:url(#SVGID_1_);}
	.st3{fill:url(#SVGID_2_);}
	.st4{fill:url(#SVGID_3_);}
	.st5{fill:url(#SVGID_4_);}
	.st6{fill:url(#SVGID_5_);}
	.st7{fill:url(#SVGID_6_);}
	.st8{fill:url(#SVGID_7_);}
	.st9{fill:url(#SVGID_8_);}
	.st10{fill:url(#SVGID_9_);}
	.st11{fill:url(#SVGID_10_);}
	.st12{fill:url(#SVGID_11_);}
	.st13{fill:url(#SVGID_12_);}
	.st14{fill:url(#SVGID_13_);}
	.st15{fill:url(#SVGID_14_);}
	.st16{fill:url(#SVGID_15_);}
	.st17{fill:url(#SVGID_16_);}
	.st18{fill:url(#SVGID_17_);}
	.st19{fill:#FFFFFF;}
	.st20{display:none;}
	.st21{fill:#FFF2F2;}
	.st22{fill:none;}
</style>
<g id="Layer_1">
	<rect class="st0" width="700" height="400"/>
	<g class="st1">
		<polygon points="99.48,150.18 112.58,150.18 112.58,182.62 99.48,181.61 		"/>
		<polygon points="131.99,150.18 145.09,150.18 128.66,183.86 116.96,182.96 		"/>
		<path d="M187.37,185.13c0.56,1.03,1.02,2.14,1.36,3.35l-35.85-2.76c0.1-0.2,0.2-0.4,0.31-0.59c1.54-2.83,3.75-5.11,6.62-6.81
			c2.87-1.71,6.36-2.57,10.47-2.57c4.11,0,7.6,0.86,10.47,2.57C183.62,180.02,185.83,182.3,187.37,185.13z"/>
		<polygon points="198.68,150.18 211.78,150.18 211.78,190.25 198.68,189.24 		"/>
		<path d="M261.08,194.04l-13.37-1.03c-0.29-0.91-0.73-1.69-1.3-2.3c-1.15-1.23-2.72-1.85-4.69-1.85c-1.97,0-3.53,0.62-4.69,1.85
			c-0.37,0.4-0.69,0.87-0.93,1.41l-13.4-1.03c0-0.02,0.01-0.03,0.01-0.05c0.34-2.23,0.98-4.19,1.92-5.91
			c1.55-2.83,3.75-5.11,6.62-6.81c2.87-1.71,6.36-2.57,10.47-2.57c4.12,0,7.61,0.86,10.48,2.57c2.87,1.7,5.07,3.98,6.61,6.81
			c0.95,1.72,1.59,3.68,1.93,5.91C260.88,192,261,193,261.08,194.04z"/>
		<path d="M310.09,197.46v0.35l-13.11-1.01v-0.23c0-2.07-0.45-3.87-1.35-5.4c-0.9-1.54-2.59-2.31-5.08-2.31
			c-1.88,0-3.45,0.65-4.69,1.99c-1.22,1.31-1.84,2.96-1.86,4.96l-13.11-1.01v-44.62H284v32.25h0.26c1.45-2.14,3.19-3.8,5.2-4.95
			c2.01-1.16,4.31-1.73,6.88-1.73c3.16,0,5.63,0.56,7.38,1.67c1.76,1.1,3.19,2.52,4.31,4.23c0.85,1.37,1.41,3.17,1.67,5.41
			C309.96,189.29,310.09,192.75,310.09,197.46z"/>
		<path d="M358.79,198.37v3.19l-13.11-1.01v-4.24c0-2.49-0.58-4.36-1.74-5.6c-1.15-1.23-2.72-1.85-4.69-1.85
			c-1.97,0-3.53,0.62-4.69,1.85c-1.15,1.24-1.73,3.11-1.73,5.6v3.25l-13.11-1.01v-0.18c0-2.67,0.17-5.11,0.52-7.33
			c0.34-2.23,0.98-4.19,1.92-5.91c1.55-2.83,3.75-5.11,6.62-6.81c2.87-1.71,6.36-2.57,10.47-2.57c4.12,0,7.61,0.86,10.48,2.57
			c2.87,1.7,5.07,3.98,6.61,6.81c0.95,1.72,1.59,3.68,1.93,5.91C358.61,193.26,358.79,195.71,358.79,198.37z"/>
		<polygon points="376,176.51 381.63,203.31 368.85,202.33 362.13,176.51 		"/>
		<polygon points="393.74,176.51 407.61,176.51 400.26,204.75 388.01,203.81 		"/>
		<polygon points="465.31,186.8 474.45,210.46 460.79,209.4 457.73,201.06 453.57,208.85 437.55,207.62 437.55,150.18 
			450.66,150.18 450.66,191.94 450.92,191.94 470.06,150.18 483.17,150.18 		"/>
		<rect x="491.52" y="150.18" width="13.11" height="13.11"/>
		<polygon points="491.52,176.51 504.63,176.51 504.63,212.78 491.52,211.77 		"/>
		<path d="M536.37,177.81c2.57-1.37,5.74-2.06,9.51-2.06v13.88c-1.29-0.52-2.62-0.77-3.99-0.77s-2.85,0.22-4.43,0.7
			c-1.59,0.48-3.02,1.26-4.31,2.38c-1.37,1.11-2.48,2.56-3.34,4.37c-0.85,1.8-1.28,4.02-1.28,6.68v11.62l-13.11-1v-37.1h13.11v6.94
			C531.18,181.06,533.8,179.18,536.37,177.81z"/>
		<rect x="551.15" y="150.18" width="13.1" height="13.11"/>
		<polygon points="551.15,176.51 564.25,176.51 564.25,217.36 551.15,216.35 		"/>
		<polygon points="574.27,150.18 587.38,150.18 587.38,219.15 574.27,218.13 		"/>
		<polygon points="611.28,150.18 611.28,220.98 598.17,219.97 598.17,150.18 		"/>
		<g>
			<path d="M126.21,188.68l1.94-3.97l-11.74-0.89l-4.59,10h-0.26v-10.37l-13.1-0.99v61.09h13.1v-27.37l7.07-13.24l14.91,40.61h13.87
				L126.21,188.68z"/>
			<path d="M188.28,192.91c-0.21-1.34-0.53-2.59-0.95-3.74l-34.88-2.64c-0.11,0.15-0.19,0.31-0.28,0.47
				c-0.94,1.72-1.59,3.68-1.93,5.91c-0.34,2.23-0.51,4.67-0.51,7.33v21.45c0,2.66,0.17,5.1,0.51,7.33c0.34,2.23,0.99,4.2,1.93,5.91
				c1.54,2.83,3.75,5.1,6.62,6.81c2.87,1.72,6.36,2.57,10.47,2.57c4.11,0,7.6-0.85,10.47-2.57c2.87-1.71,5.08-3.98,6.62-6.81
				c0.94-1.71,1.58-3.68,1.93-5.91c0.34-2.23,0.51-4.67,0.51-7.33v-21.45C188.79,197.58,188.62,195.14,188.28,192.91z
				 M175.68,223.76c0,2.49-0.57,4.35-1.73,5.59c-1.16,1.24-2.72,1.86-4.69,1.86c-1.97,0-3.53-0.62-4.69-1.86
				c-1.16-1.24-1.74-3.1-1.74-5.59v-25.57c0-2.48,0.58-4.35,1.74-5.59c1.16-1.24,2.72-1.86,4.69-1.86c1.97,0,3.53,0.62,4.69,1.86
				c1.16,1.24,1.73,3.11,1.73,5.59V223.76z"/>
			<path d="M212.11,230.25c-0.9-0.9-1.35-2.59-1.35-5.07v-34.23l-13.1-0.99v36.11c0,3.86,0.45,6.96,1.35,9.32
				c0.9,2.36,2.2,4.18,3.92,5.46c1.71,1.37,3.76,2.3,6.16,2.76c2.4,0.47,5.1,0.71,8.1,0.71v-12.33
				C214.7,231.72,213.01,231.14,212.11,230.25z"/>
			<path d="M259.94,194.66l-13.8-1.04c0.66,1.17,0.99,2.69,0.99,4.56v25.57c0,2.49-0.58,4.35-1.74,5.59
				c-1.15,1.24-2.72,1.86-4.69,1.86c-1.97,0-3.53-0.62-4.69-1.86c-1.15-1.24-1.73-3.1-1.73-5.59v-25.57c0-2.32,0.51-4.1,1.53-5.34
				l-13.92-1.06c-0.07,0.37-0.14,0.75-0.2,1.13c-0.35,2.23-0.52,4.67-0.52,7.33v21.45c0,2.66,0.17,5.1,0.52,7.33
				c0.34,2.23,0.98,4.2,1.92,5.91c1.54,2.83,3.75,5.1,6.62,6.81c2.87,1.72,6.36,2.57,10.47,2.57c4.12,0,7.6-0.85,10.48-2.57
				c2.87-1.71,5.07-3.98,6.61-6.81c0.95-1.71,1.59-3.68,1.93-5.91c0.34-2.23,0.52-4.67,0.52-7.33v-21.45
				C260.24,198.26,260.14,196.4,259.94,194.66z"/>
			<path d="M309.05,198.38l-13.13-0.99c0.03,0.34,0.04,0.7,0.04,1.06v23.9c0,2.65-0.52,4.8-1.54,6.42
				c-1.03,1.63-2.66,2.44-4.89,2.44c-1.97,0-3.55-0.74-4.75-2.24s-1.8-3.45-1.8-5.85v-25.32c0-0.48,0.03-0.94,0.11-1.38l-13.22-1
				v48.13h13.11v-5.91c1.63,1.88,3.3,3.47,5.01,4.75c1.71,1.29,4.2,1.93,7.45,1.93c5.4,0,9.21-2.05,11.44-6.17
				c0.77-1.45,1.33-3.25,1.67-5.39c0.34-2.14,0.51-5.02,0.51-8.61v-24.8C309.06,199.01,309.06,198.7,309.05,198.38z"/>
			<path d="M344.66,201.07v22.69c0,2.49-0.58,4.35-1.74,5.59c-1.15,1.24-2.72,1.86-4.69,1.86c-1.97,0-3.53-0.62-4.69-1.86
				c-1.15-1.24-1.73-3.1-1.73-5.59v-23.66l-13.1-0.99c-0.01,0.38-0.01,0.76-0.01,1.14v21.45c0,2.66,0.17,5.1,0.51,7.33
				c0.35,2.23,0.99,4.2,1.93,5.91c1.54,2.83,3.75,5.1,6.62,6.81c2.87,1.72,6.36,2.57,10.47,2.57s7.6-0.85,10.48-2.57
				c2.86-1.71,5.07-3.98,6.61-6.81c0.95-1.71,1.59-3.68,1.93-5.91c0.34-2.23,0.52-4.67,0.52-7.33v-19.63L344.66,201.07z"/>
			<path d="M387.28,204.29l-3.3,15.73h-0.26l-3.41-16.26l-12.85-0.97l10.61,40.75h11.56l9.98-38.32L387.28,204.29z"/>
			<path d="M472.82,210.76l-13.62-1.03l12.41,33.82h13.88L472.82,210.76z M436.53,208.01v35.53h13.11v-27.37l3.68-6.89
				L436.53,208.01z"/>
			<path d="M490.5,212.09v31.45h13.11v-30.46L490.5,212.09z"/>
			<path d="M514.4,213.9v29.64h13.11v-28.65L514.4,213.9z"/>
			<path d="M550.12,216.6v26.94h13.11v-25.95L550.12,216.6z"/>
			<path d="M587.71,230.25c-0.9-0.9-1.35-2.59-1.35-5.07v-5.83l-13.11-1v7.72c0,3.86,0.45,6.96,1.35,9.32
				c0.9,2.36,2.21,4.18,3.92,5.46c1.71,1.37,3.77,2.3,6.17,2.76c2.4,0.47,5.09,0.71,8.09,0.71v-12.33
				C590.3,231.72,588.61,231.14,587.71,230.25z"/>
			<path d="M611.61,230.25c-0.9-0.9-1.35-2.59-1.35-5.07v-4.03l-13.11-0.99v5.91c0,3.86,0.45,6.96,1.35,9.32
				c0.9,2.36,2.21,4.18,3.92,5.46c1.71,1.37,3.77,2.3,6.17,2.76c2.4,0.47,5.09,0.71,8.09,0.71v-12.33
				C614.2,231.72,612.51,231.14,611.61,230.25z"/>
		</g>
		<line x1="247.11" y1="190.82" x2="236.78" y2="190.04"/>
	</g>
	<linearGradient id="SVGID_1_" gradientUnits="userSpaceOnUse" x1="98.5637" y1="157.7608" x2="96.8503" y2="176.5752">
		<stop  offset="0" style="stop-color:#FFFFFF"/>
		<stop  offset="0.1494" style="stop-color:#FCFCFC"/>
		<stop  offset="0.2782" style="stop-color:#F1F1F1"/>
		<stop  offset="0.3994" style="stop-color:#DFDFDF"/>
		<stop  offset="0.5159" style="stop-color:#C6C6C6"/>
		<stop  offset="0.6292" style="stop-color:#A6A6A6"/>
		<stop  offset="0.74" style="stop-color:#7E7E7E"/>
		<stop  offset="0.8488" style="stop-color:#4F4F4F"/>
		<stop  offset="0.9533" style="stop-color:#1A1A1A"/>
		<stop  offset="1" style="stop-color:#000000"/>
	</linearGradient>
	<polygon class="st2" points="91.91,142.68 105.01,142.68 105.01,175.12 91.91,174.11 	"/>
	<linearGradient id="SVGID_2_" gradientUnits="userSpaceOnUse" x1="123.518" y1="158.3784" x2="121.6618" y2="178.7608">
		<stop  offset="0" style="stop-color:#FFFFFF"/>
		<stop  offset="0.1494" style="stop-color:#FCFCFC"/>
		<stop  offset="0.2782" style="stop-color:#F1F1F1"/>
		<stop  offset="0.3994" style="stop-color:#DFDFDF"/>
		<stop  offset="0.5159" style="stop-color:#C6C6C6"/>
		<stop  offset="0.6292" style="stop-color:#A6A6A6"/>
		<stop  offset="0.74" style="stop-color:#7E7E7E"/>
		<stop  offset="0.8488" style="stop-color:#4F4F4F"/>
		<stop  offset="0.9533" style="stop-color:#1A1A1A"/>
		<stop  offset="1" style="stop-color:#000000"/>
	</linearGradient>
	<polygon class="st3" points="124.42,142.68 137.52,142.68 121.09,176.36 109.39,175.46 	"/>
	<linearGradient id="SVGID_3_" gradientUnits="userSpaceOnUse" x1="163.76" y1="173.8353" x2="163.1471" y2="180.5653">
		<stop  offset="0" style="stop-color:#FFFFFF"/>
		<stop  offset="0.1494" style="stop-color:#FCFCFC"/>
		<stop  offset="0.2782" style="stop-color:#F1F1F1"/>
		<stop  offset="0.3994" style="stop-color:#DFDFDF"/>
		<stop  offset="0.5159" style="stop-color:#C6C6C6"/>
		<stop  offset="0.6292" style="stop-color:#A6A6A6"/>
		<stop  offset="0.74" style="stop-color:#7E7E7E"/>
		<stop  offset="0.8488" style="stop-color:#4F4F4F"/>
		<stop  offset="0.9533" style="stop-color:#1A1A1A"/>
		<stop  offset="1" style="stop-color:#000000"/>
	</linearGradient>
	<path class="st4" d="M179.8,177.63c0.56,1.03,1.02,2.14,1.36,3.35l-35.85-2.76c0.1-0.2,0.2-0.4,0.31-0.59
		c1.54-2.83,3.75-5.11,6.62-6.81c2.87-1.71,6.36-2.57,10.47-2.57c4.11,0,7.6,0.86,10.47,2.57
		C176.05,172.52,178.26,174.8,179.8,177.63z"/>
	<linearGradient id="SVGID_4_" gradientUnits="userSpaceOnUse" x1="197.7774" y1="161.4265" x2="195.6632" y2="184.6413">
		<stop  offset="0" style="stop-color:#FFFFFF"/>
		<stop  offset="0.1494" style="stop-color:#FCFCFC"/>
		<stop  offset="0.2782" style="stop-color:#F1F1F1"/>
		<stop  offset="0.3994" style="stop-color:#DFDFDF"/>
		<stop  offset="0.5159" style="stop-color:#C6C6C6"/>
		<stop  offset="0.6292" style="stop-color:#A6A6A6"/>
		<stop  offset="0.74" style="stop-color:#7E7E7E"/>
		<stop  offset="0.8488" style="stop-color:#4F4F4F"/>
		<stop  offset="0.9533" style="stop-color:#1A1A1A"/>
		<stop  offset="1" style="stop-color:#000000"/>
	</linearGradient>
	<polygon class="st5" points="191.11,142.68 204.21,142.68 204.21,182.75 191.11,181.74 	"/>
	<linearGradient id="SVGID_5_" gradientUnits="userSpaceOnUse" x1="235.1021" y1="176.4761" x2="234.1994" y2="186.3884">
		<stop  offset="0" style="stop-color:#FFFFFF"/>
		<stop  offset="0.1494" style="stop-color:#FCFCFC"/>
		<stop  offset="0.2782" style="stop-color:#F1F1F1"/>
		<stop  offset="0.3994" style="stop-color:#DFDFDF"/>
		<stop  offset="0.5159" style="stop-color:#C6C6C6"/>
		<stop  offset="0.6292" style="stop-color:#A6A6A6"/>
		<stop  offset="0.74" style="stop-color:#7E7E7E"/>
		<stop  offset="0.8488" style="stop-color:#4F4F4F"/>
		<stop  offset="0.9533" style="stop-color:#1A1A1A"/>
		<stop  offset="1" style="stop-color:#000000"/>
	</linearGradient>
	<path class="st6" d="M253.51,186.54l-13.37-1.03c-0.29-0.91-0.73-1.69-1.3-2.3c-1.15-1.23-2.72-1.85-4.69-1.85
		c-1.97,0-3.53,0.62-4.69,1.85c-0.37,0.4-0.69,0.87-0.93,1.41l-13.4-1.03c0-0.02,0.01-0.03,0.01-0.05c0.34-2.23,0.98-4.19,1.92-5.91
		c1.55-2.83,3.75-5.11,6.62-6.81c2.87-1.71,6.36-2.57,10.47-2.57c4.12,0,7.61,0.86,10.48,2.57c2.87,1.7,5.07,3.98,6.61,6.81
		c0.95,1.72,1.59,3.68,1.93,5.91C253.31,184.5,253.43,185.5,253.51,186.54z"/>
	<linearGradient id="SVGID_6_" gradientUnits="userSpaceOnUse" x1="283.0303" y1="165.2841" x2="280.624" y2="191.706">
		<stop  offset="0" style="stop-color:#FFFFFF"/>
		<stop  offset="0.1494" style="stop-color:#FCFCFC"/>
		<stop  offset="0.2782" style="stop-color:#F1F1F1"/>
		<stop  offset="0.3994" style="stop-color:#DFDFDF"/>
		<stop  offset="0.5159" style="stop-color:#C6C6C6"/>
		<stop  offset="0.6292" style="stop-color:#A6A6A6"/>
		<stop  offset="0.74" style="stop-color:#7E7E7E"/>
		<stop  offset="0.8488" style="stop-color:#4F4F4F"/>
		<stop  offset="0.9533" style="stop-color:#1A1A1A"/>
		<stop  offset="1" style="stop-color:#000000"/>
	</linearGradient>
	<path class="st7" d="M302.52,189.96v0.35l-13.11-1.01v-0.23c0-2.07-0.45-3.87-1.35-5.4c-0.9-1.54-2.59-2.31-5.08-2.31
		c-1.88,0-3.45,0.65-4.69,1.99c-1.22,1.31-1.84,2.96-1.86,4.96l-13.11-1.01v-44.62h13.11v32.25h0.26c1.45-2.14,3.19-3.8,5.2-4.95
		c2.01-1.16,4.31-1.73,6.88-1.73c3.16,0,5.63,0.56,7.38,1.67c1.76,1.1,3.19,2.52,4.31,4.23c0.85,1.37,1.41,3.17,1.67,5.41
		C302.39,181.79,302.52,185.25,302.52,189.96z"/>
	<linearGradient id="SVGID_7_" gradientUnits="userSpaceOnUse" x1="332.6973" y1="180.0871" x2="331.4003" y2="194.3286">
		<stop  offset="0" style="stop-color:#FFFFFF"/>
		<stop  offset="0.1494" style="stop-color:#FCFCFC"/>
		<stop  offset="0.2782" style="stop-color:#F1F1F1"/>
		<stop  offset="0.3994" style="stop-color:#DFDFDF"/>
		<stop  offset="0.5159" style="stop-color:#C6C6C6"/>
		<stop  offset="0.6292" style="stop-color:#A6A6A6"/>
		<stop  offset="0.74" style="stop-color:#7E7E7E"/>
		<stop  offset="0.8488" style="stop-color:#4F4F4F"/>
		<stop  offset="0.9533" style="stop-color:#1A1A1A"/>
		<stop  offset="1" style="stop-color:#000000"/>
	</linearGradient>
	<path class="st8" d="M351.22,190.87v3.19l-13.11-1.01v-4.24c0-2.49-0.58-4.36-1.74-5.6c-1.15-1.23-2.72-1.85-4.69-1.85
		c-1.97,0-3.53,0.62-4.69,1.85c-1.15,1.24-1.73,3.11-1.73,5.6v3.25l-13.11-1.01v-0.18c0-2.67,0.17-5.11,0.52-7.33
		c0.34-2.23,0.98-4.19,1.92-5.91c1.55-2.83,3.75-5.11,6.62-6.81c2.87-1.71,6.36-2.57,10.47-2.57c4.12,0,7.61,0.86,10.48,2.57
		c2.87,1.7,5.07,3.98,6.61,6.81c0.95,1.72,1.59,3.68,1.93,5.91C351.04,185.76,351.22,188.2,351.22,190.87z"/>
	<linearGradient id="SVGID_8_" gradientUnits="userSpaceOnUse" x1="364.4059" y1="181.3568" x2="363.0156" y2="196.6232">
		<stop  offset="0" style="stop-color:#FFFFFF"/>
		<stop  offset="0.1494" style="stop-color:#FCFCFC"/>
		<stop  offset="0.2782" style="stop-color:#F1F1F1"/>
		<stop  offset="0.3994" style="stop-color:#DFDFDF"/>
		<stop  offset="0.5159" style="stop-color:#C6C6C6"/>
		<stop  offset="0.6292" style="stop-color:#A6A6A6"/>
		<stop  offset="0.74" style="stop-color:#7E7E7E"/>
		<stop  offset="0.8488" style="stop-color:#4F4F4F"/>
		<stop  offset="0.9533" style="stop-color:#1A1A1A"/>
		<stop  offset="1" style="stop-color:#000000"/>
	</linearGradient>
	<polygon class="st9" points="368.43,169.01 374.06,195.81 361.28,194.83 354.56,169.01 	"/>
	<linearGradient id="SVGID_9_" gradientUnits="userSpaceOnUse" x1="390.2918" y1="182.0909" x2="388.7642" y2="198.8648">
		<stop  offset="0" style="stop-color:#FFFFFF"/>
		<stop  offset="0.1494" style="stop-color:#FCFCFC"/>
		<stop  offset="0.2782" style="stop-color:#F1F1F1"/>
		<stop  offset="0.3994" style="stop-color:#DFDFDF"/>
		<stop  offset="0.5159" style="stop-color:#C6C6C6"/>
		<stop  offset="0.6292" style="stop-color:#A6A6A6"/>
		<stop  offset="0.74" style="stop-color:#7E7E7E"/>
		<stop  offset="0.8488" style="stop-color:#4F4F4F"/>
		<stop  offset="0.9533" style="stop-color:#1A1A1A"/>
		<stop  offset="1" style="stop-color:#000000"/>
	</linearGradient>
	<polygon class="st10" points="386.17,169.01 400.04,169.01 392.69,197.25 380.44,196.31 	"/>
	<linearGradient id="SVGID_10_" gradientUnits="userSpaceOnUse" x1="450.3057" y1="169.9585" x2="447.0706" y2="205.4814">
		<stop  offset="0" style="stop-color:#FFFFFF"/>
		<stop  offset="0.1494" style="stop-color:#FCFCFC"/>
		<stop  offset="0.2782" style="stop-color:#F1F1F1"/>
		<stop  offset="0.3994" style="stop-color:#DFDFDF"/>
		<stop  offset="0.5159" style="stop-color:#C6C6C6"/>
		<stop  offset="0.6292" style="stop-color:#A6A6A6"/>
		<stop  offset="0.74" style="stop-color:#7E7E7E"/>
		<stop  offset="0.8488" style="stop-color:#4F4F4F"/>
		<stop  offset="0.9533" style="stop-color:#1A1A1A"/>
		<stop  offset="1" style="stop-color:#000000"/>
	</linearGradient>
	<polygon class="st11" points="457.74,179.3 466.88,202.95 453.22,201.9 450.16,193.56 446,201.35 429.98,200.12 429.98,142.68 
		443.09,142.68 443.09,184.44 443.35,184.44 462.49,142.68 475.6,142.68 	"/>
	<linearGradient id="SVGID_11_" gradientUnits="userSpaceOnUse" x1="490.5305" y1="148.9551" x2="489.7792" y2="157.2045">
		<stop  offset="0" style="stop-color:#FFFFFF"/>
		<stop  offset="0.1494" style="stop-color:#FCFCFC"/>
		<stop  offset="0.2782" style="stop-color:#F1F1F1"/>
		<stop  offset="0.3994" style="stop-color:#DFDFDF"/>
		<stop  offset="0.5159" style="stop-color:#C6C6C6"/>
		<stop  offset="0.6292" style="stop-color:#A6A6A6"/>
		<stop  offset="0.74" style="stop-color:#7E7E7E"/>
		<stop  offset="0.8488" style="stop-color:#4F4F4F"/>
		<stop  offset="0.9533" style="stop-color:#1A1A1A"/>
		<stop  offset="1" style="stop-color:#000000"/>
	</linearGradient>
	<rect x="483.95" y="142.68" class="st12" width="13.11" height="13.11"/>
	<linearGradient id="SVGID_12_" gradientUnits="userSpaceOnUse" x1="490.6156" y1="185.9308" x2="488.7009" y2="206.9545">
		<stop  offset="0" style="stop-color:#FFFFFF"/>
		<stop  offset="0.1494" style="stop-color:#FCFCFC"/>
		<stop  offset="0.2782" style="stop-color:#F1F1F1"/>
		<stop  offset="0.3994" style="stop-color:#DFDFDF"/>
		<stop  offset="0.5159" style="stop-color:#C6C6C6"/>
		<stop  offset="0.6292" style="stop-color:#A6A6A6"/>
		<stop  offset="0.74" style="stop-color:#7E7E7E"/>
		<stop  offset="0.8488" style="stop-color:#4F4F4F"/>
		<stop  offset="0.9533" style="stop-color:#1A1A1A"/>
		<stop  offset="1" style="stop-color:#000000"/>
	</linearGradient>
	<polygon class="st13" points="483.95,169.01 497.06,169.01 497.06,205.28 483.95,204.27 	"/>
	<linearGradient id="SVGID_13_" gradientUnits="userSpaceOnUse" x1="522.1038" y1="186.2894" x2="519.9696" y2="209.7239">
		<stop  offset="0" style="stop-color:#FFFFFF"/>
		<stop  offset="0.1494" style="stop-color:#FCFCFC"/>
		<stop  offset="0.2782" style="stop-color:#F1F1F1"/>
		<stop  offset="0.3994" style="stop-color:#DFDFDF"/>
		<stop  offset="0.5159" style="stop-color:#C6C6C6"/>
		<stop  offset="0.6292" style="stop-color:#A6A6A6"/>
		<stop  offset="0.74" style="stop-color:#7E7E7E"/>
		<stop  offset="0.8488" style="stop-color:#4F4F4F"/>
		<stop  offset="0.9533" style="stop-color:#1A1A1A"/>
		<stop  offset="1" style="stop-color:#000000"/>
	</linearGradient>
	<path class="st14" d="M528.8,170.31c2.57-1.37,5.74-2.06,9.51-2.06v13.88c-1.29-0.52-2.62-0.77-3.99-0.77s-2.85,0.22-4.43,0.7
		c-1.59,0.48-3.02,1.26-4.31,2.38c-1.37,1.11-2.48,2.56-3.34,4.37c-0.85,1.8-1.28,4.02-1.28,6.68v11.62l-13.11-1v-37.1h13.11v6.94
		C523.61,173.56,526.23,171.68,528.8,170.31z"/>
	<linearGradient id="SVGID_14_" gradientUnits="userSpaceOnUse" x1="550.1555" y1="148.9551" x2="549.4043" y2="157.2039">
		<stop  offset="0" style="stop-color:#FFFFFF"/>
		<stop  offset="0.1494" style="stop-color:#FCFCFC"/>
		<stop  offset="0.2782" style="stop-color:#F1F1F1"/>
		<stop  offset="0.3994" style="stop-color:#DFDFDF"/>
		<stop  offset="0.5159" style="stop-color:#C6C6C6"/>
		<stop  offset="0.6292" style="stop-color:#A6A6A6"/>
		<stop  offset="0.74" style="stop-color:#7E7E7E"/>
		<stop  offset="0.8488" style="stop-color:#4F4F4F"/>
		<stop  offset="0.9533" style="stop-color:#1A1A1A"/>
		<stop  offset="1" style="stop-color:#000000"/>
	</linearGradient>
	<rect x="543.58" y="142.68" class="st15" width="13.1" height="13.11"/>
	<linearGradient id="SVGID_15_" gradientUnits="userSpaceOnUse" x1="550.2487" y1="188.1312" x2="548.0936" y2="211.7958">
		<stop  offset="0" style="stop-color:#FFFFFF"/>
		<stop  offset="0.1494" style="stop-color:#FCFCFC"/>
		<stop  offset="0.2782" style="stop-color:#F1F1F1"/>
		<stop  offset="0.3994" style="stop-color:#DFDFDF"/>
		<stop  offset="0.5159" style="stop-color:#C6C6C6"/>
		<stop  offset="0.6292" style="stop-color:#A6A6A6"/>
		<stop  offset="0.74" style="stop-color:#7E7E7E"/>
		<stop  offset="0.8488" style="stop-color:#4F4F4F"/>
		<stop  offset="0.9533" style="stop-color:#1A1A1A"/>
		<stop  offset="1" style="stop-color:#000000"/>
	</linearGradient>
	<polygon class="st16" points="543.58,169.01 556.68,169.01 556.68,209.86 543.58,208.85 	"/>
	<linearGradient id="SVGID_16_" gradientUnits="userSpaceOnUse" x1="573.4238" y1="175.3061" x2="569.7922" y2="215.183">
		<stop  offset="0" style="stop-color:#FFFFFF"/>
		<stop  offset="0.1494" style="stop-color:#FCFCFC"/>
		<stop  offset="0.2782" style="stop-color:#F1F1F1"/>
		<stop  offset="0.3994" style="stop-color:#DFDFDF"/>
		<stop  offset="0.5159" style="stop-color:#C6C6C6"/>
		<stop  offset="0.6292" style="stop-color:#A6A6A6"/>
		<stop  offset="0.74" style="stop-color:#7E7E7E"/>
		<stop  offset="0.8488" style="stop-color:#4F4F4F"/>
		<stop  offset="0.9533" style="stop-color:#1A1A1A"/>
		<stop  offset="1" style="stop-color:#000000"/>
	</linearGradient>
	<polygon class="st17" points="566.7,142.68 579.81,142.68 579.81,211.64 566.7,210.63 	"/>
	<linearGradient id="SVGID_17_" gradientUnits="userSpaceOnUse" x1="597.3271" y1="176.1901" x2="593.5989" y2="217.1281">
		<stop  offset="0" style="stop-color:#FFFFFF"/>
		<stop  offset="0.1494" style="stop-color:#FCFCFC"/>
		<stop  offset="0.2782" style="stop-color:#F1F1F1"/>
		<stop  offset="0.3994" style="stop-color:#DFDFDF"/>
		<stop  offset="0.5159" style="stop-color:#C6C6C6"/>
		<stop  offset="0.6292" style="stop-color:#A6A6A6"/>
		<stop  offset="0.74" style="stop-color:#7E7E7E"/>
		<stop  offset="0.8488" style="stop-color:#4F4F4F"/>
		<stop  offset="0.9533" style="stop-color:#1A1A1A"/>
		<stop  offset="1" style="stop-color:#000000"/>
	</linearGradient>
	<polygon class="st18" points="603.71,142.68 603.71,213.48 590.6,212.47 590.6,142.68 	"/>
	<g>
		<path class="st19" d="M117.89,180.59l1.94-3.97l-11.74-0.89l-4.59,10h-0.26v-10.37l-13.1-0.99v61.09h13.1v-27.37l7.07-13.24
			l14.91,40.61h13.87L117.89,180.59z"/>
		<path class="st19" d="M179.96,184.83c-0.21-1.34-0.53-2.59-0.95-3.74l-34.88-2.64c-0.11,0.15-0.19,0.31-0.28,0.47
			c-0.94,1.72-1.59,3.68-1.93,5.91c-0.34,2.23-0.51,4.67-0.51,7.33v21.45c0,2.66,0.17,5.1,0.51,7.33c0.34,2.23,0.99,4.2,1.93,5.91
			c1.54,2.83,3.75,5.1,6.62,6.81c2.87,1.72,6.36,2.57,10.47,2.57c4.11,0,7.6-0.85,10.47-2.57c2.87-1.71,5.08-3.98,6.62-6.81
			c0.94-1.71,1.58-3.68,1.93-5.91c0.34-2.23,0.51-4.67,0.51-7.33v-21.45C180.47,189.49,180.3,187.05,179.96,184.83z M167.36,215.67
			c0,2.49-0.57,4.35-1.73,5.59c-1.16,1.24-2.72,1.86-4.69,1.86c-1.97,0-3.53-0.62-4.69-1.86c-1.16-1.24-1.74-3.1-1.74-5.59V190.1
			c0-2.48,0.58-4.35,1.74-5.59c1.16-1.24,2.72-1.86,4.69-1.86c1.97,0,3.53,0.62,4.69,1.86c1.16,1.24,1.73,3.11,1.73,5.59V215.67z"/>
		<path class="st19" d="M203.79,222.16c-0.9-0.9-1.35-2.59-1.35-5.07v-34.23l-13.1-0.99v36.11c0,3.86,0.45,6.96,1.35,9.32
			c0.9,2.36,2.2,4.18,3.92,5.46c1.71,1.37,3.76,2.3,6.16,2.76c2.4,0.47,5.1,0.71,8.1,0.71V223.9
			C206.38,223.64,204.69,223.05,203.79,222.16z"/>
		<path class="st19" d="M251.62,186.58l-13.8-1.04c0.66,1.17,0.99,2.69,0.99,4.56v25.57c0,2.49-0.58,4.35-1.74,5.59
			c-1.15,1.24-2.72,1.86-4.69,1.86c-1.97,0-3.53-0.62-4.69-1.86c-1.15-1.24-1.73-3.1-1.73-5.59V190.1c0-2.32,0.51-4.1,1.53-5.34
			l-13.92-1.06c-0.07,0.37-0.14,0.75-0.2,1.13c-0.35,2.23-0.52,4.67-0.52,7.33v21.45c0,2.66,0.17,5.1,0.52,7.33
			c0.34,2.23,0.98,4.2,1.92,5.91c1.54,2.83,3.75,5.1,6.62,6.81c2.87,1.72,6.36,2.57,10.47,2.57c4.12,0,7.6-0.85,10.48-2.57
			c2.87-1.71,5.07-3.98,6.61-6.81c0.95-1.71,1.59-3.68,1.93-5.91c0.34-2.23,0.52-4.67,0.52-7.33v-21.45
			C251.92,190.17,251.82,188.32,251.62,186.58z"/>
		<path class="st19" d="M300.73,190.29l-13.13-0.99c0.03,0.34,0.04,0.7,0.04,1.06v23.9c0,2.65-0.52,4.8-1.54,6.42
			c-1.03,1.63-2.66,2.44-4.89,2.44c-1.97,0-3.55-0.74-4.75-2.24s-1.8-3.45-1.8-5.85v-25.32c0-0.48,0.03-0.94,0.11-1.38l-13.22-1
			v48.13h13.11v-5.91c1.63,1.88,3.3,3.47,5.01,4.75c1.71,1.29,4.2,1.93,7.45,1.93c5.4,0,9.21-2.05,11.44-6.17
			c0.77-1.45,1.33-3.25,1.67-5.39c0.34-2.14,0.51-5.02,0.51-8.61v-24.8C300.74,190.92,300.74,190.61,300.73,190.29z"/>
		<path class="st19" d="M336.34,192.98v22.69c0,2.49-0.58,4.35-1.74,5.59c-1.15,1.24-2.72,1.86-4.69,1.86
			c-1.97,0-3.53-0.62-4.69-1.86c-1.15-1.24-1.73-3.1-1.73-5.59v-23.66l-13.1-0.99c-0.01,0.38-0.01,0.76-0.01,1.14v21.45
			c0,2.66,0.17,5.1,0.51,7.33c0.35,2.23,0.99,4.2,1.93,5.91c1.54,2.83,3.75,5.1,6.62,6.81c2.87,1.72,6.36,2.57,10.47,2.57
			s7.6-0.85,10.48-2.57c2.86-1.71,5.07-3.98,6.61-6.81c0.95-1.71,1.59-3.68,1.93-5.91c0.34-2.23,0.52-4.67,0.52-7.33v-19.63
			L336.34,192.98z"/>
		<path class="st19" d="M378.96,196.21l-3.3,15.73h-0.26l-3.41-16.26l-12.85-0.97l10.61,40.75h11.56l9.98-38.32L378.96,196.21z"/>
		<path class="st19" d="M464.5,202.67l-13.62-1.03l12.41,33.82h13.88L464.5,202.67z M428.21,199.92v35.53h13.11v-27.37l3.68-6.89
			L428.21,199.92z"/>
		<path class="st19" d="M482.18,204.01v31.45h13.11v-30.46L482.18,204.01z"/>
		<path class="st19" d="M506.08,205.82v29.64h13.11V206.8L506.08,205.82z"/>
		<path class="st19" d="M541.8,208.52v26.94h13.11v-25.95L541.8,208.52z"/>
		<path class="st19" d="M579.39,222.16c-0.9-0.9-1.35-2.59-1.35-5.07v-5.83l-13.11-1v7.72c0,3.86,0.45,6.96,1.35,9.32
			c0.9,2.36,2.21,4.18,3.92,5.46c1.71,1.37,3.77,2.3,6.17,2.76c2.4,0.47,5.09,0.71,8.09,0.71V223.9
			C581.98,223.64,580.29,223.05,579.39,222.16z"/>
		<path class="st19" d="M603.29,222.16c-0.9-0.9-1.35-2.59-1.35-5.07v-4.03l-13.11-0.99v5.91c0,3.86,0.45,6.96,1.35,9.32
			c0.9,2.36,2.21,4.18,3.92,5.46c1.71,1.37,3.77,2.3,6.17,2.76c2.4,0.47,5.09,0.71,8.09,0.71V223.9
			C605.88,223.64,604.19,223.05,603.29,222.16z"/>
	</g>
	<g class="st20">
		<path class="st21" d="M124.17,140.75l-15.12,32.98l11.69,0.92l16.53-33.9H124.17z M91.66,172.37l13.1,1.03v-32.65h-13.1V172.37z"
			/>
		<path class="st21" d="M179.55,175.7c-1.54-2.83-3.75-5.1-6.62-6.81c-2.87-1.71-6.36-2.57-10.47-2.57c-4.11,0-7.6,0.86-10.47,2.57
			c-2.87,1.71-5.08,3.98-6.62,6.81c-0.15,0.27-0.29,0.55-0.42,0.84l36.05,2.81C180.64,178.03,180.16,176.81,179.55,175.7z"/>
		<path class="st21" d="M190.86,140.75v39.37l13.1,1.02v-40.39H190.86z"/>
		<path class="st21" d="M252.92,181.61c-0.34-2.23-0.98-4.19-1.93-5.91c-1.54-2.83-3.74-5.1-6.61-6.81
			c-2.87-1.71-6.36-2.57-10.48-2.57c-4.11,0-7.6,0.86-10.47,2.57c-2.87,1.71-5.07,3.98-6.62,6.81c-0.94,1.72-1.58,3.68-1.92,5.91
			c-0.02,0.12-0.04,0.25-0.05,0.38l13.29,1.04c0.27-0.68,0.63-1.26,1.08-1.74c1.16-1.24,2.72-1.86,4.69-1.86
			c1.97,0,3.54,0.62,4.69,1.86c0.65,0.69,1.12,1.59,1.4,2.67L253.3,185C253.21,183.82,253.08,182.69,252.92,181.61z"/>
		<path class="st21" d="M301.88,177.63c-0.26-2.23-0.82-4.03-1.67-5.4c-1.12-1.71-2.55-3.13-4.31-4.24
			c-1.75-1.11-4.22-1.67-7.38-1.67c-2.57,0-4.87,0.58-6.88,1.73c-2.01,1.16-3.75,2.81-5.2,4.95h-0.26v-32.25h-13.11v45.01
			l13.11,1.02v-0.29c0-2.05,0.62-3.74,1.86-5.07c1.24-1.33,2.81-1.99,4.69-1.99c2.49,0,4.18,0.77,5.08,2.31s1.35,3.34,1.35,5.4v0.66
			l13.11,1.02v-0.78C302.27,183.33,302.14,179.86,301.88,177.63z"/>
		<path class="st21" d="M350.45,181.61c-0.34-2.23-0.98-4.19-1.93-5.91c-1.54-2.83-3.74-5.1-6.61-6.81
			c-2.87-1.71-6.36-2.57-10.48-2.57c-4.11,0-7.6,0.86-10.47,2.57c-2.87,1.71-5.07,3.98-6.62,6.81c-0.94,1.72-1.58,3.68-1.92,5.91
			c-0.35,2.23-0.52,4.67-0.52,7.33v0.63l13.11,1.03v-3.72c0-2.48,0.58-4.35,1.73-5.59c1.16-1.24,2.72-1.86,4.69-1.86
			c1.97,0,3.54,0.62,4.69,1.86c1.16,1.24,1.74,3.11,1.74,5.59v4.72l13.11,1.02v-3.68C350.97,186.28,350.79,183.84,350.45,181.61z"/>
		<path class="st21" d="M385.92,167.09l-5.84,27.81l12.22,0.95l7.49-28.76H385.92z M368.18,167.09h-13.87l6.85,26.33l12.76,0.99
			L368.18,167.09z"/>
		<path class="st21" d="M475.35,140.75h-13.11l-19.14,41.76h-0.26v-41.76h-13.11v58.02l15.71,1.23l4.47-8.37l3.29,8.98l13.68,1.06
			l-9.39-24.3L475.35,140.75z"/>
		<path class="st21" d="M483.7,140.75v13.11h13.11v-13.11H483.7z M483.7,167.09v35.9l13.11,1.02v-36.92H483.7z"/>
		<path class="st21" d="M528.55,168.38c-2.57,1.37-5.19,3.25-7.84,5.65v-6.94H507.6v37.76l13.11,1.03v-12.32
			c0-2.65,0.43-4.88,1.28-6.68c0.86-1.8,1.97-3.26,3.34-4.37c1.29-1.11,2.72-1.9,4.31-2.38c1.58-0.47,3.06-0.7,4.43-0.7
			s2.7,0.25,3.99,0.77v-13.88C534.29,166.32,531.12,167.01,528.55,168.38z"/>
		<path class="st21" d="M543.33,167.09v40.55l13.1,1.03v-41.58H543.33z M543.33,140.75v13.11h13.1v-13.11H543.33z"/>
		<path class="st21" d="M566.45,140.75v68.7l13.11,1.02v-69.72H566.45z"/>
		<path class="st21" d="M590.35,140.75v70.57l13.11,1.02v-71.59H590.35z"/>
		<line class="st21" x1="579.56" y1="210.47" x2="566.45" y2="209.45"/>
	</g>
	<line class="st22" x1="239.54" y1="183.32" x2="229.21" y2="182.54"/>
</g>
<g id="Layer_2">
</g>
</svg>
