<svg id="Layer_1" data-name="Layer 1" xmlns="http://www.w3.org/2000/svg" xmlns:xlink="http://www.w3.org/1999/xlink" viewBox="0 0 1080 792"><defs><style>.cls-1{fill:url(#radial-gradient);}.cls-2{fill:#e5231e;}.cls-3{fill:#120a33;}.cls-3,.cls-4{opacity:0.88;}</style><radialGradient id="radial-gradient" cx="540" cy="201.99" fx="-145.7509020170578" fy="44.18160671868327" r="703.67" gradientUnits="userSpaceOnUse"><stop offset="0.07" stop-color="#fff"/><stop offset="0.51" stop-color="#eb5896"/><stop offset="0.85" stop-color="#312783"/></radialGradient></defs><title>1</title><rect class="cls-1" width="1080" height="403.97"/><circle class="cls-2" cx="157.32" cy="381.92" r="132.39"/><rect class="cls-3" y="403.97" width="1080" height="388.03"/><g class="cls-4"><path d="M138.7,152.47c.29-.69,1.57-1.08,2.56-1.27a19.77,19.77,0,0,1,4.49-.11A106.7,106.7,0,0,1,158,152.32a113.5,113.5,0,0,1,23.65,6.47,107.69,107.69,0,0,1,12.53,5.92,2.53,2.53,0,0,0,3.67-1.49,95.76,95.76,0,0,1,29.46-49.67,92.11,92.11,0,0,1,13.24-9.83c2.74-1.68.23-6-2.52-4.32a100.4,100.4,0,0,0-39.51,45.78A99.31,99.31,0,0,0,193,161.89l3.67-1.5A116.18,116.18,0,0,0,144.41,146c-4.26-.12-8.72.81-10.53,5.1a2.53,2.53,0,0,0,1.75,3.08,2.57,2.57,0,0,0,3.07-1.75Z" transform="translate(0)"/></g><g class="cls-4"><path d="M360.34,339.43a50.49,50.49,0,0,1,43.09,17.69,2.52,2.52,0,0,0,4.18-1.1A80.18,80.18,0,0,1,429,316a77.7,77.7,0,0,1,9.88-8.5,2.57,2.57,0,0,0,.89-3.42,2.51,2.51,0,0,0-3.42-.89,85.56,85.56,0,0,0-29.66,38.41,80.79,80.79,0,0,0-3.86,13.11l4.18-1.1a55.32,55.32,0,0,0-35.21-19,51.23,51.23,0,0,0-11.41-.2,2.56,2.56,0,0,0-2.5,2.5,2.53,2.53,0,0,0,2.5,2.5Z" transform="translate(0)"/></g><g class="cls-4"><path d="M230.89,313a71.2,71.2,0,0,1,19.83,0,73.05,73.05,0,0,1,10.15,2.18c1.55.45,3.08,1,4.6,1.51a7.08,7.08,0,0,0,5.08.27c2.91-1.2,3.4-4.73,4.3-7.38s1.82-5.12,2.84-7.63a131.24,131.24,0,0,1,7.06-14.57A140.79,140.79,0,0,1,328,240.13a134.56,134.56,0,0,1,32.41-16.28c3-1,1.73-5.86-1.33-4.82a144.11,144.11,0,0,0-89.47,90.48c-.2.62-.49,2.64-1.06,2.89-.35.16-1.38-.37-1.76-.51-.94-.33-1.88-.66-2.84-1a74,74,0,0,0-11-2.59,79.17,79.17,0,0,0-23.41-.13,2.51,2.51,0,0,0-1.74,3.07,2.56,2.56,0,0,0,3.07,1.75Z" transform="translate(0)"/></g><g class="cls-4"><path d="M646.75,160.38c.19-4.43,2.86-8.32,6.28-11,4.2-3.27,9.56-4.6,14.77-5a94.66,94.66,0,0,1,16.58.24c4.68.45,9.49,1.49,13.44,4.16,2,1.38,3.41,3.66,5.67,4.69,3,1.38,5.61-.39,7.91-2.26a146.89,146.89,0,0,1,13.18-9.51,149.63,149.63,0,0,1,65.11-22.93,2.57,2.57,0,0,0,2.5-2.5,2.51,2.51,0,0,0-2.5-2.5,155.44,155.44,0,0,0-64.41,21.6,150.46,150.46,0,0,0-13.93,9.55q-1.76,1.37-3.48,2.76c-.5.4-1.46,1.41-2.18,1.33-.89-.11-1.92-1.73-2.52-2.29a22,22,0,0,0-3.14-2.46c-4.42-2.88-9.71-4-14.88-4.56a94.16,94.16,0,0,0-17.12-.34c-6.47.5-12.88,2.1-18.07,6.14-4.67,3.63-8,8.88-8.21,14.88-.13,3.21,4.87,3.21,5,0Z" transform="translate(0)"/></g><g class="cls-4"><path d="M712.77,317.16a34,34,0,0,1,30.59-.58,35.24,35.24,0,0,1,11.16,8.8,33.58,33.58,0,0,1,3.91,5.81c1.2,2.24,1.9,4.63,2.93,6.93a8.58,8.58,0,0,0,5.64,5,12.33,12.33,0,0,0,7.17-.71c4.88-1.81,9-5.11,13.71-7.25a52.44,52.44,0,0,1,30.67-3.74,67.15,67.15,0,0,1,17.26,6.18c5.81,2.83,11.63,5.8,18,7.27,3.13.73,4.47-4.09,1.33-4.82-11.29-2.63-20.78-10-32-12.77a57.56,57.56,0,0,0-39.9,4.62c-2.34,1.19-4.5,2.66-6.78,4-3.24,1.84-8.58,4.58-10.61,0-1.08-2.43-1.83-4.95-3.11-7.31a40.16,40.16,0,0,0-4.37-6.37,38.72,38.72,0,0,0-11.58-9.44,39.26,39.26,0,0,0-36.46.15c-2.84,1.51-.32,5.83,2.52,4.32Z" transform="translate(0)"/></g><g class="cls-4"><path d="M787.44,52a.42.42,0,0,1-.28.2c-.1,0-.42,0-.29,0l.51,3.93c9.61-9.83,25.34-12.89,38-7.57,3.68,1.54,6.86,4.47,11,4.68s7.92-2.36,11.16-4.71a50.92,50.92,0,0,1,21.34-9.21,49,49,0,0,1,25.7,2.49A2.53,2.53,0,0,0,897.66,40,2.56,2.56,0,0,0,895.91,37a54.28,54.28,0,0,0-47.43,4.82c-3.3,2.09-6.41,5.29-10.29,6.26-2,.49-3.57-.19-5.25-1.16a49.29,49.29,0,0,0-5-2.65,40.34,40.34,0,0,0-22.11-2.75,38.9,38.9,0,0,0-22,11.08,2.53,2.53,0,0,0,.51,3.93,5.63,5.63,0,0,0,7.4-2c1.73-2.73-2.6-5.25-4.31-2.53Z" transform="translate(0)"/></g><g class="cls-4"><path d="M455.67,168.31c6.51-5.65,13.48-11.78,22.13-13.66a21.58,21.58,0,0,1,11.11.41,14.93,14.93,0,0,1,4.63,2.41c1.57,1.23,2.79,2.85,4.37,4.07,1.74,1.35,3.86,2.25,6.06,1.57s3.35-2.79,4.73-4.48a55.07,55.07,0,0,1,8.36-8.29A57.12,57.12,0,0,1,537.5,140a54.75,54.75,0,0,1,25.85-1,2.57,2.57,0,0,0,3.08-1.75,2.52,2.52,0,0,0-1.75-3.07,61.84,61.84,0,0,0-47.1,9.6,60.41,60.41,0,0,0-9.49,8,61.07,61.07,0,0,0-4.11,4.84c-.36.47-.91,1.53-1.49,1.73-.35.12-1.1-.38-1.5-.69-1.6-1.22-2.82-2.87-4.42-4.11a20.38,20.38,0,0,0-5.49-3,25.71,25.71,0,0,0-12.43-1.08c-10.45,1.46-18.83,8.65-26.51,15.32a2.5,2.5,0,1,0,3.53,3.54Z" transform="translate(0)"/></g><g class="cls-4"><path d="M572.13,412c-.3-.71-.15-1,.39-1.65a13.86,13.86,0,0,1,2.28-2.05c1.8-1.42,3.62-2.83,5.49-4.17a45.9,45.9,0,0,1,12.12-6.6c7.06-2.31,15.76-1.69,20.75,4.4,1.29,1.58,2.56,3.29,4.41,4.27a5.46,5.46,0,0,0,6.44-.83c1.5-1.45,2.19-3.61,3.17-5.4a50.88,50.88,0,0,1,3.25-5.16,52.18,52.18,0,0,1,17.91-15.46,50.79,50.79,0,0,1,25.78-6c3.21.12,3.21-4.88,0-5-17.24-.67-34.54,7.37-45.48,20.65a54.51,54.51,0,0,0-7,10.91c-.28.58-.58,1.6-1.16,1.95-.27.17-.66-.12-1.08-.46-1.59-1.29-2.62-3.17-4.11-4.56-6.42-6-16.31-6.77-24.37-4.06a52.8,52.8,0,0,0-14.51,8.05,77.32,77.32,0,0,0-6.48,5.07c-2,1.83-3.74,4.68-2.59,7.43a2.6,2.6,0,0,0,3.08,1.75,2.53,2.53,0,0,0,1.75-3.08Z" transform="translate(0)"/></g><g class="cls-4"><path d="M943.16,123l.05.19v-1.33l-.05.17.65-1.11,1.9-.28.89.9c-.23.92-.16,1.27.19,1l.5-.47a8.62,8.62,0,0,1,.83-.63,11.08,11.08,0,0,1,1.76-1,12.07,12.07,0,0,1,4.6-.85,17.23,17.23,0,0,1,9.44,2.92c6.61,4.35,10,12.43,13.14,19.37a2.5,2.5,0,0,0,3.42.9c6.9-5.24,14.61-9.63,23.23-11.16,7.61-1.36,16.26-.06,22.48,4.77a2.58,2.58,0,0,0,3.54,0,2.53,2.53,0,0,0,0-3.54c-12.07-9.37-28.21-7.86-41.15-1.19a72.61,72.61,0,0,0-10.63,6.8l3.42.9c-3.52-7.82-7.43-16.13-14.78-21.07-6.25-4.2-15.54-5.39-21.81-.63-1.92,1.47-4.32,4.15-2.3,6.57s6.31.59,5.51-2.64-5.6-1.8-4.83,1.33Z" transform="translate(0)"/></g><g class="cls-4"><path d="M329.57,60.05c2.61-6,9.23-8.72,15.49-8.54,8.25.24,15.65,5.3,22.17,9.86a2.54,2.54,0,0,0,3.42-.89c8.09-12,20.07-20.76,33.14-26.68,14.89-6.73,31.27-9.51,47.47-10.59,10-.67,20-.71,30-.65,3.22,0,3.22-5,0-5-18.2-.11-36.54.16-54.44,3.78C411.56,24.43,396.56,30.2,384,39.59A76.56,76.56,0,0,0,366.33,58l3.42-.89c-6-4.21-12.42-8.37-19.7-9.91A24.46,24.46,0,0,0,331.92,50a17.19,17.19,0,0,0-6.66,7.54,2.59,2.59,0,0,0,.89,3.43,2.53,2.53,0,0,0,3.42-.9Z" transform="translate(0)"/></g><g class="cls-4"><path d="M102.45,80c-10-9.88-26.59-10.92-38.4-3.8a28.64,28.64,0,0,0-8.62,8l3.93-.51A62.45,62.45,0,0,0,17.85,63.17a60.3,60.3,0,0,0-13.49.47,2.52,2.52,0,0,0-1.75,3.08,2.57,2.57,0,0,0,3.08,1.74c14.33-2,29.28,2,41,10.43a54.88,54.88,0,0,1,9.15,8.35c1.14,1.3,3.06.71,3.92-.51,6.81-9.61,20.51-12.38,31.14-8.4a23,23,0,0,1,8,5.18c2.29,2.27,5.82-1.27,3.54-3.54Z" transform="translate(0)"/></g><g class="cls-4"><path d="M19.11,326.52c4.22-4.85,11.28-5.41,17.06-3.34,6.94,2.49,12,8.73,16,14.61,1,1.42,3.45,1.83,4.32,0,6.58-13.85,21-23.29,36.26-24.41a40.24,40.24,0,0,1,12.89,1.08c3.12.78,4.45-4,1.33-4.82-16.59-4.19-34.91,1.64-46.67,13.93a44.71,44.71,0,0,0-8.13,11.7h4.32c-4.89-7.13-10.94-14.16-19.38-17C29.89,315.77,20.81,317,15.58,323a2.55,2.55,0,0,0,0,3.53,2.51,2.51,0,0,0,3.53,0Z" transform="translate(0)"/></g></svg>