<?xml version="1.0" encoding="utf-8"?>
<!-- Generator: Adobe Adobe Illustrator 24.2.0, SVG Export Plug-In . SVG Version: 6.00 Build 0)  -->
<svg version="1.1" id="Layer_1" xmlns="http://www.w3.org/2000/svg" xmlns:xlink="http://www.w3.org/1999/xlink" x="0px" y="0px"
	 viewBox="0 0 1460 1150" style="enable-background:new 0 0 1460 1150;" xml:space="preserve">
<style type="text/css">
	.st0{opacity:0.749;}
	.st1{stroke:#000000;stroke-miterlimit:10;}
	.st2{fill:none;stroke:#000000;stroke-miterlimit:10;}
	.st3{opacity:0.749;stroke:#000000;stroke-miterlimit:10;}
</style>
<g class="st0">
	<path class="st1" d="M1289.48,183.95c36.64,2.81,127.68,39.86,144.86,70.06c-49.16-22-82.8,13.23-104.57,38.41
		c-21.77,25.18-47.88,48.32-79.18,57.55s-68.46,1.22-85.49-25.73c-1.9-3-3.52-6.08-4.89-9.22c19.41,12.19,47.14,8.6,68.08-4.02
		c23.17-13.96,10.95-49.77,56.03-58.67c-24.09-7.79-51.13-7.01-75.54,2.19c-22.54,8.49-42.7,24.12-52.3,49.53
		c-7.78-31.24,6.32-66.02,29.01-87.35C1213.25,190.6,1252.83,181.14,1289.48,183.95z"/>
	<path class="st1" d="M1010.39,155.18c14.73-28.38,49.04-91.22,83.21-96.6c-1.66,50.3,15.89,70.06,32.48,94.28
		c16.59,24.21,29.83,51.32,28.22,78.75c-1.61,27.43-21.43,54.79-52.48,60.95c-3.46,0.69-6.9,1.13-10.32,1.36
		c17.91-12.1,29.1-37.35,18.65-55.25c-17.13-29.37-43.37-22.35-36.91-60.65c-9.7,26.67-23.48,38.75-22.84,60.68
		c0.58,20.26,8.69,40.57,29.51,55.17c-32.06-2.37-60.24-23.11-72.89-47.01C991.53,217.64,995.65,183.56,1010.39,155.18z"/>
	<path class="st1" d="M1298.19,527.61c31.18-7.07,100.66-24.34,114.53-56.02c-49.08-11.13-63.76-33.11-82.98-55.3
		c-19.22-22.18-42.09-41.85-69.03-47.24c-26.94-5.39-58.43,6.85-72.25,35.33c-1.54,3.17-2.84,6.39-3.93,9.63
		c16.24-14.26,43.5-18.69,58.17-4.05c24.07,24.01,10.63,47.62,49.32,51.07c-28.25,2.63-43.43,12.9-64.49,6.73
		c-19.45-5.7-37.05-18.68-45.9-42.52c-5.83,31.61,7.1,64.13,27.01,82.42C1232.99,530.03,1267.01,534.68,1298.19,527.61z"/>
	<circle class="st1" cx="1131.54" cy="349.48" r="21.87"/>
	<circle class="st1" cx="1168.02" cy="386.78" r="10.56"/>
	<circle class="st1" cx="1086.74" cy="399.32" r="12.32"/>
	<circle class="st1" cx="1118.07" cy="451.96" r="9.05"/>
	<circle class="st1" cx="1130.45" cy="395.7" r="8.3"/>
	<circle class="st1" cx="1063.63" cy="343.63" r="12.95"/>
	
		<ellipse transform="matrix(0.2735 -0.9619 0.9619 0.2735 432.4114 1324.9751)" class="st1" cx="1093.3" cy="376.24" rx="14.33" ry="12.32"/>
	<circle class="st1" cx="1115.72" cy="429.95" r="15.09"/>
	<circle class="st1" cx="1145.08" cy="404.47" r="12.99"/>
	<circle class="st1" cx="1089.12" cy="314.71" r="13.07"/>
	<circle class="st1" cx="1107.59" cy="392.04" r="14.69"/>
	<circle class="st1" cx="1069.15" cy="438.88" r="18.42"/>
	<circle class="st1" cx="1055.65" cy="388.86" r="13.88"/>
	<circle class="st1" cx="1093.26" cy="473.98" r="14.37"/>
	<circle class="st1" cx="1006.82" cy="446.03" r="30.17"/>
</g>
<g class="st0">
	<path class="st1" d="M353.89,1017.88c-28.38,3.13-103.24-12.07-120.69-32.65c40.7,9.73,61.32-22.02,74.32-44.38
		c13-22.36,29.6-43.78,52.18-55.34c22.57-11.55,52.1-10.78,68.98,7.34c1.88,2.02,3.56,4.14,5.06,6.34
		c-16.58-6.52-37.23,0.22-51.4,12.86c-15.68,14-1.2,39.58-34.34,52.87c19.51,2.49,40.05-2,57.37-12.54
		c15.99-9.73,29.13-24.56,32.81-45.35c10.44,22.74,4.67,51.32-9.58,70.87C411.14,1001.83,382.28,1014.75,353.89,1017.88z"/>
	<path class="st1" d="M571.14,999.69c-7.17,23.79-24.32,76.71-49.63,85.74c-5.97-38.65-22.21-51.21-38.36-67.32
		c-16.15-16.1-30.16-34.9-32.88-56.07s8.48-44.92,31.3-54.09c2.54-1.02,5.11-1.86,7.68-2.52c-11.94,11.82-16.84,32.71-6.29,44.87
		c17.3,19.96,36.34,10.82,36.91,41c3.57-21.76,12.35-32.97,8.71-49.63c-3.36-15.38-12.47-29.73-30.47-37.88
		c24.82-2.8,49.32,8.98,62.42,25.41C576.55,949.28,578.31,975.9,571.14,999.69z"/>
	<path class="st1" d="M297.78,756.71c-22.79,9.88-73.36,33.07-79.39,59.26c39.08,1.44,53.45,16.11,71.32,30.28
		c17.87,14.17,38.16,25.9,59.51,26.14c21.35,0.24,43.63-13.64,50.09-37.37c0.72-2.64,1.25-5.29,1.61-7.92
		c-10.35,13.23-30.53,20.53-43.84,11.47c-21.83-14.87-14.97-34.83-45.01-31.9c21.2-6.07,31.31-16.1,48.28-14.42
		c15.67,1.55,30.98,8.93,41.17,25.87c-0.1-24.98-14.65-47.95-32.49-59.05C347.22,745.49,320.58,746.83,297.78,756.71z"/>
	<circle class="st1" cx="450.67" cy="868.75" r="17"/>
	<circle class="st1" cx="417.45" cy="845.52" r="8.21"/>
	<circle class="st1" cx="477.7" cy="824.25" r="9.57"/>
	<circle class="st1" cx="446.21" cy="788.56" r="7.03"/>
	<circle class="st1" cx="444.85" cy="833.3" r="6.45"/>
	<circle class="st1" cx="503.37" cy="863.44" r="10.06"/>
	
		<ellipse transform="matrix(0.0906 -0.9959 0.9959 0.0906 -406.4669 1240.5007)" class="st1" cx="476.02" cy="842.82" rx="11.13" ry="9.57"/>
	<circle class="st1" cx="451.17" cy="805.03" r="11.72"/>
	<circle class="st1" cx="432.42" cy="828.71" r="10.09"/>
	<circle class="st1" cx="488.07" cy="889.2" r="10.16"/>
	<circle class="st1" cx="462.83" cy="832.81" r="11.42"/>
	<circle class="st1" cx="485.44" cy="791.51" r="14.31"/>
	<circle class="st1" cx="502.95" cy="827.76" r="10.78"/>
	<circle class="st1" cx="461.98" cy="768.18" r="11.16"/>
	<circle class="st1" cx="532.01" cy="777.08" r="23.44"/>
</g>
<g class="st0">
	<g>
		<path class="st1" d="M257.56,588.6"/>
		<g>
			<path class="st1" d="M176.67,432.4c-16.58,24.5-25.07,55.42-32,86.46c26.78,2.48,53.92,10.85,80.87,15.38s54.77,4.95,76.35-7.71
				c21.57-12.66,35.1-41.18,26.48-70.78c-0.96-3.3-2.11-6.48-3.42-9.56c-1.97,20.59-18.16,35.06-36.69,38.95
				c-20.51,4.3-43.36-1.52-65.46-7.3c7.11-20.33,21.17-36.38,39.27-44.83c16.71-7.8,36.77-9.07,57.77,3.09
				c-15.99-26.99-45.21-43.05-70.17-44.28C219.13,390.32,193.25,407.9,176.67,432.4z"/>
		</g>
	</g>
	<path class="st1" d="M598.87,254.06"/>
	<path class="st1" d="M449.88,160.56c25.78-14.51,57.3-20.41,88.81-24.76c0.26,26.9,6.37,54.64,8.66,81.86
		c2.29,27.23,0.41,54.99-13.98,75.45c-14.4,20.45-43.93,31.59-72.73,20.55c-3.21-1.23-6.29-2.64-9.24-4.2
		c20.68-0.26,36.44-15.21,41.84-33.36c5.98-20.08,2.07-43.34-1.88-65.84c-20.85,5.41-38,18.1-47.92,35.44
		c-9.16,16.01-12.08,35.89-1.68,57.82c-25.58-18.16-39.17-48.6-38.34-73.58C404.44,199.41,424.1,175.07,449.88,160.56z"/>
	<g>
		<g>
			<path class="st1" d="M313.21,201.13c-27.62-6.09-94.95-26.18-124.73-19.94c7.75,27.56,37.63,63.23,53.57,111.28
				c9.12,27.5,15.96,56.31,35.05,72.32c19.09,16.01,49.09,17.38,71.85-3.64c2.53-2.34,4.9-4.82,7.11-7.42
				c-18.78,6.73-37.46-3.19-47.73-19.9c-11.37-18.49-31.26-69.11-34.37-93.43c20.46-1.53,56.25,31.16,70.36,45.52
				c13.03,13.25,21.58,32.57,18.69,58.49c17.73-27.21,20.98-62.91,12.81-88.14C365.82,225.42,340.83,207.22,313.21,201.13z"/>
		</g>
	</g>
	<circle class="st1" cx="368.73" cy="415.83" r="21.35"/>
	
		<ellipse transform="matrix(0.9149 -0.4037 0.4037 0.9149 -103.6627 199.9452)" class="st1" cx="422.36" cy="345.82" rx="12.27" ry="12.12"/>
	<circle class="st1" cx="374.01" cy="365.18" r="10.31"/>
	<circle class="st1" cx="434.11" cy="418.43" r="12.03"/>
	<circle class="st1" cx="454.12" cy="362.07" r="8.84"/>
	<circle class="st1" cx="404.14" cy="387.84" r="8.1"/>
	<circle class="st1" cx="406.67" cy="470.51" r="12.64"/>
	
		<ellipse transform="matrix(0.9149 -0.4037 0.4037 0.9149 -137.616 203.0179)" class="st1" cx="412.67" cy="427.88" rx="13.99" ry="12.03"/>
	<circle class="st1" cx="439.05" cy="377.56" r="14.73"/>
	<circle class="st1" cx="401.86" cy="334.05" r="14"/>
	<circle class="st1" cx="401.61" cy="371.38" r="12.68"/>
	<circle class="st1" cx="452.61" cy="335.32" r="14.73"/>
	<circle class="st1" cx="354.81" cy="397.26" r="11.29"/>
	<circle class="st1" cx="369.05" cy="469.39" r="12.76"/>
	<circle class="st1" cx="415.64" cy="407.3" r="14.34"/>
	<circle class="st1" cx="474.79" cy="406.98" r="17.98"/>
	<circle class="st1" cx="445.63" cy="448.31" r="13.55"/>
	<circle class="st1" cx="486.13" cy="366.99" r="14.03"/>
	<circle class="st1" cx="519.02" cy="449.36" r="29.45"/>
	<path class="st2" d="M332.33,366.74c-12.94,16.65-38.16,20.17-57.61,12.03c-19.45-8.15-33.63-25.66-43.01-44.55
		c-9.38-18.89-14.72-39.47-21.78-59.35c-21.55-60.66-59.85-115.28-106.46-159.75c61.18,10.54,122.17,22.15,182.94,34.81
		c22.85,4.76,46.69,10.16,64.48,25.27c17.22,14.63,26.59,36.87,29.79,59.24c3.19,22.37,0.79,45.13-2.07,67.54"/>
	<path class="st2" d="M324.87,460c10.93,26.99-1.82,59.57-24.72,77.56c-22.9,17.99-53.57,23.35-82.64,21.68s-57.33-9.69-85.78-15.87
		s-58.02-10.56-86.58-4.89c22.67-16,39.94-38.4,55.83-61.14s30.9-46.36,50.38-66.11s44.28-35.67,71.86-38.68
		c37.75-4.11,76.85,19.1,91.32,54.2"/>
	<path class="st2" d="M438.41,304c-25-13.44-43.97-37.67-51.02-65.17c-7.05-27.5-2.08-57.86,13.38-81.67
		c20.64-31.81,56.68-49.58,91.23-65.2s70.95-31.79,93.89-61.98c-7.92,30.1-6.03,61.85-2.78,92.8s7.82,62.06,5.09,93.07
		s-13.69,62.57-36.77,83.45C528.35,320.18,489.57,331.5,438.41,304z"/>
</g>
<g class="st0">
	<path class="st1" d="M773.73,1024.73c27.63-51.94,44.92-170.02,26.38-225.86c-31.8-95.77-195.03-247.71-244.18-280.05
		c-49.15-32.34-117.71-36.07-166.48-3.16s-70.49,103.37-42.83,155.3c27.66,51.93,104.74,71.81,150.63,34.99
		c32.91-26.41,35.73-82.35,5.64-111.93c32.97,44.48,10.53,157.67-98.41,113.93c-97.93-39.32-69.15-125.25-15.91-170.95
		c42.02-36.06,124.58-45.33,167.99-10.95c43.4,34.38,218.18,182.96,233.24,266.96C813.81,926.89,776.95,995.25,773.73,1024.73z"/>
	<path class="st1" d="M598.39,556.69c-31.38-33.22-42.67-84.09-28.29-127.46c9.23-27.84,31.14-46.49,60.42-48.11
		s58.04,11.76,79.51,31.74c21.46,19.98,36.35,46.07,47.93,73.01c12.11,28.18,0.87,64.38-25.06,80.75
		c-25.94,16.37-63.45,10.95-83.68-12.1c-20.24-23.05-20.75-60.95-1.15-84.54c8.69-10.46,25.73-12.64,36.76-4.7
		s14.39,24.79,7.24,36.35c6.18-11.3-3.16-26.89-15.87-28.94s-25.47,7.33-29.84,19.44s-1.55,25.92,4.77,37.14
		s15.81,20.28,25.45,28.82c11.34,10.04,28.42,13.08,42.53,7.56c14.1-5.52,24.58-19.36,26.08-34.43
		c5.62-56.42-31.19-114.33-84.67-133.18c-25.16-8.87-65.59,0.97-80.94,22.8c-15.35,21.83-17.32,45.59-12.73,71.88
		C571.42,518.99,599.84,551.42,598.39,556.69z"/>
</g>
<path class="st3" d="M482.02,679.15c-16.46,28.58-68.11,18.5-85.25-9.68c4.53,11.35,22.42,11.49,30.57,2.37s8.4-22.88,5.76-34.82
	s-7.72-23.38-8.71-35.57c-0.99-12.19,3.45-26.08,14.56-31.18S531.72,592.85,482.02,679.15z"/>
<path class="st3" d="M777.58,1009.95c9.86-40.66,19.35-82.06,17.38-123.85c-1.97-41.79-16.84-84.7-48.54-112
	c-31.7-27.3-82.05-34.64-115.87-10.01c-26.78,19.51-47.72,48.37-53.08,81.07c-5.36,32.7,6.7,68.83,33.59,88.2s68.1,18.04,90.84-6.06
	s19.48-68.97-8.63-86.5c20.66,16.91,21.24,51.89,2.98,71.37c-18.26,19.48-50.71,22.19-73.58,8.41
	c-22.87-13.78-35.55-41.51-34.14-68.17s15.68-51.72,35.84-69.23c29.73-25.81,78.18-20.42,108.45,4.75
	c30.27,25.18,44.61,65.23,48.48,104.41C785.15,931.53,779.91,970.95,777.58,1009.95z"/>
<path class="st3" d="M691.7,755.35c-44.48-38.21-110.66-49.16-165.07-27.3c46.49-14.65,100.24-3.44,137.01,28.56"/>
<path class="st3" d="M779.03,1003.98c12.54-71.88,55.84-137.86,116.8-177.95c29.29-19.27,71.74-9.82,95.16,16.27
	s29.37,64.66,21.77,98.89s-27.2,64.67-49.74,91.53c-21.9,26.1-65.72,29.69-91.58,7.51c-25.86-22.19-28.97-66.05-6.49-91.66
	c-6.18,6.03-6.83,16.84-1.42,23.57c5.41,6.73,16.1,8.41,23.32,3.68c5.13-3.37,12.89-1.69,16.17,3.5c3.28,5.19,1.46,12.92-3.78,16.1
	c-12.82,7.79-12.23,28.8-0.91,38.64s28.96,9.45,42.3,2.59s23.14-18.98,31.56-31.4c16.08-23.73,28.81-50.54,31.29-79.09
	c2.48-28.56-6.51-59.05-28-78.02c-21.49-18.96-56.21-23.37-79.26-6.32C842.12,881.84,800.95,939.09,779.03,1003.98z"/>
<path class="st3" d="M803.16,969.47c20.68-53.59,64.99-97.57,118.74-117.83c-0.44,12.72-1.11,26.21-8.26,36.75
	s-23.25,16.04-32.91,7.75c-3.98-3.41-10.89-0.63-12.66,4.3c-1.77,4.93,0.6,10.58,4.41,14.17s8.84,5.55,13.73,7.43
	C855.53,916.49,822.15,932.73,803.16,969.47z"/>
<path class="st3" d="M817.21,874c-8.3-47.82,22.31-99.4,68.26-115.02c38.25-13.01,71.02-41.43,89.3-77.46
	c10.25,50.54-22.56,106.16-71.76,121.63c-29.77,9.36-54.36,33.81-63.9,63.53c-3.68-42.32,30.43-84.39,72.6-89.53
	C864.41,778.4,821.22,818.46,817.21,874z"/>
<path class="st3" d="M797.89,853.18c-16.27-78.98,0.13-165.02,47.95-229.95s127.27-106.57,207.88-104.64s159.63,49.14,195.82,121.2
	s25.69,166.11-28.55,225.78c-40.96,45.05-118.73,49.6-164.65,9.62c-45.93-39.98-52.15-117.63-13.17-164.41
	c18.82-22.58,55.41-27.6,79.61-10.92c24.2,16.68,32.53,52.67,18.11,78.29c11.02-21.9,3.49-51.39-16.68-65.33
	c-20.17-13.94-50.41-10.56-67,7.49c-33.96,36.94-32.87,100.67,2.34,136.43c35.21,35.76,98.91,37.83,136.38,4.44
	c70.49-62.83,70.68-184.78,7.02-254.51c-63.66-69.74-176.52-83.61-260.41-40.26s-136.75,136.07-142.5,230.32"/>
<path class="st3" d="M802.73,743.29c17.48-53.87,56.22-100.52,105.96-127.6c49.74-27.07,109.96-34.28,164.69-19.7
	c-57.97-8.31-118.72,4.41-168.48,35.28C855.14,662.13,816.74,710.9,802.73,743.29z"/>
<path class="st3" d="M791.9,945.55c9.12-68.42,37.1-132.62,61.26-197.28s44.99-132.83,38.84-201.58
	c-6.15-68.75-44.94-138.53-109.46-163.05c-64.11-24.36-115.09-84.21-122.57-152.39c-7.48-68.18,32.74-140.59,96.95-164.7
	s145.88,7.67,171.77,71.19s-15.19,146.91-82.51,160.03c57.41-11.86,91.47-83.84,68.33-137.7s-93.54-79.61-147.98-57.86
	s-87.54,84.28-80.13,142.43s51.62,108.59,106.6,128.93c65.41,24.21,105.76,93.89,113.04,163.25s-12.97,138.61-37.73,203.81
	C843.54,805.85,813.85,869.85,791.9,945.55z"/>
<path class="st3" d="M707.6,320.44c-13.64-42.51-18.62-91.12,3.1-130.12s77.7-60.27,113.36-33.4
	c-44.56-6.38-91.84,18.95-111.21,59.58S703.58,309.82,707.6,320.44z"/>
<path class="st3" d="M891.28,158.44c-19.49,27.32,2.92,68.95-18.65,94.66c-21.57,25.71-56.73,39.3-89.99,34.8
	c-24.96-3.38-41.31-34.94-29.68-57.28s46.87-27.05,63.95-8.54c9.47,10.25,27.46-0.43,31.79-13.7
	C853.03,195.12,916.56,123,891.28,158.44z"/>
</svg>
