<?xml version="1.0" encoding="UTF-8" standalone="no"?>
<svg
   xmlns:dc="http://purl.org/dc/elements/1.1/"
   xmlns:cc="http://creativecommons.org/ns#"
   xmlns:rdf="http://www.w3.org/1999/02/22-rdf-syntax-ns#"
   xmlns:svg="http://www.w3.org/2000/svg"
   xmlns="http://www.w3.org/2000/svg"
   xmlns:sodipodi="http://sodipodi.sourceforge.net/DTD/sodipodi-0.dtd"
   xmlns:inkscape="http://www.inkscape.org/namespaces/inkscape"
   width="210mm"
   height="297mm"
   viewBox="0 0 210 297"
   version="1.1"
   id="svg4419"
   inkscape:version="1.0.1 (c497b03c, 2020-09-10)"
   sodipodi:docname="2.svg">
  <defs
     id="defs4413" />
  <sodipodi:namedview
     id="base"
     pagecolor="#ffffff"
     bordercolor="#666666"
     borderopacity="1.0"
     inkscape:pageopacity="0.0"
     inkscape:pageshadow="2"
     inkscape:zoom="0.71"
     inkscape:cx="498.32724"
     inkscape:cy="901.98392"
     inkscape:document-units="mm"
     inkscape:current-layer="layer1"
     inkscape:document-rotation="0"
     showgrid="false"
     inkscape:window-width="1308"
     inkscape:window-height="809"
     inkscape:window-x="1033"
     inkscape:window-y="46"
     inkscape:window-maximized="0" />
  <metadata
     id="metadata4416">
    <rdf:RDF>
      <cc:Work
         rdf:about="">
        <dc:format>image/svg+xml</dc:format>
        <dc:type
           rdf:resource="http://purl.org/dc/dcmitype/StillImage" />
        <dc:title></dc:title>
      </cc:Work>
    </rdf:RDF>
  </metadata>
  <g
     inkscape:label="Слой 1"
     inkscape:groupmode="layer"
     id="layer1">
    <rect
       style="opacity:0.581994;fill:#80b3ff;stroke-width:1;paint-order:stroke fill markers"
       id="rect4982"
       width="45.400093"
       height="296.45361"
       x="0"
       y="0" />
    <rect
       style="opacity:0.581994;fill:#2a2aff;stroke-width:1;paint-order:stroke fill markers"
       id="rect4982-6"
       width="45.400097"
       height="296.45361"
       x="164.61293"
       y="0.3006587" />
    <rect
       style="opacity:0.581994;fill:#d5e5ff;stroke-width:1;paint-order:stroke fill markers"
       id="rect4982-2"
       width="45.400097"
       height="296.45361"
       x="53.337601"
       y="-5.5511151e-17" />
    <rect
       style="opacity:0.581994;fill:#9955ff;stroke-width:1;paint-order:stroke fill markers"
       id="rect4982-3"
       width="45.400097"
       height="296.45361"
       x="108.42503"
       y="0.46902719" />
    <path
       sodipodi:type="spiral"
       style="fill:#0000d4;fill-rule:evenodd;stroke:#000000;stroke-width:0.264583"
       id="path5125"
       sodipodi:cx="19.049999"
       sodipodi:cy="26.987501"
       sodipodi:expansion="1.22"
       sodipodi:revolution="3.8"
       sodipodi:radius="24.621891"
       sodipodi:argument="-22.797792"
       sodipodi:t0="0.079999998"
       d="m 18.540893,25.978648 c 0.562681,-0.949333 1.926705,-0.704815 2.6071,-0.04988 1.277124,1.229342 0.815256,3.305101 -0.430303,4.363449 -1.922121,1.633221 -4.821719,0.917279 -6.26589,-0.984289 -2.011685,-2.648823 -1.016031,-6.440651 1.589756,-8.282005 3.40736,-2.407776 8.142305,-1.113348 10.392458,2.235313 2.818565,4.194567 1.210075,9.914101 -2.913972,12.584163 C 18.512456,39.087501 11.772863,37.152074 8.6724493,32.224418 4.9954764,26.380404 7.2690432,18.589511 13.025351,15.048969 c 6.701854,-4.122121 15.572105,-1.500453 19.56194,5.107087 4.576696,7.579436 1.597923,17.554609 -5.881462,22.00235 C 18.230483,47.198411 7.1268503,43.854295 2.2130841,35.484065 -3.2983862,26.095692 0.41868265,13.841741 9.6974078,8.4542696 20.01488,2.4636746 33.439583,6.5607771 39.308046,16.764501 c 6.357227,11.053559 2.168135,25.402303 -8.6164,31.918842"
       transform="matrix(0.86436854,0,0,0.87771068,3.1086071,0.14732107)" />
    <path
       sodipodi:type="spiral"
       style="fill:#0000d4;fill-rule:evenodd;stroke:#000000;stroke-width:0.264583"
       id="path5125-1"
       sodipodi:cx="19.049999"
       sodipodi:cy="26.987501"
       sodipodi:expansion="1.22"
       sodipodi:revolution="3.8"
       sodipodi:radius="24.621891"
       sodipodi:argument="-22.797792"
       sodipodi:t0="0.079999998"
       d="m 18.540893,25.978648 c 0.562681,-0.949333 1.926705,-0.704815 2.6071,-0.04988 1.277124,1.229342 0.815256,3.305101 -0.430303,4.363449 -1.922121,1.633221 -4.821719,0.917279 -6.26589,-0.984289 -2.011685,-2.648823 -1.016031,-6.440651 1.589756,-8.282005 3.40736,-2.407776 8.142305,-1.113348 10.392458,2.235313 2.818565,4.194567 1.210075,9.914101 -2.913972,12.584163 C 18.512456,39.087501 11.772863,37.152074 8.6724493,32.224418 4.9954764,26.380404 7.2690432,18.589511 13.025351,15.048969 c 6.701854,-4.122121 15.572105,-1.500453 19.56194,5.107087 4.576696,7.579436 1.597923,17.554609 -5.881462,22.00235 C 18.230483,47.198411 7.1268503,43.854295 2.2130841,35.484065 -3.2983862,26.095692 0.41868265,13.841741 9.6974078,8.4542696 20.01488,2.4636746 33.439583,6.5607771 39.308046,16.764501 c 6.357227,11.053559 2.168135,25.402303 -8.6164,31.918842"
       transform="matrix(0.86436854,0,0,0.87771068,4.100262,250.79211)" />
    <path
       sodipodi:type="spiral"
       style="fill:#0000d4;fill-rule:evenodd;stroke:#000000;stroke-width:0.264583"
       id="path5125-14"
       sodipodi:cx="19.049999"
       sodipodi:cy="26.987501"
       sodipodi:expansion="1.22"
       sodipodi:revolution="3.8"
       sodipodi:radius="24.621891"
       sodipodi:argument="-22.797792"
       sodipodi:t0="0.079999998"
       d="m 18.540893,25.978648 c 0.562681,-0.949333 1.926705,-0.704815 2.6071,-0.04988 1.277124,1.229342 0.815256,3.305101 -0.430303,4.363449 -1.922121,1.633221 -4.821719,0.917279 -6.26589,-0.984289 -2.011685,-2.648823 -1.016031,-6.440651 1.589756,-8.282005 3.40736,-2.407776 8.142305,-1.113348 10.392458,2.235313 2.818565,4.194567 1.210075,9.914101 -2.913972,12.584163 C 18.512456,39.087501 11.772863,37.152074 8.6724493,32.224418 4.9954764,26.380404 7.2690432,18.589511 13.025351,15.048969 c 6.701854,-4.122121 15.572105,-1.500453 19.56194,5.107087 4.576696,7.579436 1.597923,17.554609 -5.881462,22.00235 C 18.230483,47.198411 7.1268503,43.854295 2.2130841,35.484065 -3.2983862,26.095692 0.41868265,13.841741 9.6974078,8.4542696 20.01488,2.4636746 33.439583,6.5607771 39.308046,16.764501 c 6.357227,11.053559 2.168135,25.402303 -8.6164,31.918842"
       transform="matrix(0.86436854,0,0,0.87771068,4.6294287,197.34628)" />
    <path
       sodipodi:type="spiral"
       style="fill:#0000d4;fill-rule:evenodd;stroke:#000000;stroke-width:0.264583"
       id="path5125-3"
       sodipodi:cx="19.049999"
       sodipodi:cy="26.987501"
       sodipodi:expansion="1.22"
       sodipodi:revolution="3.8"
       sodipodi:radius="24.621891"
       sodipodi:argument="-22.797792"
       sodipodi:t0="0.079999998"
       d="m 18.540893,25.978648 c 0.562681,-0.949333 1.926705,-0.704815 2.6071,-0.04988 1.277124,1.229342 0.815256,3.305101 -0.430303,4.363449 -1.922121,1.633221 -4.821719,0.917279 -6.26589,-0.984289 -2.011685,-2.648823 -1.016031,-6.440651 1.589756,-8.282005 3.40736,-2.407776 8.142305,-1.113348 10.392458,2.235313 2.818565,4.194567 1.210075,9.914101 -2.913972,12.584163 C 18.512456,39.087501 11.772863,37.152074 8.6724493,32.224418 4.9954764,26.380404 7.2690432,18.589511 13.025351,15.048969 c 6.701854,-4.122121 15.572105,-1.500453 19.56194,5.107087 4.576696,7.579436 1.597923,17.554609 -5.881462,22.00235 C 18.230483,47.198411 7.1268503,43.854295 2.2130841,35.484065 -3.2983862,26.095692 0.41868265,13.841741 9.6974078,8.4542696 20.01488,2.4636746 33.439583,6.5607771 39.308046,16.764501 c 6.357227,11.053559 2.168135,25.402303 -8.6164,31.918842"
       transform="matrix(0.86436854,0,0,0.87771068,4.1002616,146.0171)" />
    <path
       sodipodi:type="spiral"
       style="fill:#0000d4;fill-rule:evenodd;stroke:#000000;stroke-width:0.264583"
       id="path5125-4"
       sodipodi:cx="19.049999"
       sodipodi:cy="26.987501"
       sodipodi:expansion="1.22"
       sodipodi:revolution="3.8"
       sodipodi:radius="24.621891"
       sodipodi:argument="-22.797792"
       sodipodi:t0="0.079999998"
       d="m 18.540893,25.978648 c 0.562681,-0.949333 1.926705,-0.704815 2.6071,-0.04988 1.277124,1.229342 0.815256,3.305101 -0.430303,4.363449 -1.922121,1.633221 -4.821719,0.917279 -6.26589,-0.984289 -2.011685,-2.648823 -1.016031,-6.440651 1.589756,-8.282005 3.40736,-2.407776 8.142305,-1.113348 10.392458,2.235313 2.818565,4.194567 1.210075,9.914101 -2.913972,12.584163 C 18.512456,39.087501 11.772863,37.152074 8.6724493,32.224418 4.9954764,26.380404 7.2690432,18.589511 13.025351,15.048969 c 6.701854,-4.122121 15.572105,-1.500453 19.56194,5.107087 4.576696,7.579436 1.597923,17.554609 -5.881462,22.00235 C 18.230483,47.198411 7.1268503,43.854295 2.2130841,35.484065 -3.2983862,26.095692 0.41868265,13.841741 9.6974078,8.4542696 20.01488,2.4636746 33.439583,6.5607771 39.308046,16.764501 c 6.357227,11.053559 2.168135,25.402303 -8.6164,31.918842"
       transform="matrix(0.86436854,0,0,0.87771068,4.100262,96.80461)" />
    <path
       sodipodi:type="spiral"
       style="fill:#0000d4;fill-rule:evenodd;stroke:#000000;stroke-width:0.264583"
       id="path5125-46"
       sodipodi:cx="19.049999"
       sodipodi:cy="26.987501"
       sodipodi:expansion="1.22"
       sodipodi:revolution="3.8"
       sodipodi:radius="24.621891"
       sodipodi:argument="-22.797792"
       sodipodi:t0="0.079999998"
       d="m 18.540893,25.978648 c 0.562681,-0.949333 1.926705,-0.704815 2.6071,-0.04988 1.277124,1.229342 0.815256,3.305101 -0.430303,4.363449 -1.922121,1.633221 -4.821719,0.917279 -6.26589,-0.984289 -2.011685,-2.648823 -1.016031,-6.440651 1.589756,-8.282005 3.40736,-2.407776 8.142305,-1.113348 10.392458,2.235313 2.818565,4.194567 1.210075,9.914101 -2.913972,12.584163 C 18.512456,39.087501 11.772863,37.152074 8.6724493,32.224418 4.9954764,26.380404 7.2690432,18.589511 13.025351,15.048969 c 6.701854,-4.122121 15.572105,-1.500453 19.56194,5.107087 4.576696,7.579436 1.597923,17.554609 -5.881462,22.00235 C 18.230483,47.198411 7.1268503,43.854295 2.2130841,35.484065 -3.2983862,26.095692 0.41868265,13.841741 9.6974078,8.4542696 20.01488,2.4636746 33.439583,6.5607771 39.308046,16.764501 c 6.357227,11.053559 2.168135,25.402303 -8.6164,31.918842"
       transform="matrix(0.86436854,0,0,0.87771068,4.629429,47.06294)" />
    <path
       sodipodi:type="star"
       style="opacity:0.581994;fill:#afafe9;stroke-width:1;paint-order:stroke fill markers"
       id="path5166"
       sodipodi:sides="10"
       sodipodi:cx="75.670832"
       sodipodi:cy="25.399996"
       sodipodi:r1="21.073858"
       sodipodi:r2="0.21073858"
       sodipodi:arg1="1.0734536"
       sodipodi:arg2="1.3876129"
       inkscape:flatsided="false"
       inkscape:rounded="-0.33"
       inkscape:randomized="0"
       d="M 85.724996,43.920828 C 91.778773,40.634492 68.9362,26.86198 75.709218,25.607208 c 6.773018,-1.254771 -9.619937,19.786528 -2.790669,20.686147 6.829268,0.899619 -3.555481,-23.669105 2.661541,-20.703157 6.217022,2.965949 -19.412921,10.35318 -14.41671,15.09513 4.996211,4.741951 11.035905,-21.238567 14.322241,-15.184791 3.286337,6.053777 -21.790829,-3.03473 -20.536058,3.738287 1.254771,6.773018 21.411952,-10.695619 20.512333,-3.866351 -0.899619,6.829268 -15.845381,-15.263477 -18.81133,-9.046455 -2.965949,6.217023 23.609361,3.932692 18.86741,8.928903 C 70.776026,30.251133 71.67044,3.5928274 65.616663,6.8791633 59.562886,10.165499 82.405459,23.938012 75.632441,25.192783 68.859424,26.447555 85.252379,5.406256 78.42311,4.5066367 71.593842,3.6070175 81.978592,28.175742 75.76157,25.209793 69.544547,22.243845 95.174491,14.856614 90.17828,10.114663 85.182069,5.3727129 79.142374,31.353231 75.856038,25.299454 c -3.286336,-6.053777 21.79083,3.034731 20.536059,-3.738287 -1.254772,-6.773017 -21.411953,10.69562 -20.512334,3.866352 0.899619,-6.829269 15.845382,15.263477 18.811331,9.046454 2.965948,-6.217022 -23.609361,-3.932691 -18.867411,-8.928903 4.74195,-4.996211 3.847536,21.662094 9.901313,18.375758 z"
       inkscape:transform-center-y="-1.6466666e-06" />
    <path
       sodipodi:type="star"
       style="opacity:0.581994;fill:#afafe9;stroke-width:1;paint-order:stroke fill markers"
       id="path5166-3"
       sodipodi:sides="10"
       sodipodi:cx="75.67083"
       sodipodi:cy="73.554166"
       sodipodi:r1="21.073858"
       sodipodi:r2="0.21073858"
       sodipodi:arg1="1.0734536"
       sodipodi:arg2="1.3876129"
       inkscape:flatsided="false"
       inkscape:rounded="-0.33"
       inkscape:randomized="0"
       d="M 85.724996,92.075001 C 91.778773,88.788665 68.9362,75.016153 75.709218,73.761381 c 6.773018,-1.254771 -9.619937,19.786528 -2.790669,20.686147 6.829268,0.899619 -3.555481,-23.669105 2.661541,-20.703157 6.217022,2.965949 -19.412921,10.35318 -14.41671,15.09513 4.996211,4.741951 11.035905,-21.238567 14.322241,-15.184791 3.286337,6.053777 -21.790829,-3.03473 -20.536058,3.738287 1.254771,6.773018 21.411952,-10.695619 20.512333,-3.866351 -0.899619,6.829268 -15.845381,-15.263477 -18.81133,-9.046455 -2.965949,6.217023 23.609361,3.932692 18.86741,8.928903 C 70.776026,78.405305 71.67044,51.747 65.616663,55.033336 59.562886,58.319672 82.405459,72.092185 75.632441,73.346956 68.859424,74.601727 85.252379,53.560429 78.42311,52.66081 71.593842,51.76119 81.978592,76.329915 75.76157,73.363966 69.544547,70.398018 95.174491,63.010787 90.17828,58.268836 85.182069,53.526886 79.142374,79.507404 75.856038,73.453627 72.569702,67.39985 97.646868,76.488358 96.392097,69.71534 95.137325,62.942323 74.980144,80.41096 75.879763,73.581692 c 0.899619,-6.829269 15.845382,15.263477 18.811331,9.046454 2.965948,-6.217022 -23.609361,-3.932692 -18.867411,-8.928903 4.74195,-4.996211 3.847536,21.662094 9.901313,18.375758 z"
       inkscape:transform-center-y="-1.6466666e-06" />
    <path
       sodipodi:type="star"
       style="opacity:0.581994;fill:#afafe9;stroke-width:1;paint-order:stroke fill markers"
       id="path5166-3-8"
       sodipodi:sides="10"
       sodipodi:cx="75.141663"
       sodipodi:cy="121.70834"
       sodipodi:r1="21.073858"
       sodipodi:r2="0.21073858"
       sodipodi:arg1="1.0734536"
       sodipodi:arg2="1.3876129"
       inkscape:flatsided="false"
       inkscape:rounded="-0.33"
       inkscape:randomized="0"
       d="m 85.195829,140.22918 c 6.053777,-3.28634 -16.788796,-17.05885 -10.015778,-18.31362 6.773017,-1.25478 -9.619937,19.78652 -2.790669,20.68614 6.829268,0.89962 -3.555482,-23.6691 2.661541,-20.70315 6.217022,2.96594 -19.412922,10.35318 -14.416711,15.09513 4.996212,4.74195 11.035906,-21.23857 14.322242,-15.18479 3.286336,6.05377 -21.790829,-3.03474 -20.536058,3.73828 1.254771,6.77302 21.411952,-10.69562 20.512333,-3.86635 -0.899619,6.82927 -15.845382,-15.26348 -18.81133,-9.04645 -2.965949,6.21702 23.60936,3.93269 18.86741,8.9289 -4.74195,4.99621 -3.847536,-21.662095 -9.901313,-18.37576 -6.053777,3.28634 16.788796,17.05885 10.015778,18.31362 -6.773017,1.25477 9.619937,-19.78653 2.790669,-20.68615 -6.829268,-0.899615 3.555482,23.66911 -2.661541,20.70316 -6.217022,-2.96595 19.412922,-10.35318 14.416711,-15.09513 -4.996211,-4.74195 -11.035906,21.23857 -14.322242,15.18479 -3.286336,-6.05377 21.79083,3.03473 20.536058,-3.73829 -1.254771,-6.77301 -21.411952,10.69562 -20.512333,3.86636 0.899619,-6.82927 15.845382,15.26347 18.81133,9.04645 2.965949,-6.21702 -23.60936,-3.93269 -18.86741,-8.9289 4.74195,-4.99621 3.847536,21.66209 9.901313,18.37576 z"
       inkscape:transform-center-y="-1.6466666e-06" />
    <path
       sodipodi:type="star"
       style="opacity:0.581994;fill:#afafe9;stroke-width:1;paint-order:stroke fill markers"
       id="path5166-3-8-5"
       sodipodi:sides="10"
       sodipodi:cx="74.6125"
       sodipodi:cy="169.33334"
       sodipodi:r1="21.073858"
       sodipodi:r2="0.21073858"
       sodipodi:arg1="1.0734536"
       sodipodi:arg2="1.3876129"
       inkscape:flatsided="false"
       inkscape:rounded="-0.33"
       inkscape:randomized="0"
       d="m 84.66667,187.85418 c 6.053776,-3.28634 -16.788796,-17.05885 -10.015779,-18.31362 6.773018,-1.25478 -9.619937,19.78652 -2.790669,20.68614 6.829269,0.89962 -3.555481,-23.6691 2.661541,-20.70315 6.217023,2.96594 -19.412921,10.35318 -14.41671,15.09513 4.996211,4.74195 11.035906,-21.23857 14.322242,-15.18479 3.286336,6.05377 -21.79083,-3.03474 -20.536059,3.73828 1.254771,6.77302 21.411952,-10.69562 20.512333,-3.86635 -0.899619,6.82927 -15.845381,-15.26348 -18.81133,-9.04645 -2.965948,6.21702 23.609361,3.93269 18.867411,8.9289 -4.74195,4.99621 -3.847537,-21.66209 -9.901313,-18.37576 -6.053777,3.28634 16.788795,17.05885 10.015778,18.31362 -6.773018,1.25477 9.619937,-19.78653 2.790669,-20.68615 -6.829268,-0.89961 3.555481,23.66911 -2.661541,20.70316 -6.217023,-2.96595 19.412921,-10.35318 14.41671,-15.09513 -4.996211,-4.74195 -11.035906,21.23857 -14.322242,15.18479 -3.286336,-6.05377 21.79083,3.03473 20.536059,-3.73829 -1.254771,-6.77301 -21.411952,10.69562 -20.512333,3.86636 0.899619,-6.82927 15.845381,15.26347 18.81133,9.04645 2.965949,-6.21702 -23.609361,-3.93269 -18.867411,-8.9289 4.741951,-4.99621 3.847537,21.66209 9.901314,18.37576 z"
       inkscape:transform-center-y="-1.6466666e-06" />
    <path
       sodipodi:type="star"
       style="opacity:0.581994;fill:#afafe9;stroke-width:1;paint-order:stroke fill markers"
       id="path5166-3-8-5-5"
       sodipodi:sides="10"
       sodipodi:cx="75.670835"
       sodipodi:cy="215.37084"
       sodipodi:r1="21.073858"
       sodipodi:r2="0.21073858"
       sodipodi:arg1="1.0734536"
       sodipodi:arg2="1.3876129"
       inkscape:flatsided="false"
       inkscape:rounded="-0.33"
       inkscape:randomized="0"
       d="m 85.725004,233.89167 c 6.053777,-3.28634 -16.788796,-17.05885 -10.015778,-18.31362 6.773017,-1.25477 -9.619937,19.78652 -2.790669,20.68614 6.829268,0.89962 -3.555482,-23.6691 2.661541,-20.70315 6.217022,2.96595 -19.412922,10.35318 -14.416711,15.09513 4.996211,4.74195 11.035906,-21.23857 14.322242,-15.18479 3.286336,6.05377 -21.79083,-3.03473 -20.536058,3.73828 1.254771,6.77302 21.411952,-10.69562 20.512333,-3.86635 -0.899619,6.82927 -15.845382,-15.26348 -18.81133,-9.04645 -2.965949,6.21702 23.60936,3.93269 18.86741,8.9289 -4.74195,4.99621 -3.847536,-21.66209 -9.901313,-18.37576 -6.053777,3.28634 16.788796,17.05885 10.015778,18.31362 -6.773017,1.25477 9.619937,-19.78653 2.790669,-20.68614 -6.829268,-0.89962 3.555482,23.6691 -2.661541,20.70315 -6.217022,-2.96595 19.412922,-10.35318 14.416711,-15.09513 -4.996212,-4.74195 -11.035906,21.23857 -14.322242,15.18479 -3.286336,-6.05377 21.790829,3.03473 20.536058,-3.73828 -1.254771,-6.77302 -21.411952,10.69562 -20.512333,3.86635 0.899619,-6.82927 15.845382,15.26347 18.81133,9.04645 2.965949,-6.21702 -23.60936,-3.93269 -18.86741,-8.9289 4.74195,-4.99621 3.847536,21.66209 9.901313,18.37576 z"
       inkscape:transform-center-y="-1.6466666e-06" />
    <path
       sodipodi:type="star"
       style="opacity:0.581994;fill:#afafe9;stroke-width:1;paint-order:stroke fill markers"
       id="path5166-3-8-5-5-4"
       sodipodi:sides="10"
       sodipodi:cx="75.67083"
       sodipodi:cy="263.52501"
       sodipodi:r1="21.073858"
       sodipodi:r2="0.21073858"
       sodipodi:arg1="1.0734536"
       sodipodi:arg2="1.3876129"
       inkscape:flatsided="false"
       inkscape:rounded="-0.33"
       inkscape:randomized="0"
       d="m 85.724996,282.04586 c 6.053777,-3.28634 -16.788796,-17.05885 -10.015778,-18.31362 6.773018,-1.25477 -9.619937,19.78652 -2.790669,20.68614 6.829268,0.89962 -3.555481,-23.6691 2.661541,-20.70315 6.217022,2.96595 -19.412921,10.35318 -14.41671,15.09513 4.996211,4.74195 11.035905,-21.23857 14.322241,-15.18479 3.286337,6.05377 -21.790829,-3.03473 -20.536058,3.73828 1.254771,6.77302 21.411952,-10.69562 20.512333,-3.86635 -0.899619,6.82927 -15.845381,-15.26348 -18.81133,-9.04645 -2.965949,6.21702 23.609361,3.93269 18.86741,8.9289 -4.74195,4.99621 -3.847536,-21.66209 -9.901313,-18.37576 -6.053777,3.28634 16.788796,17.05885 10.015778,18.31362 -6.773017,1.25477 9.619938,-19.78653 2.790669,-20.68614 -6.829268,-0.89962 3.555482,23.6691 -2.66154,20.70315 -6.217023,-2.96595 19.412921,-10.35318 14.41671,-15.09513 -4.996211,-4.74195 -11.035906,21.23857 -14.322242,15.18479 -3.286336,-6.05377 21.79083,3.03473 20.536059,-3.73828 -1.254772,-6.77302 -21.411953,10.69562 -20.512334,3.86635 0.899619,-6.82927 15.845382,15.26347 18.811331,9.04645 2.965948,-6.21702 -23.609361,-3.93269 -18.867411,-8.9289 4.74195,-4.99621 3.847536,21.66209 9.901313,18.37576 z"
       inkscape:transform-center-y="-1.6466666e-06" />
    <path
       sodipodi:type="star"
       style="opacity:1;fill:#0000d4;stroke-width:1;paint-order:stroke fill markers"
       id="path5243"
       sodipodi:sides="34"
       sodipodi:cx="-48.683331"
       sodipodi:cy="75.67083"
       sodipodi:r1="35.548817"
       sodipodi:r2="0.35548815"
       sodipodi:arg1="0.79592409"
       sodipodi:arg2="0.88832387"
       inkscape:flatsided="false"
       inkscape:rounded="-0.33"
       inkscape:randomized="0"
       d="m -23.812497,101.07083 c 8.298541,-8.125655 -33.659504,-17.798836 -24.646622,-25.124136 9.012882,-7.325299 9.905583,35.724106 19.555911,29.261656 9.650328,-6.462447 -29.81586,-23.680695 -19.610419,-29.225154 10.205441,-5.54446 3.172635,36.935974 13.84612,32.356814 10.673484,-4.57917 -24.956872,-28.75614 -13.906407,-32.33095 11.050466,-3.57481 -3.668353,36.89004 7.664815,34.35009 11.333168,-2.53995 -19.248007,-32.852319 -7.728827,-34.335744 11.51918,-1.483424 -10.384421,35.587864 1.222494,35.173624 11.606914,-0.41424 -12.883676,-35.829761 -1.288053,-35.171284 11.595622,0.658478 -16.746859,33.073784 -5.261458,34.799354 11.485401,1.72558 -6.080605,-37.587056 5.196585,-34.8091 11.27719,2.777955 -22.539002,29.43341 -11.566236,33.24004 10.972766,3.80663 0.929533,-38.064375 11.504259,-33.261541 10.574727,4.802834 -27.563607,24.790721 -17.47714,30.548781 10.086467,5.75805 7.908016,-37.245462 17.420169,-30.581304 9.512154,6.664157 -31.649567,19.303809 -22.792882,26.817214 8.856685,7.5134 14.617203,-35.158193 22.742857,-26.859652 8.125655,8.298541 -34.657738,13.159532 -27.332439,22.172414 7.3253,9.012878 20.828617,-31.873649 27.291064,-22.223321 6.462448,9.650328 -36.485682,6.567123 -30.941223,16.772564 5.54446,10.205445 26.330738,-27.503691 30.909907,-16.830207 4.579168,10.673484 -37.071151,-0.248921 -33.496341,10.801545 3.57481,11.050465 30.936197,-22.197129 33.476149,-10.863961 2.539952,11.333168 -36.394204,-7.056488 -34.91078,4.462692 1.483424,11.519179 34.488161,-16.13467 34.902401,-4.527755 0.414241,11.606914 -34.477897,-13.623756 -35.136375,-2.028134 -0.658477,11.595623 36.865672,-9.522762 35.140095,1.962639 -1.725578,11.485401 -31.387488,-19.727083 -34.165443,-8.449893 -2.777956,11.27719 37.987767,-2.58657 34.181133,8.386196 -3.806633,10.972766 -27.228213,-25.158627 -32.031047,-14.583901 -4.802835,10.574727 37.816234,4.437705 32.058175,14.524172 -5.758059,10.086467 -22.141716,-29.733425 -28.805874,-20.221271 -6.664157,9.512153 36.356915,11.310859 28.843515,20.167544 -7.5134,8.856685 -16.301209,-33.295686 -24.59975,-25.170031 -8.298541,8.125655 33.659504,17.798836 24.646622,25.124135 -9.012882,7.3253 -9.905583,-35.724103 -19.555911,-29.261656 -9.650328,6.462448 29.81586,23.680695 19.610419,29.225155 -10.205441,5.54446 -3.172635,-36.935979 -13.84612,-32.35681 -10.673484,4.579168 24.956872,28.756136 13.906406,32.330945 -11.050465,3.57481 3.668354,-36.890043 -7.664814,-34.350091 -11.333168,2.539952 19.248007,32.852321 7.728827,34.335745 -11.51918,1.483424 10.38442,-35.587862 -1.222494,-35.173622 -11.606914,0.41424 12.883676,35.82976 1.288053,35.171282 -11.595623,-0.658477 16.746858,-33.073779 5.261457,-34.799357 -11.485401,-1.725577 6.080606,37.58706 -5.196584,34.809104 -11.277191,-2.777956 22.539002,-29.433408 11.566236,-33.240042 -10.972766,-3.806633 -0.929533,38.064377 -11.504259,33.261543 -10.574727,-4.802834 27.563607,-24.790718 17.47714,-30.548777 -10.086467,-5.758058 -7.908016,37.245457 -17.420169,30.5813 -9.512154,-6.664158 31.649567,-19.303809 22.792882,-26.817209 -8.856685,-7.513401 -14.617203,35.158188 -22.742858,26.859646 -8.125654,-8.298541 34.657739,-13.159532 27.33244,-22.172414 -7.3253,-9.012882 -20.828617,31.87365 -27.291064,22.223322 -6.462448,-9.650328 36.485682,-6.567124 30.941223,-16.772565 -5.54446,-10.20544 -26.330738,27.503692 -30.909907,16.830208 -4.579169,-10.673485 37.071151,0.24892 33.496341,-10.801545 -3.57481,-11.050466 -30.936197,22.197129 -33.476149,10.86396 -2.539952,-11.333168 36.394204,7.056489 34.91078,-4.462691 -1.483424,-11.51918 -34.488161,16.134669 -34.902402,4.527755 -0.41424,-11.606915 34.477898,13.623756 35.136376,2.028133 0.658477,-11.595622 -36.865673,9.522763 -35.140095,-1.962638 1.725578,-11.485401 31.387488,19.727083 34.165443,8.449892 2.777956,-11.27719 -37.987767,2.586571 -34.181133,-8.386196 3.806633,-10.972766 27.228213,25.158628 32.031047,14.583901 4.802834,-10.574726 -37.816234,-4.437705 -32.058175,-14.524172 5.758059,-10.086467 22.141716,29.733429 28.805874,20.221272 6.664157,-9.512153 -36.356915,-11.31086 -28.843515,-20.167545 7.5134,-8.856685 16.301209,33.295682 24.59975,25.170032 z"
       transform="matrix(0.53046045,0,0,0.52340269,156.26417,-15.264652)" />
    <path
       sodipodi:type="star"
       style="opacity:1;fill:#0000d4;stroke-width:1;paint-order:stroke fill markers"
       id="path5243-9"
       sodipodi:sides="34"
       sodipodi:cx="-48.683331"
       sodipodi:cy="75.67083"
       sodipodi:r1="35.548817"
       sodipodi:r2="0.35548815"
       sodipodi:arg1="0.79592409"
       sodipodi:arg2="0.88832387"
       inkscape:flatsided="false"
       inkscape:rounded="-0.33"
       inkscape:randomized="0"
       d="m -23.812497,101.07083 c 8.298541,-8.125655 -33.659504,-17.798836 -24.646622,-25.124136 9.012882,-7.325299 9.905583,35.724106 19.555911,29.261656 9.650328,-6.462447 -29.81586,-23.680695 -19.610419,-29.225154 10.205441,-5.54446 3.172635,36.935974 13.84612,32.356814 10.673484,-4.57917 -24.956872,-28.75614 -13.906407,-32.33095 11.050466,-3.57481 -3.668353,36.89004 7.664815,34.35009 11.333168,-2.53995 -19.248007,-32.852319 -7.728827,-34.335744 11.51918,-1.483424 -10.384421,35.587864 1.222494,35.173624 11.606914,-0.41424 -12.883676,-35.829761 -1.288053,-35.171284 11.595622,0.658478 -16.746859,33.073784 -5.261458,34.799354 11.485401,1.72558 -6.080605,-37.587056 5.196585,-34.8091 11.27719,2.777955 -22.539002,29.43341 -11.566236,33.24004 10.972766,3.80663 0.929533,-38.064375 11.504259,-33.261541 10.574727,4.802834 -27.563607,24.790721 -17.47714,30.548781 10.086467,5.75805 7.908016,-37.245462 17.420169,-30.581304 9.512154,6.664157 -31.649567,19.303809 -22.792882,26.817214 8.856685,7.5134 14.617203,-35.158193 22.742857,-26.859652 8.125655,8.298541 -34.657738,13.159532 -27.332439,22.172414 7.3253,9.012878 20.828617,-31.873649 27.291064,-22.223321 6.462448,9.650328 -36.485682,6.567123 -30.941223,16.772564 5.54446,10.205445 26.330738,-27.503691 30.909907,-16.830207 4.579168,10.673484 -37.071151,-0.248921 -33.496341,10.801545 3.57481,11.050465 30.936197,-22.197129 33.476149,-10.863961 2.539952,11.333168 -36.394204,-7.056488 -34.91078,4.462692 1.483424,11.519179 34.488161,-16.13467 34.902401,-4.527755 0.414241,11.606914 -34.477897,-13.623756 -35.136375,-2.028134 -0.658477,11.595623 36.865672,-9.522762 35.140095,1.962639 -1.725578,11.485401 -31.387488,-19.727083 -34.165443,-8.449893 -2.777956,11.27719 37.987767,-2.58657 34.181133,8.386196 -3.806633,10.972766 -27.228213,-25.158627 -32.031047,-14.583901 -4.802835,10.574727 37.816234,4.437705 32.058175,14.524172 -5.758059,10.086467 -22.141716,-29.733425 -28.805874,-20.221271 -6.664157,9.512153 36.356915,11.310859 28.843515,20.167544 -7.5134,8.856685 -16.301209,-33.295686 -24.59975,-25.170031 -8.298541,8.125655 33.659504,17.798836 24.646622,25.124135 -9.012882,7.3253 -9.905583,-35.724103 -19.555911,-29.261656 -9.650328,6.462448 29.81586,23.680695 19.610419,29.225155 -10.205441,5.54446 -3.172635,-36.935979 -13.84612,-32.35681 -10.673484,4.579168 24.956872,28.756136 13.906406,32.330945 -11.050465,3.57481 3.668354,-36.890043 -7.664814,-34.350091 -11.333168,2.539952 19.248007,32.852321 7.728827,34.335745 -11.51918,1.483424 10.38442,-35.587862 -1.222494,-35.173622 -11.606914,0.41424 12.883676,35.82976 1.288053,35.171282 -11.595623,-0.658477 16.746858,-33.073779 5.261457,-34.799357 -11.485401,-1.725577 6.080606,37.58706 -5.196584,34.809104 -11.277191,-2.777956 22.539002,-29.433408 11.566236,-33.240042 -10.972766,-3.806633 -0.929533,38.064377 -11.504259,33.261543 -10.574727,-4.802834 27.563607,-24.790718 17.47714,-30.548777 -10.086467,-5.758058 -7.908016,37.245457 -17.420169,30.5813 -9.512154,-6.664158 31.649567,-19.303809 22.792882,-26.817209 -8.856685,-7.513401 -14.617203,35.158188 -22.742858,26.859646 -8.125654,-8.298541 34.657739,-13.159532 27.33244,-22.172414 -7.3253,-9.012882 -20.828617,31.87365 -27.291064,22.223322 -6.462448,-9.650328 36.485682,-6.567124 30.941223,-16.772565 -5.54446,-10.20544 -26.330738,27.503692 -30.909907,16.830208 -4.579169,-10.673485 37.071151,0.24892 33.496341,-10.801545 -3.57481,-11.050466 -30.936197,22.197129 -33.476149,10.86396 -2.539952,-11.333168 36.394204,7.056489 34.91078,-4.462691 -1.483424,-11.51918 -34.488161,16.134669 -34.902402,4.527755 -0.41424,-11.606915 34.477898,13.623756 35.136376,2.028133 0.658477,-11.595622 -36.865673,9.522763 -35.140095,-1.962638 1.725578,-11.485401 31.387488,19.727083 34.165443,8.449892 2.777956,-11.27719 -37.987767,2.586571 -34.181133,-8.386196 3.806633,-10.972766 27.228213,25.158628 32.031047,14.583901 4.802834,-10.574726 -37.816234,-4.437705 -32.058175,-14.524172 5.758059,-10.086467 22.141716,29.733429 28.805874,20.221272 6.664157,-9.512153 -36.356915,-11.31086 -28.843515,-20.167545 7.5134,-8.856685 16.301209,33.295682 24.59975,25.170032 z"
       transform="matrix(0.53046045,0,0,0.52340269,155.99958,60.935351)" />
    <path
       sodipodi:type="spiral"
       style="fill:#ff00ff;fill-rule:evenodd;stroke:#000000;stroke-width:0.264583"
       id="path5262"
       sodipodi:cx="130.70416"
       sodipodi:cy="59.795834"
       sodipodi:expansion="1.22"
       sodipodi:revolution="3.8"
       sodipodi:radius="20.219429"
       sodipodi:argument="-26.195278"
       sodipodi:t0="0.079999998"
       d="m 131.31832,60.491505 c -0.24971,0.871159 -1.38419,0.960417 -2.06086,0.581518 -1.27015,-0.711206 -1.33466,-2.456308 -0.5651,-3.556013 1.18757,-1.697042 3.63999,-1.730947 5.18257,-0.520408 2.14876,1.686242 2.1459,4.905636 0.45844,6.910133 -2.20654,2.621105 -6.2373,2.576908 -8.72098,0.384242 -3.11108,-2.746557 -3.02202,-7.624811 -0.30062,-10.603256 3.30443,-3.616549 9.06103,-3.479778 12.5484,-0.209396 4.1359,3.878549 3.949,10.540646 0.11178,14.54992 -4.46755,4.667848 -12.0595,4.428752 -16.60265,0.0086 -5.2114,-5.070257 -4.91826,-13.614251 0.0993,-18.702401 5.68572,-5.765694 15.20216,-5.416858 20.84571,0.21159 6.33003,6.313086 5.924,16.820927 -0.32775,23.029652 -6.95163,6.903786 -18.46857,6.439177 -25.25169,-0.447468 -7.34806,-7.46021 -7.00243,-19.730387 0.21094,-27.149094" />
    <path
       sodipodi:type="spiral"
       style="fill:#ff00ff;fill-rule:evenodd;stroke:#000000;stroke-width:0.264583"
       id="path5262-2"
       sodipodi:cx="132.28311"
       sodipodi:cy="139.27985"
       sodipodi:expansion="1.22"
       sodipodi:revolution="3.8"
       sodipodi:radius="20.219429"
       sodipodi:argument="-26.195278"
       sodipodi:t0="0.079999998"
       d="m 132.89727,139.97552 c -0.24971,0.87116 -1.38419,0.96041 -2.06086,0.58152 -1.27015,-0.71121 -1.33466,-2.45631 -0.5651,-3.55602 1.18757,-1.69704 3.63999,-1.73094 5.18257,-0.52041 2.14876,1.68625 2.1459,4.90564 0.45844,6.91014 -2.20654,2.6211 -6.2373,2.57691 -8.72098,0.38424 -3.11108,-2.74656 -3.02202,-7.62481 -0.30063,-10.60326 3.30444,-3.61654 9.06104,-3.47977 12.54841,-0.20939 4.13589,3.87855 3.949,10.54064 0.11177,14.54992 -4.46754,4.66785 -12.05949,4.42875 -16.60264,0.009 -5.2114,-5.07026 -4.91826,-13.61425 0.0993,-18.7024 5.68572,-5.76569 15.20216,-5.41686 20.84571,0.21159 6.33003,6.31309 5.924,16.82093 -0.32775,23.02965 -6.95163,6.90379 -18.46857,6.43918 -25.25169,-0.44747 -7.34806,-7.46021 -7.00243,-19.73038 0.21094,-27.14909" />
    <path
       sodipodi:type="star"
       style="opacity:1;fill:#0000d4;stroke-width:1;paint-order:stroke fill markers"
       id="path5243-9-9"
       sodipodi:sides="34"
       sodipodi:cx="-48.683331"
       sodipodi:cy="75.67083"
       sodipodi:r1="35.548817"
       sodipodi:r2="0.35548815"
       sodipodi:arg1="0.79592409"
       sodipodi:arg2="0.88832387"
       inkscape:flatsided="false"
       inkscape:rounded="-0.33"
       inkscape:randomized="0"
       d="m -23.812497,101.07083 c 8.298541,-8.125655 -33.659504,-17.798836 -24.646622,-25.124136 9.012882,-7.325299 9.905583,35.724106 19.555911,29.261656 9.650328,-6.462447 -29.81586,-23.680695 -19.610419,-29.225154 10.205441,-5.54446 3.172635,36.935974 13.84612,32.356814 10.673484,-4.57917 -24.956872,-28.75614 -13.906407,-32.33095 11.050466,-3.57481 -3.668353,36.89004 7.664815,34.35009 11.333168,-2.53995 -19.248007,-32.852319 -7.728827,-34.335744 11.51918,-1.483424 -10.384421,35.587864 1.222494,35.173624 11.606914,-0.41424 -12.883676,-35.829761 -1.288053,-35.171284 11.595622,0.658478 -16.746859,33.073784 -5.261458,34.799354 11.485401,1.72558 -6.080605,-37.587056 5.196585,-34.8091 11.27719,2.777955 -22.539002,29.43341 -11.566236,33.24004 10.972766,3.80663 0.929533,-38.064375 11.504259,-33.261541 10.574727,4.802834 -27.563607,24.790721 -17.47714,30.548781 10.086467,5.75805 7.908016,-37.245462 17.420169,-30.581304 9.512154,6.664157 -31.649567,19.303809 -22.792882,26.817214 8.856685,7.5134 14.617203,-35.158193 22.742857,-26.859652 8.125655,8.298541 -34.657738,13.159532 -27.332439,22.172414 7.3253,9.012878 20.828617,-31.873649 27.291064,-22.223321 6.462448,9.650328 -36.485682,6.567123 -30.941223,16.772564 5.54446,10.205445 26.330738,-27.503691 30.909907,-16.830207 4.579168,10.673484 -37.071151,-0.248921 -33.496341,10.801545 3.57481,11.050465 30.936197,-22.197129 33.476149,-10.863961 2.539952,11.333168 -36.394204,-7.056488 -34.91078,4.462692 1.483424,11.519179 34.488161,-16.13467 34.902401,-4.527755 0.414241,11.606914 -34.477897,-13.623756 -35.136375,-2.028134 -0.658477,11.595623 36.865672,-9.522762 35.140095,1.962639 -1.725578,11.485401 -31.387488,-19.727083 -34.165443,-8.449893 -2.777956,11.27719 37.987767,-2.58657 34.181133,8.386196 -3.806633,10.972766 -27.228213,-25.158627 -32.031047,-14.583901 -4.802835,10.574727 37.816234,4.437705 32.058175,14.524172 -5.758059,10.086467 -22.141716,-29.733425 -28.805874,-20.221271 -6.664157,9.512153 36.356915,11.310859 28.843515,20.167544 -7.5134,8.856685 -16.301209,-33.295686 -24.59975,-25.170031 -8.298541,8.125655 33.659504,17.798836 24.646622,25.124135 -9.012882,7.3253 -9.905583,-35.724103 -19.555911,-29.261656 -9.650328,6.462448 29.81586,23.680695 19.610419,29.225155 -10.205441,5.54446 -3.172635,-36.935979 -13.84612,-32.35681 -10.673484,4.579168 24.956872,28.756136 13.906406,32.330945 -11.050465,3.57481 3.668354,-36.890043 -7.664814,-34.350091 -11.333168,2.539952 19.248007,32.852321 7.728827,34.335745 -11.51918,1.483424 10.38442,-35.587862 -1.222494,-35.173622 -11.606914,0.41424 12.883676,35.82976 1.288053,35.171282 -11.595623,-0.658477 16.746858,-33.073779 5.261457,-34.799357 -11.485401,-1.725577 6.080606,37.58706 -5.196584,34.809104 -11.277191,-2.777956 22.539002,-29.433408 11.566236,-33.240042 -10.972766,-3.806633 -0.929533,38.064377 -11.504259,33.261543 -10.574727,-4.802834 27.563607,-24.790718 17.47714,-30.548777 -10.086467,-5.758058 -7.908016,37.245457 -17.420169,30.5813 -9.512154,-6.664158 31.649567,-19.303809 22.792882,-26.817209 -8.856685,-7.513401 -14.617203,35.158188 -22.742858,26.859646 -8.125654,-8.298541 34.657739,-13.159532 27.33244,-22.172414 -7.3253,-9.012882 -20.828617,31.87365 -27.291064,22.223322 -6.462448,-9.650328 36.485682,-6.567124 30.941223,-16.772565 -5.54446,-10.20544 -26.330738,27.503692 -30.909907,16.830208 -4.579169,-10.673485 37.071151,0.24892 33.496341,-10.801545 -3.57481,-11.050466 -30.936197,22.197129 -33.476149,10.86396 -2.539952,-11.333168 36.394204,7.056489 34.91078,-4.462691 -1.483424,-11.51918 -34.488161,16.134669 -34.902402,4.527755 -0.41424,-11.606915 34.477898,13.623756 35.136376,2.028133 0.658477,-11.595622 -36.865673,9.522763 -35.140095,-1.962638 1.725578,-11.485401 31.387488,19.727083 34.165443,8.449892 2.777956,-11.27719 -37.987767,2.586571 -34.181133,-8.386196 3.806633,-10.972766 27.228213,25.158628 32.031047,14.583901 4.802834,-10.574726 -37.816234,-4.437705 -32.058175,-14.524172 5.758059,-10.086467 22.141716,29.733429 28.805874,20.221272 6.664157,-9.512153 -36.356915,-11.31086 -28.843515,-20.167545 7.5134,-8.856685 16.301209,33.295682 24.59975,25.170032 z"
       transform="matrix(0.53046045,0,0,0.52340269,157.05792,141.36868)" />
    <path
       sodipodi:type="spiral"
       style="fill:#ff00ff;fill-rule:evenodd;stroke:#000000;stroke-width:0.264583"
       id="path5262-2-9"
       sodipodi:cx="131.22478"
       sodipodi:cy="224.47568"
       sodipodi:expansion="1.22"
       sodipodi:revolution="3.8"
       sodipodi:radius="20.219429"
       sodipodi:argument="-26.195278"
       sodipodi:t0="0.079999998"
       d="m 131.83893,225.17135 c -0.2497,0.87116 -1.38418,0.96042 -2.06086,0.58152 -1.27014,-0.71121 -1.33466,-2.45631 -0.5651,-3.55602 1.18758,-1.69704 3.63999,-1.73094 5.18257,-0.5204 2.14876,1.68624 2.1459,4.90563 0.45845,6.91013 -2.20654,2.6211 -6.2373,2.57691 -8.72098,0.38424 -3.11108,-2.74656 -3.02203,-7.62481 -0.30063,-10.60325 3.30443,-3.61655 9.06104,-3.47978 12.54841,-0.2094 4.13589,3.87855 3.949,10.54065 0.11177,14.54992 -4.46754,4.66785 -12.0595,4.42875 -16.60265,0.009 -5.21139,-5.07026 -4.91825,-13.61425 0.0993,-18.7024 5.68572,-5.76569 15.20217,-5.41686 20.84572,0.21159 6.33003,6.31309 5.92399,16.82093 -0.32776,23.02965 -6.95162,6.90379 -18.46857,6.43918 -25.25168,-0.44746 -7.34806,-7.46022 -7.00243,-19.73039 0.21094,-27.1491" />
    <path
       sodipodi:type="star"
       style="opacity:1;fill:#0000d4;stroke-width:1;paint-order:stroke fill markers"
       id="path5243-9-9-1"
       sodipodi:sides="34"
       sodipodi:cx="-48.683331"
       sodipodi:cy="75.67083"
       sodipodi:r1="35.548817"
       sodipodi:r2="0.35548815"
       sodipodi:arg1="0.79592409"
       sodipodi:arg2="0.88832387"
       inkscape:flatsided="false"
       inkscape:rounded="-0.33"
       inkscape:randomized="0"
       d="m -23.812497,101.07083 c 8.298541,-8.125655 -33.659504,-17.798836 -24.646622,-25.124136 9.012882,-7.325299 9.905583,35.724106 19.555911,29.261656 9.650328,-6.462447 -29.81586,-23.680695 -19.610419,-29.225154 10.205441,-5.54446 3.172635,36.935974 13.84612,32.356814 10.673484,-4.57917 -24.956872,-28.75614 -13.906407,-32.33095 11.050466,-3.57481 -3.668353,36.89004 7.664815,34.35009 11.333168,-2.53995 -19.248007,-32.852319 -7.728827,-34.335744 11.51918,-1.483424 -10.384421,35.587864 1.222494,35.173624 11.606914,-0.41424 -12.883676,-35.829761 -1.288053,-35.171284 11.595622,0.658478 -16.746859,33.073784 -5.261458,34.799354 11.485401,1.72558 -6.080605,-37.587056 5.196585,-34.8091 11.27719,2.777955 -22.539002,29.43341 -11.566236,33.24004 10.972766,3.80663 0.929533,-38.064375 11.504259,-33.261541 10.574727,4.802834 -27.563607,24.790721 -17.47714,30.548781 10.086467,5.75805 7.908016,-37.245462 17.420169,-30.581304 9.512154,6.664157 -31.649567,19.303809 -22.792882,26.817214 8.856685,7.5134 14.617203,-35.158193 22.742857,-26.859652 8.125655,8.298541 -34.657738,13.159532 -27.332439,22.172414 7.3253,9.012878 20.828617,-31.873649 27.291064,-22.223321 6.462448,9.650328 -36.485682,6.567123 -30.941223,16.772564 5.54446,10.205445 26.330738,-27.503691 30.909907,-16.830207 4.579168,10.673484 -37.071151,-0.248921 -33.496341,10.801545 3.57481,11.050465 30.936197,-22.197129 33.476149,-10.863961 2.539952,11.333168 -36.394204,-7.056488 -34.91078,4.462692 1.483424,11.519179 34.488161,-16.13467 34.902401,-4.527755 0.414241,11.606914 -34.477897,-13.623756 -35.136375,-2.028134 -0.658477,11.595623 36.865672,-9.522762 35.140095,1.962639 -1.725578,11.485401 -31.387488,-19.727083 -34.165443,-8.449893 -2.777956,11.27719 37.987767,-2.58657 34.181133,8.386196 -3.806633,10.972766 -27.228213,-25.158627 -32.031047,-14.583901 -4.802835,10.574727 37.816234,4.437705 32.058175,14.524172 -5.758059,10.086467 -22.141716,-29.733425 -28.805874,-20.221271 -6.664157,9.512153 36.356915,11.310859 28.843515,20.167544 -7.5134,8.856685 -16.301209,-33.295686 -24.59975,-25.170031 -8.298541,8.125655 33.659504,17.798836 24.646622,25.124135 -9.012882,7.3253 -9.905583,-35.724103 -19.555911,-29.261656 -9.650328,6.462448 29.81586,23.680695 19.610419,29.225155 -10.205441,5.54446 -3.172635,-36.935979 -13.84612,-32.35681 -10.673484,4.579168 24.956872,28.756136 13.906406,32.330945 -11.050465,3.57481 3.668354,-36.890043 -7.664814,-34.350091 -11.333168,2.539952 19.248007,32.852321 7.728827,34.335745 -11.51918,1.483424 10.38442,-35.587862 -1.222494,-35.173622 -11.606914,0.41424 12.883676,35.82976 1.288053,35.171282 -11.595623,-0.658477 16.746858,-33.073779 5.261457,-34.799357 -11.485401,-1.725577 6.080606,37.58706 -5.196584,34.809104 -11.277191,-2.777956 22.539002,-29.433408 11.566236,-33.240042 -10.972766,-3.806633 -0.929533,38.064377 -11.504259,33.261543 -10.574727,-4.802834 27.563607,-24.790718 17.47714,-30.548777 -10.086467,-5.758058 -7.908016,37.245457 -17.420169,30.5813 -9.512154,-6.664158 31.649567,-19.303809 22.792882,-26.817209 -8.856685,-7.513401 -14.617203,35.158188 -22.742858,26.859646 -8.125654,-8.298541 34.657739,-13.159532 27.33244,-22.172414 -7.3253,-9.012882 -20.828617,31.87365 -27.291064,22.223322 -6.462448,-9.650328 36.485682,-6.567124 30.941223,-16.772565 -5.54446,-10.20544 -26.330738,27.503692 -30.909907,16.830208 -4.579169,-10.673485 37.071151,0.24892 33.496341,-10.801545 -3.57481,-11.050466 -30.936197,22.197129 -33.476149,10.86396 -2.539952,-11.333168 36.394204,7.056489 34.91078,-4.462691 -1.483424,-11.51918 -34.488161,16.134669 -34.902402,4.527755 -0.41424,-11.606915 34.477898,13.623756 35.136376,2.028133 0.658477,-11.595622 -36.865673,9.522763 -35.140095,-1.962638 1.725578,-11.485401 31.387488,19.727083 34.165443,8.449892 2.777956,-11.27719 -37.987767,2.586571 -34.181133,-8.386196 3.806633,-10.972766 27.228213,25.158628 32.031047,14.583901 4.802834,-10.574726 -37.816234,-4.437705 -32.058175,-14.524172 5.758059,-10.086467 22.141716,29.733429 28.805874,20.221272 6.664157,-9.512153 -36.356915,-11.31086 -28.843515,-20.167545 7.5134,-8.856685 16.301209,33.295682 24.59975,25.170032 z"
       transform="matrix(0.53046045,0,0,0.52340269,156.52875,224.97702)" />
    <path
       sodipodi:type="star"
       style="opacity:1;fill:#ff00ff;stroke-width:1;paint-order:stroke fill markers"
       id="path5326"
       sodipodi:sides="6"
       sodipodi:cx="-50.270832"
       sodipodi:cy="49.212498"
       sodipodi:r1="28.930468"
       sodipodi:r2="13.59732"
       sodipodi:arg1="0.87605805"
       sodipodi:arg2="1.3996568"
       inkscape:flatsided="false"
       inkscape:rounded="0"
       inkscape:randomized="0"
       d="m -31.749998,71.437499 -16.205138,-8.82632 -12.302694,13.753332 -0.458752,-18.447221 -18.062082,-3.77778 15.746386,-9.620901 -5.759388,-17.531112 16.205138,8.82632 12.302694,-13.753332 0.458752,18.447221 18.062082,3.777779 -15.746386,9.620902 z"
       transform="matrix(0.66588129,0,0,0.66868632,221.32858,26.35894)" />
    <path
       sodipodi:type="star"
       style="opacity:1;fill:#ff00ff;stroke-width:1;paint-order:stroke fill markers"
       id="path5326-9"
       sodipodi:sides="6"
       sodipodi:cx="-50.270832"
       sodipodi:cy="49.212498"
       sodipodi:r1="28.930468"
       sodipodi:r2="13.59732"
       sodipodi:arg1="0.87605805"
       sodipodi:arg2="1.3996568"
       inkscape:flatsided="false"
       inkscape:rounded="0"
       inkscape:randomized="0"
       d="m -31.749998,71.437499 -16.205138,-8.82632 -12.302694,13.753332 -0.458752,-18.447221 -18.062082,-3.77778 15.746386,-9.620901 -5.759388,-17.531112 16.205138,8.82632 12.302694,-13.753332 0.458752,18.447221 18.062082,3.777779 -15.746386,9.620902 z"
       transform="matrix(0.66588129,0,0,0.66868633,220.79941,104.67561)" />
    <path
       sodipodi:type="star"
       style="opacity:1;fill:#ff00ff;stroke-width:1;paint-order:stroke fill markers"
       id="path5326-9-0"
       sodipodi:sides="6"
       sodipodi:cx="-50.270832"
       sodipodi:cy="49.212498"
       sodipodi:r1="28.930468"
       sodipodi:r2="13.59732"
       sodipodi:arg1="0.87605805"
       sodipodi:arg2="1.3996568"
       inkscape:flatsided="false"
       inkscape:rounded="0"
       inkscape:randomized="0"
       d="m -31.749998,71.437499 -16.205138,-8.82632 -12.302694,13.753332 -0.458752,-18.447221 -18.062082,-3.77778 15.746386,-9.620901 -5.759388,-17.531112 16.205138,8.82632 12.302694,-13.753332 0.458752,18.447221 18.062082,3.777779 -15.746386,9.620902 z"
       transform="matrix(0.66588129,0,0,0.66868633,220.27024,194.63394)" />
    <path
       sodipodi:type="star"
       style="opacity:1;fill:#0000ff;stroke-width:1;paint-order:stroke fill markers"
       id="path5358"
       sodipodi:sides="3"
       sodipodi:cx="-68.262497"
       sodipodi:cy="56.620834"
       sodipodi:r1="33.320698"
       sodipodi:r2="15.660727"
       sodipodi:arg1="0.81909327"
       sodipodi:arg2="1.8662908"
       inkscape:flatsided="false"
       inkscape:rounded="0"
       inkscape:randomized="0"
       d="m -45.50833,80.962502 -27.314773,-9.359704 -27.896977,-7.44711 21.763125,-18.975436 20.397877,-20.435938 5.551645,28.335139 z"
       transform="matrix(0.71247064,0,0,0.66114169,237.74002,-13.311018)" />
    <path
       sodipodi:type="star"
       style="opacity:1;fill:#0000ff;stroke-width:1;paint-order:stroke fill markers"
       id="path5358-4"
       sodipodi:sides="3"
       sodipodi:cx="-68.262497"
       sodipodi:cy="56.620834"
       sodipodi:r1="33.320698"
       sodipodi:r2="15.660727"
       sodipodi:arg1="0.81909327"
       sodipodi:arg2="1.8662908"
       inkscape:flatsided="false"
       inkscape:rounded="0"
       inkscape:randomized="0"
       d="m -45.50833,80.962502 -27.314773,-9.359704 -27.896977,-7.44711 21.763125,-18.975436 20.397877,-20.435938 5.551645,28.335139 z"
       transform="matrix(0.71247063,0,0,0.66114168,238.92725,66.712383)" />
    <path
       sodipodi:type="star"
       style="opacity:1;fill:#0000ff;stroke-width:1;paint-order:stroke fill markers"
       id="path5358-4-5"
       sodipodi:sides="3"
       sodipodi:cx="-68.262497"
       sodipodi:cy="56.620834"
       sodipodi:r1="33.320698"
       sodipodi:r2="15.660727"
       sodipodi:arg1="0.81909327"
       sodipodi:arg2="1.8662908"
       inkscape:flatsided="false"
       inkscape:rounded="0"
       inkscape:randomized="0"
       d="m -45.50833,80.962502 -27.314773,-9.359704 -27.896977,-7.44711 21.763125,-18.975436 20.397877,-20.435938 5.551645,28.335139 z"
       transform="matrix(0.71247063,0,0,0.66114168,238.41802,147.28352)" />
    <path
       sodipodi:type="star"
       style="opacity:1;fill:#0000ff;stroke-width:1;paint-order:stroke fill markers"
       id="path5358-4-2"
       sodipodi:sides="3"
       sodipodi:cx="-68.262497"
       sodipodi:cy="56.620834"
       sodipodi:r1="33.320698"
       sodipodi:r2="15.660727"
       sodipodi:arg1="0.81909327"
       sodipodi:arg2="1.8662908"
       inkscape:flatsided="false"
       inkscape:rounded="0"
       inkscape:randomized="0"
       d="m -45.50833,80.962502 -27.314773,-9.359704 -27.896977,-7.44711 21.763125,-18.975436 20.397877,-20.435938 5.551645,28.335139 z"
       transform="matrix(0.71247063,0,0,0.66114168,239.90863,234.11157)" />
  </g>
</svg>
