<?xml version="1.0" encoding="UTF-8" standalone="no"?>
<svg
   xmlns:dc="http://purl.org/dc/elements/1.1/"
   xmlns:cc="http://creativecommons.org/ns#"
   xmlns:rdf="http://www.w3.org/1999/02/22-rdf-syntax-ns#"
   xmlns:svg="http://www.w3.org/2000/svg"
   xmlns="http://www.w3.org/2000/svg"
   xmlns:sodipodi="http://sodipodi.sourceforge.net/DTD/sodipodi-0.dtd"
   xmlns:inkscape="http://www.inkscape.org/namespaces/inkscape"
   version="1.1"
   id="Layer_1"
   x="0px"
   y="0px"
   viewBox="0 0 1000 1000"
   style="enable-background:new 0 0 1000 1000;"
   xml:space="preserve"
   sodipodi:docname="4.svg"
   inkscape:version="1.0.1 (c497b03c, 2020-09-10)"><metadata
   id="metadata3850"><rdf:RDF><cc:Work
       rdf:about=""><dc:format>image/svg+xml</dc:format><dc:type
         rdf:resource="http://purl.org/dc/dcmitype/StillImage" /></cc:Work></rdf:RDF></metadata><defs
   id="defs3848" /><sodipodi:namedview
   pagecolor="#ffffff"
   bordercolor="#666666"
   borderopacity="1"
   objecttolerance="10"
   gridtolerance="10"
   guidetolerance="10"
   inkscape:pageopacity="0"
   inkscape:pageshadow="2"
   inkscape:window-width="2560"
   inkscape:window-height="1440"
   id="namedview3846"
   showgrid="false"
   inkscape:zoom="1.008"
   inkscape:cx="500"
   inkscape:cy="500"
   inkscape:window-x="0"
   inkscape:window-y="0"
   inkscape:window-maximized="0"
   inkscape:current-layer="Layer_1" />
<style
   type="text/css"
   id="style3513">
	.st0{fill:url(#SVGID_1_);}
	.st1{fill:url(#SVGID_2_);}
	.st2{fill:url(#SVGID_3_);}
	.st3{fill:url(#SVGID_4_);}
	.st4{fill:url(#SVGID_5_);}
	.st5{fill:url(#SVGID_6_);}
	.st6{fill:url(#SVGID_7_);}
	.st7{fill:url(#SVGID_8_);}
	.st8{fill:url(#SVGID_9_);}
	.st9{fill:url(#SVGID_10_);}
	.st10{fill:url(#SVGID_11_);}
	.st11{fill:url(#SVGID_12_);}
	.st12{fill:url(#SVGID_13_);}
	.st13{fill:#FFFFFF;stroke:#FFFFFF;stroke-miterlimit:10;}
	.st14{fill:url(#SVGID_14_);}
	.st15{fill:#623D00;}
	.st16{fill:#FFFFFF;}
	.st17{fill:#F39200;}
	.st18{fill:#D42D16;}
	.st19{opacity:0.32;}
</style>
<g
   id="g3532">
	<radialGradient
   id="SVGID_1_"
   cx="356.195"
   cy="259.0918"
   r="131.8498"
   gradientUnits="userSpaceOnUse">
		<stop
   offset="0"
   style="stop-color:#FCEA10"
   id="stop3515" />
		<stop
   offset="0.1938"
   style="stop-color:#FCE80E"
   id="stop3517" />
		<stop
   offset="0.3655"
   style="stop-color:#FCE20B"
   id="stop3519" />
		<stop
   offset="0.5288"
   style="stop-color:#FBD705"
   id="stop3521" />
		<stop
   offset="0.687"
   style="stop-color:#F9C600"
   id="stop3523" />
		<stop
   offset="0.84"
   style="stop-color:#F7AF00"
   id="stop3525" />
		<stop
   offset="0.9808"
   style="stop-color:#F39200"
   id="stop3527" />
	</radialGradient>
	<path
   class="st0"
   d="M284.1,393.7c-42.3-79.3-61.9-170.6-55.8-260.4c0.2-2.4,0.4-5,2-6.7c2-2.1,5.3-2.3,8.2-2.2   c92.1,1.8,182.5,46.4,240,118.4c3,3.7,6,7.8,6.6,12.5c0.9,7.4-4.1,14.1-9.1,19.5c-16.1,17.6-35.2,32.2-54.2,46.7   c-39.8,30.4-81.4,61.6-130.4,71.6L284.1,393.7z"
   id="path3530" />
</g>
<g
   id="g3551">
	
		<radialGradient
   id="SVGID_2_"
   cx="679.2969"
   cy="759.3265"
   r="134.6858"
   gradientTransform="matrix(-0.8586 -0.6278 0.6545 -0.895 556.0159 1874.3097)"
   gradientUnits="userSpaceOnUse">
		<stop
   offset="0"
   style="stop-color:#FCEA10"
   id="stop3534" />
		<stop
   offset="0.1938"
   style="stop-color:#FCE80E"
   id="stop3536" />
		<stop
   offset="0.3655"
   style="stop-color:#FCE20B"
   id="stop3538" />
		<stop
   offset="0.5288"
   style="stop-color:#FBD705"
   id="stop3540" />
		<stop
   offset="0.687"
   style="stop-color:#F9C600"
   id="stop3542" />
		<stop
   offset="0.84"
   style="stop-color:#F7AF00"
   id="stop3544" />
		<stop
   offset="0.9808"
   style="stop-color:#F39200"
   id="stop3546" />
	</radialGradient>
	<path
   class="st1"
   d="M618,688.8c-15.6,97.6-42.7,183.5-106.6,259.9c-1.7,2-19.5,12.3-22,12.8c-3.1,0.7-36.8-18.1-39.2-20   c-77.9-59.5-95.5-139.3-97.8-239.8c-0.1-5.2,0-10.7,2.5-15.3c4-7.2,12.7-10,20.6-11.8c25.4-5.6,51.3-6.7,77-7.8   c54-2.2,110.2-4,158.8,17.8L618,688.8z"
   id="path3549" />
</g>
<radialGradient
   id="SVGID_3_"
   cx="523.3901"
   cy="211.6935"
   r="92.7076"
   gradientTransform="matrix(1.4344 0 0 1.3699 -189.77 -107.7486)"
   gradientUnits="userSpaceOnUse">
	<stop
   offset="0"
   style="stop-color:#FCEA10"
   id="stop3553" />
	<stop
   offset="0.1938"
   style="stop-color:#FCE80E"
   id="stop3555" />
	<stop
   offset="0.3655"
   style="stop-color:#FCE20B"
   id="stop3557" />
	<stop
   offset="0.5288"
   style="stop-color:#FBD705"
   id="stop3559" />
	<stop
   offset="0.687"
   style="stop-color:#F9C600"
   id="stop3561" />
	<stop
   offset="0.84"
   style="stop-color:#F7AF00"
   id="stop3563" />
	<stop
   offset="0.9808"
   style="stop-color:#F39200"
   id="stop3565" />
</radialGradient>
<path
   class="st2"
   d="M457.3,281.6c-14-25.2-5.1-58.3,7.1-103.3c7.7-28.5,17.6-48.6,25.9-65.1c22.3-44.6,33.5-66.9,54.1-74.1  c32.2-11.3,61.5,30,78.6,54.9c18,26.1,14.7,14.5,36.6,77.6c23.6,67.9,8.2,107.6-4.7,123.5C614.7,344.6,486.9,334.9,457.3,281.6z"
   id="path3568" />
<radialGradient
   id="SVGID_4_"
   cx="652.968"
   cy="523.4535"
   r="92.7076"
   gradientTransform="matrix(-1.4032 0.9953 -0.872 -1.2294 2048.0449 712.2221)"
   gradientUnits="userSpaceOnUse">
	<stop
   offset="0"
   style="stop-color:#FCEA10"
   id="stop3570" />
	<stop
   offset="0.1938"
   style="stop-color:#FCE80E"
   id="stop3572" />
	<stop
   offset="0.3655"
   style="stop-color:#FCE20B"
   id="stop3574" />
	<stop
   offset="0.5288"
   style="stop-color:#FBD705"
   id="stop3576" />
	<stop
   offset="0.687"
   style="stop-color:#F9C600"
   id="stop3578" />
	<stop
   offset="0.84"
   style="stop-color:#F7AF00"
   id="stop3580" />
	<stop
   offset="0.9808"
   style="stop-color:#F39200"
   id="stop3582" />
</radialGradient>
<path
   class="st3"
   d="M713.5,557.5c29.7,12.9,42.1,48.8,58.9,97.6c10.6,30.9,13.7,55.8,16.2,76.4c6.6,55.5,9.8,83.2-5.7,104  c-24.3,32.5-79.2,15.7-111.8,5.3c-34.2-11-23.5-2.8-85.2-44.2c-66.4-44.6-76.5-90.9-74-114.1C519.5,610.3,650.7,530.3,713.5,557.5z"
   id="path3585" />
<radialGradient
   id="SVGID_5_"
   cx="752.8871"
   cy="291.2902"
   r="127.9385"
   gradientUnits="userSpaceOnUse">
	<stop
   offset="0"
   style="stop-color:#FCEA10"
   id="stop3587" />
	<stop
   offset="0.1938"
   style="stop-color:#FCE80E"
   id="stop3589" />
	<stop
   offset="0.3655"
   style="stop-color:#FCE20B"
   id="stop3591" />
	<stop
   offset="0.5288"
   style="stop-color:#FBD705"
   id="stop3593" />
	<stop
   offset="0.687"
   style="stop-color:#F9C600"
   id="stop3595" />
	<stop
   offset="0.84"
   style="stop-color:#F7AF00"
   id="stop3597" />
	<stop
   offset="0.9808"
   style="stop-color:#F39200"
   id="stop3599" />
</radialGradient>
<path
   class="st4"
   d="M644.2,290.4c3.5-15.3,13.1-27.7,31.1-50.8c25.3-32.4,50.9-50.3,59-55.7c22-14.8,40.1-21.6,52.5-26.2  c22.2-8.3,33.5-12.3,44.3-8.2c19.9,7.6,26.2,35,29.5,49.2c2.3,10.2,4.1,24,0,57.4c-3,24.6-5.8,47.1-14.8,73.8  c-13.5,40.1-31.3,93.1-67.2,103.3C721.2,449.3,630,352.8,644.2,290.4z"
   id="path3602" />
<radialGradient
   id="SVGID_6_"
   cx="494.5247"
   cy="435.9157"
   r="127.9385"
   gradientTransform="matrix(-0.9162 -0.4007 0.4007 -0.9162 556.8666 1290.1888)"
   gradientUnits="userSpaceOnUse">
	<stop
   offset="0"
   style="stop-color:#FCEA10"
   id="stop3604" />
	<stop
   offset="0.1938"
   style="stop-color:#FCE80E"
   id="stop3606" />
	<stop
   offset="0.3655"
   style="stop-color:#FCE20B"
   id="stop3608" />
	<stop
   offset="0.5288"
   style="stop-color:#FBD705"
   id="stop3610" />
	<stop
   offset="0.687"
   style="stop-color:#F9C600"
   id="stop3612" />
	<stop
   offset="0.84"
   style="stop-color:#F7AF00"
   id="stop3614" />
	<stop
   offset="0.9808"
   style="stop-color:#F39200"
   id="stop3616" />
</radialGradient>
<path
   class="st5"
   d="M377.7,737c-9.3,12.7-23.2,20.1-48.9,34.1c-36.1,19.6-66.8,25.7-76.4,27.4c-26.1,4.7-45.4,3.7-58.6,3  c-23.6-1.3-35.6-2.2-43.8-10.2c-15.2-15-10-42.6-7.3-56.9c1.9-10.3,5.8-23.6,23-52.6c12.6-21.3,24.2-40.9,43.1-61.7  c28.4-31.3,66-72.7,103-67.7C370.8,560.5,415.7,685.5,377.7,737z"
   id="path3619" />
<radialGradient
   id="SVGID_7_"
   cx="845.3788"
   cy="540.8652"
   r="135.8215"
   gradientUnits="userSpaceOnUse">
	<stop
   offset="0"
   style="stop-color:#FCEA10"
   id="stop3621" />
	<stop
   offset="0.1938"
   style="stop-color:#FCE80E"
   id="stop3623" />
	<stop
   offset="0.3655"
   style="stop-color:#FCE20B"
   id="stop3625" />
	<stop
   offset="0.5288"
   style="stop-color:#FBD705"
   id="stop3627" />
	<stop
   offset="0.687"
   style="stop-color:#F9C600"
   id="stop3629" />
	<stop
   offset="0.84"
   style="stop-color:#F7AF00"
   id="stop3631" />
	<stop
   offset="0.9808"
   style="stop-color:#F39200"
   id="stop3633" />
</radialGradient>
<path
   class="st6"
   d="M760.9,427.4c5.2-1.5,7.1-0.9,91.8,18c44.3,9.9,57.1,23.7,71,31.4c30.8,17.2,43.5,29.6,52,42.3  c16.1,24.2,28.5,42.9,23,62.3c-5.6,19.5-26.5,29-54.1,41c-38.1,16.6-70.7,21-86.9,23c-81.9,9.9-122.9,14.8-141,0  C663,601.4,700.1,444.9,760.9,427.4z"
   id="path3636" />
<radialGradient
   id="SVGID_8_"
   cx="430.2001"
   cy="477.4636"
   r="135.8215"
   gradientTransform="matrix(-0.9941 0.1084 -0.1084 -0.9941 684.1394 916.0447)"
   gradientUnits="userSpaceOnUse">
	<stop
   offset="0"
   style="stop-color:#FCEA10"
   id="stop3638" />
	<stop
   offset="0.1938"
   style="stop-color:#FCE80E"
   id="stop3640" />
	<stop
   offset="0.3655"
   style="stop-color:#FCE20B"
   id="stop3642" />
	<stop
   offset="0.5288"
   style="stop-color:#FBD705"
   id="stop3644" />
	<stop
   offset="0.687"
   style="stop-color:#F9C600"
   id="stop3646" />
	<stop
   offset="0.84"
   style="stop-color:#F7AF00"
   id="stop3648" />
	<stop
   offset="0.9808"
   style="stop-color:#F39200"
   id="stop3650" />
</radialGradient>
<path
   class="st7"
   d="M300.9,591.7c-5,2.1-6.9,1.7-93.2-8c-45.1-5.1-59.3-17.3-73.9-23.6c-32.5-13.8-46.5-24.7-56.3-36.4  c-18.6-22.3-33-39.6-29.6-59.4c3.5-20,23.2-31.7,49.3-46.6c36-20.6,68-28.5,83.9-32.2c80.4-18.7,120.6-28.1,140.2-15.3  C379.5,408.1,359.6,567.7,300.9,591.7z"
   id="path3653" />
<radialGradient
   id="SVGID_9_"
   cx="511.4099"
   cy="516.9016"
   r="321.737"
   gradientUnits="userSpaceOnUse">
	<stop
   offset="0"
   style="stop-color:#FCEA10"
   id="stop3655" />
	<stop
   offset="0.1938"
   style="stop-color:#FCE80E"
   id="stop3657" />
	<stop
   offset="0.3655"
   style="stop-color:#FCE20B"
   id="stop3659" />
	<stop
   offset="0.5288"
   style="stop-color:#FBD705"
   id="stop3661" />
	<stop
   offset="0.687"
   style="stop-color:#F9C600"
   id="stop3663" />
	<stop
   offset="0.84"
   style="stop-color:#F7AF00"
   id="stop3665" />
	<stop
   offset="0.9808"
   style="stop-color:#F39200"
   id="stop3667" />
</radialGradient>
<circle
   class="st8"
   cx="511.4"
   cy="516.9"
   r="285.2"
   id="circle3670" />
<radialGradient
   id="SVGID_10_"
   cx="576.8443"
   cy="516.8018"
   r="89.3981"
   gradientUnits="userSpaceOnUse">
	<stop
   offset="0"
   style="stop-color:#FCEA10"
   id="stop3672" />
	<stop
   offset="0.1977"
   style="stop-color:#FCE80E"
   id="stop3674" />
	<stop
   offset="0.3727"
   style="stop-color:#FCE20B"
   id="stop3676" />
	<stop
   offset="0.5392"
   style="stop-color:#FBD705"
   id="stop3678" />
	<stop
   offset="0.7005"
   style="stop-color:#F9C600"
   id="stop3680" />
	<stop
   offset="0.8565"
   style="stop-color:#F7AF00"
   id="stop3682" />
	<stop
   offset="1"
   style="stop-color:#F39200"
   id="stop3684" />
</radialGradient>
<circle
   class="st9"
   cx="576.8"
   cy="516.8"
   r="75.9"
   id="circle3687" />
<radialGradient
   id="SVGID_11_"
   cx="422.8787"
   cy="434.8175"
   r="56.6046"
   gradientUnits="userSpaceOnUse">
	<stop
   offset="0.431"
   style="stop-color:#FFFFFF"
   id="stop3689" />
	<stop
   offset="0.6747"
   style="stop-color:#FEFEFE"
   id="stop3691" />
	<stop
   offset="0.7625"
   style="stop-color:#F9F9F9"
   id="stop3693" />
	<stop
   offset="0.8251"
   style="stop-color:#F0F0F0"
   id="stop3695" />
	<stop
   offset="0.8757"
   style="stop-color:#E4E4E4"
   id="stop3697" />
	<stop
   offset="0.919"
   style="stop-color:#D4D4D3"
   id="stop3699" />
	<stop
   offset="0.9573"
   style="stop-color:#BFBEBE"
   id="stop3701" />
	<stop
   offset="0.9912"
   style="stop-color:#A5A5A5"
   id="stop3703" />
	<stop
   offset="1"
   style="stop-color:#9D9D9C"
   id="stop3705" />
</radialGradient>
<circle
   class="st10"
   cx="422.9"
   cy="434.8"
   r="56.6"
   id="circle3708" />
<radialGradient
   id="SVGID_12_"
   cx="699.3263"
   cy="420.8182"
   r="56.6046"
   gradientUnits="userSpaceOnUse">
	<stop
   offset="0.431"
   style="stop-color:#FFFFFF"
   id="stop3710" />
	<stop
   offset="0.6747"
   style="stop-color:#FEFEFE"
   id="stop3712" />
	<stop
   offset="0.7625"
   style="stop-color:#F9F9F9"
   id="stop3714" />
	<stop
   offset="0.8251"
   style="stop-color:#F0F0F0"
   id="stop3716" />
	<stop
   offset="0.8757"
   style="stop-color:#E4E4E4"
   id="stop3718" />
	<stop
   offset="0.919"
   style="stop-color:#D4D4D3"
   id="stop3720" />
	<stop
   offset="0.9573"
   style="stop-color:#BFBEBE"
   id="stop3722" />
	<stop
   offset="0.9912"
   style="stop-color:#A5A5A5"
   id="stop3724" />
	<stop
   offset="1"
   style="stop-color:#9D9D9C"
   id="stop3726" />
</radialGradient>
<circle
   class="st11"
   cx="699.3"
   cy="420.8"
   r="56.6"
   id="circle3729" />
<g
   id="g3758">
	<radialGradient
   id="SVGID_13_"
   cx="422.8787"
   cy="426.9036"
   r="38.5454"
   gradientUnits="userSpaceOnUse">
		<stop
   offset="0.431"
   style="stop-color:#1D71B8"
   id="stop3731" />
		<stop
   offset="0.6747"
   style="stop-color:#1E6FB6"
   id="stop3733" />
		<stop
   offset="0.7625"
   style="stop-color:#216AB0"
   id="stop3735" />
		<stop
   offset="0.8251"
   style="stop-color:#2561A5"
   id="stop3737" />
		<stop
   offset="0.8757"
   style="stop-color:#295697"
   id="stop3739" />
		<stop
   offset="0.919"
   style="stop-color:#2B4786"
   id="stop3741" />
		<stop
   offset="0.9573"
   style="stop-color:#2C3673"
   id="stop3743" />
		<stop
   offset="0.9912"
   style="stop-color:#2A2761"
   id="stop3745" />
		<stop
   offset="1"
   style="stop-color:#29235C"
   id="stop3747" />
	</radialGradient>
	<circle
   class="st12"
   cx="422.9"
   cy="426.9"
   r="38.5"
   id="circle3750" />
	<circle
   cx="422.9"
   cy="426.9"
   r="21"
   id="circle3752" />
	<circle
   class="st13"
   cx="436.3"
   cy="414.2"
   r="11.6"
   id="circle3754" />
	<circle
   class="st13"
   cx="445"
   cy="441.9"
   r="7.1"
   id="circle3756" />
</g>
<g
   id="g3787">
	<radialGradient
   id="SVGID_14_"
   cx="705.522"
   cy="415.0768"
   r="38.5454"
   gradientUnits="userSpaceOnUse">
		<stop
   offset="0.431"
   style="stop-color:#1D71B8"
   id="stop3760" />
		<stop
   offset="0.6747"
   style="stop-color:#1E6FB6"
   id="stop3762" />
		<stop
   offset="0.7625"
   style="stop-color:#216AB0"
   id="stop3764" />
		<stop
   offset="0.8251"
   style="stop-color:#2561A5"
   id="stop3766" />
		<stop
   offset="0.8757"
   style="stop-color:#295697"
   id="stop3768" />
		<stop
   offset="0.919"
   style="stop-color:#2B4786"
   id="stop3770" />
		<stop
   offset="0.9573"
   style="stop-color:#2C3673"
   id="stop3772" />
		<stop
   offset="0.9912"
   style="stop-color:#2A2761"
   id="stop3774" />
		<stop
   offset="1"
   style="stop-color:#29235C"
   id="stop3776" />
	</radialGradient>
	<circle
   class="st14"
   cx="705.5"
   cy="415.1"
   r="38.5"
   id="circle3779" />
	<circle
   cx="705.5"
   cy="415.1"
   r="21"
   id="circle3781" />
	<circle
   class="st13"
   cx="718.9"
   cy="402.4"
   r="11.6"
   id="circle3783" />
	<circle
   class="st13"
   cx="727.7"
   cy="430"
   r="7.1"
   id="circle3785" />
</g>
<g
   id="g3793">
	<g
   id="g3791">
		<path
   class="st15"
   d="M433.5,309c-27.8,7.1-53.2,22.1-72.7,43.2c-6.6,7.1,4,17.7,10.6,10.6c17.9-19.2,40.7-32.8,66.1-39.3    C446.9,321,442.9,306.6,433.5,309L433.5,309z"
   id="path3789" />
	</g>
</g>
<g
   id="g3799">
	<g
   id="g3797">
		<path
   class="st15"
   d="M606.9,311.4c21.7-4.9,43.9-0.1,65.1,5.1c9.4,2.3,13.4-12.2,4-14.5c-24-5.9-48.6-10.7-73.1-5.1    C593.5,299.1,597.4,313.6,606.9,311.4L606.9,311.4z"
   id="path3795" />
	</g>
</g>
<g
   id="g3803">
	<path
   class="st15"
   d="M409.6,615.1c102.5,17.7,209.2,10.9,308.7-19.6c-3.3,29.3-19.5,55.6-38.4,78.1c-22.7,27.2-51.4,51.4-86,59.4   c-46.5,10.7-94.8-9.8-134-37.1c-14.6-10.2-28.6-21.5-39.2-35.8c-10.6-14.3-17.7-31.7-16.9-49.5L409.6,615.1z"
   id="path3801" />
</g>
<g
   id="g3807">
	<path
   class="st16"
   d="M565,622.2c-48.1,3.2-96.6,1.3-144.2-5.8c9.9,13.1,22.7,23.7,36.1,33.3c1.3,0.2,2.5,0.6,3.8,1   c2.7,0.9,5.3,2.1,8,3.2c1.9,0.6,3.7,1.3,5.5,2.1c0.8,0.4,1.6,0.8,2.4,1.3c12.5,1.8,25,3.8,37.5,5.4c15.8,2.1,31.5,3.4,47.4,4.1   c0.1,0,0.3,0,0.4,0c0.1,0,0.1,0,0.2,0c0.4,0,0.7,0,1.1,0c0.1-7.6,0.2-15.1,0.5-22.7c-0.1-2-0.1-4.1-0.1-6.1   c0.1-4.8,0.4-9.7,1.4-14.4C564.9,623.2,564.9,622.7,565,622.2z"
   id="path3805" />
</g>
<g
   id="g3811">
	<path
   class="st16"
   d="M662.2,644.6c1.4-1,2.9-1.8,4.4-2.6c1.1-0.8,2.3-1.4,3.5-2c3.2-3.5,6.4-7,9.4-10.6c8-9.5,15.4-19.7,21.7-30.5   c-41.8,11.8-84.7,19.4-128,22.9c0,0.4,0,0.8-0.1,1.2c0,0.2,0,0.5,0,0.7c-0.1,1.7-0.2,3.4-0.2,5.1c-0.4,11.9,0.1,23.7,1.1,35.6   c0.1,0.9,0.2,1.7,0.2,2.6c2.8-0.1,5.6-0.3,8.4-0.5c7.8-0.6,15.6-1.7,23.2-3.2c7.3-1.4,14.6-2.9,21.9-4.7c0.2-0.1,1.3-0.3,1.9-0.5   c0.2,0,0.3-0.1,0.4-0.1c1.6-0.4,3.2-0.9,4.8-1.3c3.2-0.9,6.3-1.9,9.5-2.9c4.4-1.4,8.8-3,13.2-4.6   C658.9,647.4,660.3,645.9,662.2,644.6z"
   id="path3809" />
</g>


<g
   id="g3829">
	<g
   id="g3827">
		<path
   class="st17"
   d="M623.3,740c0.5-1.4-1.8-1.9-2.8-2.1c-2.1-0.4-4.1-0.2-6.2,0c-3.8,0.4-7.6,1-11.4,1.6    c-7.7,1.4-15.2,3.3-22.6,5.7c-14.6,4.8-28.5,11.7-41.3,20.3c-3.6,2.4-7.1,5-10.5,7.8c-0.9,0.7-1.7,1.4-2.6,2.1    c-0.5,0.4-1,0.7-0.3,1c1,0.5,2.9,0.5,4.1,0.4c0.6-0.1,1.3-0.2,1.6-0.8c0.2-0.3-2.3-0.6-2.5-0.6c-0.5,0-2.2-0.3-2.5,0.3    c-0.5,0.6,0,0.7,1.6,0.2c0.8,0.2,1.6,0.3,2.4,0.5c0.2,0.1,3.2-2.7,3.6-3c1.3-1.1,2.6-2.1,4-3.1c2.6-1.9,5.2-3.8,7.9-5.6    c5.5-3.6,11.2-6.9,17.1-9.9c11.8-5.9,24.4-10.4,37.3-13.3c3.6-0.8,7.2-1.5,10.8-2c1.8-0.3,3.6-0.5,5.4-0.7c1-0.1,2-0.2,2.9-0.3    c0.1,0,0.3,0,0.4,0c-1.7-0.4-2.2-0.4-1.5,0c0.2,0.4,0.3,0.4,0.2,0.9C618.3,740,623,741,623.3,740L623.3,740z"
   id="path3825" />
	</g>
</g>
<path
   class="st18"
   d="M605.9,693.8c-12.6,0-24.4,3.6-34.3,9.9c-11.7-11.8-28-19.2-45.9-19.2c-19.6,0-37.2,8.7-49,22.5  c35.7,21.4,76.9,35.2,116.9,26c19.1-4.4,36.4-13.7,51.8-25.8C634.4,698.8,620.8,693.8,605.9,693.8z"
   id="path3831" />
<g
   class="st19"
   id="g3837">
	<g
   id="g3835">
		<path
   class="st16"
   d="M503.2,707.4c7.2-3.3,14.9-4.5,22.7-4.3c9.7,0.3,9.6-14.7,0-15c-10.6-0.3-20.7,2-30.3,6.4    c-3.7,1.7-4.5,7-2.7,10.3C495.2,708.5,499.6,709.1,503.2,707.4L503.2,707.4z"
   id="path3833" />
	</g>
</g>
<g
   class="st19"
   id="g3843">
	<g
   id="g3841">
		<path
   class="st16"
   d="M544.2,707.9c9.7,0,9.7-15,0-15C534.5,692.9,534.5,707.9,544.2,707.9L544.2,707.9z"
   id="path3839" />
	</g>
</g>
</svg>
